<svg width="58" height="58" viewBox="0 0 58 58" fill="none" xmlns="http://www.w3.org/2000/svg">
<g filter="url(#filter0_d_67_582)">
<rect x="4" width="50" height="50" rx="15" fill="white"/>
</g>
<path d="M29.1841 36.512C28.6721 36.512 28.2401 36.336 27.8881 35.984C27.5361 35.632 27.3601 35.184 27.3601 34.64V27.104H19.8241C19.3121 27.104 18.8801 26.928 18.5281 26.576C18.1761 26.224 18.0001 25.776 18.0001 25.232C18.0001 24.72 18.1761 24.288 18.5281 23.936C18.8801 23.552 19.3121 23.36 19.8241 23.36H27.3601V15.824C27.3601 15.312 27.5361 14.88 27.8881 14.528C28.2401 14.176 28.6721 14 29.1841 14C29.7281 14 30.1761 14.176 30.5281 14.528C30.8801 14.88 31.0561 15.312 31.0561 15.824V23.36H38.5921C39.1041 23.36 39.5361 23.552 39.8881 23.936C40.2721 24.288 40.4641 24.72 40.4641 25.232C40.4641 25.776 40.2721 26.224 39.8881 26.576C39.5361 26.928 39.1041 27.104 38.5921 27.104H31.0561V34.64C31.0561 35.184 30.8801 35.632 30.5281 35.984C30.1761 36.336 29.7281 36.512 29.1841 36.512Z" fill="#48A069"/>
<defs>
<filter id="filter0_d_67_582" x="0" y="0" width="58" height="58" filterUnits="userSpaceOnUse" color-interpolation-filters="sRGB">
<feFlood flood-opacity="0" result="BackgroundImageFix"/>
<feColorMatrix in="SourceAlpha" type="matrix" values="0 0 0 0 0 0 0 0 0 0 0 0 0 0 0 0 0 0 127 0" result="hardAlpha"/>
<feOffset dy="4"/>
<feGaussianBlur stdDeviation="2"/>
<feColorMatrix type="matrix" values="0 0 0 0 0 0 0 0 0 0 0 0 0 0 0 0 0 0 0.25 0"/>
<feBlend mode="normal" in2="BackgroundImageFix" result="effect1_dropShadow_67_582"/>
<feBlend mode="normal" in="SourceGraphic" in2="effect1_dropShadow_67_582" result="shape"/>
</filter>
</defs>
</svg>
