<svg width="58" height="58" viewBox="0 0 58 58" fill="none" xmlns="http://www.w3.org/2000/svg">
<g filter="url(#filter0_d_318_101)">
<rect x="4" width="50" height="50" rx="15" fill="#48A069"/>
</g>
<path fill-rule="evenodd" clip-rule="evenodd" d="M19 21.9231V15H25.9231V21.9231H19ZM27.4615 16.5385V15H29V16.5385H27.4615ZM29 21.1538H27.4615V18.0769H29V16.5385H30.5385V19.6154H29V21.1538ZM34.3846 25V23.4615H30.5385V21.1538H29V23.4615H22.0769V25H20.5385V23.4615H19V25H20.5385V26.5385H23.6154V25H25.1538V26.5385H29V25H30.5385V26.5385H32.8462V25H34.3846ZM34.3846 25H35.9231V23.4615H37.4615V25H39V26.5385H34.3846V25ZM32.0769 15V21.9231H39V15H32.0769ZM24.3846 16.5385H20.5385V20.3846H24.3846V16.5385ZM33.6154 16.5385H37.4615V20.3846H33.6154V16.5385ZM21.3077 19.6154V17.3077H23.6154V19.6154H21.3077ZM34.3846 17.3077V19.6154H36.6923V17.3077H34.3846ZM29 28.8462H27.4615V27.3077H29V28.8462ZM37.4615 33.4615V31.9231H39V28.8462H37.4615V27.3077H32.0769V28.8462H29V30.3846H27.4615V33.4615H29V35H30.5385V33.4615H29V31.9231H32.0769V35H33.6154V33.4615H35.1538V35H36.6923V33.4615H37.4615ZM37.4615 33.4615H39V35H37.4615V33.4615ZM35.1538 33.4615V31.9231H35.9231V33.4615H35.1538ZM33.6154 30.3846V31.9231H32.0769V30.3846H33.6154ZM33.6154 30.3846V28.8462H35.1538V30.3846H33.6154ZM19 35V28.0769H25.9231V35H19ZM20.5385 29.6154H24.3846V33.4615H20.5385V29.6154ZM21.3077 32.6923V30.3846H23.6154V32.6923H21.3077Z" fill="white"/>
<defs>
<filter id="filter0_d_318_101" x="0" y="0" width="58" height="58" filterUnits="userSpaceOnUse" color-interpolation-filters="sRGB">
<feFlood flood-opacity="0" result="BackgroundImageFix"/>
<feColorMatrix in="SourceAlpha" type="matrix" values="0 0 0 0 0 0 0 0 0 0 0 0 0 0 0 0 0 0 127 0" result="hardAlpha"/>
<feOffset dy="4"/>
<feGaussianBlur stdDeviation="2"/>
<feColorMatrix type="matrix" values="0 0 0 0 0 0 0 0 0 0 0 0 0 0 0 0 0 0 0.25 0"/>
<feBlend mode="normal" in2="BackgroundImageFix" result="effect1_dropShadow_318_101"/>
<feBlend mode="normal" in="SourceGraphic" in2="effect1_dropShadow_318_101" result="shape"/>
</filter>
</defs>
</svg>
