<svg width="23" height="17" viewBox="0 0 23 17" fill="none" xmlns="http://www.w3.org/2000/svg">
<path fill-rule="evenodd" clip-rule="evenodd" d="M21.6163 9.15363C22.1155 9.08488 22.5003 8.65063 22.5003 8.12513C22.5003 7.55188 22.0424 7.08725 21.4775 7.08725H3.50036L8.7444 1.77333L8.84365 1.65713C9.14153 1.25143 9.10978 0.674752 8.7474 0.305515C8.34878 -0.100648 7.70128 -0.10201 7.30105 0.302477L0.3156 7.3755C0.266575 7.42325 0.222225 7.47575 0.1833 7.5325C-0.0955246 7.93775 -0.0562496 8.50013 0.301113 8.86113L7.30111 15.9476L7.41603 16.0479C7.81703 16.3484 8.38515 16.3138 8.7474 15.9444C9.14603 15.5383 9.14465 14.8811 8.7444 14.4766L3.49874 9.163H21.4775L21.6163 9.15363Z" fill="#222428"/>
</svg>
