<svg width="25" height="22" viewBox="0 0 25 22" fill="none" xmlns="http://www.w3.org/2000/svg">
<path d="M25 11.0321C25 10.1582 24.9149 9.52043 24.7308 8.85907H12.7551V12.8036H19.7846C19.6429 13.7839 18.8776 15.2602 17.1769 16.2522L17.153 16.3843L20.9395 18.8287L21.2018 18.8505C23.6111 16.9963 25 14.2681 25 11.0321Z" fill="#4285F4"/>
<path d="M12.7551 21.4253C16.1989 21.4253 19.09 20.4804 21.2018 18.8506L17.1768 16.2523C16.0998 16.8782 14.6542 17.3152 12.7551 17.3152C9.38212 17.3152 6.51933 15.461 5.49883 12.8982L5.34925 12.9088L1.41202 15.448L1.36053 15.5673C3.45802 19.0395 7.76641 21.4253 12.7551 21.4253Z" fill="#34A853"/>
<path d="M5.49881 12.8982C5.22954 12.2368 5.07371 11.5281 5.07371 10.7959C5.07371 10.0637 5.22954 9.35507 5.48464 8.6937L5.47751 8.55284L1.49094 5.97284L1.36051 6.02454C0.496037 7.46541 0 9.08345 0 10.7959C0 12.5084 0.496037 14.1264 1.36051 15.5673L5.49881 12.8982Z" fill="#FBBC05"/>
<path d="M12.7551 4.27664C15.1502 4.27664 16.7658 5.13878 17.6871 5.85926L21.2869 2.93029C19.076 1.21781 16.199 0.166687 12.7551 0.166687C7.76643 0.166687 3.45802 2.55234 1.36053 6.02454L5.48467 8.6937C6.51935 6.13087 9.38214 4.27664 12.7551 4.27664Z" fill="#EB4335"/>
</svg>
