<svg width="13" height="20" viewBox="0 0 13 20" fill="none" xmlns="http://www.w3.org/2000/svg">
<path d="M11.5413 0.559917V0.557851C11.2012 0.200981 10.7388 0.000206612 10.2565 0H1.81731C0.814969 0.00340909 0.00326641 0.850568 0 1.89669V18.1012C0.000197964 18.6046 0.19257 19.0871 0.534503 19.4421C0.87416 19.7985 1.33571 19.9992 1.81731 20H10.2585C10.7401 19.9992 11.2017 19.7985 11.5413 19.4421C11.8827 19.0877 12.0751 18.6059 12.0758 18.1033V1.89876C12.0751 1.39613 11.8827 0.914411 11.5413 0.559917ZM6.03791 18.7128C5.76674 18.7128 5.54695 18.4834 5.54695 18.2004C5.54695 17.9174 5.76674 17.688 6.03791 17.688C6.30907 17.688 6.52886 17.9174 6.52886 18.2004C6.52886 18.4834 6.30907 18.7128 6.03791 18.7128ZM10.6327 15.4959C10.6327 16.1805 10.1009 16.7355 9.44487 16.7355H2.62896C1.97296 16.7355 1.44118 16.1805 1.44118 15.4959V3.41942C1.44118 2.73476 1.97296 2.17975 2.62896 2.17975H9.44685C10.1029 2.17975 10.6346 2.73476 10.6346 3.41942L10.6327 15.4959Z" fill="white"/>
</svg>
