<svg width="20" height="15" viewBox="0 0 20 15" fill="none" xmlns="http://www.w3.org/2000/svg">
<path fill-rule="evenodd" clip-rule="evenodd" d="M1.42857 0H8.57143C9.36041 0 10 0.639593 10 1.42857C10 2.21755 9.36041 2.85714 8.57143 2.85714H1.42857C0.639593 2.85714 0 2.21755 0 1.42857C0 0.639593 0.639593 0 1.42857 0ZM11.4286 11.4285H18.5715C19.3604 11.4285 20 12.0681 20 12.8571C20 13.6461 19.3604 14.2857 18.5715 14.2857H11.4286C10.6396 14.2857 10 13.6461 10 12.8571C10 12.0681 10.6396 11.4285 11.4286 11.4285ZM18.5714 5.71433H1.42857C0.639593 5.71433 0 6.35392 0 7.1429C0 7.93188 0.639593 8.57147 1.42857 8.57147H18.5714C19.3604 8.57147 20 7.93188 20 7.1429C20 6.35392 19.3604 5.71433 18.5714 5.71433Z" fill="#48A069"/>
</svg>
