<svg width="88" height="105" viewBox="0 0 88 105" fill="none" xmlns="http://www.w3.org/2000/svg">
<g filter="url(#filter0_d_67_570)">
<rect x="4" width="80" height="80" rx="20" fill="#FFC409"/>
</g>
<path d="M60.41 25.59C56.1603 21.3404 50.51 19 44.5 19C38.49 19 32.8397 21.3404 28.59 25.59C24.3404 29.8397 22 35.49 22 41.5C22 47.51 24.3404 53.1602 28.59 57.41C32.8396 61.6597 38.49 64 44.5 64C50.51 64 56.1603 61.6596 60.41 57.41C64.6596 53.1603 67 47.51 67 41.5C67 35.49 64.6596 29.8398 60.41 25.59ZM44.5 40.0938C47.9893 40.0938 50.8281 42.9325 50.8281 46.4219C50.8281 49.3115 48.8807 51.7532 46.2299 52.5077C46.0394 52.5619 45.9062 52.7332 45.9062 52.9312V54.1165C45.9062 54.8738 45.3243 55.5253 44.5679 55.5609C43.7603 55.5989 43.0938 54.9554 43.0938 54.1562V52.931C43.0938 52.7335 42.9614 52.5621 42.7715 52.508C40.1319 51.7575 38.1895 49.334 38.172 46.4612C38.1673 45.6943 38.7702 45.0382 39.5368 45.0162C40.3323 44.9934 40.9844 45.6315 40.9844 46.4219C40.9844 48.4435 42.6997 50.0721 44.7513 49.9287C46.4831 49.8077 47.8859 48.4048 48.0068 46.673C48.1501 44.6213 46.5216 42.9062 44.5 42.9062C41.0107 42.9062 38.1719 40.0675 38.1719 36.5781C38.1719 33.6885 40.1193 31.2468 42.7701 30.4923C42.9606 30.4381 43.0938 30.2668 43.0938 30.0688V28.8835C43.0938 28.1262 43.6757 27.4747 44.4321 27.4391C45.2397 27.4011 45.9062 28.0446 45.9062 28.8438V30.069C45.9062 30.2665 46.0386 30.4379 46.2285 30.492C48.8681 31.2425 50.8105 33.666 50.828 36.5388C50.8327 37.3057 50.2298 37.9618 49.4632 37.9838C48.6677 38.0066 48.0156 37.3685 48.0156 36.5781C48.0156 34.5565 46.3003 32.9279 44.2487 33.0713C42.5169 33.1923 41.1141 34.5952 40.9932 36.327C40.8499 38.3787 42.4784 40.0938 44.5 40.0938Z" fill="white"/>
<path d="M26.824 102C26.648 102 26.5 101.94 26.38 101.82C26.26 101.7 26.2 101.552 26.2 101.376V93.252C26.2 93.068 26.26 92.92 26.38 92.808C26.5 92.688 26.648 92.628 26.824 92.628H29.224C29.824 92.628 30.356 92.76 30.82 93.024C31.284 93.288 31.644 93.656 31.9 94.128C32.164 94.592 32.296 95.128 32.296 95.736C32.296 96.32 32.164 96.84 31.9 97.296C31.644 97.752 31.284 98.108 30.82 98.364C30.356 98.62 29.824 98.748 29.224 98.748H27.448V101.376C27.448 101.552 27.388 101.7 27.268 101.82C27.156 101.94 27.008 102 26.824 102ZM27.448 97.596H29.224C29.768 97.596 30.216 97.424 30.568 97.08C30.92 96.728 31.096 96.28 31.096 95.736C31.096 95.352 31.016 95.016 30.856 94.728C30.696 94.432 30.476 94.2 30.196 94.032C29.916 93.864 29.592 93.78 29.224 93.78H27.448V97.596ZM32.2413 102C32.0173 102 31.8453 101.904 31.7253 101.712C31.6053 101.52 31.5933 101.316 31.6893 101.1L35.0613 93.048C35.1813 92.768 35.3773 92.628 35.6493 92.628C35.9373 92.628 36.1333 92.768 36.2373 93.048L39.6213 101.124C39.7093 101.348 39.6933 101.552 39.5733 101.736C39.4613 101.912 39.2893 102 39.0573 102C38.9373 102 38.8213 101.968 38.7093 101.904C38.6053 101.832 38.5293 101.736 38.4813 101.616L37.8093 99.936H33.5013L32.8173 101.616C32.7613 101.744 32.6773 101.84 32.5653 101.904C32.4613 101.968 32.3533 102 32.2413 102ZM33.9213 98.904H37.3893L35.6733 94.632L33.9213 98.904ZM44.3164 102.12C43.6684 102.12 43.0604 102 42.4924 101.76C41.9324 101.512 41.4404 101.172 41.0164 100.74C40.6004 100.3 40.2724 99.788 40.0324 99.204C39.8004 98.62 39.6844 97.988 39.6844 97.308C39.6844 96.636 39.8004 96.012 40.0324 95.436C40.2724 94.852 40.6004 94.344 41.0164 93.912C41.4404 93.472 41.9324 93.128 42.4924 92.88C43.0524 92.632 43.6604 92.508 44.3164 92.508C44.9324 92.508 45.4604 92.588 45.9004 92.748C46.3484 92.908 46.7964 93.172 47.2444 93.54C47.3404 93.62 47.4044 93.696 47.4364 93.768C47.4684 93.84 47.4844 93.928 47.4844 94.032C47.4844 94.184 47.4284 94.312 47.3164 94.416C47.2124 94.52 47.0804 94.576 46.9204 94.584C46.7684 94.592 46.6244 94.54 46.4884 94.428C46.1924 94.172 45.8844 93.976 45.5644 93.84C45.2524 93.704 44.8364 93.636 44.3164 93.636C43.8444 93.636 43.4004 93.732 42.9844 93.924C42.5684 94.116 42.2004 94.38 41.8804 94.716C41.5684 95.052 41.3244 95.444 41.1484 95.892C40.9724 96.332 40.8844 96.804 40.8844 97.308C40.8844 97.82 40.9724 98.3 41.1484 98.748C41.3244 99.188 41.5684 99.576 41.8804 99.912C42.2004 100.248 42.5684 100.512 42.9844 100.704C43.4004 100.888 43.8444 100.98 44.3164 100.98C44.6684 100.98 45.0044 100.928 45.3244 100.824C45.6444 100.72 45.9524 100.572 46.2484 100.38V98.244H44.5924C44.4164 98.244 44.2684 98.192 44.1484 98.088C44.0284 97.984 43.9684 97.852 43.9684 97.692C43.9684 97.532 44.0284 97.4 44.1484 97.296C44.2684 97.192 44.4164 97.14 44.5924 97.14H46.8364C47.0204 97.14 47.1684 97.2 47.2804 97.32C47.3924 97.432 47.4484 97.58 47.4484 97.764V100.632C47.4484 100.712 47.4324 100.792 47.4004 100.872C47.3764 100.944 47.3284 101.012 47.2564 101.076C46.8324 101.428 46.3724 101.692 45.8764 101.868C45.3804 102.036 44.8604 102.12 44.3164 102.12ZM48.3725 102C48.1485 102 47.9765 101.904 47.8565 101.712C47.7365 101.52 47.7245 101.316 47.8205 101.1L51.1925 93.048C51.3125 92.768 51.5085 92.628 51.7805 92.628C52.0685 92.628 52.2645 92.768 52.3685 93.048L55.7525 101.124C55.8405 101.348 55.8245 101.552 55.7045 101.736C55.5925 101.912 55.4205 102 55.1885 102C55.0685 102 54.9525 101.968 54.8405 101.904C54.7365 101.832 54.6605 101.736 54.6125 101.616L53.9405 99.936H49.6325L48.9485 101.616C48.8925 101.744 48.8085 101.84 48.6965 101.904C48.5925 101.968 48.4845 102 48.3725 102ZM50.0525 98.904H53.5205L51.8045 94.632L50.0525 98.904ZM57.106 102C56.93 102 56.782 101.94 56.662 101.82C56.542 101.7 56.482 101.552 56.482 101.376V93.252C56.482 93.068 56.542 92.92 56.662 92.808C56.782 92.688 56.93 92.628 57.106 92.628H59.266C59.866 92.628 60.398 92.756 60.862 93.012C61.326 93.26 61.686 93.604 61.942 94.044C62.206 94.484 62.338 94.996 62.338 95.58C62.338 96.156 62.194 96.664 61.906 97.104C61.618 97.536 61.226 97.864 60.73 98.088L62.566 101.04C62.71 101.272 62.73 101.492 62.626 101.7C62.522 101.9 62.342 102 62.086 102C61.854 102 61.674 101.9 61.546 101.7L59.482 98.388C59.41 98.388 59.338 98.388 59.266 98.388H57.73V101.376C57.73 101.552 57.67 101.7 57.55 101.82C57.438 101.94 57.29 102 57.106 102ZM57.73 97.236H59.266C59.81 97.236 60.258 97.084 60.61 96.78C60.962 96.468 61.138 96.068 61.138 95.58C61.138 95.052 60.962 94.62 60.61 94.284C60.258 93.948 59.81 93.78 59.266 93.78H57.73V97.236Z" fill="#222428"/>
<defs>
<filter id="filter0_d_67_570" x="0" y="0" width="88" height="88" filterUnits="userSpaceOnUse" color-interpolation-filters="sRGB">
<feFlood flood-opacity="0" result="BackgroundImageFix"/>
<feColorMatrix in="SourceAlpha" type="matrix" values="0 0 0 0 0 0 0 0 0 0 0 0 0 0 0 0 0 0 127 0" result="hardAlpha"/>
<feOffset dy="4"/>
<feGaussianBlur stdDeviation="2"/>
<feColorMatrix type="matrix" values="0 0 0 0 0 0 0 0 0 0 0 0 0 0 0 0 0 0 0.05 0"/>
<feBlend mode="normal" in2="BackgroundImageFix" result="effect1_dropShadow_67_570"/>
<feBlend mode="normal" in="SourceGraphic" in2="effect1_dropShadow_67_570" result="shape"/>
</filter>
</defs>
</svg>
