<svg width="88" height="105" viewBox="0 0 88 105" fill="none" xmlns="http://www.w3.org/2000/svg">
<g filter="url(#filter0_d_67_566)">
<rect x="4" width="80" height="80" rx="20" fill="#2DD36F"/>
</g>
<path d="M23.824 102C23.648 102 23.5 101.94 23.38 101.82C23.26 101.7 23.2 101.552 23.2 101.376V93.252C23.2 93.068 23.26 92.92 23.38 92.808C23.5 92.688 23.648 92.628 23.824 92.628H25.984C26.584 92.628 27.116 92.756 27.58 93.012C28.044 93.26 28.404 93.604 28.66 94.044C28.924 94.484 29.056 94.996 29.056 95.58C29.056 96.124 28.924 96.608 28.66 97.032C28.404 97.456 28.044 97.788 27.58 98.028C27.116 98.268 26.584 98.388 25.984 98.388H24.448V101.376C24.448 101.552 24.388 101.7 24.268 101.82C24.156 101.94 24.008 102 23.824 102ZM28.804 102C28.692 102 28.588 101.976 28.492 101.928C28.404 101.88 28.328 101.804 28.264 101.7L26.104 98.22L27.316 97.872L29.284 101.04C29.428 101.272 29.448 101.492 29.344 101.7C29.24 101.9 29.06 102 28.804 102ZM24.448 97.236H25.984C26.352 97.236 26.676 97.168 26.956 97.032C27.236 96.888 27.456 96.692 27.616 96.444C27.776 96.188 27.856 95.9 27.856 95.58C27.856 95.228 27.776 94.916 27.616 94.644C27.456 94.372 27.236 94.16 26.956 94.008C26.676 93.856 26.352 93.78 25.984 93.78H24.448V97.236ZM30.706 102C30.53 102 30.382 101.94 30.262 101.82C30.142 101.7 30.082 101.552 30.082 101.376V93.252C30.082 93.068 30.142 92.92 30.262 92.808C30.382 92.688 30.53 92.628 30.706 92.628H36.13C36.314 92.628 36.462 92.684 36.574 92.796C36.686 92.9 36.742 93.04 36.742 93.216C36.742 93.384 36.686 93.52 36.574 93.624C36.462 93.728 36.314 93.78 36.13 93.78H31.33V96.696H34.774C34.958 96.696 35.106 96.752 35.218 96.864C35.33 96.968 35.386 97.104 35.386 97.272C35.386 97.44 35.33 97.58 35.218 97.692C35.106 97.796 34.958 97.848 34.774 97.848H31.33V100.848H36.13C36.314 100.848 36.462 100.9 36.574 101.004C36.686 101.108 36.742 101.244 36.742 101.412C36.742 101.588 36.686 101.732 36.574 101.844C36.462 101.948 36.314 102 36.13 102H30.706ZM41.9844 102.12C41.3364 102.12 40.7284 102 40.1604 101.76C39.6004 101.512 39.1084 101.172 38.6844 100.74C38.2684 100.3 37.9404 99.788 37.7004 99.204C37.4684 98.62 37.3524 97.988 37.3524 97.308C37.3524 96.636 37.4684 96.012 37.7004 95.436C37.9404 94.852 38.2684 94.344 38.6844 93.912C39.1084 93.472 39.6004 93.128 40.1604 92.88C40.7204 92.632 41.3284 92.508 41.9844 92.508C42.6004 92.508 43.1284 92.588 43.5684 92.748C44.0164 92.908 44.4644 93.172 44.9124 93.54C44.9764 93.588 45.0244 93.64 45.0564 93.696C45.0964 93.744 45.1204 93.796 45.1284 93.852C45.1444 93.9 45.1524 93.96 45.1524 94.032C45.1524 94.184 45.0964 94.312 44.9844 94.416C44.8804 94.512 44.7524 94.568 44.6004 94.584C44.4484 94.592 44.3004 94.54 44.1564 94.428C43.8604 94.172 43.5524 93.976 43.2324 93.84C42.9204 93.704 42.5044 93.636 41.9844 93.636C41.5124 93.636 41.0684 93.732 40.6524 93.924C40.2364 94.116 39.8684 94.38 39.5484 94.716C39.2364 95.052 38.9924 95.444 38.8164 95.892C38.6404 96.332 38.5524 96.804 38.5524 97.308C38.5524 97.82 38.6404 98.3 38.8164 98.748C38.9924 99.188 39.2364 99.576 39.5484 99.912C39.8684 100.248 40.2364 100.512 40.6524 100.704C41.0684 100.888 41.5124 100.98 41.9844 100.98C42.3924 100.98 42.7764 100.912 43.1364 100.776C43.5044 100.632 43.8564 100.436 44.1924 100.188C44.3364 100.084 44.4764 100.04 44.6124 100.056C44.7564 100.064 44.8764 100.12 44.9724 100.224C45.0684 100.32 45.1164 100.456 45.1164 100.632C45.1164 100.712 45.1004 100.792 45.0684 100.872C45.0364 100.944 44.9884 101.012 44.9244 101.076C44.4924 101.42 44.0284 101.68 43.5324 101.856C43.0444 102.032 42.5284 102.12 41.9844 102.12ZM47.0365 102C46.8605 102 46.7125 101.94 46.5925 101.82C46.4725 101.7 46.4125 101.552 46.4125 101.376V93.252C46.4125 93.068 46.4725 92.92 46.5925 92.808C46.7125 92.688 46.8605 92.628 47.0365 92.628C47.2205 92.628 47.3685 92.688 47.4805 92.808C47.6005 92.92 47.6605 93.068 47.6605 93.252V101.376C47.6605 101.552 47.6005 101.7 47.4805 101.82C47.3685 101.94 47.2205 102 47.0365 102ZM49.981 102C49.805 102 49.657 101.94 49.537 101.82C49.417 101.7 49.357 101.552 49.357 101.376V93.252C49.357 93.068 49.417 92.92 49.537 92.808C49.657 92.688 49.805 92.628 49.981 92.628H52.849C53.393 92.628 53.869 92.736 54.277 92.952C54.693 93.16 55.017 93.452 55.249 93.828C55.489 94.204 55.609 94.636 55.609 95.124C55.609 95.516 55.501 95.872 55.285 96.192C55.077 96.504 54.789 96.752 54.421 96.936C54.949 97.064 55.373 97.316 55.693 97.692C56.013 98.068 56.173 98.56 56.173 99.168C56.173 99.72 56.041 100.208 55.777 100.632C55.521 101.056 55.161 101.392 54.697 101.64C54.233 101.88 53.701 102 53.101 102H49.981ZM50.605 100.848H53.101C53.469 100.848 53.793 100.784 54.073 100.656C54.353 100.528 54.573 100.34 54.733 100.092C54.893 99.844 54.973 99.536 54.973 99.168C54.973 98.824 54.893 98.54 54.733 98.316C54.573 98.092 54.353 97.924 54.073 97.812C53.793 97.692 53.469 97.632 53.101 97.632H50.605V100.848ZM50.605 96.48H52.849C53.305 96.48 53.677 96.368 53.965 96.144C54.261 95.92 54.409 95.58 54.409 95.124C54.409 94.668 54.261 94.332 53.965 94.116C53.677 93.892 53.305 93.78 52.849 93.78H50.605V96.48ZM57.9529 102C57.7769 102 57.6289 101.94 57.5089 101.82C57.3889 101.7 57.3289 101.552 57.3289 101.376V93.252C57.3289 93.068 57.3889 92.92 57.5089 92.808C57.6289 92.688 57.7769 92.628 57.9529 92.628C58.1369 92.628 58.2849 92.688 58.3969 92.808C58.5169 92.92 58.5769 93.068 58.5769 93.252V101.376C58.5769 101.552 58.5169 101.7 58.3969 101.82C58.2849 101.94 58.1369 102 57.9529 102ZM60.8974 102C60.7214 102 60.5734 101.94 60.4534 101.82C60.3334 101.7 60.2734 101.552 60.2734 101.376V93.252C60.2734 93.068 60.3334 92.92 60.4534 92.808C60.5734 92.688 60.7214 92.628 60.8974 92.628H63.0574C63.6574 92.628 64.1894 92.756 64.6534 93.012C65.1174 93.26 65.4774 93.604 65.7334 94.044C65.9974 94.484 66.1294 94.996 66.1294 95.58C66.1294 96.124 65.9974 96.608 65.7334 97.032C65.4774 97.456 65.1174 97.788 64.6534 98.028C64.1894 98.268 63.6574 98.388 63.0574 98.388H61.5214V101.376C61.5214 101.552 61.4614 101.7 61.3414 101.82C61.2294 101.94 61.0814 102 60.8974 102ZM65.8774 102C65.7654 102 65.6614 101.976 65.5654 101.928C65.4774 101.88 65.4014 101.804 65.3374 101.7L63.1774 98.22L64.3894 97.872L66.3574 101.04C66.5014 101.272 66.5214 101.492 66.4174 101.7C66.3134 101.9 66.1334 102 65.8774 102ZM61.5214 97.236H63.0574C63.4254 97.236 63.7494 97.168 64.0294 97.032C64.3094 96.888 64.5294 96.692 64.6894 96.444C64.8494 96.188 64.9294 95.9 64.9294 95.58C64.9294 95.228 64.8494 94.916 64.6894 94.644C64.5294 94.372 64.3094 94.16 64.0294 94.008C63.7494 93.856 63.4254 93.78 63.0574 93.78H61.5214V97.236Z" fill="#222428"/>
<path fill-rule="evenodd" clip-rule="evenodd" d="M44.5858 61L29.1716 45.1207L32 42.2069L42.5858 53.1121L42.5858 21L46.5858 21L46.5858 53.1121L57.1716 42.2069L60 45.1207L44.5858 61Z" fill="white"/>
<defs>
<filter id="filter0_d_67_566" x="0" y="0" width="88" height="88" filterUnits="userSpaceOnUse" color-interpolation-filters="sRGB">
<feFlood flood-opacity="0" result="BackgroundImageFix"/>
<feColorMatrix in="SourceAlpha" type="matrix" values="0 0 0 0 0 0 0 0 0 0 0 0 0 0 0 0 0 0 127 0" result="hardAlpha"/>
<feOffset dy="4"/>
<feGaussianBlur stdDeviation="2"/>
<feColorMatrix type="matrix" values="0 0 0 0 0 0 0 0 0 0 0 0 0 0 0 0 0 0 0.05 0"/>
<feBlend mode="normal" in2="BackgroundImageFix" result="effect1_dropShadow_67_566"/>
<feBlend mode="normal" in="SourceGraphic" in2="effect1_dropShadow_67_566" result="shape"/>
</filter>
</defs>
</svg>
