<svg width="88" height="105" viewBox="0 0 88 105" fill="none" xmlns="http://www.w3.org/2000/svg">
<g filter="url(#filter0_d_67_562)">
<rect x="4" width="80" height="80" rx="20" fill="#EB4335"/>
</g>
<path fill-rule="evenodd" clip-rule="evenodd" d="M43.8793 23L59.7586 38.8793L56.8448 41.7931L45.9397 30.8879V63H41.819V30.8879L30.9138 41.7931L28 38.8793L43.8793 23Z" fill="white"/>
<path d="M23.824 102C23.648 102 23.5 101.94 23.38 101.82C23.26 101.7 23.2 101.552 23.2 101.376V93.252C23.2 93.068 23.26 92.92 23.38 92.808C23.5 92.688 23.648 92.628 23.824 92.628H29.248C29.432 92.628 29.58 92.684 29.692 92.796C29.804 92.9 29.86 93.04 29.86 93.216C29.86 93.384 29.804 93.52 29.692 93.624C29.58 93.728 29.432 93.78 29.248 93.78H24.448V96.696H27.892C28.076 96.696 28.224 96.752 28.336 96.864C28.448 96.968 28.504 97.104 28.504 97.272C28.504 97.44 28.448 97.58 28.336 97.692C28.224 97.796 28.076 97.848 27.892 97.848H24.448V100.848H29.248C29.432 100.848 29.58 100.9 29.692 101.004C29.804 101.108 29.86 101.244 29.86 101.412C29.86 101.588 29.804 101.732 29.692 101.844C29.58 101.948 29.432 102 29.248 102H23.824ZM31.5143 102C31.3383 102 31.1903 101.94 31.0703 101.82C30.9583 101.7 30.9023 101.552 30.9023 101.376V93.252C30.9023 93.068 30.9583 92.92 31.0703 92.808C31.1903 92.688 31.3383 92.628 31.5143 92.628C31.7063 92.628 31.8663 92.704 31.9943 92.856L37.2263 99.816V93.252C37.2263 93.068 37.2863 92.92 37.4063 92.808C37.5263 92.688 37.6743 92.628 37.8503 92.628C38.0343 92.628 38.1823 92.688 38.2943 92.808C38.4063 92.92 38.4623 93.068 38.4623 93.252V101.376C38.4623 101.552 38.4063 101.7 38.2943 101.82C38.1823 101.94 38.0343 102 37.8503 102C37.7703 102 37.6823 101.984 37.5863 101.952C37.4983 101.912 37.4263 101.856 37.3703 101.784L32.1383 94.824V101.376C32.1383 101.552 32.0783 101.7 31.9583 101.82C31.8463 101.94 31.6983 102 31.5143 102ZM43.3793 102C43.1233 102 42.9353 101.868 42.8153 101.604L39.2993 93.564C39.1873 93.292 39.1753 93.068 39.2633 92.892C39.3513 92.716 39.5193 92.628 39.7673 92.628C40.0473 92.628 40.2393 92.752 40.3433 93L43.3673 100.248L46.4393 93C46.5033 92.856 46.5753 92.76 46.6553 92.712C46.7433 92.656 46.8593 92.628 47.0033 92.628C47.2433 92.628 47.4073 92.716 47.4953 92.892C47.5913 93.06 47.5913 93.248 47.4953 93.456L43.9433 101.604C43.8393 101.868 43.6513 102 43.3793 102ZM48.9349 102C48.7589 102 48.6109 101.94 48.4909 101.82C48.3709 101.7 48.3109 101.552 48.3109 101.376V93.252C48.3109 93.068 48.3709 92.92 48.4909 92.808C48.6109 92.688 48.7589 92.628 48.9349 92.628C49.1189 92.628 49.2669 92.688 49.3789 92.808C49.4989 92.92 49.5589 93.068 49.5589 93.252V101.376C49.5589 101.552 49.4989 101.7 49.3789 101.82C49.2669 101.94 49.1189 102 48.9349 102ZM50.8835 102C50.6595 102 50.4875 101.904 50.3675 101.712C50.2475 101.52 50.2355 101.316 50.3315 101.1L53.7035 93.048C53.8235 92.768 54.0195 92.628 54.2915 92.628C54.5795 92.628 54.7755 92.768 54.8795 93.048L58.2635 101.124C58.3515 101.348 58.3355 101.552 58.2155 101.736C58.1035 101.912 57.9315 102 57.6995 102C57.5795 102 57.4635 101.968 57.3515 101.904C57.2475 101.832 57.1715 101.736 57.1235 101.616L56.4515 99.936H52.1435L51.4595 101.616C51.4035 101.744 51.3195 101.84 51.2075 101.904C51.1035 101.968 50.9955 102 50.8835 102ZM52.5635 98.904H56.0315L54.3155 94.632L52.5635 98.904ZM59.617 102C59.441 102 59.293 101.94 59.173 101.82C59.053 101.7 58.993 101.552 58.993 101.376V93.252C58.993 93.068 59.053 92.92 59.173 92.808C59.293 92.688 59.441 92.628 59.617 92.628H61.777C62.377 92.628 62.909 92.756 63.373 93.012C63.837 93.26 64.197 93.604 64.453 94.044C64.717 94.484 64.849 94.996 64.849 95.58C64.849 96.156 64.705 96.664 64.417 97.104C64.129 97.536 63.737 97.864 63.241 98.088L65.077 101.04C65.221 101.272 65.241 101.492 65.137 101.7C65.033 101.9 64.853 102 64.597 102C64.365 102 64.185 101.9 64.057 101.7L61.993 98.388C61.921 98.388 61.849 98.388 61.777 98.388H60.241V101.376C60.241 101.552 60.181 101.7 60.061 101.82C59.949 101.94 59.801 102 59.617 102ZM60.241 97.236H61.777C62.321 97.236 62.769 97.084 63.121 96.78C63.473 96.468 63.649 96.068 63.649 95.58C63.649 95.052 63.473 94.62 63.121 94.284C62.769 93.948 62.321 93.78 61.777 93.78H60.241V97.236Z" fill="#222428"/>
<defs>
<filter id="filter0_d_67_562" x="0" y="0" width="88" height="88" filterUnits="userSpaceOnUse" color-interpolation-filters="sRGB">
<feFlood flood-opacity="0" result="BackgroundImageFix"/>
<feColorMatrix in="SourceAlpha" type="matrix" values="0 0 0 0 0 0 0 0 0 0 0 0 0 0 0 0 0 0 127 0" result="hardAlpha"/>
<feOffset dy="4"/>
<feGaussianBlur stdDeviation="2"/>
<feColorMatrix type="matrix" values="0 0 0 0 0 0 0 0 0 0 0 0 0 0 0 0 0 0 0.05 0"/>
<feBlend mode="normal" in2="BackgroundImageFix" result="effect1_dropShadow_67_562"/>
<feBlend mode="normal" in="SourceGraphic" in2="effect1_dropShadow_67_562" result="shape"/>
</filter>
</defs>
</svg>
