<svg width="20" height="19" viewBox="0 0 20 19" fill="none" xmlns="http://www.w3.org/2000/svg">
<path d="M8.07238 2.11737H2.34436V7.29354H8.07242L8.07238 2.11737ZM6.90061 6.23467H3.51613V3.17625H6.90065L6.90061 6.23467Z" fill="white"/>
<path d="M4.62255 4.17601H5.79433V5.23495H4.62255V4.17601Z" fill="white"/>
<path d="M2.34436 15.953H8.07242V10.7769H2.34436V15.953ZM3.51613 11.8358H6.90065V14.8942H3.51613V11.8358Z" fill="white"/>
<path d="M17.6564 11.3063H16.4846V14.8942H15.3373V14.1065H14.1655V14.8942H12.7351V15.953H17.6564V11.3063Z" fill="white"/>
<path d="M4.62255 12.8355H5.79433V13.8944H4.62255V12.8355Z" fill="white"/>
<path d="M17.6564 2.11737H11.9283V7.29354H17.6564V2.11737ZM16.4846 6.23467H13.1001V3.17625H16.4846V6.23467Z" fill="white"/>
<path d="M14.2065 4.17601H15.3783V5.23495H14.2065V4.17601Z" fill="white"/>
<path d="M4.68794 8.50573H8.07237V9.56462H4.68794V8.50573Z" fill="white"/>
<path d="M2.34436 8.50573H3.51621V9.56462H2.34436V8.50573Z" fill="white"/>
<path d="M9.24432 8.50573H13.6053V9.56462H9.24432V8.50573Z" fill="white"/>
<path d="M17.6564 10.2473V8.50573H14.7772V9.56461H16.4846V10.2473H17.6564Z" fill="white"/>
<path d="M9.41481 4.23525H10.5866V7.29359H9.41481V4.23525Z" fill="white"/>
<path d="M9.41481 2.11737H10.5866V3.17632H9.41481V2.11737Z" fill="white"/>
<path d="M10.5866 13.8351H11.4583V12.7763H10.5866V10.7768H9.41481V15.953H11.5631V14.8941H10.5866V13.8351Z" fill="white"/>
<path d="M12.9936 12.6235H14.1654V11.8358H15.1162V10.7769H12.0428V11.8358H12.9936V12.6235Z" fill="white"/>
<path d="M15.8974 0V1.05887H18.8282V3.70627H20V0H15.8974Z" fill="white"/>
<path d="M1.17178 1.05898H4.10262V0.000110309H0V3.70638H1.17178V1.05898Z" fill="white"/>
<path d="M18.8282 17.0121H15.8974V18.0709H20V14.3647H18.8282V17.0121Z" fill="white"/>
<path d="M1.17189 14.3647H0.000110276V18.0709H4.10273V17.0121H1.17189V14.3647Z" fill="white"/>
</svg>
