<svg width="78" height="78" viewBox="0 0 78 78" fill="none" xmlns="http://www.w3.org/2000/svg">
<path d="M39 0C17.4945 0 0 17.4945 0 39C0 60.5055 17.4945 78 39 78C60.5055 78 78 60.5055 78 39C78 17.4945 60.5055 0 39 0ZM58.7666 30.7354L37.6414 51.86C37.0076 52.4937 36.1757 52.8127 35.3438 52.8127C34.5118 52.8127 33.6799 52.4937 33.0461 51.86L22.4838 41.2977C21.2127 40.0271 21.2127 37.9729 22.4838 36.7023C23.7543 35.4312 25.808 35.4312 27.0791 36.7023L35.3438 44.967L54.1713 26.14C55.4418 24.8689 57.4955 24.8689 58.7666 26.14C60.0371 27.4106 60.0371 29.4642 58.7666 30.7354Z" fill="#2DD36F"/>
</svg>
