<svg width="40" height="40" viewBox="0 0 40 40" fill="none" xmlns="http://www.w3.org/2000/svg">
<path d="M17.508 32.9412H22.4921C22.9028 31.2507 24.1885 29.9624 25.8824 29.5509V15.0312C24.2228 14.612 22.9555 13.3295 22.5166 11.7647H17.4833C17.0438 13.3327 15.7738 14.6129 14.1177 15.0312V29.5509C15.8081 29.9616 17.0963 31.2472 17.508 32.9412ZM21.1764 30.5882H18.8235V28.2353H21.1764V30.5882ZM18.8235 14.1176H21.1764V16.4706H18.8235V14.1176ZM19.9999 18.8235C21.9461 18.8235 23.5294 20.4067 23.5294 22.3529C23.5294 24.2991 21.9461 25.8824 19.9999 25.8824C18.0538 25.8824 16.4705 24.2991 16.4705 22.3529C16.4705 20.4067 18.0538 18.8235 19.9999 18.8235Z" fill="white"/>
<path d="M7.05882 40H32.9412V4.70587H7.05882V40ZM11.7647 12.8235H12.9412C14.3486 12.8235 15.2941 11.6678 15.2941 10.5882V9.41176H24.7059V10.5882C24.7059 11.6678 25.6514 12.8235 27.0588 12.8235H28.2353V31.7647H27.0588C25.6955 31.7647 24.7059 32.7543 24.7059 34.1177V35.2942H15.2941V34.1177C15.2941 32.7543 14.3045 31.7647 12.9412 31.7647H11.7647V12.8235Z" fill="white"/>
<path d="M0 0V11.7647H4.70588C4.70588 10.9137 4.70588 3.31702 4.70588 2.35294H35.2941V11.7647H40V0H0Z" fill="white"/>
<path d="M20.0001 23.5294C20.6498 23.5294 21.1765 23.0027 21.1765 22.3529C21.1765 21.7032 20.6498 21.1765 20.0001 21.1765C19.3503 21.1765 18.8236 21.7032 18.8236 22.3529C18.8236 23.0027 19.3503 23.5294 20.0001 23.5294Z" fill="white"/>
</svg>
