<svg width="88" height="105" viewBox="0 0 88 105" fill="none" xmlns="http://www.w3.org/2000/svg">
<g filter="url(#filter0_d_67_574)">
<rect x="4" width="80" height="80" rx="20" fill="#00313A"/>
</g>
<path d="M41.508 55.9412H46.4921C46.9028 54.2507 48.1885 52.9624 49.8824 52.5509V38.0312C48.2228 37.612 46.9555 36.3295 46.5166 34.7647H41.4833C41.0438 36.3327 39.7738 37.6129 38.1177 38.0312V52.5509C39.8081 52.9616 41.0963 54.2472 41.508 55.9412ZM45.1764 53.5882H42.8235V51.2353H45.1764V53.5882ZM42.8235 37.1176H45.1764V39.4706H42.8235V37.1176ZM43.9999 41.8235C45.9461 41.8235 47.5294 43.4067 47.5294 45.3529C47.5294 47.2991 45.9461 48.8824 43.9999 48.8824C42.0538 48.8824 40.4705 47.2991 40.4705 45.3529C40.4705 43.4067 42.0538 41.8235 43.9999 41.8235Z" fill="white"/>
<path d="M31.0588 63H56.9412V27.7059H31.0588V63ZM35.7647 35.8235H36.9412C38.3486 35.8235 39.2941 34.6678 39.2941 33.5882V32.4118H48.7059V33.5882C48.7059 34.6678 49.6514 35.8235 51.0588 35.8235H52.2353V54.7647H51.0588C49.6955 54.7647 48.7059 55.7543 48.7059 57.1177V58.2942H39.2941V57.1177C39.2941 55.7543 38.3045 54.7647 36.9412 54.7647H35.7647V35.8235Z" fill="white"/>
<path d="M24 23V34.7647H28.7059C28.7059 33.9137 28.7059 26.317 28.7059 25.3529H59.2941V34.7647H64V23H24Z" fill="white"/>
<path d="M44.0001 46.5294C44.6498 46.5294 45.1765 46.0027 45.1765 45.3529C45.1765 44.7032 44.6498 44.1765 44.0001 44.1765C43.3503 44.1765 42.8236 44.7032 42.8236 45.3529C42.8236 46.0027 43.3503 46.5294 44.0001 46.5294Z" fill="white"/>
<path d="M21.824 102C21.648 102 21.5 101.94 21.38 101.82C21.26 101.7 21.2 101.552 21.2 101.376V93.252C21.2 93.068 21.26 92.92 21.38 92.808C21.5 92.688 21.648 92.628 21.824 92.628H23.984C24.584 92.628 25.116 92.756 25.58 93.012C26.044 93.26 26.404 93.604 26.66 94.044C26.924 94.484 27.056 94.996 27.056 95.58C27.056 96.156 26.912 96.664 26.624 97.104C26.336 97.536 25.944 97.864 25.448 98.088L27.284 101.04C27.428 101.272 27.448 101.492 27.344 101.7C27.24 101.9 27.06 102 26.804 102C26.572 102 26.392 101.9 26.264 101.7L24.2 98.388C24.128 98.388 24.056 98.388 23.984 98.388H22.448V101.376C22.448 101.552 22.388 101.7 22.268 101.82C22.156 101.94 22.008 102 21.824 102ZM22.448 97.236H23.984C24.528 97.236 24.976 97.084 25.328 96.78C25.68 96.468 25.856 96.068 25.856 95.58C25.856 95.052 25.68 94.62 25.328 94.284C24.976 93.948 24.528 93.78 23.984 93.78H22.448V97.236ZM28.706 102C28.53 102 28.382 101.94 28.262 101.82C28.142 101.7 28.082 101.552 28.082 101.376V93.252C28.082 93.068 28.142 92.92 28.262 92.808C28.382 92.688 28.53 92.628 28.706 92.628H34.13C34.314 92.628 34.462 92.684 34.574 92.796C34.686 92.9 34.742 93.04 34.742 93.216C34.742 93.384 34.686 93.52 34.574 93.624C34.462 93.728 34.314 93.78 34.13 93.78H29.33V96.696H32.774C32.958 96.696 33.106 96.752 33.218 96.864C33.33 96.968 33.386 97.104 33.386 97.272C33.386 97.44 33.33 97.58 33.218 97.692C33.106 97.796 32.958 97.848 32.774 97.848H29.33V100.848H34.13C34.314 100.848 34.462 100.9 34.574 101.004C34.686 101.108 34.742 101.244 34.742 101.412C34.742 101.588 34.686 101.732 34.574 101.844C34.462 101.948 34.314 102 34.13 102H28.706ZM38.5564 102C38.3804 102 38.2324 101.94 38.1124 101.82C37.9924 101.7 37.9324 101.552 37.9324 101.376V93.78H35.3404C35.1724 93.78 35.0324 93.728 34.9204 93.624C34.8164 93.512 34.7644 93.372 34.7644 93.204C34.7644 93.036 34.8164 92.9 34.9204 92.796C35.0324 92.684 35.1724 92.628 35.3404 92.628H41.7604C41.9284 92.628 42.0644 92.684 42.1684 92.796C42.2804 92.9 42.3364 93.036 42.3364 93.204C42.3364 93.372 42.2804 93.512 42.1684 93.624C42.0644 93.728 41.9284 93.78 41.7604 93.78H39.1804V101.376C39.1804 101.552 39.1204 101.7 39.0004 101.82C38.8804 101.94 38.7324 102 38.5564 102ZM43.642 102C43.466 102 43.318 101.94 43.198 101.82C43.078 101.7 43.018 101.552 43.018 101.376V93.252C43.018 93.068 43.078 92.92 43.198 92.808C43.318 92.688 43.466 92.628 43.642 92.628C43.826 92.628 43.974 92.688 44.086 92.808C44.206 92.92 44.266 93.068 44.266 93.252V101.376C44.266 101.552 44.206 101.7 44.086 101.82C43.974 101.94 43.826 102 43.642 102ZM46.5865 102C46.4105 102 46.2625 101.94 46.1425 101.82C46.0225 101.7 45.9625 101.552 45.9625 101.376V93.252C45.9625 93.068 46.0225 92.92 46.1425 92.808C46.2625 92.688 46.4105 92.628 46.5865 92.628H48.7465C49.3465 92.628 49.8785 92.756 50.3425 93.012C50.8065 93.26 51.1665 93.604 51.4225 94.044C51.6865 94.484 51.8185 94.996 51.8185 95.58C51.8185 96.156 51.6745 96.664 51.3865 97.104C51.0985 97.536 50.7065 97.864 50.2105 98.088L52.0465 101.04C52.1905 101.272 52.2105 101.492 52.1065 101.7C52.0025 101.9 51.8225 102 51.5665 102C51.3345 102 51.1545 101.9 51.0265 101.7L48.9625 98.388C48.8905 98.388 48.8185 98.388 48.7465 98.388H47.2105V101.376C47.2105 101.552 47.1505 101.7 47.0305 101.82C46.9185 101.94 46.7705 102 46.5865 102ZM47.2105 97.236H48.7465C49.2905 97.236 49.7385 97.084 50.0905 96.78C50.4425 96.468 50.6185 96.068 50.6185 95.58C50.6185 95.052 50.4425 94.62 50.0905 94.284C49.7385 93.948 49.2905 93.78 48.7465 93.78H47.2105V97.236ZM52.4725 102C52.2485 102 52.0765 101.904 51.9565 101.712C51.8365 101.52 51.8245 101.316 51.9205 101.1L55.2925 93.048C55.4125 92.768 55.6085 92.628 55.8805 92.628C56.1685 92.628 56.3645 92.768 56.4685 93.048L59.8525 101.124C59.9405 101.348 59.9245 101.552 59.8045 101.736C59.6925 101.912 59.5205 102 59.2885 102C59.1685 102 59.0525 101.968 58.9405 101.904C58.8365 101.832 58.7605 101.736 58.7125 101.616L58.0405 99.936H53.7325L53.0485 101.616C52.9925 101.744 52.9085 101.84 52.7965 101.904C52.6925 101.968 52.5845 102 52.4725 102ZM54.1525 98.904H57.6205L55.9045 94.632L54.1525 98.904ZM61.206 102C61.03 102 60.882 101.94 60.762 101.82C60.642 101.7 60.582 101.552 60.582 101.376V93.252C60.582 93.068 60.642 92.92 60.762 92.808C60.882 92.688 61.03 92.628 61.206 92.628H63.366C63.966 92.628 64.498 92.756 64.962 93.012C65.426 93.26 65.786 93.604 66.042 94.044C66.306 94.484 66.438 94.996 66.438 95.58C66.438 96.156 66.294 96.664 66.006 97.104C65.718 97.536 65.326 97.864 64.83 98.088L66.666 101.04C66.81 101.272 66.83 101.492 66.726 101.7C66.622 101.9 66.442 102 66.186 102C65.954 102 65.774 101.9 65.646 101.7L63.582 98.388C63.51 98.388 63.438 98.388 63.366 98.388H61.83V101.376C61.83 101.552 61.77 101.7 61.65 101.82C61.538 101.94 61.39 102 61.206 102ZM61.83 97.236H63.366C63.91 97.236 64.358 97.084 64.71 96.78C65.062 96.468 65.238 96.068 65.238 95.58C65.238 95.052 65.062 94.62 64.71 94.284C64.358 93.948 63.91 93.78 63.366 93.78H61.83V97.236Z" fill="#222428"/>
<defs>
<filter id="filter0_d_67_574" x="0" y="0" width="88" height="88" filterUnits="userSpaceOnUse" color-interpolation-filters="sRGB">
<feFlood flood-opacity="0" result="BackgroundImageFix"/>
<feColorMatrix in="SourceAlpha" type="matrix" values="0 0 0 0 0 0 0 0 0 0 0 0 0 0 0 0 0 0 127 0" result="hardAlpha"/>
<feOffset dy="4"/>
<feGaussianBlur stdDeviation="2"/>
<feColorMatrix type="matrix" values="0 0 0 0 0 0 0 0 0 0 0 0 0 0 0 0 0 0 0.05 0"/>
<feBlend mode="normal" in2="BackgroundImageFix" result="effect1_dropShadow_67_574"/>
<feBlend mode="normal" in="SourceGraphic" in2="effect1_dropShadow_67_574" result="shape"/>
</filter>
</defs>
</svg>
