<svg width="298" height="177" viewBox="0 0 298 177" fill="none" xmlns="http://www.w3.org/2000/svg">
<path d="M149 176.451C66.7096 176.451 0 167.254 0 155.908C0 144.562 66.7096 135.364 149 135.364C231.29 135.364 298 144.562 298 155.908C298 167.254 231.29 176.451 149 176.451Z" fill="#00313A"/>
<path d="M254.734 2.56982H259.373V123.088H254.734V2.56982Z" fill="#92949C"/>
<path d="M254.678 0H260.959V7.52107H254.678V0Z" fill="#92949C"/>
<path d="M253.821 147.377L297.396 147.332L297.312 50.334C297.312 47.9356 296.425 45.6353 294.846 43.9394C293.266 42.2434 291.124 41.2906 288.89 41.2906H253.751L253.821 147.377Z" fill="#48A069"/>
<path opacity="0.1" d="M253.737 43.3177L253.821 147.377L273.507 147.354L253.737 43.3177Z" fill="#00313A"/>
<path d="M275.149 41.0193H277.395V147.618H275.149V41.0193Z" fill="#00313A"/>
<path d="M272.335 41.0267H274.581V147.626H272.335V41.0267Z" fill="#00313A"/>
<path d="M265.296 79.8983H270.096V108.747H265.296V79.8983Z" fill="#00313A"/>
<path d="M265.296 61.9999H270.096V74.8189H265.296V61.9999Z" fill="#00313A"/>
<path d="M297.389 138.326C297.389 140.836 292.694 141.838 288.49 141.838C284.287 141.838 286.975 147.347 284.876 147.347H297.396L297.389 138.326Z" fill="#00313A"/>
<path d="M253.814 138.349C253.814 140.858 258.537 141.838 262.741 141.838C266.945 141.838 264.257 147.347 266.356 147.347H253.821L253.814 138.349Z" fill="#00313A"/>
<path d="M288.434 147.377H293.684V158.252H288.434V147.377Z" fill="#00313A"/>
<path d="M257.548 147.377H262.797V158.252H257.548V147.377Z" fill="#00313A"/>
<path d="M249.161 32.5184C260.552 41.3508 265.212 58.9703 256.376 76.5521C248.361 92.5438 229.427 99.7785 219.124 94.6389C208.19 89.1526 205.888 75.4142 211.692 67.8856C217.307 60.6132 225.644 59.1059 228.444 52.233C229.785 48.9472 229.146 42.9108 230.943 37.967C232.964 32.4129 241.842 26.8437 249.161 32.5184Z" fill="#00313A"/>
<path d="M230.479 96.9149C236.225 96.2343 241.715 93.9935 246.431 90.4036C251.157 86.7928 255.041 82.0573 257.78 76.5672C260.672 71.1614 262.104 64.9972 261.915 58.7661C261.727 52.535 259.925 46.4835 256.713 41.2905C259.628 46.5837 261.234 52.5892 261.38 58.7367C261.421 61.7875 261.074 64.8301 260.348 67.7801C259.613 70.7233 258.543 73.5581 257.162 76.2206C255.805 78.9037 254.194 81.4291 252.355 83.7567C248.635 88.407 243.956 92.061 238.69 94.4279C236.066 95.6384 233.306 96.4744 230.479 96.9149Z" fill="#00313A"/>
<path d="M209.804 69.4908C210.645 67.8115 211.727 66.2854 213.011 64.9691C214.274 63.6523 215.675 62.499 217.187 61.5326C218.717 60.568 220.224 59.5481 221.707 58.473C223.211 57.409 224.593 56.1595 225.826 54.7501C226.444 54.0335 227 53.2593 227.49 52.4365C227.949 51.5836 228.301 50.6687 228.535 49.716C228.957 47.8519 229.271 45.9618 229.476 44.0563C229.702 42.1816 230.15 40.3455 230.809 38.5926C231.498 36.8423 232.478 35.2412 233.701 33.8674C232.369 35.1571 231.284 36.7136 230.507 38.4494C229.773 40.2067 229.251 42.0582 228.956 43.9583C228.613 45.8348 228.416 47.7264 227.932 49.5276C227.703 50.419 227.363 51.2733 226.921 52.0672C226.451 52.8461 225.913 53.5753 225.314 54.2452C222.97 57.0336 219.861 58.9628 216.892 61.0277C215.382 62.0716 213.992 63.3035 212.752 64.6978C211.522 66.1032 210.525 67.7243 209.804 69.4908Z" fill="#00313A"/>
<path d="M200.779 38.4795L205.923 63.7708C206.155 64.5244 205.79 65.1047 205.116 65.0821L193.059 64.6676C192.693 64.6243 192.345 64.4713 192.056 64.2262C191.767 63.981 191.548 63.6534 191.424 63.2809L186.28 37.9821C186.048 37.2285 186.413 36.6482 187.087 36.6708L199.144 37.0853C199.511 37.1284 199.86 37.2821 200.149 37.5288C200.438 37.7755 200.657 38.1051 200.779 38.4795Z" fill="#92949C"/>
<path d="M199.347 38.4118L204.492 63.7106C204.723 64.4642 204.358 65.0445 203.685 65.0219L191.628 64.6074C191.26 64.5644 190.912 64.4106 190.622 64.1639C190.333 63.9172 190.115 63.5876 189.992 63.2132L184.848 37.9219C184.617 37.1683 184.981 36.588 185.655 36.6106L197.712 37.0251C198.079 37.0667 198.427 37.219 198.717 37.4644C199.006 37.7098 199.225 38.0383 199.347 38.4118Z" fill="#92949C"/>
<path d="M196.021 39.4517C196.019 39.669 196.078 39.8819 196.189 40.0635C196.3 40.245 196.459 40.3872 196.645 40.4721C196.832 40.5569 197.037 40.5807 197.236 40.5403C197.435 40.4999 197.618 40.3972 197.763 40.2451C197.907 40.0931 198.006 39.8984 198.048 39.6858C198.09 39.4732 198.072 39.2521 197.997 39.0503C197.922 38.8486 197.792 38.6753 197.626 38.5523C197.459 38.4292 197.262 38.362 197.059 38.359C196.924 38.357 196.79 38.3838 196.665 38.4377C196.539 38.4916 196.425 38.5717 196.328 38.6732C196.232 38.7748 196.155 38.8959 196.102 39.0295C196.049 39.1631 196.022 39.3066 196.021 39.4517Z" fill="#00313A"/>
<path d="M238.529 78.4437C231.371 93.8853 215.608 113.781 209.271 113.713C206.253 113.713 200.849 114.323 196.968 110.503C188.504 102.168 181.613 86.4547 180.328 77.5243C179.872 74.3516 194.365 67.8479 196.414 70.478C201.235 76.6351 206.744 88.61 207.643 88.5648C210.892 88.3839 223.826 77.3435 232.851 69.5737C243.8 60.1309 241.378 72.2867 238.529 78.4437Z" fill="#48A069"/>
<path d="M180.321 61.1708C181.978 54.7877 183.311 53.4162 182.041 47.2365C181.213 43.1745 183.269 40.8609 185.859 44.1693C190.069 49.5727 189.585 58.292 188.589 61.2537L180.321 61.1708Z" fill="#48A069"/>
<path d="M180.967 80.2977C180.967 80.2977 178.49 71.2543 179.627 64.2909C180.413 59.4602 183.213 49.1432 195.979 43.981C199.003 42.7526 204.127 43.3102 199.86 47.2441C196.828 50.0325 194.119 50.8238 192.631 52.7907C192.631 52.7907 199.067 54.2979 200.091 57.6365C200.99 60.5248 201.694 63.4792 202.197 66.4764C201.708 66.7024 201.207 66.8937 200.695 67.0491C200.695 67.0491 201.397 70.2369 199.144 74.5853L180.967 80.2977Z" fill="#48A069"/>
<path d="M181.058 59.8068C182.925 58.1865 186.925 54.8254 191.087 53.3031C195.705 51.6075 205.039 49.6782 206.169 53.3558C206.997 56.0538 203.495 57.1239 203.495 57.1239C203.495 57.1239 207.509 57.1993 207.762 59.8143C207.987 62.1957 205.235 62.8288 205.235 62.8288C205.235 62.8288 207.657 63.3186 207.467 65.6624C207.243 68.4734 202.197 66.9737 199.67 69.6038C199.102 70.2217 181.058 59.8068 181.058 59.8068Z" fill="#48A069"/>
<path d="M191.936 58.8498C195.504 57.0095 199.51 56.3837 203.418 57.0562C203.516 57.0562 203.551 57.1617 203.46 57.1692C199.572 57.2377 195.707 57.8173 191.95 58.895C191.95 58.895 191.915 58.8573 191.936 58.8498Z" fill="#00313A"/>
<path d="M193.67 63.8086C195.48 62.9494 200.863 61.6457 205.228 62.7535C205.327 62.7535 205.355 62.8741 205.228 62.8665C201.344 62.7268 197.457 63.058 193.642 63.8538C193.642 63.8538 193.642 63.8161 193.67 63.8086Z" fill="#00313A"/>
<path d="M231.946 92.4535L220.016 79.0391C220.016 79.0391 228.921 70.3123 235.455 66.9059C241.989 63.4996 243.056 68.059 240.368 75.0751C237.68 82.0913 231.946 92.4535 231.946 92.4535Z" fill="#F4F5F8"/>
<path d="M223.602 76.9817C227.271 80.4639 230.718 84.2078 233.918 88.188C233.918 88.188 233.855 88.301 233.834 88.2784C230.858 85.4071 225.342 79.235 223.51 77.1174C223.454 77.0721 223.567 76.944 223.602 76.9817Z" fill="#00313A"/>
<path d="M56.7127 156.654C58.5374 157.407 111.678 158.447 113.762 157.174C113.987 157.031 113.924 154.514 114.71 147.995C114.745 147.686 115.959 146.488 117.847 144.769C124.956 138.379 141.659 124.889 141.659 124.889L115.138 100.148L89.4379 127.278L82.7497 134.332C82.7497 134.332 61.0429 146.917 58.8883 148.583C56.7338 150.248 54.881 155.9 56.7127 156.654Z" fill="#48A069"/>
<path d="M56.7127 156.654C58.5374 157.407 111.678 158.447 113.762 157.174C113.987 157.031 113.924 154.514 114.703 147.995C106.358 149.419 69.0855 150.173 65.2817 148.545C61.8569 147.075 68.3977 142.787 69.7733 141.928C64.6922 144.943 59.8427 147.837 58.8883 148.583C56.7548 150.248 54.881 155.9 56.7127 156.654Z" fill="white"/>
<path d="M123.283 143.928C123.5 143.693 123.815 143.353 124.216 142.922C125.032 142.043 126.205 140.787 127.632 139.28C130.485 136.265 134.353 132.242 138.412 128.21C142.469 124.18 146.723 120.133 150.348 117.076C152.159 115.548 153.822 114.259 155.231 113.341C155.936 112.882 156.585 112.509 157.165 112.246C157.737 111.987 158.275 111.817 158.748 111.797L158.769 112.296L158.748 111.797C158.927 111.789 159.131 111.833 159.322 111.887C159.525 111.945 159.766 112.03 160.038 112.136C160.584 112.35 161.285 112.664 162.122 113.061C163.797 113.856 166.043 114.998 168.717 116.377C169.763 116.916 170.875 117.492 172.045 118.097C176.86 120.59 182.654 123.59 188.854 126.644C196.558 130.44 204.879 134.315 212.706 137.4C220.541 140.488 227.846 142.769 233.531 143.398C241.431 144.274 247.856 139.324 252.359 134.019C254.602 131.378 256.344 128.678 257.525 126.636C258.115 125.615 258.564 124.761 258.865 124.163C258.956 123.983 259.033 123.826 259.097 123.695L223.501 108.914L223.48 108.905L223.459 108.895C215.629 104.748 207.467 99.5634 199.449 94.4703C194.564 91.3676 189.733 88.2989 185.063 85.5193C178.876 81.8373 172.96 78.654 167.531 76.5307C162.095 74.4046 157.197 73.3618 153.03 73.9054L153.029 73.9055C148.495 74.4921 142.633 77.5053 136.341 81.774C130.068 86.0297 123.436 91.4851 117.376 96.874C111.317 102.261 105.839 107.575 101.875 111.542C99.8933 113.525 98.2905 115.171 97.1834 116.321C96.6299 116.897 96.2003 117.348 95.9093 117.655C95.8728 117.693 95.8385 117.729 95.8064 117.763L123.283 143.928Z" fill="#00313A" stroke="#222428"/>
<path d="M104.084 113.947C108.695 118.348 107.425 117.021 111.994 121.483C114.233 123.661 125.497 134.596 127.265 137C127.307 137.052 127.265 137.135 127.188 137.098C124.816 135.387 113.769 124.196 111.573 121.973C107.081 117.451 108.415 118.687 103.965 114.09C103.956 114.081 103.949 114.071 103.944 114.06C103.939 114.048 103.936 114.036 103.936 114.024C103.935 114.011 103.937 113.998 103.94 113.986C103.944 113.975 103.95 113.964 103.958 113.954C103.966 113.945 103.975 113.937 103.986 113.932C103.997 113.926 104.008 113.923 104.02 113.922C104.032 113.922 104.043 113.923 104.054 113.928C104.066 113.932 104.076 113.938 104.084 113.947Z" fill="#00313A"/>
<path d="M127.658 135.598C134.066 129.524 155.064 109.771 155.92 109.04C156.578 108.359 157.311 107.767 158.102 107.277C158.43 107.141 158.781 107.085 159.131 107.115C159.481 107.145 159.821 107.26 160.124 107.45C161.099 107.94 162.047 108.475 163.008 108.958L168.693 111.934C176.033 115.785 183.339 119.734 190.736 123.457C197.823 127.101 205.086 130.338 212.492 133.156C219.889 135.966 227.541 137.931 235.322 139.019C236.276 139.14 237.238 139.253 238.199 139.343C238.269 139.343 238.269 139.464 238.199 139.464C230.568 138.982 223.024 137.476 215.742 134.98C208.396 132.484 201.215 129.463 194.245 125.937C186.996 122.357 179.851 118.529 172.707 114.715C168.938 112.703 165.17 110.668 161.387 108.686C160.531 108.234 159.281 107.254 158.334 107.744C157.92 107.985 157.537 108.284 157.197 108.634L155.941 109.756C154.32 111.211 128.57 135.018 127.735 135.703C127.679 135.741 127.595 135.651 127.658 135.598Z" fill="#00313A"/>
<path d="M158.874 112.304C162.776 112.748 210.696 141.363 233.476 143.895C249.786 145.704 259.773 123.435 259.773 123.435L247.435 118.31L158.874 112.304Z" fill="#00313A"/>
<path d="M223.016 108.596L211.345 112.427C211.373 112.447 211.402 112.469 211.432 112.49C211.775 112.738 212.197 113.034 212.641 113.346C212.824 113.474 213.01 113.605 213.197 113.737C213.832 114.184 214.465 114.636 214.919 114.987C215.143 115.16 215.34 115.32 215.472 115.449C215.532 115.507 215.612 115.59 215.668 115.685C215.691 115.724 215.754 115.836 215.752 115.987C215.751 116.074 215.728 116.179 215.661 116.277C215.595 116.373 215.509 116.43 215.437 116.462L215.434 116.463C215.321 116.512 215.156 116.539 215.026 116.559C214.87 116.582 214.665 116.606 214.419 116.632C213.926 116.683 213.246 116.741 212.405 116.806C210.723 116.936 208.38 117.094 205.571 117.283C205.3 117.301 205.025 117.319 204.746 117.338C199.227 117.708 192.073 118.188 184.586 118.787C176.72 119.416 168.494 120.177 161.418 121.081C154.325 121.987 148.442 123.031 145.228 124.213L145.228 124.213C138.59 126.651 135.326 133.146 135.279 139.634C135.231 146.133 138.409 152.438 144.441 154.531C145.961 155.059 148.59 155.55 152.086 155.981C155.57 156.411 159.88 156.777 164.74 157.064C174.459 157.638 186.36 157.894 198.223 157.715C210.088 157.536 221.903 156.921 231.452 155.754C236.228 155.171 240.426 154.451 243.775 153.583C247.145 152.709 249.585 151.702 250.909 150.582C256.404 145.935 258.25 137.646 258.686 130.386C258.903 126.775 258.768 123.457 258.579 121.042C258.485 119.835 258.377 118.855 258.293 118.177C258.255 117.873 258.222 117.63 258.197 117.455L223.016 108.596Z" fill="#00313A" stroke="#222428"/>
<path d="M241.442 116.441C241.442 116.335 241.61 116.366 241.61 116.441C241.603 119.274 242.53 122.019 244.228 124.188C246.158 126.585 249 127.919 251.576 129.32C251.828 129.456 251.639 129.87 251.379 129.787C249.797 129.265 248.272 128.56 246.831 127.685C245.509 126.924 244.344 125.883 243.407 124.625C242.569 123.482 241.962 122.163 241.624 120.755C241.286 119.346 241.223 117.877 241.442 116.441Z" fill="#00313A"/>
<path d="M216.163 113.419C216.738 112.665 217.37 111.912 217.966 111.113C219.37 109.304 220.816 107.481 222.296 105.732C222.444 105.566 222.717 105.8 222.584 105.981C221.588 107.39 220.528 108.747 219.482 110.118C218.949 110.827 218.408 111.527 217.868 112.221C217.307 112.85 216.804 113.537 216.366 114.271C215.98 115.024 216.485 115.718 217.243 115.778C217.911 115.801 218.56 115.544 219.054 115.062C220.18 113.993 221.209 112.812 222.128 111.535C222.724 110.781 223.321 110.096 223.932 109.38C224.542 108.664 225.265 107.872 225.904 107.119C225.946 107.066 226.03 107.119 225.988 107.187C225.426 108.016 224.907 108.882 224.346 109.711C223.784 110.54 223.209 111.362 222.626 112.176C222.044 112.989 221.51 113.683 220.921 114.436C220.435 115.088 219.852 115.649 219.194 116.094C218.114 116.78 216.247 116.923 215.685 115.431C215.598 115.08 215.596 114.711 215.68 114.358C215.763 114.006 215.929 113.683 216.163 113.419Z" fill="#00313A"/>
<path d="M145.996 155.086C150.333 155.169 154.671 155.441 159.008 155.539C163.345 155.637 167.612 155.667 171.921 155.621C180.562 155.531 189.197 155.169 197.824 154.536C206.534 153.896 215.938 152.961 224.591 151.673C228.732 151.055 232.929 150.542 237.02 149.6C240.707 148.853 244.117 146.985 246.845 144.219C252.46 138.379 254.628 129.795 255.527 121.611C255.646 120.511 255.744 119.41 255.829 118.302C255.825 118.293 255.824 118.284 255.825 118.274C255.827 118.264 255.83 118.255 255.835 118.247C255.84 118.239 255.847 118.233 255.855 118.228C255.863 118.224 255.872 118.221 255.881 118.221C255.89 118.221 255.899 118.224 255.907 118.228C255.915 118.233 255.922 118.239 255.927 118.247C255.932 118.255 255.936 118.264 255.937 118.274C255.938 118.284 255.937 118.293 255.934 118.302C255.429 126.705 254.207 135.477 249.281 142.237C247.202 145.187 244.435 147.496 241.259 148.929C237.385 150.595 233.083 150.987 228.992 151.582C220.296 152.848 210.864 153.843 202.119 154.551C193.375 155.26 184.497 155.719 175.669 155.84C166.84 155.961 158.025 155.84 149.21 155.38C148.137 155.328 147.063 155.26 145.989 155.162C145.933 155.169 145.94 155.086 145.996 155.086Z" fill="#00313A"/>
<path d="M173.346 119.29C176.076 118.86 178.799 118.438 181.543 118.137C184.287 117.835 187.094 117.556 189.873 117.308C195.361 116.803 200.87 116.358 206.379 116.079C209.502 115.921 212.633 115.906 215.763 115.951C215.868 115.951 215.854 116.102 215.763 116.117C210.253 116.652 204.744 117.021 199.228 117.413C193.712 117.805 188.231 118.325 182.736 118.921C179.627 119.237 176.511 119.486 173.388 119.757C173.163 119.749 173.114 119.327 173.346 119.29Z" fill="#00313A"/>
<path d="M209.685 111.934C211.882 112.952 213.995 114.167 216.001 115.567C218.042 116.884 219.996 118.352 221.847 119.96C221.903 120.013 221.847 120.081 221.784 120.051C219.637 118.988 217.573 117.654 215.531 116.381C213.462 115.131 211.463 113.752 209.545 112.251C209.418 112.13 209.502 111.851 209.685 111.934Z" fill="#00313A"/>
<path d="M223.202 158.779L185.887 158.659C175.802 158.659 177.465 149.969 179.886 140.888C182.308 131.807 185.95 118.031 194.968 118.061H204.653H214.345C223.356 118.061 226.9 131.883 229.293 140.986C231.686 150.09 233.287 158.809 223.202 158.779Z" fill="white"/>
<path d="M193.522 118.084C193.421 118.084 193.324 118.126 193.252 118.203C193.18 118.279 193.138 118.382 193.136 118.491C193.136 118.601 193.177 118.708 193.249 118.787C193.321 118.865 193.419 118.911 193.522 118.913C193.625 118.913 193.723 118.869 193.795 118.791C193.868 118.714 193.908 118.608 193.908 118.498C193.909 118.444 193.9 118.389 193.881 118.338C193.862 118.288 193.834 118.242 193.797 118.203C193.761 118.164 193.719 118.134 193.671 118.113C193.624 118.093 193.573 118.083 193.522 118.084ZM200.267 118.521C200.267 118.575 200.257 118.629 200.237 118.678C200.218 118.728 200.189 118.773 200.153 118.811C200.117 118.849 200.075 118.879 200.028 118.899C199.981 118.919 199.931 118.929 199.881 118.928C199.83 118.928 199.78 118.917 199.733 118.896C199.686 118.875 199.644 118.845 199.608 118.806C199.572 118.768 199.544 118.722 199.524 118.672C199.505 118.622 199.495 118.568 199.495 118.513C199.497 118.403 199.539 118.297 199.612 118.22C199.686 118.142 199.785 118.099 199.888 118.099C199.984 118.11 200.073 118.16 200.136 118.238C200.2 118.316 200.234 118.417 200.232 118.521H200.267ZM206.632 118.521C206.63 118.632 206.588 118.737 206.515 118.814C206.441 118.892 206.342 118.935 206.239 118.935C206.137 118.935 206.039 118.892 205.966 118.814C205.894 118.736 205.853 118.631 205.853 118.521C205.853 118.411 205.894 118.306 205.966 118.228C206.039 118.15 206.137 118.106 206.239 118.106C206.292 118.105 206.344 118.116 206.392 118.137C206.441 118.158 206.485 118.19 206.522 118.23C206.559 118.271 206.587 118.318 206.606 118.371C206.625 118.423 206.634 118.48 206.632 118.536V118.521ZM212.99 118.521C212.99 118.631 212.95 118.736 212.877 118.814C212.805 118.892 212.707 118.935 212.604 118.935C212.502 118.935 212.404 118.892 212.332 118.814C212.259 118.736 212.218 118.631 212.218 118.521C212.218 118.411 212.259 118.306 212.332 118.228C212.404 118.15 212.502 118.106 212.604 118.106C212.658 118.106 212.711 118.118 212.761 118.141C212.81 118.164 212.854 118.198 212.891 118.241C212.927 118.283 212.955 118.334 212.972 118.388C212.989 118.443 212.995 118.501 212.99 118.559V118.521ZM187.522 127.218C187.522 127.328 187.481 127.433 187.409 127.511C187.337 127.588 187.238 127.632 187.136 127.632C187.034 127.632 186.935 127.588 186.863 127.511C186.791 127.433 186.75 127.328 186.75 127.218C186.75 127.108 186.791 127.002 186.863 126.925C186.935 126.847 187.034 126.803 187.136 126.803C187.19 126.803 187.243 126.815 187.292 126.838C187.342 126.861 187.386 126.895 187.422 126.938C187.458 126.98 187.486 127.03 187.503 127.085C187.521 127.14 187.527 127.198 187.522 127.255V127.218ZM193.887 127.218C193.886 127.272 193.876 127.326 193.855 127.376C193.835 127.426 193.806 127.471 193.769 127.509C193.733 127.546 193.69 127.576 193.643 127.596C193.595 127.616 193.545 127.626 193.494 127.625C193.444 127.625 193.394 127.614 193.348 127.593C193.301 127.572 193.259 127.541 193.224 127.503C193.189 127.464 193.161 127.418 193.142 127.368C193.124 127.318 193.114 127.264 193.115 127.21C193.114 127.156 193.124 127.102 193.143 127.051C193.162 127.001 193.191 126.955 193.227 126.917C193.263 126.879 193.306 126.849 193.353 126.83C193.4 126.81 193.451 126.801 193.501 126.803C193.559 126.798 193.618 126.807 193.672 126.829C193.727 126.852 193.776 126.887 193.815 126.933C193.855 126.979 193.885 127.033 193.902 127.093C193.92 127.153 193.924 127.216 193.915 127.278L193.887 127.218ZM200.246 127.218C200.246 127.328 200.205 127.433 200.133 127.511C200.06 127.588 199.962 127.632 199.86 127.632C199.757 127.632 199.659 127.588 199.587 127.511C199.514 127.433 199.474 127.328 199.474 127.218C199.474 127.108 199.514 127.002 199.587 126.925C199.659 126.847 199.757 126.803 199.86 126.803C199.962 126.803 200.06 126.847 200.133 126.925C200.205 127.002 200.246 127.108 200.246 127.218ZM206.604 127.218C206.604 127.328 206.563 127.433 206.491 127.511C206.419 127.588 206.32 127.632 206.218 127.632C206.116 127.632 206.018 127.588 205.945 127.511C205.873 127.433 205.832 127.328 205.832 127.218C205.832 127.108 205.873 127.002 205.945 126.925C206.018 126.847 206.116 126.803 206.218 126.803C206.32 126.803 206.419 126.847 206.491 126.925C206.563 127.002 206.604 127.108 206.604 127.218ZM212.962 127.218C212.962 127.328 212.922 127.433 212.849 127.511C212.777 127.588 212.679 127.632 212.576 127.632C212.473 127.63 212.375 127.585 212.303 127.506C212.231 127.427 212.19 127.321 212.19 127.21C212.194 127.101 212.237 126.997 212.31 126.921C212.384 126.845 212.482 126.803 212.583 126.803C212.645 126.8 212.706 126.813 212.762 126.84C212.818 126.868 212.867 126.91 212.904 126.963C212.942 127.016 212.967 127.078 212.977 127.143C212.987 127.208 212.982 127.275 212.962 127.338V127.218ZM219.328 127.218C219.328 127.328 219.287 127.433 219.215 127.511C219.142 127.588 219.044 127.632 218.942 127.632C218.839 127.632 218.741 127.588 218.669 127.511C218.596 127.433 218.556 127.328 218.556 127.218C218.556 127.108 218.596 127.002 218.669 126.925C218.741 126.847 218.839 126.803 218.942 126.803C219.005 126.801 219.069 126.815 219.126 126.845C219.183 126.874 219.233 126.918 219.271 126.973C219.309 127.028 219.334 127.092 219.344 127.159C219.354 127.227 219.348 127.296 219.328 127.361V127.218ZM190.715 122.621C190.715 122.731 190.675 122.836 190.602 122.914C190.53 122.991 190.432 123.035 190.329 123.035C190.227 123.035 190.129 122.991 190.056 122.914C189.984 122.836 189.943 122.731 189.943 122.621C189.943 122.511 189.984 122.405 190.056 122.327C190.129 122.25 190.227 122.206 190.329 122.206C190.432 122.206 190.53 122.25 190.602 122.327C190.675 122.405 190.715 122.511 190.715 122.621ZM197.074 122.621C197.075 122.675 197.065 122.729 197.046 122.779C197.027 122.83 196.998 122.875 196.962 122.913C196.926 122.952 196.883 122.981 196.836 123.001C196.789 123.021 196.738 123.03 196.688 123.028C196.633 123.035 196.577 123.031 196.525 123.014C196.472 122.997 196.423 122.968 196.382 122.929C196.34 122.89 196.307 122.842 196.284 122.788C196.261 122.734 196.25 122.676 196.25 122.617C196.25 122.558 196.261 122.499 196.284 122.445C196.307 122.392 196.34 122.344 196.382 122.305C196.423 122.266 196.472 122.237 196.525 122.22C196.577 122.203 196.633 122.198 196.688 122.206C196.756 122.195 196.825 122.204 196.889 122.233C196.952 122.261 197.007 122.309 197.047 122.369C197.087 122.429 197.111 122.5 197.115 122.573C197.12 122.647 197.106 122.721 197.074 122.786V122.621ZM203.439 122.621C203.439 122.731 203.398 122.836 203.326 122.914C203.253 122.991 203.155 123.035 203.053 123.035C202.951 123.035 202.852 122.991 202.78 122.914C202.708 122.836 202.667 122.731 202.667 122.621C202.667 122.511 202.708 122.405 202.78 122.327C202.852 122.25 202.951 122.206 203.053 122.206C203.155 122.206 203.253 122.25 203.326 122.327C203.398 122.405 203.439 122.511 203.439 122.621ZM209.797 122.621C209.797 122.731 209.757 122.836 209.684 122.914C209.612 122.991 209.514 123.035 209.411 123.035C209.309 123.035 209.211 122.991 209.138 122.914C209.066 122.836 209.025 122.731 209.025 122.621C209.025 122.566 209.035 122.512 209.055 122.462C209.074 122.412 209.102 122.366 209.138 122.327C209.174 122.289 209.217 122.258 209.264 122.238C209.31 122.217 209.361 122.206 209.411 122.206C209.462 122.206 209.512 122.217 209.559 122.238C209.606 122.258 209.648 122.289 209.684 122.327C209.72 122.366 209.748 122.412 209.768 122.462C209.787 122.512 209.797 122.566 209.797 122.621ZM216.156 122.621C216.156 122.731 216.115 122.836 216.043 122.914C215.97 122.991 215.872 123.035 215.77 123.035C215.667 123.035 215.569 122.991 215.497 122.914C215.424 122.836 215.384 122.731 215.384 122.621C215.384 122.511 215.424 122.405 215.497 122.327C215.569 122.25 215.667 122.206 215.77 122.206C215.844 122.192 215.921 122.202 215.99 122.235C216.06 122.267 216.119 122.321 216.16 122.389C216.201 122.458 216.223 122.537 216.222 122.619C216.221 122.7 216.198 122.779 216.156 122.847V122.621ZM222.472 122.847C222.44 122.912 222.391 122.965 222.331 123.001C222.271 123.037 222.203 123.054 222.135 123.05C222.034 123.05 221.938 123.007 221.867 122.931C221.796 122.855 221.756 122.751 221.756 122.643C221.754 122.555 221.779 122.467 221.827 122.395C221.875 122.323 221.944 122.27 222.023 122.244C222.17 122.681 222.317 122.862 222.465 123.073L222.472 122.847ZM187.508 135.809C187.508 135.919 187.467 136.024 187.395 136.102C187.323 136.18 187.224 136.223 187.122 136.223C187.02 136.223 186.921 136.18 186.849 136.102C186.777 136.024 186.736 135.919 186.736 135.809C186.736 135.699 186.777 135.593 186.849 135.516C186.921 135.438 187.02 135.394 187.122 135.394C187.196 135.382 187.272 135.393 187.34 135.427C187.408 135.46 187.466 135.514 187.506 135.582C187.546 135.65 187.567 135.729 187.566 135.809C187.565 135.89 187.543 135.968 187.501 136.035L187.508 135.809ZM193.866 135.809C193.866 135.919 193.826 136.024 193.753 136.102C193.681 136.18 193.583 136.223 193.48 136.223C193.378 136.223 193.28 136.18 193.207 136.102C193.135 136.024 193.094 135.919 193.094 135.809C193.094 135.754 193.104 135.701 193.124 135.65C193.143 135.6 193.172 135.554 193.207 135.516C193.243 135.477 193.286 135.447 193.333 135.426C193.379 135.405 193.43 135.394 193.48 135.394C193.531 135.394 193.581 135.405 193.628 135.426C193.675 135.447 193.717 135.477 193.753 135.516C193.789 135.554 193.818 135.6 193.837 135.65C193.856 135.701 193.866 135.754 193.866 135.809ZM200.225 135.809C200.226 135.864 200.216 135.918 200.197 135.969C200.178 136.019 200.15 136.066 200.114 136.104C200.078 136.143 200.035 136.173 199.987 136.194C199.94 136.214 199.89 136.224 199.839 136.223C199.788 136.223 199.738 136.213 199.691 136.192C199.644 136.171 199.602 136.14 199.566 136.102C199.53 136.063 199.501 136.018 199.482 135.967C199.463 135.917 199.453 135.863 199.453 135.809C199.454 135.698 199.497 135.593 199.57 135.515C199.644 135.438 199.743 135.394 199.846 135.394C199.926 135.371 200.011 135.377 200.089 135.41C200.166 135.443 200.231 135.502 200.275 135.579C200.318 135.655 200.337 135.744 200.329 135.833C200.322 135.922 200.287 136.006 200.232 136.073L200.225 135.809ZM206.59 135.809C206.588 135.919 206.546 136.025 206.472 136.102C206.399 136.18 206.3 136.223 206.197 136.223C206.095 136.223 205.996 136.18 205.924 136.102C205.852 136.024 205.811 135.919 205.811 135.809C205.811 135.699 205.852 135.593 205.924 135.516C205.996 135.438 206.095 135.394 206.197 135.394C206.279 135.376 206.364 135.386 206.44 135.424C206.515 135.462 206.578 135.525 206.617 135.604C206.657 135.683 206.671 135.773 206.659 135.862C206.646 135.95 206.607 136.032 206.548 136.095L206.59 135.809ZM212.948 135.809C212.948 135.891 212.926 135.971 212.883 136.039C212.841 136.107 212.781 136.16 212.71 136.192C212.64 136.223 212.562 136.231 212.487 136.215C212.412 136.199 212.343 136.16 212.289 136.102C212.235 136.044 212.199 135.97 212.184 135.89C212.169 135.809 212.177 135.726 212.206 135.65C212.235 135.574 212.284 135.51 212.348 135.464C212.411 135.419 212.486 135.394 212.562 135.394C212.652 135.34 212.757 135.327 212.856 135.356C212.955 135.386 213.038 135.457 213.089 135.553C213.139 135.649 213.152 135.762 213.124 135.868C213.096 135.974 213.031 136.064 212.941 136.118L212.948 135.809ZM219.307 135.809C219.307 135.919 219.266 136.024 219.194 136.102C219.121 136.18 219.023 136.223 218.921 136.223C218.818 136.223 218.72 136.18 218.648 136.102C218.575 136.024 218.535 135.919 218.535 135.809C218.535 135.699 218.575 135.593 218.648 135.516C218.72 135.438 218.818 135.394 218.921 135.394C219.012 135.34 219.119 135.328 219.219 135.359C219.319 135.39 219.404 135.462 219.454 135.56C219.504 135.658 219.516 135.773 219.487 135.881C219.458 135.988 219.391 136.079 219.3 136.133L219.307 135.809ZM225.665 135.809C225.665 135.919 225.624 136.024 225.552 136.102C225.48 136.18 225.381 136.223 225.279 136.223C225.177 136.223 225.078 136.18 225.006 136.102C224.934 136.024 224.893 135.919 224.893 135.809C224.893 135.699 224.934 135.593 225.006 135.516C225.078 135.438 225.177 135.394 225.279 135.394C225.373 135.34 225.483 135.329 225.585 135.362C225.687 135.395 225.773 135.471 225.823 135.571C225.873 135.672 225.884 135.791 225.853 135.9C225.822 136.01 225.752 136.102 225.658 136.156L225.665 135.809ZM184.336 131.174C184.336 131.284 184.295 131.389 184.223 131.467C184.15 131.545 184.052 131.589 183.95 131.589C183.873 131.589 183.799 131.564 183.735 131.519C183.672 131.473 183.622 131.408 183.593 131.333C183.564 131.257 183.556 131.174 183.571 131.093C183.586 131.013 183.623 130.939 183.677 130.881C183.731 130.823 183.8 130.784 183.875 130.768C183.949 130.752 184.027 130.76 184.098 130.791C184.168 130.823 184.228 130.876 184.271 130.944C184.313 131.012 184.336 131.092 184.336 131.174ZM190.701 131.174C190.701 131.284 190.66 131.389 190.588 131.467C190.516 131.545 190.418 131.589 190.315 131.589C190.213 131.589 190.115 131.545 190.042 131.467C189.97 131.389 189.929 131.284 189.929 131.174C189.929 131.064 189.97 130.959 190.042 130.881C190.115 130.803 190.213 130.76 190.315 130.76C190.412 130.706 190.525 130.695 190.629 130.731C190.733 130.766 190.819 130.844 190.87 130.948C190.92 131.052 190.93 131.173 190.897 131.285C190.864 131.396 190.791 131.489 190.694 131.543L190.701 131.174ZM197.06 131.174C197.06 131.284 197.019 131.389 196.946 131.467C196.874 131.545 196.776 131.589 196.674 131.589C196.571 131.589 196.473 131.545 196.401 131.467C196.328 131.389 196.288 131.284 196.288 131.174C196.288 131.064 196.328 130.959 196.401 130.881C196.473 130.803 196.571 130.76 196.674 130.76C196.776 130.76 196.874 130.803 196.946 130.881C197.019 130.959 197.06 131.064 197.06 131.174ZM203.418 131.174C203.418 131.229 203.408 131.282 203.388 131.333C203.369 131.383 203.341 131.429 203.305 131.467C203.269 131.506 203.226 131.536 203.18 131.557C203.133 131.578 203.083 131.589 203.032 131.589C202.929 131.589 202.831 131.545 202.759 131.467C202.687 131.389 202.646 131.284 202.646 131.174C202.646 131.064 202.687 130.959 202.759 130.881C202.831 130.803 202.929 130.76 203.032 130.76C203.133 130.706 203.251 130.697 203.358 130.736C203.465 130.775 203.554 130.858 203.604 130.967C203.654 131.076 203.662 131.202 203.626 131.317C203.59 131.432 203.512 131.527 203.411 131.581L203.418 131.174ZM209.783 131.174C209.781 131.285 209.739 131.39 209.666 131.468C209.592 131.545 209.493 131.589 209.39 131.589C209.288 131.589 209.19 131.545 209.117 131.467C209.045 131.389 209.004 131.284 209.004 131.174C209.004 131.064 209.045 130.959 209.117 130.881C209.19 130.803 209.288 130.76 209.39 130.76C209.494 130.705 209.615 130.696 209.725 130.737C209.835 130.777 209.925 130.862 209.976 130.974C210.027 131.086 210.035 131.216 209.998 131.334C209.96 131.452 209.88 131.549 209.776 131.604L209.783 131.174ZM216.142 131.174C216.142 131.284 216.101 131.389 216.029 131.467C215.956 131.545 215.858 131.589 215.756 131.589C215.653 131.589 215.555 131.545 215.483 131.467C215.41 131.389 215.37 131.284 215.37 131.174C215.37 131.064 215.41 130.959 215.483 130.881C215.555 130.803 215.653 130.76 215.756 130.76C215.858 130.76 215.956 130.803 216.029 130.881C216.101 130.959 216.142 131.064 216.142 131.174ZM222.5 131.174C222.5 131.284 222.459 131.389 222.387 131.467C222.314 131.545 222.216 131.589 222.114 131.589C222.012 131.589 221.913 131.545 221.841 131.467C221.769 131.389 221.728 131.284 221.728 131.174C221.728 131.064 221.769 130.959 221.841 130.881C221.913 130.803 222.012 130.76 222.114 130.76C222.223 130.706 222.347 130.7 222.46 130.745C222.572 130.789 222.664 130.88 222.714 130.997C222.764 131.114 222.769 131.248 222.728 131.368C222.686 131.489 222.602 131.587 222.493 131.641L222.5 131.174ZM181.093 144.325C181.093 144.435 181.053 144.54 180.98 144.618C180.908 144.696 180.81 144.739 180.707 144.739C180.605 144.739 180.507 144.696 180.435 144.618C180.362 144.54 180.321 144.435 180.321 144.325C180.321 144.27 180.331 144.216 180.351 144.166C180.37 144.116 180.399 144.07 180.435 144.032C180.47 143.993 180.513 143.963 180.56 143.942C180.607 143.921 180.657 143.91 180.707 143.91C180.758 143.91 180.808 143.921 180.855 143.942C180.902 143.963 180.945 143.993 180.98 144.032C181.016 144.07 181.045 144.116 181.064 144.166C181.083 144.216 181.093 144.27 181.093 144.325ZM187.452 144.325C187.453 144.379 187.443 144.433 187.424 144.483C187.405 144.534 187.377 144.579 187.341 144.618C187.304 144.656 187.261 144.685 187.214 144.705C187.167 144.725 187.116 144.734 187.066 144.732C186.963 144.732 186.865 144.688 186.793 144.61C186.72 144.533 186.68 144.427 186.68 144.317C186.683 144.208 186.726 144.104 186.8 144.028C186.873 143.953 186.971 143.91 187.073 143.91C187.185 143.853 187.313 143.846 187.429 143.891C187.546 143.935 187.641 144.028 187.694 144.148C187.747 144.268 187.753 144.405 187.712 144.53C187.671 144.655 187.585 144.758 187.473 144.815L187.452 144.325ZM193.817 144.325C193.815 144.435 193.773 144.541 193.7 144.618C193.626 144.696 193.527 144.739 193.424 144.739C193.322 144.739 193.224 144.696 193.151 144.618C193.079 144.54 193.038 144.435 193.038 144.325C193.038 144.215 193.079 144.109 193.151 144.032C193.224 143.954 193.322 143.91 193.424 143.91C193.538 143.851 193.668 143.843 193.788 143.888C193.907 143.932 194.004 144.026 194.059 144.148C194.114 144.27 194.122 144.41 194.08 144.538C194.039 144.666 193.952 144.771 193.838 144.83L193.817 144.325ZM200.176 144.325C200.176 144.435 200.135 144.54 200.062 144.618C199.99 144.696 199.892 144.739 199.79 144.739C199.687 144.739 199.589 144.696 199.517 144.618C199.444 144.54 199.404 144.435 199.404 144.325C199.404 144.215 199.444 144.109 199.517 144.032C199.589 143.954 199.687 143.91 199.79 143.91C199.847 143.882 199.909 143.865 199.973 143.862C200.036 143.86 200.1 143.87 200.159 143.894C200.28 143.941 200.378 144.038 200.432 144.163C200.486 144.288 200.491 144.43 200.447 144.56C200.403 144.689 200.313 144.794 200.197 144.852L200.176 144.325ZM206.534 144.325C206.534 144.435 206.493 144.54 206.421 144.618C206.348 144.696 206.25 144.739 206.148 144.739C206.045 144.739 205.947 144.696 205.875 144.618C205.803 144.54 205.762 144.435 205.762 144.325C205.762 144.215 205.803 144.109 205.875 144.032C205.947 143.954 206.045 143.91 206.148 143.91C206.25 143.91 206.348 143.954 206.421 144.032C206.493 144.109 206.534 144.215 206.534 144.325ZM212.892 144.325C212.892 144.379 212.882 144.432 212.863 144.482C212.843 144.532 212.815 144.577 212.779 144.615C212.743 144.653 212.7 144.683 212.653 144.703C212.607 144.723 212.557 144.733 212.506 144.732C212.456 144.733 212.405 144.723 212.358 144.702C212.311 144.682 212.269 144.651 212.234 144.612C212.198 144.573 212.17 144.527 212.152 144.476C212.134 144.426 212.125 144.371 212.127 144.317C212.127 144.207 212.168 144.102 212.24 144.024C212.313 143.946 212.411 143.903 212.513 143.903C212.636 143.846 212.775 143.843 212.899 143.896C213.024 143.949 213.123 144.053 213.176 144.185C213.229 144.317 213.232 144.466 213.182 144.6C213.133 144.733 213.036 144.84 212.913 144.897L212.892 144.325ZM219.258 144.325C219.258 144.435 219.217 144.54 219.145 144.618C219.072 144.696 218.974 144.739 218.872 144.739C218.769 144.739 218.671 144.696 218.599 144.618C218.526 144.54 218.486 144.435 218.486 144.325C218.486 144.215 218.526 144.109 218.599 144.032C218.671 143.954 218.769 143.91 218.872 143.91C218.974 143.91 219.072 143.954 219.145 144.032C219.217 144.109 219.258 144.215 219.258 144.325ZM225.616 144.325C225.616 144.379 225.606 144.433 225.587 144.483C225.567 144.534 225.539 144.579 225.503 144.618C225.467 144.656 225.424 144.687 225.378 144.708C225.331 144.728 225.281 144.739 225.23 144.739C225.128 144.739 225.029 144.696 224.957 144.618C224.885 144.54 224.844 144.435 224.844 144.325C224.844 144.215 224.885 144.109 224.957 144.032C225.029 143.954 225.128 143.91 225.23 143.91C225.293 143.882 225.36 143.866 225.428 143.866C225.496 143.865 225.564 143.878 225.627 143.906C225.69 143.933 225.748 143.973 225.796 144.025C225.845 144.076 225.884 144.137 225.911 144.204C225.937 144.271 225.952 144.344 225.952 144.417C225.953 144.49 225.94 144.563 225.915 144.63C225.889 144.698 225.852 144.76 225.804 144.812C225.756 144.865 225.7 144.906 225.637 144.935L225.616 144.325ZM184.287 139.69C184.287 139.8 184.246 139.905 184.174 139.983C184.101 140.061 184.003 140.104 183.901 140.104C183.798 140.104 183.7 140.061 183.628 139.983C183.555 139.905 183.515 139.8 183.515 139.69C183.515 139.58 183.555 139.475 183.628 139.397C183.7 139.319 183.798 139.275 183.901 139.275C184.003 139.275 184.101 139.319 184.174 139.397C184.246 139.475 184.287 139.58 184.287 139.69ZM190.645 139.69C190.645 139.8 190.604 139.905 190.532 139.983C190.46 140.061 190.361 140.104 190.259 140.104C190.156 140.102 190.058 140.057 189.986 139.978C189.913 139.899 189.873 139.793 189.873 139.682C189.873 139.572 189.914 139.467 189.986 139.389C190.058 139.312 190.157 139.268 190.259 139.268C190.361 139.268 190.46 139.312 190.532 139.389C190.604 139.467 190.645 139.572 190.645 139.682V139.69ZM197.003 139.69C197.011 139.749 197.006 139.808 196.991 139.865C196.975 139.921 196.948 139.974 196.912 140.018C196.875 140.063 196.831 140.099 196.781 140.123C196.73 140.148 196.676 140.16 196.621 140.16C196.566 140.16 196.511 140.148 196.461 140.123C196.411 140.099 196.366 140.063 196.33 140.018C196.294 139.974 196.267 139.921 196.251 139.865C196.235 139.808 196.231 139.749 196.238 139.69C196.238 139.58 196.279 139.475 196.351 139.397C196.424 139.319 196.522 139.275 196.624 139.275C196.756 139.218 196.903 139.22 197.033 139.279C197.163 139.339 197.266 139.451 197.319 139.592C197.372 139.733 197.371 139.891 197.316 140.031C197.26 140.17 197.156 140.281 197.024 140.338L197.003 139.69ZM203.369 139.69C203.369 139.8 203.328 139.905 203.256 139.983C203.183 140.061 203.085 140.104 202.983 140.104C202.88 140.104 202.782 140.061 202.71 139.983C202.637 139.905 202.597 139.8 202.597 139.69C202.597 139.58 202.637 139.475 202.71 139.397C202.782 139.319 202.88 139.275 202.983 139.275C203.085 139.275 203.183 139.319 203.256 139.397C203.328 139.475 203.369 139.58 203.369 139.69ZM209.727 139.69C209.727 139.8 209.686 139.905 209.614 139.983C209.542 140.061 209.443 140.104 209.341 140.104C209.239 140.104 209.141 140.061 209.068 139.983C208.996 139.905 208.955 139.8 208.955 139.69C208.955 139.58 208.996 139.475 209.068 139.397C209.141 139.319 209.239 139.275 209.341 139.275C209.443 139.275 209.542 139.319 209.614 139.397C209.686 139.475 209.727 139.58 209.727 139.69ZM216.085 139.69C216.085 139.744 216.075 139.798 216.056 139.847C216.036 139.897 216.008 139.943 215.972 139.98C215.936 140.018 215.893 140.048 215.847 140.068C215.8 140.088 215.75 140.098 215.699 140.097C215.645 140.105 215.589 140.1 215.537 140.083C215.484 140.066 215.435 140.037 215.394 139.998C215.352 139.959 215.319 139.911 215.296 139.858C215.273 139.804 215.261 139.745 215.261 139.686C215.261 139.627 215.273 139.569 215.296 139.515C215.319 139.461 215.352 139.413 215.394 139.374C215.435 139.335 215.484 139.306 215.537 139.289C215.589 139.272 215.645 139.268 215.699 139.275C215.839 139.217 215.994 139.221 216.131 139.286C216.268 139.351 216.375 139.472 216.429 139.622C216.483 139.772 216.48 139.939 216.419 140.086C216.358 140.233 216.246 140.348 216.106 140.406L216.085 139.69ZM222.451 139.69C222.449 139.801 222.407 139.906 222.333 139.984C222.26 140.061 222.161 140.104 222.058 140.104C221.955 140.104 221.857 140.061 221.785 139.983C221.712 139.905 221.672 139.8 221.672 139.69C221.672 139.58 221.712 139.475 221.785 139.397C221.857 139.319 221.955 139.275 222.058 139.275C222.199 139.216 222.357 139.22 222.496 139.286C222.634 139.352 222.743 139.474 222.798 139.626C222.853 139.778 222.85 139.947 222.788 140.096C222.727 140.245 222.613 140.362 222.472 140.421L222.451 139.69ZM228.809 139.69C228.809 139.8 228.768 139.905 228.696 139.983C228.624 140.061 228.525 140.104 228.423 140.104C228.321 140.104 228.223 140.061 228.15 139.983C228.078 139.905 228.037 139.8 228.037 139.69C228.037 139.58 228.078 139.475 228.15 139.397C228.223 139.319 228.321 139.275 228.423 139.275C228.495 139.247 228.571 139.233 228.647 139.236C228.723 139.239 228.798 139.258 228.867 139.292C228.937 139.326 228.999 139.374 229.051 139.434C229.103 139.494 229.144 139.564 229.171 139.641C229.197 139.718 229.21 139.799 229.207 139.881C229.204 139.963 229.187 140.043 229.155 140.118C229.124 140.192 229.079 140.26 229.023 140.315C228.967 140.371 228.902 140.415 228.83 140.444L228.809 139.69ZM181.086 152.818C181.085 152.929 181.042 153.034 180.969 153.111C180.895 153.189 180.796 153.232 180.693 153.232C180.591 153.232 180.493 153.189 180.42 153.111C180.348 153.033 180.307 152.928 180.307 152.818C180.307 152.708 180.348 152.603 180.42 152.525C180.493 152.447 180.591 152.403 180.693 152.403C180.839 152.346 180.999 152.354 181.139 152.424C181.279 152.494 181.388 152.621 181.441 152.776C181.494 152.932 181.487 153.105 181.422 153.255C181.357 153.406 181.239 153.522 181.093 153.579L181.086 152.818ZM187.445 152.818C187.445 152.928 187.404 153.033 187.332 153.111C187.259 153.189 187.161 153.232 187.059 153.232C186.956 153.232 186.858 153.189 186.786 153.111C186.713 153.033 186.673 152.928 186.673 152.818C186.673 152.764 186.683 152.71 186.702 152.66C186.722 152.611 186.75 152.565 186.786 152.527C186.822 152.49 186.865 152.46 186.912 152.44C186.958 152.42 187.008 152.41 187.059 152.411C187.203 152.355 187.362 152.363 187.501 152.433C187.64 152.503 187.747 152.629 187.799 152.784C187.851 152.939 187.844 153.11 187.779 153.259C187.714 153.408 187.596 153.523 187.452 153.579L187.445 152.818ZM193.803 152.818C193.803 152.872 193.793 152.926 193.774 152.977C193.754 153.027 193.726 153.073 193.69 153.111C193.654 153.15 193.612 153.18 193.565 153.201C193.518 153.222 193.468 153.232 193.417 153.232C193.315 153.232 193.217 153.189 193.144 153.111C193.072 153.033 193.031 152.928 193.031 152.818C193.031 152.708 193.072 152.603 193.144 152.525C193.217 152.447 193.315 152.403 193.417 152.403C193.489 152.376 193.565 152.363 193.642 152.367C193.718 152.371 193.793 152.391 193.862 152.426C193.931 152.461 193.993 152.511 194.044 152.571C194.096 152.632 194.135 152.703 194.161 152.78C194.187 152.857 194.198 152.939 194.195 153.021C194.191 153.103 194.172 153.184 194.14 153.258C194.107 153.332 194.061 153.398 194.005 153.454C193.948 153.509 193.882 153.551 193.81 153.579L193.803 152.818ZM200.161 152.818C200.161 152.872 200.152 152.926 200.132 152.977C200.113 153.027 200.084 153.073 200.048 153.111C200.013 153.15 199.97 153.18 199.923 153.201C199.876 153.222 199.826 153.232 199.775 153.232C199.673 153.232 199.575 153.189 199.503 153.111C199.43 153.033 199.389 152.928 199.389 152.818C199.389 152.708 199.43 152.603 199.503 152.525C199.575 152.447 199.673 152.403 199.775 152.403C199.927 152.347 200.093 152.359 200.237 152.434C200.382 152.51 200.492 152.644 200.544 152.807C200.596 152.97 200.586 153.148 200.515 153.303C200.445 153.457 200.32 153.576 200.169 153.632L200.161 152.818ZM206.527 152.818C206.527 152.928 206.486 153.033 206.414 153.111C206.341 153.189 206.243 153.232 206.141 153.232C206.038 153.232 205.94 153.189 205.868 153.111C205.796 153.033 205.755 152.928 205.755 152.818C205.755 152.708 205.796 152.603 205.868 152.525C205.94 152.447 206.038 152.403 206.141 152.403C206.243 152.403 206.341 152.447 206.414 152.525C206.486 152.603 206.527 152.708 206.527 152.818ZM212.885 152.818C212.885 152.928 212.845 153.033 212.772 153.111C212.7 153.189 212.602 153.232 212.499 153.232C212.397 153.232 212.299 153.189 212.226 153.111C212.154 153.033 212.113 152.928 212.113 152.818C212.113 152.708 212.154 152.603 212.226 152.525C212.299 152.447 212.397 152.403 212.499 152.403C212.602 152.403 212.7 152.447 212.772 152.525C212.845 152.603 212.885 152.708 212.885 152.818ZM219.244 152.818C219.244 152.928 219.203 153.033 219.13 153.111C219.058 153.189 218.96 153.232 218.858 153.232C218.755 153.232 218.657 153.189 218.585 153.111C218.512 153.033 218.472 152.928 218.472 152.818C218.472 152.708 218.512 152.603 218.585 152.525C218.657 152.447 218.755 152.403 218.858 152.403C218.96 152.403 219.058 152.447 219.13 152.525C219.203 152.603 219.244 152.708 219.244 152.818ZM225.602 152.818C225.602 152.872 225.592 152.926 225.572 152.977C225.553 153.027 225.525 153.073 225.489 153.111C225.453 153.15 225.41 153.18 225.364 153.201C225.317 153.222 225.267 153.232 225.216 153.232C225.14 153.232 225.065 153.208 225.001 153.163C224.938 153.117 224.888 153.052 224.859 152.977C224.83 152.901 224.822 152.817 224.837 152.737C224.852 152.657 224.889 152.583 224.943 152.525C224.997 152.467 225.066 152.427 225.141 152.411C225.215 152.395 225.293 152.404 225.364 152.435C225.434 152.466 225.494 152.52 225.537 152.588C225.579 152.656 225.602 152.736 225.602 152.818ZM184.28 149.057C184.287 149.116 184.283 149.176 184.267 149.232C184.251 149.289 184.224 149.341 184.188 149.386C184.152 149.43 184.107 149.466 184.057 149.491C184.007 149.515 183.952 149.528 183.897 149.528C183.842 149.528 183.788 149.515 183.738 149.491C183.687 149.466 183.643 149.43 183.606 149.386C183.57 149.341 183.543 149.289 183.527 149.232C183.512 149.176 183.507 149.116 183.515 149.057C183.507 148.999 183.512 148.939 183.527 148.883C183.543 148.826 183.57 148.774 183.606 148.729C183.643 148.684 183.687 148.649 183.738 148.624C183.788 148.6 183.842 148.587 183.897 148.587C183.952 148.587 184.007 148.6 184.057 148.624C184.107 148.649 184.152 148.684 184.188 148.729C184.224 148.774 184.251 148.826 184.267 148.883C184.283 148.939 184.287 148.999 184.28 149.057ZM190.645 149.057C190.645 149.167 190.604 149.273 190.532 149.35C190.46 149.428 190.361 149.472 190.259 149.472C190.157 149.472 190.058 149.428 189.986 149.35C189.914 149.273 189.873 149.167 189.873 149.057C189.873 149.003 189.883 148.95 189.903 148.9C189.922 148.85 189.951 148.805 189.987 148.767C190.022 148.729 190.065 148.699 190.112 148.679C190.159 148.659 190.209 148.649 190.259 148.65C190.313 148.65 190.366 148.662 190.415 148.685C190.465 148.708 190.509 148.742 190.545 148.785C190.582 148.827 190.609 148.878 190.626 148.932C190.644 148.987 190.65 149.045 190.645 149.103V149.057ZM197.003 149.057C197.003 149.167 196.963 149.273 196.89 149.35C196.818 149.428 196.72 149.472 196.617 149.472C196.515 149.472 196.417 149.428 196.344 149.35C196.272 149.273 196.231 149.167 196.231 149.057C196.231 148.947 196.272 148.842 196.344 148.764C196.417 148.687 196.515 148.643 196.617 148.643C196.673 148.642 196.728 148.655 196.779 148.679C196.83 148.704 196.876 148.74 196.912 148.785C196.949 148.83 196.976 148.883 196.992 148.94C197.008 148.998 197.011 149.058 197.003 149.118V149.057ZM203.362 149.057C203.362 149.167 203.321 149.273 203.249 149.35C203.176 149.428 203.078 149.472 202.976 149.472C202.873 149.472 202.775 149.428 202.703 149.35C202.63 149.273 202.59 149.167 202.59 149.057C202.59 148.947 202.63 148.842 202.703 148.764C202.775 148.687 202.873 148.643 202.976 148.643C203.034 148.642 203.091 148.654 203.144 148.68C203.196 148.706 203.243 148.744 203.28 148.792C203.317 148.84 203.344 148.896 203.358 148.956C203.372 149.016 203.373 149.079 203.362 149.14V149.057ZM209.727 149.057C209.725 149.168 209.683 149.273 209.61 149.351C209.536 149.428 209.437 149.472 209.334 149.472C209.232 149.468 209.136 149.422 209.065 149.343C208.994 149.264 208.955 149.159 208.955 149.05C208.955 148.996 208.965 148.942 208.985 148.892C209.004 148.842 209.033 148.797 209.069 148.759C209.104 148.722 209.147 148.692 209.194 148.672C209.241 148.652 209.291 148.642 209.341 148.643C209.401 148.641 209.461 148.654 209.516 148.681C209.57 148.708 209.618 148.748 209.656 148.799C209.693 148.849 209.719 148.909 209.732 148.972C209.744 149.035 209.742 149.1 209.727 149.163V149.057ZM216.085 149.057C216.085 149.167 216.045 149.273 215.972 149.35C215.9 149.428 215.802 149.472 215.699 149.472C215.597 149.472 215.499 149.428 215.426 149.35C215.354 149.273 215.313 149.167 215.313 149.057C215.313 149.003 215.323 148.949 215.343 148.899C215.362 148.848 215.391 148.803 215.426 148.764C215.462 148.726 215.505 148.695 215.552 148.674C215.599 148.654 215.649 148.643 215.699 148.643C215.75 148.643 215.8 148.654 215.847 148.674C215.894 148.695 215.937 148.726 215.972 148.764C216.008 148.803 216.037 148.848 216.056 148.899C216.075 148.949 216.085 149.003 216.085 149.057ZM222.444 149.057C222.444 149.167 222.403 149.273 222.331 149.35C222.258 149.428 222.16 149.472 222.058 149.472C221.955 149.472 221.857 149.428 221.785 149.35C221.712 149.273 221.672 149.167 221.672 149.057C221.672 148.947 221.712 148.842 221.785 148.764C221.857 148.687 221.955 148.643 222.058 148.643C222.122 148.639 222.186 148.652 222.244 148.681C222.303 148.71 222.353 148.754 222.392 148.809C222.43 148.865 222.455 148.93 222.464 148.998C222.473 149.066 222.466 149.136 222.444 149.201V149.057ZM228.802 149.057C228.802 149.167 228.761 149.273 228.689 149.35C228.617 149.428 228.518 149.472 228.416 149.472C228.314 149.472 228.216 149.428 228.143 149.35C228.071 149.273 228.03 149.167 228.03 149.057C228.03 148.947 228.071 148.842 228.143 148.764C228.216 148.687 228.314 148.643 228.416 148.643C228.483 148.637 228.55 148.649 228.611 148.68C228.672 148.71 228.724 148.756 228.763 148.815C228.802 148.874 228.826 148.942 228.833 149.014C228.84 149.085 228.829 149.157 228.802 149.223V149.057ZM184.259 157.694C184.259 157.804 184.218 157.909 184.146 157.987C184.073 158.065 183.975 158.108 183.873 158.108C183.77 158.106 183.671 158.061 183.599 157.982C183.527 157.903 183.487 157.797 183.487 157.686C183.487 157.576 183.527 157.471 183.6 157.393C183.672 157.315 183.77 157.272 183.873 157.272C183.975 157.272 184.073 157.315 184.146 157.393C184.218 157.471 184.259 157.576 184.259 157.686V157.694ZM190.617 157.694C190.617 157.748 190.607 157.801 190.587 157.851C190.568 157.901 190.539 157.946 190.503 157.984C190.468 158.022 190.425 158.052 190.378 158.072C190.331 158.092 190.281 158.102 190.231 158.101C190.154 158.101 190.079 158.076 190.016 158.03C189.952 157.984 189.903 157.919 189.874 157.843C189.845 157.767 189.838 157.683 189.853 157.603C189.868 157.522 189.906 157.448 189.961 157.391C190.015 157.333 190.085 157.294 190.16 157.279C190.235 157.264 190.313 157.273 190.384 157.306C190.454 157.338 190.514 157.392 190.555 157.462C190.597 157.531 190.618 157.612 190.617 157.694ZM196.982 157.694C196.98 157.804 196.938 157.91 196.865 157.987C196.791 158.065 196.692 158.108 196.589 158.108C196.487 158.108 196.389 158.065 196.316 157.987C196.244 157.909 196.203 157.804 196.203 157.694C196.203 157.584 196.244 157.478 196.316 157.401C196.389 157.323 196.487 157.279 196.589 157.279C196.661 157.267 196.735 157.277 196.802 157.309C196.869 157.34 196.926 157.39 196.967 157.455C197.009 157.52 197.032 157.596 197.034 157.674C197.037 157.752 197.019 157.83 196.982 157.897V157.694ZM203.341 157.694C203.341 157.804 203.3 157.909 203.228 157.987C203.155 158.065 203.057 158.108 202.955 158.108C202.852 158.108 202.754 158.065 202.682 157.987C202.609 157.909 202.569 157.804 202.569 157.694C202.569 157.584 202.609 157.478 202.682 157.401C202.754 157.323 202.852 157.279 202.955 157.279C203.029 157.265 203.106 157.275 203.175 157.308C203.245 157.34 203.304 157.394 203.345 157.462C203.386 157.531 203.408 157.611 203.407 157.692C203.406 157.773 203.383 157.853 203.341 157.92V157.694ZM209.699 157.694C209.699 157.804 209.658 157.909 209.586 157.987C209.514 158.065 209.415 158.108 209.313 158.108C209.211 158.108 209.112 158.065 209.04 157.987C208.968 157.909 208.927 157.804 208.927 157.694C208.927 157.584 208.968 157.478 209.04 157.401C209.112 157.323 209.211 157.279 209.313 157.279C209.415 157.279 209.514 157.323 209.586 157.401C209.658 157.478 209.699 157.584 209.699 157.694ZM216.057 157.694C216.058 157.749 216.049 157.803 216.03 157.854C216.011 157.904 215.982 157.95 215.946 157.989C215.91 158.028 215.867 158.058 215.82 158.079C215.773 158.099 215.722 158.109 215.671 158.108C215.569 158.108 215.471 158.065 215.398 157.987C215.326 157.909 215.285 157.804 215.285 157.694C215.287 157.583 215.329 157.478 215.403 157.4C215.476 157.323 215.575 157.279 215.678 157.279C215.758 157.259 215.842 157.266 215.918 157.3C215.994 157.334 216.057 157.393 216.1 157.469C216.142 157.545 216.161 157.633 216.153 157.721C216.145 157.809 216.112 157.892 216.057 157.958V157.694ZM222.423 157.694C222.421 157.804 222.379 157.91 222.305 157.987C222.232 158.065 222.133 158.108 222.03 158.108C221.927 158.108 221.829 158.065 221.757 157.987C221.684 157.909 221.644 157.804 221.644 157.694C221.644 157.584 221.684 157.478 221.757 157.401C221.829 157.323 221.927 157.279 222.03 157.279C222.115 157.243 222.209 157.24 222.296 157.271C222.383 157.303 222.456 157.366 222.504 157.45C222.551 157.535 222.569 157.634 222.554 157.731C222.539 157.828 222.493 157.917 222.423 157.98V157.694ZM228.318 157.309C228.254 157.357 228.186 157.397 228.114 157.43C228.194 157.459 228.262 157.518 228.304 157.596L228.318 157.309Z" fill="white"/>
<path opacity="0.1" d="M197.424 122.854C197.423 123.512 197.24 124.154 196.898 124.7C196.557 125.246 196.072 125.671 195.506 125.921C194.939 126.171 194.316 126.234 193.716 126.104C193.116 125.974 192.565 125.655 192.134 125.189C191.702 124.722 191.409 124.128 191.292 123.483C191.175 122.838 191.238 122.169 191.475 121.563C191.711 120.956 192.11 120.439 192.621 120.075C193.132 119.712 193.731 119.52 194.344 119.523C194.75 119.523 195.152 119.61 195.527 119.777C195.903 119.945 196.243 120.191 196.53 120.5C196.816 120.81 197.042 121.177 197.196 121.581C197.35 121.985 197.427 122.418 197.424 122.854Z" fill="#00313A"/>
<path opacity="0.1" d="M218.043 122.922C218.042 123.58 217.859 124.223 217.517 124.769C217.175 125.315 216.69 125.74 216.123 125.989C215.556 126.239 214.933 126.302 214.333 126.171C213.732 126.041 213.181 125.721 212.75 125.254C212.319 124.786 212.026 124.192 211.91 123.546C211.793 122.9 211.858 122.232 212.096 121.625C212.334 121.019 212.734 120.502 213.245 120.14C213.757 119.778 214.357 119.587 214.97 119.591C215.375 119.593 215.776 119.681 216.15 119.849C216.524 120.018 216.863 120.264 217.149 120.573C217.434 120.882 217.66 121.249 217.814 121.652C217.967 122.055 218.045 122.487 218.043 122.922Z" fill="#00313A"/>
<path d="M196.421 122.847C196.421 123.294 196.297 123.731 196.066 124.103C195.835 124.475 195.506 124.764 195.121 124.936C194.736 125.107 194.313 125.151 193.905 125.064C193.496 124.977 193.121 124.762 192.827 124.445C192.532 124.129 192.332 123.726 192.25 123.288C192.169 122.849 192.211 122.395 192.37 121.982C192.53 121.568 192.799 121.215 193.146 120.967C193.492 120.719 193.899 120.586 194.315 120.586C194.874 120.586 195.409 120.824 195.804 121.248C196.199 121.672 196.421 122.247 196.421 122.847Z" fill="#00313A"/>
<path d="M217.075 122.915C217.075 123.362 216.951 123.799 216.72 124.171C216.489 124.543 216.16 124.832 215.775 125.003C215.391 125.175 214.967 125.219 214.559 125.132C214.15 125.045 213.775 124.83 213.481 124.513C213.186 124.197 212.986 123.794 212.905 123.356C212.823 122.917 212.865 122.463 213.024 122.049C213.184 121.636 213.454 121.283 213.8 121.035C214.146 120.786 214.553 120.654 214.97 120.654C215.528 120.654 216.063 120.892 216.458 121.316C216.853 121.74 217.075 122.315 217.075 122.915Z" fill="#00313A"/>
<path d="M214.97 122.116C214.815 122.116 214.662 122.149 214.519 122.212C214.377 122.276 214.247 122.369 214.138 122.487C214.029 122.605 213.943 122.744 213.885 122.898C213.826 123.051 213.797 123.216 213.798 123.382C213.575 127.414 212.995 131.413 212.064 135.327C210.892 140.082 208.716 145.749 205.004 145.757C198.154 145.757 195.544 127.233 195.53 123.442C195.53 123.106 195.405 122.784 195.184 122.547C194.963 122.309 194.663 122.176 194.351 122.176C194.038 122.176 193.738 122.309 193.517 122.547C193.296 122.784 193.171 123.106 193.171 123.442C193.171 123.691 194.673 148.311 205.011 148.311C215.033 148.311 216.156 123.646 216.156 123.397C216.157 123.229 216.128 123.062 216.069 122.906C216.01 122.75 215.923 122.608 215.813 122.489C215.702 122.37 215.571 122.275 215.426 122.211C215.281 122.147 215.126 122.115 214.97 122.116Z" fill="white"/>
<path opacity="0.1" d="M214.97 122.116C214.815 122.116 214.662 122.149 214.519 122.212C214.377 122.276 214.247 122.369 214.138 122.487C214.029 122.605 213.943 122.744 213.885 122.898C213.826 123.051 213.797 123.216 213.798 123.382C213.575 127.414 212.995 131.413 212.064 135.327C210.892 140.082 208.716 145.749 205.004 145.757C198.154 145.757 195.544 127.233 195.53 123.442C195.53 123.106 195.405 122.784 195.184 122.547C194.963 122.309 194.663 122.176 194.351 122.176C194.038 122.176 193.738 122.309 193.517 122.547C193.296 122.784 193.171 123.106 193.171 123.442C193.171 123.691 194.673 148.311 205.011 148.311C215.033 148.311 216.156 123.646 216.156 123.397C216.157 123.229 216.128 123.062 216.069 122.906C216.01 122.75 215.923 122.608 215.813 122.489C215.702 122.37 215.571 122.275 215.426 122.211C215.281 122.147 215.126 122.115 214.97 122.116Z" fill="#00313A"/>
<path d="M215.945 113.736C216.506 115.861 260.362 124.851 261.983 124.399C261.983 124.399 260.369 100.547 256.109 81.2623C251.555 60.5981 241.126 64.2909 237.259 66.8682C232.676 69.9204 222.717 82.5434 221.749 85.1434C220.156 89.4465 222.935 95.061 222.935 95.061L215.945 113.736Z" fill="#F4F5F8"/>
<path d="M221.286 86.1607C221.723 84.7696 222.375 83.4676 223.216 82.3097C224.1 81.0211 225.047 79.7776 226.023 78.5417L226.121 78.4211C226.191 78.2704 226.262 78.1121 226.339 77.9614C226.479 77.675 226.641 77.3962 226.795 77.1173C227.132 76.5521 227.497 76.0171 227.904 75.4895L227.96 75.5272C227.63 76.1226 227.3 76.7179 226.949 77.2982L226.746 77.6449C227.658 76.5144 228.599 75.384 229.609 74.3817C229.609 74.3817 229.693 74.3817 229.665 74.4269C227.848 76.8988 225.932 79.2727 224.191 81.8123C223.361 82.9498 222.667 84.1957 222.128 85.5201C221.599 86.9423 221.434 88.4905 221.651 90.0042C221.776 90.8641 221.969 91.7111 222.226 92.5363C222.479 93.3954 222.71 94.2696 222.984 95.1137C222.985 95.1264 222.983 95.1391 222.977 95.1501C222.97 95.1611 222.961 95.1697 222.95 95.1747C222.939 95.1797 222.927 95.1809 222.916 95.1781C222.904 95.1752 222.894 95.1685 222.886 95.1589C222.18 93.7571 221.627 92.2727 221.237 90.7351C220.882 89.2317 220.899 87.6549 221.286 86.1607Z" fill="#00313A"/>
<path d="M252.628 72.7841C260.987 86.952 268.363 112.628 262.047 116.742C253.555 122.281 237.062 124.361 217.384 122.425C214.661 122.161 212.668 99.2209 215.594 99.3414C219.272 99.4997 244.993 101.233 245.772 100.472C246.431 99.8238 245.245 88.4668 245.07 76.6802C244.866 62.8966 250.235 68.7296 252.628 72.7841Z" fill="#48A069"/>
<path d="M217.671 99.5148C217.671 99.5148 209.439 98.2336 204.014 97.6684C200.99 97.3519 195.754 97.3067 193.431 98.1658C189.957 99.4545 176.202 107.209 177.879 110.834C179.402 114.112 190.434 105.838 190.434 105.838C190.434 105.838 178.616 113.133 181.122 116.72C183.627 120.307 194.94 109.184 194.94 109.184C194.94 109.184 182.946 116.976 186.083 120.239C188.448 122.704 199.214 113.238 199.214 113.238C199.214 113.238 188.954 120.021 191.284 122.651C193.866 125.575 204.316 117.511 204.316 117.511C211.292 123.163 216.773 122.786 220.64 122.033C221.574 121.829 217.671 99.5148 217.671 99.5148Z" fill="#48A069"/>
<path d="M194.372 103.027C192.968 103.833 191.515 104.639 190.161 105.574C188.806 106.508 187.501 107.496 186.245 108.588C184.572 109.946 183.051 111.506 181.711 113.238C184.301 110.352 189.066 106.923 190.413 105.988C191.761 105.054 193.059 104.052 194.4 103.117C194.442 103.087 194.407 103.012 194.372 103.027Z" fill="#00313A"/>
<path d="M197.607 108.189C195.838 109.297 194.049 110.329 192.322 111.52C190.596 112.711 189.08 113.999 187.445 115.288C187.318 115.386 187.41 115.431 187.543 115.333C189.22 114.09 190.863 113.072 192.561 111.867C194.259 110.661 195.909 109.357 197.635 108.204C197.663 108.212 197.635 108.174 197.607 108.189Z" fill="#00313A"/>
<path d="M201.123 112.078C198.372 113.709 195.785 115.641 193.403 117.843C193.277 117.948 193.403 117.986 193.529 117.888C196.063 115.914 198.035 114.354 201.172 112.183C201.221 112.13 201.186 112.047 201.123 112.078Z" fill="#00313A"/>
<path d="M221.209 99.6654C219.938 99.4393 218.661 99.2585 217.384 99.0927C216.106 98.9269 214.829 98.7686 213.552 98.6179C212.275 98.4672 210.99 98.3315 209.706 98.2185C208.422 98.1055 207.144 97.9623 205.86 97.8718C207.116 98.1959 208.387 98.4295 209.657 98.6254C210.927 98.8214 212.211 99.0023 213.496 99.153C214.78 99.3037 216.057 99.4243 217.342 99.4996C218.626 99.575 219.882 99.673 221.209 99.6654Z" fill="#00313A"/>
<path d="M261.492 89.7856L244.375 92.0992C244.375 92.0992 243.126 79.2275 244.459 71.5557C245.793 63.8839 249.842 65.6775 253.484 72.1887C257.127 78.7 261.492 89.7856 261.492 89.7856Z" fill="#F4F5F8"/>
<path d="M244.866 88.6703C249.675 87.7123 254.537 87.1006 259.422 86.839C259.422 86.839 259.471 86.9596 259.422 86.9671C255.478 87.7207 247.533 88.5798 244.866 88.8511C244.838 88.8587 244.817 88.6778 244.866 88.6703Z" fill="#00313A"/>
<path d="M243.147 81.4883C243.147 81.4883 243.189 81.4883 243.196 81.4883C243.357 82.144 243.484 82.7996 243.596 83.4703C243.596 82.0761 243.596 80.6744 243.694 79.2878C243.694 79.235 243.765 79.2426 243.765 79.2878C244.01 83.4703 244.347 87.6453 244.508 91.8279C244.915 91.9033 245.33 91.9786 245.744 92.0163C245.754 92.0206 245.764 92.0283 245.77 92.0384C245.777 92.0485 245.78 92.0605 245.78 92.0728C245.78 92.0852 245.777 92.0971 245.77 92.1073C245.764 92.1174 245.754 92.1251 245.744 92.1294C245.274 92.1403 244.806 92.178 244.34 92.2424C244.286 92.2524 244.231 92.241 244.185 92.2105C244.138 92.18 244.104 92.1325 244.087 92.0766C243.781 89.6483 243.614 87.2019 243.589 84.7515C243.498 84.3596 243.414 83.9602 243.343 83.5608C243.232 82.8759 243.166 82.1833 243.147 81.4883Z" fill="#00313A"/>
<path d="M247.189 67.4109C246.923 68.27 242.536 73.5603 238.831 73.0027C237.624 72.8143 238.262 65.6926 238.262 65.6926L238.199 65.1575L237.301 57.6214L245.849 52.8812L247.077 52.2632C247.077 52.2632 247.196 54.3432 247.323 56.9281C247.323 57.0486 247.323 57.1692 247.323 57.2973C247.323 57.4254 247.323 57.5762 247.323 57.7118C247.323 58.1037 247.365 58.4654 247.379 58.8875C247.393 59.3095 247.379 59.4828 247.379 59.7918C247.379 60.1008 247.379 60.4173 247.379 60.7338C247.454 62.9615 247.391 65.1922 247.189 67.4109Z" fill="#48A069"/>
<path d="M247.323 56.9281C246.45 58.9289 245.181 60.7015 243.606 62.1226C242.03 63.5438 240.185 64.5794 238.199 65.1575L237.301 57.6214L245.849 52.8812L247.077 52.2632C247.077 52.2632 247.196 54.3432 247.323 56.9281Z" fill="#00313A"/>
<path d="M227.799 45.1716C225.84 58.3146 232.957 61.0578 235.596 61.5025C237.996 61.9169 246.2 62.972 249.414 50.1153C252.628 37.2586 247.547 32.1265 242.108 30.8755C236.669 29.6245 229.75 32.021 227.799 45.1716Z" fill="#48A069"/>
<path d="M248.488 50.5977C245.582 50.2058 246.228 45.3224 246.228 45.3224C246.228 45.3224 242.979 44.5235 243.463 38.7885C242.679 39.8403 241.678 40.6819 240.539 41.2469C239.4 41.8119 238.155 42.0848 236.901 42.0442C235.939 42.0442 239.434 39.8963 239.434 39.8963C239.434 39.8963 235.174 43.0238 228.325 40.5972C227.841 40.4239 229.911 32.6164 235.771 30.7023C241.631 28.7881 246.41 31.0414 249.358 35.2616C249.358 35.2616 253.148 37.8541 253.084 42.0442C253.021 46.2343 249.611 50.7559 248.488 50.5977Z" fill="#00313A"/>
<path d="M247.316 50.7937C247.316 50.7937 250.291 46.8523 251.976 48.0204C253.66 49.1885 251.225 55.0441 249.112 55.7072C248.847 55.8112 248.564 55.8566 248.282 55.8409C248 55.8251 247.723 55.7485 247.469 55.6156C247.215 55.4827 246.989 55.2962 246.803 55.0672C246.617 54.8383 246.477 54.5715 246.389 54.2829L247.316 50.7937Z" fill="#48A069"/>
<path d="M251.239 49.6858C251.239 49.6858 251.239 49.731 251.239 49.7385C249.758 50.2585 248.902 51.6376 248.27 53.0846C248.363 52.9351 248.486 52.8093 248.629 52.7158C248.772 52.6224 248.932 52.5635 249.098 52.5434C249.265 52.5234 249.433 52.5425 249.592 52.5995C249.751 52.6565 249.896 52.75 250.018 52.8736C250.018 52.9112 250.018 52.9715 249.976 52.9565C249.727 52.8498 249.454 52.8288 249.193 52.8963C248.933 52.9638 248.699 53.1165 248.523 53.3333C248.232 53.6954 247.978 54.0895 247.765 54.5089C247.688 54.637 247.463 54.5089 247.519 54.3959V54.3582C247.639 52.3837 249.253 49.731 251.239 49.6858Z" fill="#00313A"/>
</svg>
