<svg width="300" height="260" viewBox="0 0 300 260" fill="none" xmlns="http://www.w3.org/2000/svg">
<path d="M20.5026 31.3747H18.9835C18.5324 29.7113 17.6004 28.2017 16.2934 27.0175C14.9863 25.8333 13.3566 25.0219 11.5894 24.6755C9.82222 24.3292 7.98845 24.4617 6.29645 25.0582C4.60444 25.6546 3.12206 26.6909 2.01774 28.0495C0.913411 29.408 0.231429 31.0343 0.0492817 32.7435C-0.132865 34.4526 0.192127 36.1762 0.987329 37.7183C1.78253 39.2604 3.01606 40.5591 4.54774 41.467C6.07943 42.3749 7.84785 42.8556 9.65208 42.8543H20.5026C22.1013 42.8543 23.6346 42.2496 24.765 41.1731C25.8955 40.0967 26.5306 38.6368 26.5306 37.1145C26.5306 35.5922 25.8955 34.1323 24.765 33.0558C23.6346 31.9794 22.1013 31.3747 20.5026 31.3747Z" fill="white"/>
<path d="M106.217 161.987H104.698C104.247 160.323 103.315 158.814 102.008 157.63C100.701 156.445 99.0708 155.634 97.3036 155.288C95.5365 154.941 93.7027 155.074 92.0107 155.67C90.3187 156.267 88.8363 157.303 87.732 158.662C86.6276 160.02 85.9457 161.646 85.7635 163.356C85.5814 165.065 85.9064 166.788 86.7016 168.33C87.4968 169.873 88.7303 171.171 90.262 172.079C91.7937 172.987 93.5621 173.468 95.3663 173.466H106.217C107.816 173.466 109.349 172.862 110.479 171.785C111.61 170.709 112.245 169.249 112.245 167.727C112.245 166.204 111.61 164.744 110.479 163.668C109.349 162.592 107.816 161.987 106.217 161.987Z" fill="white"/>
<path d="M213.276 171.677L211.194 182.548L197.066 248.875H194.791L205.061 182.548L206.581 171.677H213.276Z" fill="#92949C"/>
<path d="M206.581 171.677H213.276L211.194 182.548H205.061L206.581 171.677Z" fill="#92949C"/>
<path d="M257.635 248.875H255.36L241.232 182.548L239.15 171.677H245.845L247.365 182.548L257.635 248.875Z" fill="#F4F5F8"/>
<path opacity="0.6" d="M245.845 171.677L247.365 182.548H241.232L239.15 171.677H245.845Z" fill="#92949C"/>
<path d="M300 248.875H297.724L283.597 182.548L281.515 171.677H288.21L289.729 182.548L300 248.875Z" fill="#F4F5F8"/>
<path opacity="0.6" d="M289.73 182.548H283.597L281.515 171.677H288.21L289.73 182.548Z" fill="#92949C"/>
<path d="M296.389 176.781H192.893V167.3H231.638L244.659 117.918H292.444L296.389 176.781Z" fill="#F4F5F8"/>
<path opacity="0.6" d="M296.389 176.781H290.749L287.067 117.918H292.444L296.389 176.781Z" fill="#92949C"/>
<path d="M250.659 245.215C248.902 246.675 195.634 257.484 193.684 257.271C191.734 257.057 192.287 252.221 193.974 250.456C196.264 248.66 198.676 246.984 201.196 245.437C206.898 241.709 213.54 237.797 213.54 237.797L210.271 231.64L244.026 224.489C246.583 230.028 248.683 234.795 248.99 236.124C248.99 236.094 250.87 245.055 250.659 245.215Z" fill="#92949C"/>
<path d="M193.491 257.401C195.503 257.584 249.227 247.118 250.976 245.59C251.652 245.017 250.352 238.134 248.507 229.853C248.507 229.768 248.507 229.677 248.445 229.593L213.707 236.01L213.847 236.522C213.847 236.522 195.353 248.516 193.64 250.372C191.927 252.229 191.514 257.225 193.491 257.401Z" fill="#F4F5F8"/>
<path d="M193.675 255.475C202.681 253.52 239.212 246.362 248.287 245.017C248.358 245.017 248.367 245.017 248.287 245.063C239.414 247.179 202.813 254.077 193.693 255.605C193.491 255.636 193.491 255.514 193.675 255.475Z" fill="#00313A"/>
<path d="M209.911 236.85C213.329 235.575 217.818 235.2 221.095 236.85C221.227 236.919 221.095 237.072 220.99 237.064C217.339 236.775 213.664 236.826 210.025 237.217C209.979 237.212 209.936 237.194 209.901 237.168C209.866 237.141 209.841 237.106 209.829 237.067C209.816 237.027 209.818 236.986 209.832 236.948C209.847 236.909 209.875 236.875 209.911 236.85Z" fill="#00313A"/>
<path d="M207.688 238.699C211.097 237.423 215.595 237.049 218.872 238.699C219.004 238.768 218.872 238.921 218.767 238.913C215.117 238.625 211.441 238.674 207.802 239.058C207.756 239.055 207.712 239.039 207.676 239.013C207.64 238.987 207.614 238.952 207.602 238.913C207.589 238.874 207.591 238.832 207.606 238.794C207.622 238.756 207.65 238.723 207.688 238.699Z" fill="#00313A"/>
<path d="M205.466 240.54C208.874 239.272 213.373 238.898 216.65 240.54C216.782 240.609 216.65 240.762 216.544 240.754C212.894 240.463 209.218 240.511 205.58 240.899C205.536 240.893 205.495 240.875 205.461 240.849C205.428 240.823 205.404 240.789 205.392 240.751C205.38 240.714 205.381 240.674 205.394 240.637C205.407 240.599 205.432 240.566 205.466 240.54Z" fill="#00313A"/>
<path d="M203.533 231.006C204.499 229.058 207.302 229.302 209.068 230.097C212.073 231.509 214.597 233.586 216.386 236.117C216.395 236.127 216.401 236.139 216.404 236.152C216.406 236.165 216.404 236.178 216.399 236.191C216.394 236.203 216.385 236.214 216.374 236.222C216.362 236.231 216.348 236.236 216.333 236.239C216.353 236.299 216.356 236.362 216.342 236.423C216.328 236.484 216.297 236.541 216.253 236.59C216.208 236.639 216.15 236.677 216.085 236.702C216.019 236.728 215.948 236.739 215.876 236.735C212.687 236.369 209.226 236.308 206.265 235.101C204.543 234.39 202.619 232.847 203.533 231.006ZM211.176 235.315C212.74 235.528 214.304 235.681 215.859 235.949C214.463 234.739 212.996 233.591 211.466 232.511C210.721 232 209.937 231.533 209.12 231.113C207.846 230.479 203.19 229.516 204.727 232.786C205.544 234.589 209.305 235.055 211.176 235.315Z" fill="#00313A"/>
<path d="M225.242 233.542C222.607 235.2 219.189 235.834 216.14 236.674C216.071 236.689 215.998 236.689 215.928 236.675C215.859 236.66 215.794 236.632 215.739 236.592C215.684 236.552 215.641 236.501 215.613 236.444C215.585 236.386 215.573 236.324 215.578 236.262C215.525 236.262 215.472 236.208 215.499 236.147C216.727 233.375 218.772 230.933 221.429 229.065C223.002 228.004 225.708 227.324 227.07 229.065C228.431 230.807 226.789 232.572 225.242 233.542ZM226.279 231.021C227.07 227.568 222.694 229.249 221.57 230.074C220.854 230.619 220.181 231.206 219.558 231.831C218.29 233.132 217.099 234.488 215.991 235.895C217.458 235.383 218.969 234.994 220.454 234.535C222.238 233.985 225.84 232.931 226.279 231.021Z" fill="#00313A"/>
<path opacity="0.2" d="M209.2 254.719C200.757 256.324 194.211 257.47 193.535 257.408C191.514 257.233 191.962 252.221 193.675 250.372C195.899 248.546 198.246 246.837 200.704 245.254L209.2 254.719Z" fill="#222428"/>
<path d="M211.229 236.758L248.208 229.18C248.208 229.18 217.353 167.674 220.094 164.55C221.456 162.983 255.887 162.525 266.834 154.458C281.058 143.976 271.517 127.964 271.517 127.964L233.027 126.978C233.027 126.978 233.492 133.961 231.99 135.008C231.006 135.71 185.188 139.064 180.154 152.487C173.986 168.95 211.229 236.758 211.229 236.758Z" fill="#00313A"/>
<path d="M211.247 231.785C212.213 231.388 221.79 228.943 223.942 228.469C228.265 227.507 232.605 226.56 236.954 225.696C239.229 225.246 244.097 224.268 244.395 224.314C244.536 224.314 244.562 224.543 244.395 224.581C240.178 225.788 235.9 226.812 231.621 227.851C227.342 228.89 212.609 231.968 211.317 232.045C211.22 232.052 211.062 231.839 211.247 231.785Z" fill="#EAF9E7"/>
<path d="M213.487 161.777C214.361 161.308 215.36 161.045 216.386 161.013L233.079 158.591C238.271 157.827 243.499 157.162 248.665 156.299C252.944 155.581 257.301 154.611 260.965 152.594C264.59 150.611 267.275 147.56 268.529 143.999C269.699 140.421 270.031 136.675 269.505 132.983C269.408 132.082 269.215 131.188 269.021 130.302C269.021 130.233 269.136 130.21 269.144 130.302C270.559 137.177 270.682 145.092 264.752 150.554C261.87 153.213 257.916 154.771 253.884 155.787C249.277 156.807 244.607 157.595 239.897 158.148L223.204 160.562C220.568 160.951 217.818 161.249 215.165 161.731C214.633 161.791 214.132 161.985 213.724 162.288C213.529 162.528 213.405 162.807 213.363 163.099C213.322 163.391 213.364 163.687 213.487 163.961C213.75 165.1 214.111 166.253 214.48 167.338C217.511 176.33 239.879 222.19 240.477 223.175C240.485 223.196 240.484 223.219 240.475 223.239C240.465 223.259 240.448 223.276 240.426 223.286C240.403 223.296 240.378 223.299 240.353 223.294C240.329 223.289 240.307 223.277 240.292 223.259C235.196 215.375 218.46 179.279 215.095 170.776C214.208 168.613 213.481 166.403 212.916 164.16C212.819 163.289 212.67 162.38 213.487 161.777Z" fill="#EAF9E7"/>
<path d="M138.685 259.295C140.548 259.838 193.877 259.188 195.907 258.058C198.13 256.216 199.078 212.465 199.078 212.465L164.77 212.22L162.627 243.634C162.627 243.634 155.22 246.316 148.771 248.982C145.949 250.063 143.203 251.29 140.548 252.656C138.466 254.1 136.823 258.76 138.685 259.295Z" fill="#48A069"/>
<path d="M198.147 238.348C197.637 248.18 196.908 257.248 195.915 258.058C193.886 259.188 140.565 259.845 138.685 259.295C136.805 258.745 138.465 254.108 140.53 252.672C143.187 251.305 145.936 250.078 148.762 248.997C155.211 246.331 162.617 243.65 162.617 243.65L162.978 238.363L198.147 238.348Z" fill="#92949C"/>
<path d="M137.587 259.326C139.52 259.884 194.571 259.654 196.653 258.486C197.462 258.058 197.892 251.091 198.129 242.656V242.389L162.617 242.198V242.718C162.617 242.718 141.593 250.991 139.45 252.481C137.306 253.971 135.663 258.784 137.587 259.326Z" fill="#F4F5F8"/>
<path d="M138.202 257.469C147.48 257.232 184.933 257.041 194.123 257.416C194.202 257.416 194.202 257.469 194.123 257.469C184.933 257.882 147.48 257.805 138.202 257.607C138.009 257.614 138.009 257.477 138.202 257.469Z" fill="#00313A"/>
<path d="M158.664 242.336C162.31 241.732 166.782 242.198 169.585 244.444C169.69 244.536 169.585 244.666 169.426 244.635C165.93 243.672 162.325 243.037 158.673 242.741C158.619 242.732 158.569 242.708 158.533 242.672C158.498 242.635 158.477 242.589 158.476 242.541C158.475 242.493 158.494 242.447 158.528 242.409C158.562 242.372 158.61 242.346 158.664 242.336Z" fill="#00313A"/>
<path d="M156.028 243.688C159.683 243.084 164.146 243.55 166.949 245.796C167.063 245.888 166.949 246.018 166.8 245.987C163.303 245.024 159.698 244.389 156.046 244.092C155.992 244.085 155.942 244.062 155.905 244.026C155.868 243.99 155.847 243.944 155.845 243.896C155.843 243.848 155.86 243.801 155.893 243.763C155.927 243.725 155.975 243.698 156.028 243.688Z" fill="#00313A"/>
<path d="M153.402 245.078C157.056 244.475 161.52 244.941 164.322 247.187C164.436 247.278 164.322 247.408 164.173 247.378C160.676 246.415 157.071 245.78 153.419 245.483C153.365 245.476 153.315 245.452 153.278 245.417C153.241 245.381 153.22 245.335 153.218 245.287C153.216 245.239 153.233 245.192 153.266 245.154C153.3 245.116 153.348 245.089 153.402 245.078Z" fill="#00313A"/>
<path d="M153.876 235.406C155.299 233.68 157.979 234.444 159.507 235.552C162.094 237.489 164.048 239.984 165.174 242.786C165.18 242.799 165.182 242.812 165.18 242.826C165.178 242.839 165.173 242.852 165.164 242.863C165.156 242.875 165.144 242.884 165.131 242.891C165.117 242.897 165.102 242.901 165.086 242.901C165.09 242.963 165.077 243.025 165.048 243.082C165.019 243.139 164.975 243.189 164.919 243.228C164.863 243.267 164.797 243.293 164.727 243.306C164.657 243.318 164.584 243.315 164.515 243.298C161.493 242.343 158.128 241.648 155.536 239.914C154.025 238.898 152.523 237.034 153.876 235.406ZM160.272 241.037C161.748 241.541 163.241 241.976 164.664 242.527C163.61 241.087 162.47 239.697 161.247 238.363C160.648 237.721 159.999 237.117 159.305 236.552C158.216 235.697 153.902 233.886 154.561 237.362C154.956 239.28 158.523 240.441 160.272 241.037Z" fill="#00313A"/>
<path d="M174.443 241.923C171.447 243.046 167.986 243.008 164.779 243.29C164.445 243.29 164.278 243.015 164.331 242.778C164.32 242.77 164.311 242.761 164.305 242.749C164.299 242.738 164.296 242.726 164.296 242.713C164.296 242.701 164.299 242.689 164.305 242.677C164.311 242.666 164.32 242.656 164.331 242.648C166.215 240.172 168.814 238.169 171.869 236.842C173.67 236.078 176.473 235.933 177.369 237.904C178.265 239.875 176.2 241.266 174.443 241.923ZM176.086 239.631C177.712 236.399 173.02 237.232 171.693 237.828C170.86 238.227 170.059 238.673 169.295 239.165C167.735 240.201 166.236 241.305 164.805 242.473C166.369 242.251 167.933 242.152 169.506 241.976C171.403 241.793 175.19 241.434 176.086 239.654V239.631Z" fill="#00313A"/>
<path d="M160.72 242.557H199.377C199.377 242.557 198.894 181.846 201.925 178.484C205.966 173.992 262.547 174.092 274.68 159.454C285.574 146.299 276.375 127.689 276.375 127.689L233.527 126.581C234.495 130.572 235.823 134.491 237.498 138.3C237.498 138.3 185.891 146.574 171.43 160.318C161.713 169.607 160.72 242.557 160.72 242.557Z" fill="#00313A"/>
<path d="M230.004 135.756C231.246 135.996 232.461 136.334 233.633 136.765C234.863 137.177 236.075 137.636 237.261 138.14C239.586 139.144 241.847 140.256 244.035 141.471C244.105 141.471 244.035 141.585 243.965 141.555C241.654 140.508 239.256 139.569 236.857 138.675L233.396 137.376C232.197 136.983 231.024 136.534 229.881 136.031C229.85 136.012 229.827 135.983 229.817 135.951C229.806 135.919 229.808 135.884 229.822 135.853C229.836 135.822 229.861 135.795 229.894 135.778C229.927 135.76 229.966 135.753 230.004 135.756Z" fill="#00313A"/>
<path d="M232.569 126.574C233.061 128.27 233.448 129.981 234.054 131.669C234.309 132.433 234.564 133.197 234.933 133.961C235.214 134.588 235.644 135.313 236.488 135.451C237.331 135.588 237.735 134.893 237.656 134.198C237.577 133.503 237.34 132.67 237.164 131.906C236.962 131.028 236.751 130.141 236.567 129.263C236.479 128.82 236.382 128.377 236.295 127.934C236.295 127.819 236.18 126.971 236.11 126.727C236.11 126.727 236.11 126.772 236.057 126.765C236.057 126.765 235.996 126.765 235.996 126.719C235.996 126.673 235.996 126.635 236.049 126.589C236.101 126.543 236.101 126.589 236.136 126.589C236.321 126.681 236.33 126.902 236.391 127.063C236.549 127.49 236.708 127.926 236.857 128.354C237.129 129.164 237.393 129.981 237.63 130.798C237.867 131.616 238.096 132.433 238.324 133.251C238.57 133.856 238.636 134.505 238.517 135.138C238.429 135.439 238.232 135.708 237.956 135.904C237.679 136.101 237.337 136.215 236.98 136.23L237.085 136.391C237.173 136.559 237.235 136.734 237.305 136.91C237.375 137.086 237.446 137.261 237.507 137.437C237.533 137.525 237.551 137.614 237.56 137.705C237.56 137.804 237.56 137.896 237.56 137.995C237.56 138.094 237.34 138.239 237.252 138.094C237.196 138.01 237.134 137.928 237.068 137.85C237.01 137.76 236.963 137.665 236.927 137.567C236.866 137.399 236.804 137.231 236.76 137.055C236.716 136.879 236.646 136.711 236.611 136.536C236.602 136.431 236.602 136.327 236.611 136.222C236.2 136.193 235.807 136.063 235.478 135.848C234.929 135.446 234.524 134.916 234.309 134.32C234.019 133.617 233.791 132.884 233.562 132.158C232.959 130.371 232.541 128.54 232.315 126.688C232.2 126.444 232.517 126.375 232.569 126.574Z" fill="#EAF9E7"/>
<path d="M258.048 130.729C258.224 131.57 258.338 132.425 258.566 133.258C258.795 134.091 259.041 134.893 259.348 135.687C259.626 136.464 260.028 137.202 260.543 137.88C261.079 138.517 261.719 139.083 262.441 139.561C263.823 140.513 265.375 141.261 267.036 141.776C267.869 142.039 268.72 142.256 269.584 142.426C270.032 142.517 270.462 142.586 270.945 142.639C271.324 142.647 271.698 142.72 272.044 142.853C272.076 142.871 272.103 142.896 272.122 142.925C272.141 142.955 272.15 142.988 272.15 143.021C272.15 143.055 272.141 143.088 272.122 143.117C272.103 143.147 272.076 143.172 272.044 143.19C271.383 143.356 270.685 143.375 270.014 143.243C269.283 143.176 268.558 143.067 267.844 142.914C266.4 142.576 265.019 142.062 263.741 141.387C262.429 140.764 261.251 139.947 260.262 138.972C259.348 137.948 258.72 136.753 258.426 135.481C257.973 133.934 257.772 132.34 257.828 130.745C257.872 130.653 258.03 130.638 258.048 130.729Z" fill="#EAF9E7"/>
<path d="M193.851 200.448C194.232 195.161 194.736 189.887 195.362 184.626C195.52 183.328 195.67 182.021 195.854 180.73C195.96 179.718 196.214 178.722 196.61 177.766C197.488 175.787 199.395 174.787 201.688 174.29C204.394 173.694 207.197 173.335 209.947 172.953C212.697 172.571 215.587 172.189 218.416 171.861C224.136 171.166 229.837 170.524 235.557 169.691C241.24 168.907 246.859 167.81 252.382 166.406C257.442 165.077 262.635 163.434 266.685 160.386C275.409 153.824 275.725 142.815 274.662 133.648C274.513 132.349 274.328 131.058 274.144 129.759C274.144 129.691 274.258 129.668 274.267 129.759C274.952 134.939 275.76 140.157 275.145 145.374C274.764 149.694 273.126 153.858 270.384 157.476C267.432 161.15 263.056 163.526 258.338 165.184C253.134 166.928 247.762 168.27 242.287 169.195C230.98 171.257 219.444 172.128 208.066 173.816C206.661 174.023 205.264 174.244 203.867 174.481C202.568 174.653 201.295 174.95 200.071 175.367C197.488 176.368 196.777 178.553 196.461 180.814C195.714 186.055 195.213 191.326 194.774 196.598C193.895 207.209 193.429 217.881 193.447 228.523C193.447 229.837 193.447 234.26 193.447 235.574C193.447 235.689 193.245 235.674 193.245 235.574C192.92 224.849 193.078 211.09 193.851 200.448Z" fill="#EAF9E7"/>
<path d="M162.53 237.278C171.316 236.759 196.495 236.972 196.794 237.079C196.926 237.133 196.891 237.339 196.75 237.347C192.357 237.622 163.848 237.752 162.574 237.553C162.433 237.53 162.38 237.286 162.53 237.278Z" fill="#00313A"/>
<path d="M237.27 138.438C229.361 139.262 221.544 140.654 213.9 142.601C206.193 144.484 198.655 146.856 191.347 149.698C187.244 151.295 183.273 153.083 179.346 154.962C179.267 155 179.346 155.1 179.416 155.069C186.518 151.877 193.856 149.098 201.38 146.75C208.838 144.388 216.47 142.464 224.223 140.989C228.616 140.164 233.009 139.523 237.402 138.888C237.648 138.804 237.569 138.369 237.27 138.438Z" fill="#00313A"/>
<path d="M199.579 192.059C199.852 188.408 200.291 184.756 200.976 181.135C201.257 179.676 201.328 177.789 203.094 177.063C203.911 176.719 220.305 174.244 222.659 174.282C222.683 174.284 222.706 174.292 222.725 174.305C222.743 174.319 222.757 174.337 222.762 174.357C222.768 174.378 222.767 174.399 222.758 174.419C222.749 174.438 222.733 174.455 222.712 174.466C222.492 174.55 206.898 177.109 204.93 177.521C204.507 177.548 204.094 177.65 203.718 177.821C203.342 177.992 203.01 178.228 202.742 178.515C202.367 179.257 202.144 180.051 202.083 180.86C200.769 187.959 200.041 195.13 199.904 202.319C199.84 204.316 199.802 206.305 199.79 208.286C199.79 210.333 199.869 212.404 199.694 214.436C199.694 214.48 199.673 214.523 199.637 214.554C199.601 214.586 199.551 214.604 199.5 214.604C199.449 214.604 199.4 214.586 199.364 214.554C199.327 214.523 199.307 214.48 199.307 214.436C199.131 212.587 199.193 210.7 199.184 208.844C199.175 206.987 199.184 205.115 199.184 203.244C199.193 199.508 199.289 195.78 199.579 192.059Z" fill="#00313A"/>
<path d="M235.522 93.0058C224.443 105.817 198.13 123.831 191.953 119.637C184.362 114.488 185.803 95.5422 185.61 93.1052C185.443 90.5001 210.333 91.1571 209.331 93.8156C208.743 95.3894 208.453 97.0777 208.936 96.9173C210.403 96.4131 213.663 93.8615 227.799 86.9859C235.662 83.1432 242.858 84.526 235.522 93.0058Z" fill="#48A069"/>
<path d="M212.819 93.7391L218.644 98.7124L225.954 104.946C225.954 104.946 234.274 97.9332 237.876 92.1501C240.512 87.8948 240.6 84.3043 237.982 83.525C236.677 83.2402 235.3 83.3535 234.081 83.8459C224.654 86.9093 212.819 93.7391 212.819 93.7391Z" fill="white"/>
<path d="M216.219 92.4404C218.548 94.2891 226.982 101.142 227.641 102.372C227.641 102.372 227.579 102.463 227.544 102.456C226.174 101.875 218.214 94.61 216.079 92.6008C216.044 92.5244 216.175 92.4098 216.219 92.4404Z" fill="#00313A"/>
<path d="M218.644 98.7124L225.954 104.946C225.954 104.946 234.274 97.9332 237.876 92.1501C240.512 87.8948 240.6 84.3043 237.982 83.525L218.644 98.7124Z" fill="#00313A"/>
<path d="M185.583 81.516C184.178 85.6643 185.118 95.1297 186.348 97.3375C187.578 99.5453 206.151 98.6973 207.803 96.6194C209.454 94.5414 212.951 80.2555 211.027 76.1684C209.103 72.0812 187.059 77.215 185.583 81.516Z" fill="#48A069"/>
<path d="M206.889 66.8708C207.688 64.9915 211.589 59.6056 213.469 60.232C215.349 60.8585 213.671 65.1213 212.933 66.8326C211.396 70.3544 211.449 75.5569 211.519 78.078C211.589 80.599 204.815 78.078 204.815 78.078C204.815 78.078 204.798 71.7524 206.889 66.8708Z" fill="#48A069"/>
<path d="M209.621 81.638C209.621 81.638 209.885 86.0766 207.17 86.9857C204.455 87.8948 203.506 84.3424 203.427 84.0979C203.427 84.3271 203.559 88.4143 200.712 89.0942C197.866 89.7741 197.409 86.1148 197.391 85.878C197.321 86.0995 196.346 89.0636 194.062 89.1553C190.117 89.3081 192.366 81.6762 190.626 79.3462C190.626 79.3462 185.75 81.4623 185.601 81.5005C185.601 81.5005 187.569 74.1971 191.303 72.3331C191.842 72.0533 192.475 71.9424 193.097 72.0188C193.719 72.0953 194.292 72.3544 194.721 72.7533C194.721 72.7533 195.054 70.3392 197.277 69.7433C198.411 69.4377 199.983 70.7517 199.983 70.7517C200.092 70.2088 200.371 69.7026 200.79 69.2888C201.208 68.875 201.75 68.5697 202.355 68.4064C203.954 68.0626 205.501 69.4071 205.87 70.003C208.936 74.5944 209.621 81.638 209.621 81.638Z" fill="#48A069"/>
<path d="M199.983 70.6983C199.983 70.6601 200.045 70.6219 200.08 70.6983C203.074 74.6979 204.32 79.4977 203.594 84.2279C203.594 84.396 203.34 84.5106 203.366 84.3196C203.691 81.0651 201.89 74.3194 199.983 70.6983Z" fill="#00313A"/>
<path d="M197.198 86.2064C197.848 81.5769 196.733 77.23 194.844 72.9136C194.844 72.8525 194.914 72.8296 194.949 72.8678C196.531 74.77 197.409 77.6272 197.866 79.9114C198.346 82.0178 198.179 84.1968 197.383 86.2293C197.348 86.3057 197.181 86.3057 197.198 86.2064Z" fill="#00313A"/>
<path d="M209.621 81.638C209.581 82.4919 209.452 83.3408 209.235 84.1743C209.059 84.9935 208.638 85.7577 208.013 86.3898C207.71 86.6644 207.3 86.8306 206.863 86.8558C206.42 86.8802 205.978 86.8039 205.58 86.6342C205.199 86.4396 204.869 86.177 204.613 85.8635C204.357 85.5501 204.181 85.1931 204.095 84.816L203.577 82.9825L203.331 84.8542C203.232 85.6878 202.973 86.5011 202.566 87.2607C202.402 87.6204 202.153 87.9463 201.835 88.2173C201.518 88.4884 201.138 88.6986 200.721 88.8344C200.331 88.9544 199.906 88.9546 199.516 88.835C199.126 88.7155 198.795 88.4834 198.578 88.1774C198.105 87.482 197.845 86.693 197.822 85.8856L197.664 83.6625L196.979 85.7939C196.786 86.3895 196.509 86.9619 196.153 87.4975C195.836 88.014 195.35 88.4368 194.756 88.7122C194.484 88.8291 194.18 88.8767 193.878 88.8497C193.577 88.8226 193.29 88.722 193.051 88.5594C192.578 88.1387 192.255 87.6081 192.12 87.0315C191.804 85.7742 191.604 84.4968 191.523 83.2117C191.452 82.5624 191.382 81.913 191.277 81.2636C191.217 80.6064 190.995 79.9679 190.626 79.392C190.916 79.9922 191.068 80.6357 191.075 81.2866C191.118 81.9283 191.127 82.5777 191.136 83.2346C191.123 84.5534 191.25 85.8704 191.514 87.169C191.647 87.876 192.013 88.5342 192.568 89.0636C192.908 89.3213 193.326 89.4874 193.772 89.5416C194.218 89.5959 194.673 89.536 195.081 89.3692C195.822 89.0403 196.434 88.527 196.838 87.8948C197.248 87.3073 197.567 86.6755 197.787 86.0154L196.908 85.9314C196.926 86.8863 197.229 87.8208 197.787 88.6434C198.111 89.0928 198.605 89.4303 199.184 89.5984C199.756 89.753 200.369 89.753 200.941 89.5984C201.471 89.4305 201.955 89.1666 202.359 88.8242C202.763 88.4818 203.08 88.0686 203.287 87.6121C203.711 86.7679 203.977 85.8706 204.077 84.9535L203.313 84.9994C203.439 85.464 203.681 85.899 204.021 86.2738C204.361 86.6487 204.791 86.9542 205.281 87.169C205.789 87.3541 206.342 87.425 206.889 87.3753C207.445 87.3147 207.956 87.0814 208.33 86.7183C208.962 86.0082 209.354 85.1591 209.463 84.266C209.629 83.3979 209.682 82.5164 209.621 81.638Z" fill="#00313A"/>
<path d="M208.909 94.2812C208.909 94.2812 222.369 80.1328 213.434 78.2382C210.798 77.6805 199.113 78.1618 199.175 80.2016C199.263 82.8295 204.174 83.4254 207.328 83.3643C207.328 83.3643 201.969 87.6195 204.262 91.7678C204.698 92.5165 205.362 93.1469 206.181 93.5901C207.001 94.0333 207.944 94.2723 208.909 94.2812Z" fill="#48A069"/>
<path d="M214.164 78.4599C213.153 78.1357 212.093 77.9427 211.018 77.8869C209.943 77.8054 208.863 77.785 207.785 77.8258C205.623 77.8871 203.471 78.1121 201.354 78.4981C200.791 78.5969 200.249 78.7695 199.746 79.01C199.452 79.145 199.197 79.3355 198.999 79.5676C198.893 79.6958 198.81 79.8375 198.753 79.9878C198.708 80.1373 198.687 80.2916 198.692 80.4462C198.718 81.0147 198.977 81.5564 199.421 81.9741C199.836 82.3432 200.32 82.6481 200.853 82.8756C201.867 83.2874 202.955 83.5457 204.069 83.6395C205.151 83.7436 206.24 83.7794 207.328 83.7465L207.082 83.1735C206.49 83.6779 205.954 84.2305 205.483 84.8236C205.013 85.4091 204.61 86.0335 204.28 86.6877C203.962 87.3461 203.755 88.0408 203.665 88.7504C203.577 89.4554 203.645 90.1686 203.867 90.8512C203.752 90.1659 203.77 89.4687 203.919 88.7885C204.078 88.1178 204.344 87.4698 204.71 86.8634C205.064 86.2523 205.488 85.6739 205.975 85.1368C206.458 84.6057 206.993 84.1123 207.574 83.6624L208.303 83.12H207.32C206.27 83.118 205.222 83.0542 204.183 82.929C203.167 82.8261 202.177 82.5838 201.249 82.2109C200.37 81.8289 199.597 81.2025 199.588 80.4844C199.579 79.7663 200.598 79.476 201.565 79.2544C202.587 79.0311 203.622 78.8551 204.666 78.7273C205.712 78.5821 206.766 78.4446 207.82 78.3606C209.928 78.107 212.068 78.1405 214.164 78.4599Z" fill="#00313A"/>
<path d="M208.936 96.9167L208.207 98.7273L207.504 100.546L206.081 104.159C205.606 105.366 205.123 106.565 204.613 107.757C204.359 108.353 204.104 108.949 203.823 109.537C203.542 110.125 203.252 110.714 202.944 111.31C203.751 110.234 204.459 109.105 205.062 107.933C205.677 106.764 206.195 105.557 206.687 104.35C207.179 103.143 207.565 101.913 207.961 100.675C208.356 99.4378 208.708 98.1849 208.936 96.9167Z" fill="#00313A"/>
<path d="M227.808 136.772C229.125 137.689 281.304 138.201 281.524 137.88C282.121 137.009 267.967 95.6183 245.722 82.7533C241.803 80.4615 235.829 82.0581 233.246 83.8152C231.946 84.7014 228.177 91.4013 227.658 96.8788C227.14 102.356 226.973 136.184 227.808 136.772Z" fill="white"/>
<path d="M233.607 91.6763C236.664 91.5617 240.345 86.5349 241.285 82.9749C241.347 82.7304 237.578 74.5179 237.024 72.822C236.91 72.4782 225.603 78.4294 225.603 78.4294C226.992 80.3742 228.102 82.4601 228.906 84.6403C229.012 84.8848 230.646 91.7909 233.607 91.6763Z" fill="#48A069"/>
<path d="M236.637 72.9137C236.91 75.7938 236.98 83.4486 230.373 85.2286C229.974 85.3338 229.565 85.4105 229.152 85.4578C229.02 84.9918 228.941 84.6939 228.932 84.6327C228.127 82.4554 227.017 80.3721 225.629 78.4294C225.685 78.3898 225.747 78.3565 225.813 78.3301C225.892 78.2767 225.998 78.2308 226.121 78.1621L226.253 78.0933C226.323 78.0475 226.411 78.0093 226.499 77.9634L226.815 77.7954L227.342 77.528L227.535 77.421L227.939 77.2071L229.538 76.382L230.145 76.0688C230.408 75.939 230.672 75.8091 230.927 75.6639L231.709 75.2743L231.805 75.2285L233.132 74.5562L233.571 74.3346L234.45 73.9221L235.021 73.6471L236.145 73.1276L236.4 73.0206L236.637 72.9137Z" fill="#00313A"/>
<path d="M233.088 60.0564C235.97 63.2955 238.359 74.5715 236.383 77.9558C233.527 82.8069 226.551 85.4807 221.227 82.0429C216.061 78.7121 213.25 63.922 215.666 60.6522C219.224 55.931 228.827 55.274 233.088 60.0564Z" fill="#48A069"/>
<path d="M230.074 69.6823C228.994 70.0414 228.792 68.078 228.739 67.3905C228.608 66.6836 228.405 65.9883 228.133 65.3125C228.451 65.9741 228.839 66.6084 229.292 67.2071C229.793 67.7342 231.155 69.308 230.074 69.6823Z" fill="white"/>
<path d="M237.358 70.9046C237.358 70.9046 239.422 62.9442 237.525 59.239C236.646 57.566 233.51 57.1916 233.51 57.1916C233.446 56.4252 233.138 55.6894 232.619 55.0672C232.101 54.4449 231.393 53.9609 230.575 53.6698C227.483 52.4245 221.948 54.5178 221.948 54.5178C221.948 54.5178 216.474 50.9501 211.958 54.3039C207.442 57.6576 212.837 61.8288 212.837 61.8288C212.837 61.8288 211.826 64.7471 217.23 65.236C222.501 65.7173 231.129 61.2329 231.129 61.2329C231.767 64.1497 232.904 66.9668 234.502 69.5906C234.794 70.0166 235.214 70.3646 235.718 70.5964C236.221 70.8282 236.789 70.9348 237.358 70.9046Z" fill="#00313A"/>
<path d="M221.069 54.8384C222.077 54.088 223.253 53.5263 224.522 53.1883C225.65 52.8411 226.839 52.6679 228.036 52.6764C229.089 52.6303 230.136 52.835 231.065 53.2685C231.994 53.702 232.77 54.3479 233.307 55.1364C233.554 55.5544 233.701 56.0109 233.742 56.4792C233.783 56.9475 233.716 57.4182 233.545 57.8637C233.545 57.9019 233.465 57.8637 233.483 57.8637C234.186 56.2059 232.771 54.3724 231.111 53.6466C229.153 52.9409 226.966 52.8812 224.961 53.4786C223.658 53.835 222.411 54.3275 221.245 54.9454C221.236 54.9554 221.226 54.9639 221.214 54.9705C221.202 54.9771 221.189 54.9816 221.175 54.9837C221.161 54.9859 221.147 54.9856 221.133 54.9829C221.12 54.9803 221.107 54.9753 221.095 54.9683C221.084 54.9613 221.074 54.9523 221.066 54.942C221.059 54.9317 221.054 54.9202 221.051 54.9081C221.049 54.896 221.049 54.8837 221.052 54.8717C221.055 54.8598 221.061 54.8485 221.069 54.8384Z" fill="#00313A"/>
<path d="M209.059 57.589C209.071 56.9154 209.272 56.2546 209.646 55.6646C210.02 55.0745 210.554 54.5733 211.203 54.2046C212.661 53.3032 214.423 52.8515 216.211 52.9212C218.008 52.9958 219.75 53.4892 221.254 54.3498C221.254 54.3498 221.254 54.4186 221.254 54.4033C219.907 53.6522 218.352 53.2309 216.754 53.1838C215.155 53.1368 213.571 53.4657 212.169 54.1359C211.505 54.395 210.925 54.7936 210.482 55.2958C210.039 55.798 209.746 56.3882 209.63 57.0132C209.514 57.6382 209.579 58.2784 209.818 58.8763C210.057 59.4742 210.464 60.011 211.001 60.4385C212.258 61.4404 213.813 62.1154 215.49 62.3866C215.49 62.3866 215.49 62.4477 215.49 62.4401C213.929 62.2584 212.447 61.7324 211.185 60.9122C210.578 60.5228 210.074 60.0246 209.707 59.4513C209.34 58.878 209.119 58.2429 209.059 57.589Z" fill="#00313A"/>
<path d="M216.158 65.7861C218.524 65.9092 220.892 65.5942 223.107 64.8617C225.421 64.1281 227.637 63.1777 229.714 62.0274C230.927 61.3704 232.113 60.6676 233.281 59.9495C233.281 59.9495 233.352 59.9495 233.281 60.0029C231.332 61.5114 229.206 62.8378 226.938 63.9602C224.819 64.982 222.491 65.6359 220.085 65.8854C218.764 66.0127 217.43 65.9948 216.114 65.8319C216.114 65.8319 216.123 65.7784 216.158 65.7861Z" fill="#00313A"/>
<path d="M234.239 69.5372C234.239 69.5372 235.601 65.2285 237.753 65.5341C239.906 65.8397 239.871 71.4776 238.034 72.8145C237.817 72.9977 237.559 73.1412 237.277 73.2367C236.995 73.3321 236.693 73.3776 236.391 73.3705C236.088 73.3634 235.79 73.3038 235.514 73.1952C235.238 73.0866 234.99 72.9312 234.784 72.7381L234.239 69.5372Z" fill="#48A069"/>
<path d="M237.7 67.146V67.1918C236.435 68.1773 236.145 69.6059 236.101 71.0116C236.135 70.8553 236.208 70.7072 236.314 70.5775C236.42 70.4479 236.557 70.3397 236.715 70.2606C236.874 70.1814 237.051 70.1331 237.233 70.119C237.415 70.1049 237.598 70.1253 237.771 70.1789C237.771 70.1789 237.771 70.2553 237.771 70.2553C237.48 70.2653 237.201 70.3528 236.97 70.5059C236.739 70.659 236.567 70.8702 236.479 71.1109C236.337 71.5139 236.242 71.9287 236.198 72.3485C236.198 72.486 235.917 72.5013 235.908 72.3485C235.214 70.6907 235.741 67.9405 237.7 67.146Z" fill="#00313A"/>
<path d="M250.141 90.8205C252.715 103.319 251.169 129.522 244.623 133.915C237.041 138.995 203.849 140.027 196.469 138.147C193.526 137.383 200.528 120.477 203.796 120.5C217.528 120.584 229.09 119.209 230.268 117.796C232.077 115.634 236.813 100.393 240.046 90.8435C244.096 78.8494 248.99 85.2131 250.141 90.8205Z" fill="#48A069"/>
<path d="M166.923 102.945L188.008 114.924C188.139 114.983 188.251 115.07 188.334 115.176C188.416 115.283 188.466 115.406 188.479 115.534C188.492 115.662 188.468 115.791 188.409 115.908C188.35 116.026 188.257 116.129 188.14 116.207L178.335 122.609C178.019 122.784 177.651 122.876 177.277 122.876C176.902 122.876 176.534 122.784 176.218 122.609L155.132 110.63C154.999 110.571 154.886 110.484 154.802 110.377C154.718 110.27 154.668 110.146 154.654 110.016C154.641 109.887 154.666 109.757 154.727 109.639C154.787 109.52 154.881 109.417 155 109.339L164.805 102.945C165.122 102.77 165.489 102.677 165.864 102.677C166.239 102.677 166.606 102.77 166.923 102.945Z" fill="#00313A"/>
<path d="M167.827 102.41L188.913 114.389C189.044 114.448 189.156 114.535 189.239 114.642C189.321 114.748 189.371 114.871 189.384 114.999C189.397 115.127 189.373 115.256 189.314 115.374C189.254 115.491 189.162 115.594 189.045 115.672L179.24 122.074C178.924 122.249 178.556 122.342 178.181 122.342C177.807 122.342 177.439 122.249 177.123 122.074L156.037 110.095C155.904 110.037 155.79 109.95 155.707 109.842C155.623 109.735 155.573 109.611 155.559 109.482C155.546 109.353 155.571 109.223 155.632 109.104C155.692 108.986 155.786 108.883 155.905 108.804L165.71 102.41C166.027 102.236 166.394 102.143 166.769 102.143C167.144 102.143 167.511 102.236 167.827 102.41Z" fill="#00313A"/>
<path d="M168.267 103.411L187.595 114.396C188.193 114.733 188.272 115.267 187.78 115.588L178.994 121.31C178.699 121.469 178.358 121.553 178.01 121.553C177.663 121.553 177.322 121.469 177.026 121.31L157.698 110.317C156.485 109.637 156.617 109.224 157.109 108.904L158.866 107.758C158.942 107.726 159.027 107.714 159.111 107.722C159.194 107.73 159.274 107.759 159.341 107.803H159.411C159.525 107.885 159.671 107.926 159.819 107.916C159.966 107.906 160.103 107.846 160.202 107.75L164.269 105.099C164.498 104.946 164.673 104.824 164.269 104.61L164.208 104.572C164.041 104.48 163.997 104.358 164.102 104.289L165.86 103.143C166.395 102.838 167.133 102.784 168.267 103.411Z" fill="white"/>
<path d="M162.336 105.81L161.229 106.573C161.207 106.585 161.181 106.591 161.155 106.591C161.129 106.591 161.103 106.585 161.08 106.573C161.073 106.568 161.067 106.561 161.063 106.553C161.058 106.545 161.056 106.536 161.056 106.528C161.056 106.519 161.058 106.51 161.063 106.503C161.067 106.495 161.073 106.488 161.08 106.482L162.196 105.764C162.216 105.75 162.241 105.743 162.266 105.743C162.292 105.743 162.316 105.75 162.336 105.764C162.372 105.748 162.372 105.787 162.336 105.81Z" fill="white"/>
<path d="M178.125 110.897L170.674 115.756L162.363 111.05L169.822 106.184L178.125 110.897Z" fill="white"/>
<path d="M176.385 113.693L172.036 116.535L171.544 116.252L175.893 113.418L176.385 113.693Z" fill="#92949C"/>
<path d="M177.984 113.625L172.835 116.986L172.589 116.849L177.747 113.487L177.984 113.625Z" fill="#92949C"/>
<path d="M178.432 113.877L173.283 117.238L173.037 117.101L178.195 113.739L178.432 113.877Z" fill="#92949C"/>
<path d="M178.88 114.136L173.732 117.49L173.486 117.353L178.634 113.991L178.88 114.136Z" fill="#92949C"/>
<path d="M160.764 109.01L159.833 109.614L159.639 109.499L160.562 108.896L160.764 109.01Z" fill="#92949C"/>
<path d="M161.133 109.217L160.21 109.82L160.008 109.706L160.931 109.102L161.133 109.217Z" fill="#92949C"/>
<path d="M161.502 109.423L160.57 110.034L160.377 109.919L161.3 109.308L161.502 109.423Z" fill="#92949C"/>
<path d="M179.267 111.646C179.296 111.744 179.296 111.846 179.267 111.944C179.101 111.966 178.932 111.966 178.766 111.944C178.441 111.944 178.195 111.761 178.37 111.638C178.546 111.516 178.783 111.638 178.783 111.638C178.783 111.638 178.581 111.493 178.731 111.402C178.88 111.31 179.205 111.447 179.267 111.646Z" fill="white"/>
<path d="M184.503 115.389L178.493 119.316L176.569 118.231L182.588 114.305L184.503 115.389Z" fill="white"/>
<path d="M197.523 138.201C195.906 138.201 182.306 135.267 178.194 133.258C173.789 131.215 169.795 128.563 166.369 125.405C160.992 120.393 157.82 116.482 157.715 114.32C157.601 111.806 157.715 111.363 168.583 119.072C174.733 123.426 178.686 122.891 181.849 121.852C194.852 117.544 207.381 120.485 207.381 120.485C207.381 120.485 203.743 138.186 197.523 138.201Z" fill="#48A069"/>
<path d="M180.242 122.303C183.554 121.318 170.428 118.858 168.917 115.641C167.406 112.425 171.527 112.31 175.129 113.227C187.78 116.489 195.204 113.815 202.804 118.338C203.612 118.812 205.993 119.866 206.037 120.202C206.397 123.365 180.242 122.303 180.242 122.303Z" fill="#48A069"/>
<path d="M188.562 115.206C190.904 115.005 193.266 115.064 195.591 115.382C197.722 115.787 199.745 116.544 201.547 117.613C201.626 117.651 201.547 117.765 201.477 117.727C197.576 115.687 192.981 115.489 188.562 115.298C188.548 115.298 188.535 115.293 188.525 115.284C188.515 115.276 188.509 115.264 188.509 115.252C188.509 115.24 188.515 115.228 188.525 115.22C188.535 115.211 188.548 115.206 188.562 115.206Z" fill="#00313A"/>
<path d="M252.768 107.574L244.773 106.268L234.705 104.626C234.705 104.626 237.068 94.8775 239.976 88.7964C242.946 82.5473 247.883 80.5076 250.598 89.0944C253.234 97.5361 252.768 107.574 252.768 107.574Z" fill="white"/>
<path d="M252.056 104.419C248.981 103.816 237.692 101.722 236.189 101.929C236.189 101.929 236.137 102.028 236.189 102.043C237.516 102.692 248.929 104.213 252.048 104.579C252.083 104.587 252.118 104.434 252.056 104.419Z" fill="#00313A"/>
<path d="M251.318 107.337C251.793 107.46 252.267 107.567 252.741 107.673H252.873V107.544C252.996 106.451 253.014 105.351 253.014 104.259C253.014 103.166 252.952 102.066 252.864 100.974C252.777 99.8812 252.662 98.7887 252.487 97.7039C252.311 96.6191 252.126 95.5419 251.863 94.4647C251.863 95.5648 251.951 96.6496 252.012 97.7421C252.074 98.8345 252.153 99.9193 252.223 101.012C252.355 103.181 252.531 105.359 252.636 107.536L252.777 107.444C252.302 107.421 251.81 107.368 251.318 107.337Z" fill="#00313A"/>
<path d="M253.427 96.9167C253.176 97.5798 252.988 98.2594 252.864 98.9489C252.803 99.2926 252.741 99.6364 252.706 99.9802C252.664 100.33 252.643 100.682 252.645 101.034C252.96 100.387 253.179 99.7062 253.295 99.01C253.436 98.3194 253.48 97.6166 253.427 96.9167Z" fill="#00313A"/>
<path d="M235.372 104.732L234.722 104.564L234.775 104.64C235.117 103.731 235.39 102.815 235.697 101.906L236.514 99.1553C237.041 97.3218 237.533 95.4883 237.99 93.6243C237.531 94.4877 237.135 95.3757 236.804 96.2828C236.444 97.1843 236.163 98.101 235.926 99.0178C235.688 99.9345 235.416 100.867 235.205 101.799C234.994 102.731 234.81 103.663 234.678 104.61V104.679H234.748C234.915 104.709 235.144 104.717 235.372 104.732Z" fill="#00313A"/>
<path d="M236.348 95.4655C236.153 95.9783 236.052 96.5145 236.049 97.0545C236.043 97.3254 236.064 97.5963 236.11 97.8643C236.148 98.1273 236.228 98.3844 236.348 98.6282C236.437 98.1021 236.484 97.5711 236.488 97.0392C236.504 96.5118 236.457 95.9844 236.348 95.4655Z" fill="#00313A"/>
<path d="M189.713 46.3434C189.621 47.2725 189.848 48.2043 190.366 49.021C190.883 49.8377 191.667 50.5026 192.619 50.9317C193.572 51.3607 194.649 51.5346 195.714 51.4313C196.78 51.328 197.787 50.9521 198.607 50.3513C199.427 49.7505 200.023 48.9517 200.321 48.056C200.619 47.1602 200.605 46.2078 200.28 45.3192C199.955 44.4305 199.335 43.6456 198.497 43.0637C197.659 42.4818 196.641 42.129 195.573 42.05C194.864 41.9966 194.149 42.0654 193.471 42.2523C192.792 42.4393 192.163 42.7408 191.619 43.1396C191.074 43.5384 190.626 44.0267 190.299 44.5765C189.972 45.1262 189.773 45.7267 189.713 46.3434Z" fill="white"/>
<path d="M201.398 55.0295C201.348 55.5455 201.475 56.0626 201.763 56.5158C202.051 56.969 202.487 57.3378 203.016 57.5758C203.545 57.8137 204.143 57.9101 204.734 57.8528C205.326 57.7954 205.885 57.5869 206.341 57.2535C206.796 56.9202 207.128 56.477 207.294 55.9798C207.461 55.4826 207.454 54.9538 207.275 54.46C207.095 53.9662 206.752 53.5297 206.288 53.2055C205.823 52.8813 205.259 52.6839 204.666 52.6383C203.868 52.579 203.076 52.7976 202.463 53.2459C201.85 53.6942 201.467 54.3357 201.398 55.0295Z" fill="white"/>
<path d="M149.176 24.4256C148.838 26.8201 149.23 29.2497 150.313 31.4706C151.397 33.6915 153.133 35.6255 155.348 37.0784C157.563 38.5313 160.178 39.452 162.931 39.748C165.685 40.0441 168.479 39.7051 171.034 38.765C172.277 40.171 173.875 41.3092 175.706 42.0913C177.536 42.8733 179.549 43.2782 181.588 43.2745C183.627 43.2708 185.638 42.8586 187.465 42.07C189.291 41.2813 190.884 40.1373 192.12 38.7268C192.694 38.8796 193.282 38.987 193.877 39.0477C195.946 39.2722 198.045 38.9701 199.919 38.1779C201.794 37.3858 203.364 36.1376 204.44 34.5848C205.515 33.0321 206.049 31.2414 205.977 29.43C205.905 27.6186 205.23 25.8642 204.034 24.3798C206.395 21.8029 207.613 18.5746 207.468 15.2823C207.322 11.99 205.822 8.85256 203.24 6.44103C200.658 4.0295 197.167 2.50417 193.4 2.14263C189.634 1.7811 185.844 2.60741 182.719 4.47116C181.255 2.87952 179.331 1.65354 177.145 0.917887C174.959 0.182236 172.587 -0.0368448 170.272 0.282918C167.957 0.602682 165.78 1.44988 163.963 2.73838C162.147 4.02687 160.755 5.71071 159.929 7.61865C159.376 7.45553 158.805 7.34287 158.225 7.28251C156.464 7.09428 154.679 7.37962 153.111 8.10012C151.542 8.82062 150.265 9.94169 149.452 11.3124C148.638 12.6831 148.327 14.2376 148.561 15.7667C148.794 17.2958 149.56 18.726 150.757 19.8648C149.922 21.291 149.386 22.8356 149.176 24.4256Z" fill="white"/>
<path d="M186.14 24.051L185.639 26.1366C185.602 26.3478 185.514 26.5497 185.381 26.7294C185.248 26.9091 185.073 27.0626 184.868 27.18C184.662 27.2973 184.431 27.3759 184.189 27.4107C183.946 27.4455 183.698 27.4356 183.46 27.3819C183.222 27.3391 182.997 27.256 182.796 27.1371C182.595 27.0183 182.423 26.8661 182.29 26.6894C182.157 26.5127 182.065 26.3148 182.02 26.1072C181.975 25.8996 181.978 25.6863 182.028 25.4796L182.828 22.1411C182.828 22.1411 182.828 22.1411 182.88 22.0877C182.933 22.0342 182.88 22.0877 182.88 22.0113C182.994 21.6008 183.284 21.2438 183.691 21.0135C184.098 20.7833 184.591 20.6975 185.068 20.7737C186.166 20.9763 187.311 20.7915 188.252 20.26C189.192 19.7284 189.852 18.8937 190.085 17.9394C190.318 16.9851 190.105 15.9894 189.494 15.1713C188.883 14.3533 187.923 13.7798 186.825 13.5772C186.107 13.4479 185.363 13.4842 184.666 13.6826C183.97 13.8809 183.345 14.2344 182.854 14.7079C182.697 14.8788 182.501 15.0201 182.278 15.1229C182.056 15.2258 181.812 15.2882 181.56 15.3063C181.309 15.3244 181.057 15.2978 180.818 15.2281C180.579 15.1584 180.359 15.0471 180.171 14.9011C179.984 14.755 179.832 14.5771 179.726 14.3784C179.62 14.1797 179.562 13.9643 179.554 13.7453C179.547 13.5263 179.592 13.3084 179.685 13.1048C179.778 12.9012 179.917 12.7162 180.095 12.5612C180.969 11.7127 182.071 11.0662 183.303 10.6798C184.535 10.2934 185.858 10.1791 187.154 10.3472C188.449 10.5153 189.676 10.9606 190.725 11.643C191.773 12.3254 192.61 13.2236 193.161 14.2569C193.711 15.2902 193.958 16.4263 193.879 17.563C193.8 18.6998 193.397 19.8016 192.707 20.7696C192.017 21.7376 191.062 22.5414 189.926 23.1088C188.791 23.6762 187.511 23.9895 186.201 24.0205L186.14 24.051ZM184.462 31.0794L184.321 31.66C184.277 31.8688 184.184 32.0677 184.048 32.2445C183.913 32.4213 183.738 32.5724 183.533 32.6888C183.329 32.8051 183.099 32.8843 182.859 32.9215C182.618 32.9587 182.372 32.9532 182.134 32.9052C181.655 32.8153 181.237 32.5653 180.969 32.2093C180.701 31.8534 180.605 31.4201 180.702 31.003L180.842 30.4224C180.952 30.0104 181.241 29.6516 181.649 29.4221C182.058 29.1925 182.553 29.1101 183.03 29.1924C183.507 29.2789 183.925 29.5258 184.193 29.8793C184.461 30.2328 184.558 30.6642 184.462 31.0794Z" fill="#48A069"/>
<path d="M166.943 19.8114L166.688 17.7334C166.644 17.5221 166.652 17.3052 166.711 17.0967C166.771 16.8883 166.879 16.693 167.031 16.5236C167.183 16.3542 167.374 16.2145 167.592 16.1137C167.81 16.0128 168.05 15.953 168.296 15.9381C168.781 15.8884 169.27 16.0074 169.655 16.2692C170.04 16.5311 170.29 16.9145 170.352 17.3361L170.835 20.7205C170.835 20.7205 170.835 20.7205 170.835 20.7892C170.835 20.858 170.835 20.7892 170.879 20.8503C170.927 21.2709 170.787 21.6915 170.487 22.0244C170.188 22.3574 169.752 22.5771 169.271 22.638C168.704 22.6795 168.153 22.8201 167.65 23.0514C167.148 23.2827 166.704 23.5998 166.345 23.9839C165.987 24.3679 165.721 24.8109 165.564 25.2863C165.407 25.7617 165.362 26.2598 165.432 26.7507C165.502 27.2415 165.685 27.7151 165.971 28.143C166.256 28.5708 166.638 28.9442 167.093 29.2407C167.548 29.5372 168.068 29.7508 168.62 29.8685C169.173 29.9863 169.747 30.0059 170.308 29.9261C171.035 29.8529 171.727 29.6136 172.314 29.2325C172.9 28.8514 173.36 28.3422 173.647 27.7565C173.741 27.5583 173.881 27.3786 174.056 27.2277C174.232 27.0768 174.44 26.9577 174.669 26.8773C174.898 26.797 175.143 26.7571 175.39 26.7598C175.636 26.7625 175.88 26.8079 176.107 26.8932C176.329 26.977 176.529 27.0981 176.697 27.2496C176.865 27.4011 176.997 27.58 177.085 27.7759C177.173 27.9719 177.216 28.181 177.211 28.3914C177.206 28.6018 177.153 28.8092 177.055 29.0017C176.536 30.0436 175.729 30.9576 174.704 31.6619C173.68 32.3662 172.471 32.839 171.185 33.038C169.9 33.237 168.577 33.156 167.337 32.8023C166.096 32.4485 164.975 31.8331 164.074 31.0109C163.174 30.1887 162.521 29.1853 162.175 28.0904C161.829 26.9955 161.8 25.8431 162.092 24.7362C162.383 23.6292 162.984 22.6022 163.843 21.7469C164.702 20.8915 165.791 20.2344 167.013 19.8343L166.943 19.8114ZM165.933 12.6913L165.845 12.1031C165.802 11.8923 165.811 11.6762 165.871 11.4687C165.931 11.2612 166.04 11.0668 166.192 10.8983C166.343 10.7298 166.534 10.5909 166.751 10.4904C166.968 10.39 167.207 10.3304 167.453 10.3154C167.693 10.2887 167.938 10.3038 168.172 10.3598C168.406 10.4158 168.625 10.5115 168.816 10.6416C169.007 10.7716 169.167 10.9332 169.286 11.1172C169.404 11.3012 169.48 11.5039 169.508 11.7135L169.596 12.2941C169.649 12.7163 169.511 13.1398 169.211 13.4748C168.91 13.8099 168.472 14.0303 167.989 14.0893C167.748 14.1171 167.503 14.1027 167.268 14.0472C167.034 13.9916 166.814 13.896 166.623 13.7658C166.432 13.6356 166.272 13.4735 166.153 13.289C166.035 13.1045 165.96 12.9013 165.933 12.6913Z" fill="#48A069"/>
</svg>
