<svg width="364" height="199" viewBox="0 0 364 199" fill="none" xmlns="http://www.w3.org/2000/svg">
<path d="M248.814 34.3224L249.801 23.7259C249.575 23.6608 249.348 23.5632 249.122 23.4655C248.96 23.3841 248.895 23.1888 248.976 23.026C249.041 22.8958 249.186 22.8307 249.332 22.847C248.523 22.4237 247.827 21.8052 247.326 21.0565C245.061 22.4889 243.573 25.0118 243.573 27.8929C243.573 31.0019 245.32 33.6876 247.86 35.0386C248.183 34.827 248.507 34.6154 248.83 34.4038C248.83 34.3713 248.83 34.3387 248.814 34.3224Z" fill="#00313A"/>
<path d="M283.224 159.966C283.208 159.869 283.16 159.771 283.079 159.722C283.014 159.804 282.965 159.885 282.901 159.95C282.998 159.95 283.111 159.966 283.224 159.966Z" fill="#EAF9E7"/>
<path d="M283.224 160.015C283.224 159.999 283.224 159.983 283.224 159.966C283.111 159.966 282.998 159.95 282.885 159.95C282.998 159.966 283.111 159.999 283.224 160.015Z" fill="#EAF9E7"/>
<path d="M242.181 154.937C235.824 154.709 230.339 154.92 225.68 155.555C227.168 155.588 228.673 155.653 230.21 155.751C233.769 155.49 237.749 155.441 242.165 155.604C255.027 156.06 268.761 158.094 282.868 160.324C283.046 160.357 283.208 160.227 283.241 160.048C283.241 160.031 283.241 160.031 283.241 160.015C283.127 159.999 283.014 159.966 282.917 159.95C282.982 159.869 283.046 159.804 283.095 159.722C283.063 159.706 283.014 159.69 282.966 159.673C268.826 157.443 255.075 155.392 242.181 154.937Z" fill="#EAF9E7"/>
<path d="M210.182 161.838C210.247 161.92 210.344 161.952 210.425 161.952C210.505 161.952 210.57 161.92 210.635 161.871C214.566 158.436 221.021 156.402 230.21 155.75C228.689 155.669 227.169 155.604 225.68 155.555C218.675 156.516 213.563 158.436 210.214 161.382C210.085 161.496 210.069 161.692 210.182 161.838Z" fill="#EAF9E7"/>
<path d="M156.553 172.305C157.75 159.755 179.784 148.882 201.09 138.366C210.699 133.63 220.616 128.73 228.252 123.815C228.398 123.717 228.446 123.522 228.349 123.359C228.252 123.212 228.058 123.164 227.896 123.261C220.309 128.161 210.392 133.044 200.799 137.781C179.331 148.361 157.135 159.315 155.905 172.239C155.372 177.871 158.753 183.389 166.227 189.07C166.292 189.119 166.356 189.135 166.421 189.135C166.518 189.135 166.615 189.086 166.68 189.005C166.793 188.859 166.761 188.663 166.615 188.549C159.335 182.999 156.035 177.692 156.553 172.305Z" fill="#EAF9E7"/>
<path d="M248.264 15.9942C248.669 16.7918 249.235 17.508 249.931 18.0614C249.979 18.0614 250.011 18.0614 250.06 18.0614C250.885 18.0614 251.613 18.5172 252.001 19.1683C252.147 19.2171 252.309 19.2496 252.47 19.2985L254.428 18.5823C254.735 17.6382 255.399 16.8569 256.24 16.3686C256.321 16.3197 256.402 16.2872 256.483 16.2384C256.644 16.157 256.822 16.0756 256.984 16.0105C256.224 13.9107 254.218 12.4132 251.856 12.4132C250.351 12.4132 248.992 13.0155 247.989 14.0084C248.167 14.5944 248.264 15.2129 248.264 15.864C248.264 15.9128 248.264 15.9454 248.264 15.9942Z" fill="#00313A"/>
<path d="M250.06 18.0614C250.011 18.0614 249.979 18.0614 249.931 18.0614C250.545 18.5497 251.241 18.9404 252.001 19.1683C251.613 18.5009 250.885 18.0614 250.06 18.0614Z" fill="#00313A"/>
<path d="M254.25 19.4287C254.282 19.1357 254.347 18.8427 254.428 18.5823L252.47 19.2985C252.907 19.3961 253.36 19.445 253.846 19.445C253.975 19.445 254.121 19.445 254.25 19.4287Z" fill="#00313A"/>
<path d="M247.714 14.3176C246.873 15.278 246.371 16.5476 246.371 17.9312C246.371 18.6474 246.501 19.331 246.76 19.9658C247.682 18.8915 248.248 17.508 248.28 15.9942C248.005 15.4733 247.811 14.9036 247.714 14.3176Z" fill="#00313A"/>
<path d="M248.264 15.864C248.264 15.2129 248.167 14.5944 247.989 14.0084C247.892 14.1061 247.795 14.2037 247.698 14.3177C247.811 14.9037 247.989 15.4734 248.264 15.9942C248.264 15.9454 248.264 15.9129 248.264 15.864Z" fill="#00313A"/>
<path d="M259.605 27.8766C259.605 25.3373 258.44 23.0748 256.628 21.5936C257.259 24.7676 258.133 29.3253 258.408 32.1249C259.168 30.8879 259.605 29.4392 259.605 27.8766Z" fill="#00313A"/>
<path d="M258.133 34.3712C259.362 34.8595 260.511 35.0711 261.579 35.0386L261.546 34.8107C261.773 34.8758 261.999 34.9246 262.226 34.9898C262.371 34.9735 262.501 34.9572 262.646 34.9246C261.255 34.4689 259.783 34.1759 258.262 34.062C258.23 34.1759 258.181 34.2736 258.133 34.3712Z" fill="#00313A"/>
<path d="M261.546 34.827L261.579 35.0548C261.789 35.0548 262.015 35.0386 262.226 35.006C261.999 34.9409 261.773 34.8758 261.546 34.827Z" fill="#00313A"/>
<path d="M256.612 21.6098C256.563 21.3657 256.515 21.1378 256.466 20.9099C256.385 21.0401 256.288 21.1703 256.191 21.3006C256.353 21.3982 256.483 21.4959 256.612 21.6098Z" fill="#00313A"/>
<path d="M257.016 33.8178C257.13 33.8992 257.243 33.9643 257.356 34.0294C257.663 34.0457 257.955 34.062 258.246 34.0782C258.408 33.6876 258.472 33.2969 258.456 32.9388C258.44 32.6947 258.424 32.4342 258.391 32.1412C258.019 32.7435 257.55 33.3132 257.016 33.8178Z" fill="#00313A"/>
<path d="M255.01 22.44C255.48 23.8398 255.382 25.4024 254.8 26.786C254.525 27.4371 254.379 28.137 254.379 28.8858C254.379 30.6925 255.447 32.7435 257.033 33.8015C257.566 33.3132 258.036 32.7435 258.408 32.1249C258.117 29.3415 257.259 24.7676 256.628 21.5936C256.499 21.4796 256.353 21.382 256.208 21.2843C255.868 21.7401 255.463 22.1144 255.01 22.44Z" fill="#00313A"/>
<path d="M257.372 34.0131C257.486 34.0782 257.599 34.127 257.712 34.1758C257.858 34.2409 258.003 34.3061 258.133 34.3549C258.181 34.2572 258.23 34.1596 258.262 34.0619C257.971 34.0456 257.664 34.0293 257.372 34.0131Z" fill="#00313A"/>
<path d="M257.324 18.3707C256.935 18.6312 256.531 18.8428 256.094 19.0218C256.191 19.5101 256.337 20.1449 256.482 20.8937C256.952 20.1612 257.243 19.2985 257.324 18.3707Z" fill="#00313A"/>
<path d="M254.234 19.8194C254.234 19.9659 254.25 20.1286 254.266 20.2751C254.962 20.5193 255.625 20.8611 256.207 21.2843C256.305 21.1541 256.402 21.0239 256.482 20.8937C256.337 20.1449 256.191 19.4938 256.094 19.0218C255.512 19.2497 254.897 19.3799 254.266 19.4287C254.234 19.5589 254.234 19.6892 254.234 19.8194Z" fill="#00313A"/>
<path d="M256.207 21.2843C255.609 20.8611 254.962 20.5193 254.266 20.2751C254.315 20.7635 254.46 21.2355 254.687 21.6587C254.816 21.9191 254.929 22.1796 255.027 22.4563C255.463 22.1145 255.868 21.7401 256.207 21.2843Z" fill="#00313A"/>
<path d="M256.256 16.3686C255.399 16.8406 254.752 17.6382 254.444 18.5823L255.9 18.0614C255.9 18.0614 255.981 18.4195 256.11 19.0218C256.547 18.859 256.952 18.6311 257.34 18.3707C257.356 18.2242 257.356 18.0777 257.356 17.9312C257.356 17.2638 257.243 16.6128 257.016 16.0105C256.838 16.0756 256.677 16.157 256.515 16.2384C256.418 16.2872 256.337 16.336 256.256 16.3686Z" fill="#00313A"/>
<path d="M256.094 19.0218C255.965 18.4195 255.884 18.0614 255.884 18.0614L254.428 18.5823C254.331 18.859 254.282 19.1357 254.25 19.4287C254.897 19.3799 255.512 19.2496 256.094 19.0218Z" fill="#00313A"/>
<path d="M311.438 166.282C311.389 166.249 311.325 166.233 311.26 166.233C311.26 166.233 311.26 166.233 311.26 166.249C311.309 166.249 311.373 166.266 311.438 166.282Z" fill="#EAF9E7"/>
<path d="M311.26 166.233C311.325 166.249 311.389 166.266 311.438 166.282C311.373 166.266 311.309 166.249 311.26 166.233Z" fill="#EAF9E7"/>
<path d="M311.455 166.803C311.6 166.689 311.632 166.494 311.519 166.347C311.503 166.315 311.471 166.298 311.438 166.266C311.374 166.249 311.309 166.233 311.26 166.217C311.293 166.363 311.325 166.575 311.374 166.852C311.406 166.852 311.422 166.835 311.455 166.803Z" fill="#EAF9E7"/>
<path d="M311.228 166.233C311.244 166.233 311.244 166.233 311.26 166.233C311.26 166.233 311.26 166.233 311.26 166.217C311.244 166.217 311.228 166.233 311.228 166.233Z" fill="#EAF9E7"/>
<path d="M304.676 163.58C304.498 163.531 304.32 163.629 304.272 163.791C304.223 163.971 304.32 164.15 304.482 164.198C304.967 164.345 305.404 164.622 305.808 164.947C306.245 165.045 306.666 165.143 307.103 165.24C306.423 164.589 305.663 163.889 304.676 163.58Z" fill="#EAF9E7"/>
<path d="M309.578 167.552C309.837 167.552 310.112 167.503 310.403 167.405V166.705C309.141 167.291 308.348 166.494 307.297 165.452C307.232 165.387 307.167 165.322 307.103 165.273C306.666 165.175 306.245 165.077 305.808 164.98C306.164 165.273 306.504 165.598 306.828 165.924C307.653 166.721 308.494 167.552 309.578 167.552Z" fill="#EAF9E7"/>
<path d="M311.066 166.282C310.824 166.461 310.613 166.591 310.403 166.689V167.389C310.71 167.275 311.034 167.112 311.374 166.852C311.325 166.575 311.277 166.363 311.26 166.217C311.244 166.217 311.244 166.217 311.228 166.217C311.163 166.233 311.115 166.249 311.066 166.282Z" fill="#EAF9E7"/>
<path d="M252.891 44.9352C253.473 44.87 253.943 44.4957 254.153 43.9585C254.363 43.4214 254.25 42.8191 253.862 42.3796L251.484 39.759L251.209 43.2911C251.176 43.7469 251.338 44.2027 251.662 44.5119C251.985 44.8375 252.438 44.984 252.891 44.9352Z" fill="#48A069"/>
<path d="M245.708 44.0073C246.193 44.2027 247.666 43.3562 248.151 42.282C248.426 41.696 248.798 41.1425 249.203 40.6705C249.364 40.4752 249.526 40.2961 249.672 40.1334C249.526 40.1985 249.381 40.2636 249.219 40.345C247.925 40.9798 246.064 42.0703 245.676 43.3237C245.627 43.4702 245.514 43.926 245.708 44.0073Z" fill="#48A069"/>
<path d="M343.211 88.7372C338.212 87.7118 333.44 84.1633 330.512 80.2731C329.881 79.4266 329.331 78.5639 328.878 77.7013C328.765 77.4734 328.651 77.2455 328.538 77.0176C328.538 77.0013 328.522 77.0013 328.522 76.9851L328.473 77.0502L328.36 77.2455L308.073 112.958C308.089 112.958 308.106 112.974 308.122 112.974C308.154 112.99 308.187 113.023 308.203 113.039C308.3 113.137 308.316 113.283 308.251 113.414C307.992 113.934 307.976 114.276 307.96 114.667C307.944 115.09 307.928 115.513 307.588 116.05C307.523 116.148 307.426 116.197 307.313 116.197C307.248 116.197 307.184 116.181 307.135 116.148C306.989 116.05 306.941 115.855 307.038 115.692C307.297 115.302 307.297 115.009 307.313 114.634C307.313 114.537 307.313 114.423 307.329 114.309C307.361 113.967 307.426 113.593 307.669 113.104C307.685 113.072 307.701 113.055 307.717 113.039L300.308 75.5364C298.399 65.4119 293.788 55.9548 286.848 48.3859C283.483 44.7073 278.662 41.5007 273.194 38.9614C270.589 37.7569 267.823 36.6989 265.008 35.8036C264.846 35.7548 264.685 35.706 264.507 35.6571C263.892 35.3804 263.261 35.1362 262.614 34.9246C262.468 34.9409 262.339 34.9735 262.193 34.9898C261.983 35.006 261.773 35.0223 261.546 35.0386C260.478 35.0549 259.33 34.8595 258.1 34.3712C257.194 36.2594 254.622 38.2452 252.454 38.2452C251.16 38.2452 250.286 37.7732 249.72 37.057C249.623 36.943 249.542 36.8291 249.478 36.6989C249.267 36.357 249.122 35.9827 249.008 35.5757C249.008 35.5595 248.992 35.5432 248.992 35.5269C248.895 35.1688 248.83 34.7944 248.798 34.4038C248.475 34.6154 248.151 34.8107 247.827 35.0223C247.827 35.0223 247.827 35.0223 247.811 35.0223C225.049 49.8672 220.811 72.5739 208.774 111.151C208.257 111.379 207.723 111.607 207.205 111.835C207.124 111.867 207.027 111.916 206.946 111.949C206.429 112.176 205.927 112.388 205.409 112.616C205.312 112.648 205.231 112.697 205.134 112.73C204.617 112.958 204.083 113.186 203.565 113.414C203.5 113.446 203.436 113.462 203.371 113.495C202.271 113.967 201.187 114.439 200.103 114.911C200.038 114.944 199.974 114.96 199.909 114.992C199.391 115.22 198.857 115.448 198.34 115.676C198.275 115.709 198.194 115.741 198.129 115.774C197.596 116.002 197.062 116.229 196.544 116.474C196.512 116.49 196.463 116.506 196.431 116.522C195.331 117.011 194.231 117.483 193.147 117.971C193.098 117.987 193.05 118.02 193.001 118.036C192.483 118.264 191.966 118.492 191.448 118.736C191.383 118.769 191.319 118.801 191.254 118.818C190.736 119.045 190.219 119.29 189.701 119.517C189.668 119.534 189.636 119.55 189.604 119.566C188.536 120.055 187.468 120.527 186.433 121.015C186.384 121.031 186.336 121.064 186.271 121.08C185.77 121.308 185.268 121.536 184.767 121.764C184.702 121.796 184.637 121.829 184.589 121.845C184.087 122.073 183.586 122.317 183.084 122.545C183.052 122.561 183.019 122.578 182.987 122.594C182.469 122.838 181.952 123.082 181.45 123.326C186.951 123.571 191.464 126.793 195.638 130.96C210.7 123.164 226.117 115.676 234.044 112.958C235.872 111.411 237.328 108.514 238.509 104.689C238.525 104.624 238.525 104.559 238.541 104.494C238.703 103.191 238.8 102.264 238.849 100.864C238.849 100.685 239.011 100.538 239.189 100.555C239.366 100.555 239.512 100.717 239.496 100.896C239.447 102.28 239.366 103.224 239.205 104.477V104.494H239.852H241.825H242.23H242.586L244.835 104.477L274.035 104.331L275.977 104.315L276.025 104.477H276.138V103.875C275.88 102.866 275.621 101.792 275.362 100.685C274.197 95.6225 273.081 89.5836 272.078 82.8611C271.803 81.0706 271.544 79.2313 271.285 77.3432C271.269 77.1641 271.382 77.0013 271.56 76.9688C271.738 76.9525 271.9 77.0664 271.916 77.2455C272.45 81.1846 273.016 84.9446 273.615 88.4605C274.407 93.1484 275.249 97.413 276.122 101.14C276.333 102.036 276.543 102.915 276.753 103.745C276.802 103.908 276.705 104.07 276.559 104.135C281.736 118.411 287.657 129.642 294.403 135.079C325.594 158.095 343.6 94.5482 345.25 89.3395C345.298 89.1767 345.347 89.0628 345.363 89.0139C345.201 88.9977 345.039 88.9977 344.878 88.9814C344.311 88.9325 343.761 88.8512 343.211 88.7372ZM249.898 47.2954C249.866 47.2954 249.833 47.2954 249.817 47.2791C249.688 47.2465 249.607 47.1326 249.591 47.0024L249.461 45.9606C249.445 45.7816 249.575 45.6188 249.753 45.6025C249.769 45.6025 249.801 45.6025 249.817 45.6025C249.963 45.6188 250.092 45.7327 250.108 45.8955L250.238 46.9373C250.254 47.1163 250.125 47.2791 249.947 47.2954C249.931 47.2954 249.914 47.2954 249.898 47.2954ZM249.785 43.3888C249.51 44.0562 249.186 44.6584 248.83 45.1793C248.005 46.4001 246.921 47.2628 245.498 47.9302C245.449 47.9464 245.401 47.9627 245.368 47.9627C245.239 47.9627 245.126 47.8976 245.077 47.7674C244.996 47.6046 245.077 47.4093 245.239 47.3279C246.954 46.5303 248.119 45.4072 248.96 43.6492C249.267 43.0144 249.526 42.3145 249.753 41.5169C249.753 41.5007 249.769 41.4681 249.785 41.4518C249.85 41.3216 250.011 41.2565 250.157 41.289C250.335 41.3379 250.432 41.5169 250.383 41.696C250.189 42.2982 249.995 42.8679 249.785 43.3888ZM249.283 39.5962C249.461 39.5148 249.639 39.4334 249.769 39.3846C250.044 39.2707 250.238 39.1893 250.27 39.173C250.384 39.1242 250.513 39.1567 250.61 39.2381C250.739 39.1242 250.82 39.0591 250.836 39.0591C250.917 38.994 251.014 38.9777 251.111 39.0102C251.144 38.994 251.176 38.994 251.225 38.994C251.354 39.0102 251.467 39.0916 251.5 39.2056C251.629 39.1242 251.807 39.1404 251.92 39.2544L254.331 41.9239C254.881 42.5424 255.043 43.3888 254.751 44.1701C254.46 44.9352 253.781 45.4723 252.956 45.57C252.875 45.5862 252.794 45.5862 252.713 45.5862C252.147 45.5862 251.613 45.3746 251.209 44.9677C250.739 44.5119 250.497 43.8771 250.561 43.226L250.82 39.9218C250.545 40.1659 250.157 40.5403 249.769 40.9798C249.526 41.2565 249.3 41.5658 249.089 41.8913C248.96 42.1029 248.83 42.3145 248.733 42.5424C248.216 43.6655 246.808 44.6584 245.854 44.6584C245.724 44.6584 245.595 44.6422 245.482 44.5933C245.255 44.4957 244.737 44.1864 245.061 43.1284C245.546 41.5332 247.908 40.231 249.283 39.5962Z" fill="#48A069"/>
<path d="M348.032 66.6327C347.871 66.3072 347.66 66.0142 347.434 65.7375C346.868 65.0701 346.123 64.5492 345.282 64.2562C344.797 64.0935 344.279 63.9958 343.729 63.9958C342.241 63.9958 340.914 64.6632 340.024 65.7212C339.588 66.242 339.248 66.8769 339.054 67.5605C339.62 69.6114 341.513 71.1252 343.729 71.1252C345.945 71.1252 347.838 69.6114 348.405 67.5605C348.324 67.235 348.194 66.9257 348.032 66.6327Z" fill="#48A069"/>
<path d="M265.024 35.8199C267.839 36.6988 270.606 37.7731 273.21 38.9776C270.638 37.6104 267.904 36.5035 265.008 35.7059L265.024 35.8199Z" fill="white"/>
<path d="M357.464 66.649C357.464 66.6652 357.48 66.6652 357.48 66.6815C357.529 66.8117 357.448 66.9419 357.318 66.9908L351.64 68.8301C351.608 68.8301 351.591 68.8464 351.559 68.8464C351.462 68.8464 351.365 68.7813 351.333 68.6836C351.284 68.5534 351.365 68.4232 351.494 68.3743L357.173 66.535C357.27 66.5025 357.367 66.535 357.432 66.6164C358.952 66.0304 360.295 65.4119 360.23 65.1189C360.069 64.4678 350.847 66.2583 350.847 66.2583L348.582 66.5676C348.582 66.4699 348.599 66.356 348.599 66.2583C348.599 64.891 348.032 63.6539 347.143 62.7587C347.337 62.5471 347.466 62.3355 347.466 62.1727C347.466 62.0099 347.143 62.1076 346.593 62.2867C345.784 61.7007 344.813 61.3589 343.745 61.3589C341.06 61.3589 338.892 63.5563 338.892 66.242C338.892 66.4699 338.908 66.6815 338.941 66.8931C337.63 68.6511 338.293 67.9837 335.996 72.2483L332.097 77.9779L331.725 78.5313L330.56 80.2567C333.489 84.1633 338.261 87.6954 343.26 88.7209C343.891 87.6791 344.538 86.6537 345.185 85.6445C345.331 85.4329 345.46 85.2213 345.606 85.0097C347.676 81.917 349.877 79.0522 352.061 76.5455C352.74 75.7805 353.678 75.2759 354.681 75.1782C356.364 74.9992 358.871 74.6736 358.969 74.3481C359.13 73.8598 354.148 73.3552 354.115 73.0459C354.115 73.0459 362.932 68.2441 362.204 67.5116C361.832 67.1373 357.464 69.2859 355.523 70.2625C355.539 70.2788 355.555 70.2951 355.571 70.3113C355.636 70.4253 355.604 70.5718 355.49 70.6532L353.695 71.7112C353.662 71.7275 353.614 71.7437 353.565 71.7437C353.484 71.7437 353.403 71.6949 353.355 71.6298C353.29 71.5158 353.323 71.3694 353.436 71.288L355.231 70.2299C355.296 70.1811 355.377 70.1811 355.458 70.2137C357.61 68.9603 363.013 65.7537 363.013 65.2328C362.981 64.9073 360.069 65.7863 357.464 66.649ZM339.054 67.5768C339.248 66.8931 339.571 66.2746 340.024 65.7374C340.914 64.6794 342.241 64.012 343.729 64.012C344.279 64.012 344.797 64.1097 345.282 64.2725C346.123 64.5655 346.868 65.0701 347.434 65.7537C347.66 66.0304 347.871 66.3234 348.032 66.649C348.194 66.9419 348.307 67.2675 348.404 67.593C348.421 67.5605 348.421 67.5279 348.437 67.4791V69.1719C348.437 71.7926 346.334 73.9086 343.729 73.9086C341.124 73.9086 339.021 71.7926 339.021 69.1719V67.4791C339.021 67.4954 339.038 67.5279 339.054 67.5768ZM352.142 73.6482C349.359 73.7458 346.916 73.9412 345.185 75.5363C345.137 75.5852 345.072 75.6014 345.023 75.6014C344.959 75.6014 344.894 75.5689 344.845 75.5201C344.748 75.4224 344.764 75.2596 344.862 75.1782C346.706 73.4691 349.246 73.2575 352.142 73.1599C352.271 73.1599 352.384 73.2575 352.384 73.404C352.384 73.518 352.287 73.6319 352.142 73.6482ZM353.209 72.8343C353.161 72.8831 353.096 72.8994 353.031 72.8994C352.967 72.8994 352.902 72.8831 352.853 72.8343L352.449 72.4274C351.09 71.0601 350.087 69.3673 349.553 67.5116C349.521 67.3814 349.585 67.2512 349.715 67.2024C349.844 67.1698 349.974 67.2349 350.022 67.3652C350.54 69.1394 351.494 70.7671 352.805 72.0693L353.209 72.4762C353.29 72.5901 353.29 72.7366 353.209 72.8343Z" fill="white"/>
<path d="M186.417 120.999C187.468 120.51 188.52 120.038 189.588 119.55C188.536 120.038 187.468 120.51 186.417 120.999Z" fill="white"/>
<path d="M181.434 123.326C181.434 123.326 181.45 123.326 181.434 123.326C181.515 123.294 181.58 123.261 181.644 123.229C181.58 123.245 181.515 123.294 181.434 123.326Z" fill="white"/>
<path d="M154.725 138.904C151.91 141.248 149.79 144.308 148.512 147.742C146.975 151.893 144.921 157.671 145.228 157.867C145.633 158.143 148.286 153.211 149.159 151.551C149.079 151.502 149.03 151.405 149.062 151.291L149.289 150.233C149.321 150.102 149.451 150.021 149.58 150.037C149.709 150.07 149.79 150.2 149.774 150.33L149.548 151.388C149.515 151.502 149.418 151.584 149.305 151.584H149.289C148.674 153.781 146.506 161.594 147.348 161.594C147.574 161.594 148.043 161.008 148.609 160.113C148.545 160.032 148.545 159.918 148.593 159.82C148.593 159.82 148.593 159.804 148.609 159.804C150.211 157.802 151.279 155.36 152.039 153.244C152.168 152.87 152.298 152.495 152.427 152.137C152.476 152.007 152.605 151.942 152.735 151.991C152.767 152.007 152.799 152.023 152.832 152.056C152.896 152.121 152.913 152.218 152.88 152.3C152.864 152.349 152.848 152.414 152.832 152.463C152.071 154.693 150.987 157.476 149.24 159.771C151.246 158.42 156.553 150.2 156.553 150.2C157.2 148.898 158.526 148.556 159.95 148.572C160.193 148.572 157.831 151.144 156.828 152.495C157.572 151.942 158.332 151.437 159.125 150.949C160.71 149.972 162.846 148.719 165.386 147.27C165.628 147.059 165.774 146.945 165.774 146.945L166.259 146.782C173.814 142.501 184.621 136.641 195.622 130.944C191.432 126.777 186.934 123.554 181.434 123.31C170.433 128.535 160.904 133.744 154.725 138.904Z" fill="white"/>
<path d="M181.661 123.212C182.097 123.001 182.534 122.805 182.987 122.594C182.534 122.805 182.097 123.017 181.661 123.212Z" fill="white"/>
<path d="M337.42 170.742C334.475 171.181 331.434 171.067 331.434 171.067C329.832 170.677 328.215 170.302 326.613 169.912C324.785 169.472 322.957 169.033 321.129 168.593C321.032 168.577 320.935 168.544 320.838 168.528C319.123 168.121 317.392 167.698 315.677 167.291C315.677 167.291 315.677 167.291 315.661 167.291C314.253 166.949 312.846 166.624 311.438 166.298C311.471 166.314 311.503 166.347 311.519 166.38C311.633 166.526 311.6 166.721 311.455 166.835C311.422 166.852 311.406 166.868 311.374 166.9C311.535 167.779 311.778 169.244 312.037 171.051C312.894 177.22 313.703 187.149 310.516 189.331C310.484 189.347 310.452 189.379 310.419 189.396C311.778 189.396 313.105 189.396 314.383 189.379C314.561 189.379 314.739 189.379 314.917 189.379C315.774 189.379 316.615 189.379 317.44 189.379C320.433 189.379 323.151 189.363 325.529 189.363C328.732 189.347 331.337 189.347 333.214 189.347C333.44 189.347 333.667 189.347 333.877 189.347C334.346 189.347 334.75 189.347 335.09 189.347C335.236 189.347 335.381 189.347 335.511 189.347C335.559 189.347 335.624 189.347 335.673 189.347C335.753 189.347 335.834 189.347 335.899 189.347C336.028 189.347 336.158 189.347 336.255 189.347C336.32 189.347 336.368 189.347 336.401 189.347C336.449 189.347 336.498 189.347 336.53 189.347C336.546 189.347 336.562 189.347 336.579 189.347C336.611 189.347 336.627 189.347 336.627 189.347C336.627 189.347 336.659 189.396 336.74 189.461C337.792 190.6 346.107 199.488 346.819 197.811C347.482 196.183 338.73 170.547 337.42 170.742Z" fill="white"/>
<path d="M257.372 34.0131C257.259 33.948 257.146 33.8829 257.033 33.8015C255.447 32.7435 254.379 30.6925 254.379 28.8858C254.379 28.137 254.525 27.4371 254.8 26.786C255.382 25.3862 255.48 23.8398 255.01 22.44C254.913 22.1633 254.816 21.9028 254.671 21.6424C254.444 21.2192 254.315 20.7634 254.25 20.2588C254.234 20.1123 254.218 19.9658 254.218 19.8031C254.218 19.6728 254.234 19.5426 254.234 19.4124C254.088 19.4287 253.959 19.4287 253.813 19.4287C253.344 19.4287 252.891 19.3798 252.438 19.2822C252.276 19.2496 252.131 19.2008 251.969 19.152C251.209 18.9241 250.513 18.5334 249.898 18.0451C249.203 17.4917 248.636 16.7755 248.232 15.9779C248.2 17.4917 247.633 18.8753 246.711 19.9496C246.857 20.3402 247.051 20.6983 247.277 21.0401C247.795 21.7889 248.475 22.4074 249.283 22.8306C249.316 22.8306 249.332 22.8469 249.364 22.8632C249.51 22.9283 249.656 22.9934 249.817 23.0422C250.189 23.1724 250.594 23.2376 250.998 23.2376C251.128 23.2376 251.241 23.3189 251.289 23.4166C251.306 23.4654 251.322 23.5143 251.322 23.5631C251.322 23.7421 251.176 23.8886 250.998 23.8886C250.578 23.8886 250.157 23.8235 249.753 23.7096L248.766 34.3061C248.766 34.3386 248.766 34.3549 248.766 34.3875C248.442 34.5828 248.119 34.8107 247.795 35.0223C247.795 35.0223 247.795 35.0223 247.779 35.0223C247.779 35.0223 247.779 35.0223 247.795 35.0223C248.119 34.8107 248.442 34.5991 248.766 34.4037C248.798 34.7944 248.863 35.1688 248.96 35.5269C248.96 35.5431 248.976 35.5594 248.976 35.5757C249.089 35.9826 249.235 36.357 249.445 36.6988C249.526 36.8291 249.607 36.943 249.688 37.0569C250.254 37.7731 251.128 38.2452 252.422 38.2452C254.59 38.2452 257.146 36.2593 258.068 34.3712C257.922 34.3224 257.793 34.2572 257.647 34.1921C257.599 34.1433 257.486 34.0782 257.372 34.0131Z" fill="white"/>
<path d="M345.557 85.0422C345.412 85.2538 345.282 85.4654 345.136 85.677C345.557 86.6699 345.476 87.728 344.894 88.8836C344.878 88.9162 344.861 88.9487 344.861 88.9976C345.023 89.0139 345.185 89.0301 345.347 89.0301C345.331 89.079 345.298 89.1766 345.234 89.3557C345.331 89.3394 345.428 89.2743 345.476 89.1766C346.156 87.8419 346.237 86.5723 345.735 85.4003C345.687 85.2701 345.622 85.1561 345.557 85.0422Z" fill="#00313A"/>
<path d="M328.538 77.0175C328.635 77.2454 328.765 77.4733 328.878 77.7012C329.8 77.9779 330.738 78.2546 331.693 78.5476L332.065 77.9942C331.013 77.6686 329.913 77.3431 328.781 77.0012C328.7 76.9687 328.603 76.985 328.538 77.0175Z" fill="#00313A"/>
<path d="M328.36 77.2617L328.473 77.0664C328.425 77.0989 328.393 77.164 328.36 77.2291C328.376 77.2291 328.36 77.2454 328.36 77.2617Z" fill="#00313A"/>
<path d="M317.408 189.347C318.152 190.161 326.807 199.471 327.551 197.746C327.794 197.192 326.856 193.66 325.497 189.314C323.119 189.33 320.401 189.33 317.408 189.347Z" fill="#00313A"/>
<path d="M336.562 189.298C336.546 189.298 336.53 189.298 336.514 189.298C336.481 189.298 336.433 189.298 336.384 189.298L336.498 189.412C336.53 189.444 336.579 189.461 336.611 189.461C336.643 189.461 336.692 189.444 336.724 189.412C336.659 189.33 336.611 189.298 336.611 189.298C336.611 189.298 336.595 189.298 336.562 189.298Z" fill="#00313A"/>
<path d="M148.642 160.178C148.69 160.211 148.739 160.227 148.787 160.227C148.852 160.227 148.933 160.194 148.981 160.129C149.079 160.015 149.159 159.901 149.24 159.787C150.987 157.492 152.071 154.709 152.832 152.479C152.848 152.43 152.864 152.365 152.88 152.316C152.913 152.235 152.88 152.137 152.832 152.072C152.799 152.039 152.767 152.023 152.735 152.007C152.605 151.958 152.476 152.039 152.427 152.153C152.314 152.511 152.185 152.886 152.039 153.26C151.279 155.376 150.211 157.818 148.609 159.82C148.609 159.82 148.609 159.836 148.593 159.836C148.528 159.918 148.528 160.048 148.609 160.129C148.609 160.162 148.626 160.178 148.642 160.178Z" fill="#00313A"/>
<path d="M311.374 166.868C311.034 167.112 310.71 167.291 310.403 167.405C310.112 167.503 309.837 167.552 309.578 167.552C308.494 167.552 307.653 166.721 306.828 165.908C306.504 165.582 306.164 165.257 305.809 164.964C305.404 164.638 304.967 164.361 304.482 164.215C304.304 164.166 304.207 163.987 304.272 163.808C304.32 163.629 304.498 163.531 304.676 163.596C305.663 163.889 306.439 164.605 307.119 165.273C307.184 165.338 307.248 165.403 307.313 165.452C308.365 166.494 309.157 167.291 310.419 166.705C310.629 166.608 310.84 166.477 311.082 166.298C311.131 166.266 311.18 166.249 311.244 166.233C311.26 166.233 311.26 166.233 311.277 166.233C311.244 166.103 311.244 166.022 311.244 166.022C304.676 155.702 294.84 160.585 283.257 159.966C283.257 159.983 283.257 159.999 283.257 160.015C283.257 160.031 283.257 160.031 283.257 160.048C283.224 160.227 283.063 160.341 282.885 160.324C268.778 158.095 255.059 156.06 242.181 155.604C237.781 155.458 233.801 155.506 230.226 155.751C221.037 156.402 214.582 158.436 210.651 161.871C210.586 161.92 210.522 161.952 210.441 161.952C210.344 161.952 210.263 161.92 210.198 161.838C210.085 161.708 210.101 161.496 210.23 161.383C213.579 158.453 218.691 156.516 225.696 155.555C230.355 154.92 235.84 154.725 242.198 154.937C255.091 155.392 268.842 157.427 282.966 159.673C283.014 159.673 283.046 159.69 283.095 159.722C291.702 148.8 290.375 136.218 283.095 122.659C281.914 120.462 280.798 118.232 279.698 115.969L276.025 104.494L275.977 104.331L274.035 104.347L244.835 104.494L242.586 104.51H242.23H241.826H239.852H239.205V104.494C239.367 103.224 239.464 102.296 239.496 100.913C239.496 100.733 239.367 100.587 239.189 100.571C239.011 100.571 238.865 100.701 238.849 100.88C238.8 102.28 238.703 103.208 238.541 104.51C238.525 104.575 238.525 104.64 238.509 104.705C237.328 108.53 235.872 111.428 234.044 112.974C226.117 115.692 210.7 123.18 195.638 130.977C184.637 136.674 173.83 142.533 166.275 146.814C165.968 146.977 165.677 147.156 165.386 147.319C162.846 148.768 160.71 150.021 159.125 150.998C158.332 151.486 157.572 151.991 156.828 152.544C150.454 157.264 146.053 164.28 144.775 172.191C143.562 179.646 145.536 185.278 152.379 188.093C154.627 189.021 157.054 189.461 159.497 189.477L172.326 189.461C172.358 189.461 172.391 189.477 172.423 189.477C172.439 189.477 172.439 189.477 172.455 189.477H172.472C175.82 189.737 305.598 192.358 310.419 189.379C310.452 189.363 310.484 189.331 310.516 189.314C313.703 187.133 312.894 177.204 312.037 171.035C311.778 169.212 311.535 167.747 311.374 166.868ZM156.553 172.305C156.035 177.692 159.335 183.015 166.615 188.549C166.761 188.663 166.793 188.859 166.68 189.005C166.615 189.086 166.518 189.135 166.421 189.135C166.356 189.135 166.292 189.119 166.227 189.07C158.753 183.389 155.372 177.888 155.906 172.239C157.135 159.332 179.331 148.377 200.799 137.781C210.392 133.044 220.293 128.161 227.896 123.261C228.042 123.164 228.252 123.212 228.349 123.359C228.447 123.505 228.398 123.717 228.252 123.815C220.633 128.73 210.7 133.63 201.09 138.366C179.768 148.865 157.75 159.739 156.553 172.305Z" fill="#00313A"/>
<path d="M307.151 116.148C307.2 116.181 307.264 116.197 307.329 116.197C307.442 116.197 307.539 116.148 307.604 116.05C307.96 115.513 307.96 115.074 307.976 114.667C307.993 114.292 307.993 113.934 308.268 113.413C308.332 113.283 308.3 113.137 308.219 113.039C308.187 113.007 308.17 112.99 308.138 112.974C308.122 112.974 308.106 112.958 308.09 112.958C307.96 112.909 307.831 112.958 307.75 113.039C307.734 113.055 307.717 113.088 307.701 113.104C307.459 113.592 307.378 113.967 307.362 114.309C307.345 114.423 307.345 114.537 307.345 114.634C307.329 115.009 307.329 115.302 307.07 115.692C306.957 115.855 307.006 116.05 307.151 116.148Z" fill="#00313A"/>
<path d="M249.138 23.4491C249.348 23.5631 249.575 23.6445 249.817 23.7096C250.222 23.8235 250.626 23.8886 251.063 23.8886C251.241 23.8886 251.386 23.7421 251.386 23.5631C251.386 23.5143 251.37 23.4654 251.354 23.4166C251.306 23.3026 251.192 23.2375 251.063 23.2375C250.658 23.2375 250.254 23.1724 249.882 23.0422C249.736 22.9934 249.575 22.9283 249.429 22.8632C249.397 22.8469 249.38 22.8469 249.348 22.8306C249.203 22.798 249.057 22.8632 248.992 23.0097C248.911 23.1724 248.976 23.3678 249.138 23.4491Z" fill="#00313A"/>
<path d="M149.159 151.567C149.192 151.584 149.208 151.6 149.24 151.6C149.256 151.6 149.256 151.6 149.273 151.6H149.289C149.402 151.6 149.499 151.518 149.531 151.405L149.758 150.347C149.79 150.216 149.709 150.086 149.564 150.054C149.434 150.021 149.305 150.102 149.273 150.249L149.046 151.307C149.03 151.421 149.078 151.518 149.159 151.567Z" fill="#00313A"/>
<path d="M272.045 82.8773C273.048 89.5836 274.165 95.6387 275.329 100.701C275.588 101.808 275.847 102.866 276.106 103.891C276.106 103.908 276.106 103.924 276.122 103.924C276.155 104.07 276.284 104.168 276.43 104.168C276.462 104.168 276.478 104.168 276.51 104.152C276.527 104.152 276.543 104.135 276.543 104.135C276.688 104.07 276.785 103.908 276.737 103.745C276.527 102.915 276.316 102.052 276.106 101.14C275.232 97.4292 274.391 93.1646 273.599 88.4604C273 84.9446 272.434 81.1845 271.9 77.2454C271.884 77.0664 271.706 76.9361 271.544 76.9687C271.366 76.985 271.237 77.164 271.269 77.3431C271.512 79.2312 271.77 81.0706 272.045 82.8773Z" fill="#00313A"/>
<path d="M348.437 69.1556V67.4628C348.421 67.4954 348.421 67.5279 348.405 67.5767C347.838 69.6277 345.945 71.1415 343.729 71.1415C341.513 71.1415 339.62 69.6277 339.054 67.5767C339.037 67.5442 339.037 67.5116 339.021 67.4628V69.1556C339.021 71.7763 341.124 73.8923 343.729 73.8923C346.334 73.8923 348.437 71.76 348.437 69.1556Z" fill="#00313A"/>
<path d="M352.142 73.1598C349.262 73.2575 346.722 73.4691 344.862 75.1782C344.765 75.2759 344.748 75.4224 344.845 75.52C344.894 75.5689 344.959 75.6014 345.023 75.6014C345.088 75.6014 345.137 75.5852 345.185 75.5363C346.916 73.9411 349.359 73.7295 352.142 73.6481C352.271 73.6481 352.384 73.5342 352.384 73.404C352.384 73.2575 352.255 73.1435 352.142 73.1598Z" fill="#00313A"/>
<path d="M352.805 72.0855C351.511 70.7834 350.54 69.1556 350.022 67.3814C349.99 67.2512 349.844 67.1861 349.715 67.2186C349.585 67.2512 349.521 67.3977 349.553 67.5279C350.087 69.3835 351.09 71.0763 352.449 72.4436L352.853 72.8506C352.902 72.8994 352.967 72.9157 353.031 72.9157C353.096 72.9157 353.161 72.8994 353.209 72.8506C353.306 72.7529 353.306 72.6064 353.209 72.5087L352.805 72.0855Z" fill="#00313A"/>
<path d="M355.49 70.2788C355.474 70.2625 355.458 70.2462 355.426 70.2299C355.361 70.1974 355.28 70.1974 355.199 70.2462L353.403 71.3042C353.29 71.3693 353.242 71.5158 353.323 71.646C353.371 71.7274 353.452 71.76 353.533 71.76C353.581 71.76 353.614 71.7437 353.662 71.7274L355.458 70.6694C355.571 70.6043 355.62 70.4578 355.539 70.3276C355.523 70.3276 355.506 70.295 355.49 70.2788Z" fill="#00313A"/>
<path d="M357.48 66.6815C357.48 66.6652 357.464 66.6652 357.464 66.6489C357.464 66.6326 357.448 66.6164 357.432 66.6001C357.367 66.5187 357.27 66.4861 357.173 66.5187L351.494 68.358C351.365 68.4068 351.3 68.5371 351.333 68.6673C351.365 68.7649 351.462 68.8301 351.559 68.8301C351.591 68.8301 351.608 68.8301 351.64 68.8138L357.318 66.9745C357.448 66.9419 357.513 66.8117 357.48 66.6815Z" fill="#00313A"/>
<path d="M245.482 44.6096C245.595 44.6584 245.724 44.6747 245.854 44.6747C246.808 44.6747 248.216 43.6817 248.733 42.5586C248.83 42.3307 248.96 42.1191 249.089 41.9075C249.3 41.582 249.526 41.2727 249.769 40.996C250.157 40.5565 250.529 40.1821 250.82 39.938L250.561 43.2423C250.513 43.8934 250.756 44.5282 251.209 44.9839C251.613 45.3746 252.163 45.6025 252.713 45.6025C252.794 45.6025 252.875 45.6025 252.956 45.5862C253.765 45.4885 254.46 44.9514 254.751 44.1863C255.043 43.4213 254.881 42.5586 254.331 41.9401L251.92 39.2706C251.807 39.1567 251.629 39.1241 251.5 39.2218C251.451 39.1078 251.354 39.0102 251.225 39.0102C251.192 39.0102 251.16 39.0102 251.111 39.0265C251.014 39.0102 250.917 39.0265 250.836 39.0753C250.82 39.0916 250.739 39.1567 250.61 39.2543C250.529 39.173 250.4 39.1404 250.27 39.1892C250.238 39.2055 250.044 39.2706 249.769 39.4008C249.623 39.4659 249.461 39.5311 249.283 39.6124C247.908 40.2473 245.563 41.5332 245.061 43.1446C244.737 44.2026 245.239 44.5119 245.482 44.6096ZM251.209 43.2911L251.484 39.7589L253.862 42.3796C254.25 42.8191 254.363 43.405 254.153 43.9585C253.943 44.5119 253.473 44.87 252.891 44.9351C252.438 44.9839 251.985 44.8374 251.662 44.5119C251.338 44.2026 251.176 43.7469 251.209 43.2911ZM245.676 43.3236C246.064 42.0703 247.924 40.9797 249.219 40.3449C249.38 40.2635 249.526 40.1984 249.672 40.1333C249.51 40.2961 249.364 40.4751 249.203 40.6705C248.814 41.1425 248.426 41.6959 248.151 42.2819C247.666 43.3399 246.193 44.1863 245.708 44.0073C245.514 43.9259 245.627 43.4701 245.676 43.3236Z" fill="#00313A"/>
<path d="M250.157 41.289C250.011 41.2402 249.85 41.3215 249.785 41.4518C249.769 41.468 249.769 41.5006 249.753 41.5169C249.526 42.3145 249.267 43.0306 248.96 43.6492C248.119 45.4071 246.954 46.5303 245.239 47.3278C245.077 47.4092 245.013 47.5883 245.077 47.7673C245.126 47.8813 245.255 47.9627 245.368 47.9627C245.417 47.9627 245.466 47.9464 245.498 47.9301C246.922 47.2627 247.989 46.4 248.83 45.1792C249.186 44.6584 249.51 44.0561 249.785 43.3887C249.995 42.8679 250.189 42.3144 250.367 41.6959C250.416 41.5169 250.319 41.3378 250.157 41.289Z" fill="#00313A"/>
<path d="M249.801 45.6025C249.785 45.6025 249.753 45.6025 249.736 45.6025C249.558 45.6187 249.429 45.7815 249.445 45.9606L249.575 47.0023C249.591 47.1325 249.688 47.2465 249.801 47.279C249.833 47.2953 249.866 47.2953 249.882 47.2953C249.898 47.2953 249.914 47.2953 249.914 47.2953C250.092 47.279 250.222 47.1162 250.206 46.9372L250.076 45.8955C250.076 45.7327 249.947 45.6187 249.801 45.6025Z" fill="#00313A"/>
<path d="M88.19 156.337C88.19 149.305 85.5207 142.647 80.6674 137.585C75.895 132.604 69.5209 129.691 62.6777 129.349C62.338 122.464 59.4422 116.05 54.4918 111.249C49.4605 106.365 42.8438 103.68 35.855 103.68C21.0524 103.68 9 115.806 9 130.7C9 137.732 11.6693 144.389 16.5226 149.451C21.2951 154.432 27.6691 157.346 34.5123 157.688C34.852 164.573 37.7478 170.986 42.6982 175.788C47.7295 180.671 54.3462 183.357 61.335 183.357C67.5472 183.357 73.258 181.224 77.8201 177.66C80.2629 181.99 82.1072 185.554 83.2073 187.768C83.272 187.882 83.3852 187.947 83.4985 187.947C83.547 187.947 83.5956 187.931 83.6441 187.914C83.8059 187.833 83.8706 187.638 83.7897 187.475C82.091 184.073 80.2629 180.638 78.3378 177.253C84.3397 172.272 88.19 164.752 88.19 156.337ZM78.0142 176.667C74.4713 170.449 70.621 164.378 66.7545 158.941C59.2481 148.377 51.8063 140.206 44.6234 134.672C44.4778 134.558 44.2836 134.59 44.1704 134.737C44.0572 134.883 44.0895 135.078 44.2351 135.192C58.3259 146.049 70.3783 164.573 77.4965 177.09C73.0477 180.606 67.434 182.706 61.335 182.706C47.1956 182.706 35.6933 171.572 35.1432 157.362L35.127 157.053L34.8197 157.036C20.7127 156.499 9.64711 144.926 9.64711 130.7C9.64711 116.164 21.4083 104.331 35.855 104.331C49.9944 104.331 61.4968 115.464 62.0468 129.674L62.063 129.984L62.3704 130C76.4935 130.537 87.5591 142.11 87.5591 156.353C87.5429 164.508 83.822 171.816 78.0142 176.667Z" fill="white"/>
<path d="M163.337 5.72308H162.147C161.794 4.34095 161.064 3.08663 160.039 2.10265C159.015 1.11867 157.739 0.444484 156.354 0.156694C154.969 -0.131096 153.533 -0.0209462 152.207 0.474626C150.881 0.970199 149.72 1.83132 148.855 2.96015C147.989 4.08897 147.455 5.44024 147.312 6.8604C147.17 8.28056 147.424 9.71267 148.047 10.994C148.67 12.2753 149.637 13.3545 150.837 14.1089C152.037 14.8633 153.423 15.2626 154.836 15.2615H163.337C164.59 15.2615 165.791 14.7591 166.677 13.8647C167.563 12.9703 168.06 11.7572 168.06 10.4923C168.06 9.22743 167.563 8.01435 166.677 7.11995C165.791 6.22555 164.59 5.72308 163.337 5.72308Z" fill="white"/>
<path d="M7.436 54.028C8.02267 54.028 8.536 54.248 8.976 54.688C9.44533 55.128 9.68 55.656 9.68 56.272V77.964C9.68 78.6093 9.46 79.152 9.02 79.592C8.60933 80.032 8.08133 80.252 7.436 80.252C6.79067 80.252 6.248 80.032 5.808 79.592C5.39733 79.152 5.192 78.6093 5.192 77.964V56.272C5.192 55.6853 5.39733 55.172 5.808 54.732C6.248 54.2627 6.79067 54.028 7.436 54.028ZM7.436 45.888C8.25733 45.888 8.96133 46.1813 9.548 46.768C10.164 47.3547 10.472 48.0733 10.472 48.924C10.472 49.7453 10.1787 50.464 9.592 51.08C9.00533 51.696 8.28667 52.004 7.436 52.004C6.61467 52.004 5.896 51.696 5.28 51.08C4.69333 50.464 4.4 49.7453 4.4 48.924C4.4 48.0733 4.69333 47.3547 5.28 46.768C5.896 46.1813 6.61467 45.888 7.436 45.888ZM19.3638 70C18.7184 70 18.1758 69.78 17.7358 69.34C17.2958 68.9 17.0758 68.3573 17.0758 67.712V37.924C17.0758 37.2493 17.2958 36.7067 17.7358 36.296C18.1758 35.856 18.7184 35.636 19.3638 35.636C20.0384 35.636 20.5811 35.856 20.9918 36.296C21.4318 36.7067 21.6518 37.2493 21.6518 37.924V50.552H42.0678V37.924C42.0678 37.2493 42.2878 36.7067 42.7278 36.296C43.1678 35.856 43.7104 35.636 44.3558 35.636C45.0304 35.636 45.5731 35.856 45.9838 36.296C46.3944 36.7067 46.5998 37.2493 46.5998 37.924V67.712C46.5998 68.3573 46.3944 68.9 45.9838 69.34C45.5731 69.78 45.0304 70 44.3558 70C43.7104 70 43.1678 69.78 42.7278 69.34C42.2878 68.9 42.0678 68.3573 42.0678 67.712V54.6H21.6518V67.712C21.6518 68.3573 21.4318 68.9 20.9918 69.34C20.5811 69.78 20.0384 70 19.3638 70ZM65.8759 70.176C63.4999 70.176 61.4026 69.6627 59.5839 68.636C57.7652 67.58 56.3279 66.1427 55.2719 64.324C54.2452 62.476 53.7319 60.364 53.7319 57.988C53.7319 55.5827 54.2452 53.4707 55.2719 51.652C56.3279 49.804 57.7652 48.3667 59.5839 47.34C61.4026 46.284 63.4999 45.756 65.8759 45.756C68.2226 45.756 70.3052 46.284 72.1239 47.34C73.9426 48.3667 75.3652 49.804 76.3919 51.652C77.4479 53.4707 77.9759 55.5827 77.9759 57.988C77.9759 60.364 77.4626 62.476 76.4359 64.324C75.4092 66.1427 73.9866 67.58 72.1679 68.636C70.3492 69.6627 68.2519 70.176 65.8759 70.176ZM65.8759 66.216C67.4012 66.216 68.7506 65.864 69.9239 65.16C71.0972 64.456 72.0066 63.488 72.6519 62.256C73.3266 61.024 73.6639 59.6013 73.6639 57.988C73.6639 56.3747 73.3266 54.952 72.6519 53.72C72.0066 52.4587 71.0972 51.476 69.9239 50.772C68.7506 50.068 67.4012 49.716 65.8759 49.716C64.3506 49.716 63.0012 50.068 61.8279 50.772C60.6546 51.476 59.7306 52.4587 59.0559 53.72C58.3812 54.952 58.0439 56.3747 58.0439 57.988C58.0439 59.6013 58.3812 61.024 59.0559 62.256C59.7306 63.488 60.6546 64.456 61.8279 65.16C63.0012 65.864 64.3506 66.216 65.8759 66.216ZM90.3753 70C89.0846 70 87.9406 69.648 86.9433 68.944C85.946 68.24 85.1686 67.2867 84.6113 66.084C84.054 64.852 83.7753 63.444 83.7753 61.86V37.836C83.7753 37.1907 83.9806 36.6627 84.3913 36.252C84.802 35.8413 85.33 35.636 85.9753 35.636C86.6206 35.636 87.1486 35.8413 87.5593 36.252C87.97 36.6627 88.1753 37.1907 88.1753 37.836V61.86C88.1753 62.9453 88.3806 63.84 88.7913 64.544C89.202 65.248 89.73 65.6 90.3753 65.6H91.4753C92.062 65.6 92.5313 65.8053 92.8833 66.216C93.2646 66.6267 93.4553 67.1547 93.4553 67.8C93.4553 68.4453 93.1766 68.9733 92.6193 69.384C92.062 69.7947 91.3433 70 90.4633 70H90.3753ZM106.547 70.176C104.405 70.176 102.484 69.648 100.783 68.592C99.0814 67.5067 97.732 66.0547 96.7347 64.236C95.7667 62.388 95.2827 60.3053 95.2827 57.988C95.2827 55.6707 95.8107 53.588 96.8667 51.74C97.952 49.892 99.404 48.44 101.223 47.384C103.071 46.2987 105.139 45.756 107.427 45.756C109.715 45.756 111.768 46.2987 113.587 47.384C115.405 48.44 116.843 49.892 117.899 51.74C118.984 53.588 119.527 55.6707 119.527 57.988H117.811C117.811 60.3053 117.312 62.388 116.315 64.236C115.347 66.0547 114.012 67.5067 112.311 68.592C110.609 69.648 108.688 70.176 106.547 70.176ZM107.427 66.216C108.923 66.216 110.257 65.864 111.431 65.16C112.604 64.4267 113.528 63.444 114.203 62.212C114.877 60.9507 115.215 59.5427 115.215 57.988C115.215 56.404 114.877 54.996 114.203 53.764C113.528 52.5027 112.604 51.52 111.431 50.816C110.257 50.0827 108.923 49.716 107.427 49.716C105.96 49.716 104.625 50.0827 103.423 50.816C102.249 51.52 101.311 52.5027 100.607 53.764C99.932 54.996 99.5947 56.404 99.5947 57.988C99.5947 59.5427 99.932 60.9507 100.607 62.212C101.311 63.444 102.249 64.4267 103.423 65.16C104.625 65.864 105.96 66.216 107.427 66.216ZM117.283 70.044C116.637 70.044 116.095 69.8387 115.655 69.428C115.244 68.988 115.039 68.4453 115.039 67.8V61.068L115.875 56.404L119.527 57.988V67.8C119.527 68.4453 119.307 68.988 118.867 69.428C118.456 69.8387 117.928 70.044 117.283 70.044ZM11.83 114.14C10.01 114.14 8.365 113.72 6.895 112.88C5.44833 112.017 4.29333 110.85 3.43 109.38C2.59 107.91 2.17 106.253 2.17 104.41C2.17 102.567 2.555 100.922 3.325 99.475C4.11833 98.005 5.19167 96.85 6.545 96.01C7.89833 95.1467 9.42667 94.715 11.13 94.715C12.5067 94.715 13.7783 95.0067 14.945 95.59C16.1117 96.15 17.0917 96.92 17.885 97.9V88.45C17.885 87.9133 18.0483 87.4817 18.375 87.155C18.725 86.8283 19.1567 86.665 19.67 86.665C20.2067 86.665 20.6383 86.8283 20.965 87.155C21.2917 87.4817 21.455 87.9133 21.455 88.45V104.41C21.455 106.253 21.0233 107.91 20.16 109.38C19.32 110.85 18.1767 112.017 16.73 112.88C15.2833 113.72 13.65 114.14 11.83 114.14ZM11.83 110.99C13.02 110.99 14.0817 110.71 15.015 110.15C15.9483 109.567 16.6833 108.773 17.22 107.77C17.7567 106.767 18.025 105.647 18.025 104.41C18.025 103.15 17.7567 102.03 17.22 101.05C16.6833 100.07 15.9483 99.3 15.015 98.74C14.0817 98.1567 13.02 97.865 11.83 97.865C10.6633 97.865 9.60167 98.1567 8.645 98.74C7.71167 99.3 6.965 100.07 6.405 101.05C5.86833 102.03 5.6 103.15 5.6 104.41C5.6 105.647 5.86833 106.767 6.405 107.77C6.965 108.773 7.71167 109.567 8.645 110.15C9.60167 110.71 10.6633 110.99 11.83 110.99ZM36.7544 114.14C34.8177 114.14 33.091 113.732 31.5744 112.915C30.081 112.075 28.9027 110.932 28.0394 109.485C27.1994 108.015 26.7794 106.335 26.7794 104.445C26.7794 102.532 27.176 100.852 27.9694 99.405C28.786 97.935 29.906 96.7917 31.3294 95.975C32.7527 95.135 34.386 94.715 36.2294 94.715C38.0494 94.715 39.6127 95.1233 40.9194 95.94C42.226 96.7333 43.2177 97.8417 43.8944 99.265C44.5944 100.665 44.9444 102.287 44.9444 104.13C44.9444 104.573 44.7927 104.947 44.4894 105.25C44.186 105.53 43.801 105.67 43.3344 105.67H29.2294V102.87H43.2294L41.7944 103.85C41.771 102.683 41.5377 101.645 41.0944 100.735C40.651 99.8017 40.021 99.0667 39.2044 98.53C38.3877 97.9933 37.396 97.725 36.2294 97.725C34.8994 97.725 33.756 98.0167 32.7994 98.6C31.866 99.1833 31.1544 99.9883 30.6644 101.015C30.1744 102.018 29.9294 103.162 29.9294 104.445C29.9294 105.728 30.221 106.872 30.8044 107.875C31.3877 108.878 32.1927 109.672 33.2194 110.255C34.246 110.838 35.4244 111.13 36.7544 111.13C37.4777 111.13 38.2127 111.002 38.9594 110.745C39.7294 110.465 40.3477 110.15 40.8144 109.8C41.1644 109.543 41.5377 109.415 41.9344 109.415C42.3544 109.392 42.716 109.508 43.0194 109.765C43.416 110.115 43.626 110.5 43.6494 110.92C43.6727 111.34 43.486 111.702 43.0894 112.005C42.296 112.635 41.3044 113.148 40.1144 113.545C38.9477 113.942 37.8277 114.14 36.7544 114.14ZM75.9216 114.035C75.4082 114.035 74.9766 113.872 74.6266 113.545C74.2999 113.195 74.1366 112.763 74.1366 112.25V103.64C74.1366 102.31 73.8916 101.225 73.4016 100.385C72.9116 99.545 72.2466 98.9267 71.4066 98.53C70.5899 98.11 69.6449 97.9 68.5716 97.9C67.5916 97.9 66.7049 98.0983 65.9116 98.495C65.1182 98.8917 64.4882 99.4283 64.0216 100.105C63.5549 100.758 63.3216 101.517 63.3216 102.38H61.1166C61.1166 100.91 61.4666 99.6033 62.1666 98.46C62.8899 97.2933 63.8699 96.3717 65.1066 95.695C66.3432 95.0183 67.7316 94.68 69.2716 94.68C70.8816 94.68 72.3166 95.03 73.5766 95.73C74.8599 96.4067 75.8632 97.41 76.5866 98.74C77.3332 100.07 77.7066 101.703 77.7066 103.64V112.25C77.7066 112.763 77.5316 113.195 77.1816 113.545C76.8549 113.872 76.4349 114.035 75.9216 114.035ZM61.5366 114.035C61.0232 114.035 60.5916 113.872 60.2416 113.545C59.9149 113.195 59.7516 112.763 59.7516 112.25V96.64C59.7516 96.1033 59.9149 95.6717 60.2416 95.345C60.5916 95.0183 61.0232 94.855 61.5366 94.855C62.0732 94.855 62.5049 95.0183 62.8316 95.345C63.1582 95.6717 63.3216 96.1033 63.3216 96.64V112.25C63.3216 112.763 63.1582 113.195 62.8316 113.545C62.5049 113.872 62.0732 114.035 61.5366 114.035ZM91.659 114.175C90.049 114.175 88.6023 113.837 87.319 113.16C86.059 112.46 85.0557 111.445 84.309 110.115C83.5857 108.785 83.224 107.152 83.224 105.215V96.605C83.224 96.0917 83.3873 95.6717 83.714 95.345C84.064 94.995 84.4957 94.82 85.009 94.82C85.5223 94.82 85.9423 94.995 86.269 95.345C86.619 95.6717 86.794 96.0917 86.794 96.605V105.215C86.794 106.522 87.039 107.607 87.529 108.47C88.019 109.31 88.684 109.94 89.524 110.36C90.364 110.757 91.309 110.955 92.359 110.955C93.3623 110.955 94.249 110.757 95.019 110.36C95.8123 109.963 96.4423 109.427 96.909 108.75C97.3757 108.073 97.609 107.315 97.609 106.475H99.814C99.814 107.922 99.4523 109.228 98.729 110.395C98.029 111.562 97.0607 112.483 95.824 113.16C94.6107 113.837 93.2223 114.175 91.659 114.175ZM99.394 114C98.8807 114 98.449 113.837 98.099 113.51C97.7723 113.16 97.609 112.728 97.609 112.215V96.605C97.609 96.0683 97.7723 95.6367 98.099 95.31C98.449 94.9833 98.8807 94.82 99.394 94.82C99.9307 94.82 100.362 94.9833 100.689 95.31C101.016 95.6367 101.179 96.0683 101.179 96.605V112.215C101.179 112.728 101.016 113.16 100.689 113.51C100.362 113.837 99.9307 114 99.394 114ZM116.461 114.14C114.525 114.14 112.798 113.732 111.281 112.915C109.788 112.075 108.61 110.932 107.746 109.485C106.906 108.015 106.486 106.335 106.486 104.445C106.486 102.532 106.883 100.852 107.676 99.405C108.493 97.935 109.613 96.7917 111.036 95.975C112.46 95.135 114.093 94.715 115.936 94.715C117.756 94.715 119.32 95.1233 120.626 95.94C121.933 96.7333 122.925 97.8417 123.601 99.265C124.301 100.665 124.651 102.287 124.651 104.13C124.651 104.573 124.5 104.947 124.196 105.25C123.893 105.53 123.508 105.67 123.041 105.67H108.936V102.87H122.936L121.501 103.85C121.478 102.683 121.245 101.645 120.801 100.735C120.358 99.8017 119.728 99.0667 118.911 98.53C118.095 97.9933 117.103 97.725 115.936 97.725C114.606 97.725 113.463 98.0167 112.506 98.6C111.573 99.1833 110.861 99.9883 110.371 101.015C109.881 102.018 109.636 103.162 109.636 104.445C109.636 105.728 109.928 106.872 110.511 107.875C111.095 108.878 111.9 109.672 112.926 110.255C113.953 110.838 115.131 111.13 116.461 111.13C117.185 111.13 117.92 111.002 118.666 110.745C119.436 110.465 120.055 110.15 120.521 109.8C120.871 109.543 121.245 109.415 121.641 109.415C122.061 109.392 122.423 109.508 122.726 109.765C123.123 110.115 123.333 110.5 123.356 110.92C123.38 111.34 123.193 111.702 122.796 112.005C122.003 112.635 121.011 113.148 119.821 113.545C118.655 113.942 117.535 114.14 116.461 114.14ZM134.996 113.965C134.273 113.965 133.713 113.58 133.316 112.81L125.896 97.165C125.709 96.7683 125.686 96.3833 125.826 96.01C125.989 95.6133 126.293 95.31 126.736 95.1C127.133 94.89 127.529 94.855 127.926 94.995C128.346 95.135 128.661 95.4033 128.871 95.8L135.801 110.745H134.121L140.981 95.8C141.191 95.4033 141.506 95.135 141.926 94.995C142.369 94.855 142.813 94.89 143.256 95.1C143.676 95.2867 143.956 95.5783 144.096 95.975C144.236 96.3717 144.213 96.7683 144.026 97.165L136.606 112.81C136.256 113.58 135.719 113.965 134.996 113.965ZM155.692 114.14C153.802 114.14 152.134 113.732 150.687 112.915C149.241 112.075 148.097 110.932 147.257 109.485C146.441 108.015 146.032 106.335 146.032 104.445C146.032 102.532 146.441 100.852 147.257 99.405C148.097 97.935 149.241 96.7917 150.687 95.975C152.134 95.135 153.802 94.715 155.692 94.715C157.559 94.715 159.216 95.135 160.662 95.975C162.109 96.7917 163.241 97.935 164.057 99.405C164.897 100.852 165.317 102.532 165.317 104.445C165.317 106.335 164.909 108.015 164.092 109.485C163.276 110.932 162.144 112.075 160.697 112.915C159.251 113.732 157.582 114.14 155.692 114.14ZM155.692 110.99C156.906 110.99 157.979 110.71 158.912 110.15C159.846 109.59 160.569 108.82 161.082 107.84C161.619 106.86 161.887 105.728 161.887 104.445C161.887 103.162 161.619 102.03 161.082 101.05C160.569 100.047 159.846 99.265 158.912 98.705C157.979 98.145 156.906 97.865 155.692 97.865C154.479 97.865 153.406 98.145 152.472 98.705C151.539 99.265 150.804 100.047 150.267 101.05C149.731 102.03 149.462 103.162 149.462 104.445C149.462 105.728 149.731 106.86 150.267 107.84C150.804 108.82 151.539 109.59 152.472 110.15C153.406 110.71 154.479 110.99 155.692 110.99ZM171.645 107.525C171.132 107.525 170.7 107.35 170.35 107C170.024 106.627 169.86 106.207 169.86 105.74V88.485C169.86 87.9717 170.024 87.54 170.35 87.19C170.7 86.84 171.132 86.665 171.645 86.665C172.159 86.665 172.579 86.84 172.905 87.19C173.255 87.54 173.43 87.9717 173.43 88.485V105.74C173.43 106.23 173.244 106.65 172.87 107C172.52 107.35 172.112 107.525 171.645 107.525ZM171.645 114C170.992 114 170.42 113.767 169.93 113.3C169.464 112.833 169.23 112.262 169.23 111.585C169.23 110.908 169.464 110.337 169.93 109.87C170.42 109.38 170.992 109.135 171.645 109.135C172.322 109.135 172.894 109.38 173.36 109.87C173.827 110.337 174.06 110.908 174.06 111.585C174.06 112.262 173.815 112.833 173.325 113.3C172.859 113.767 172.299 114 171.645 114Z" fill="#00313A"/>
</svg>
