<svg width="414" height="532" viewBox="0 0 414 532" fill="none" xmlns="http://www.w3.org/2000/svg">
<path d="M50.8095 89.124C50.0468 89.124 49.4055 89.4013 48.8855 89.956C48.4002 90.476 48.1575 91.0827 48.1575 91.776V117.412C48.1575 118.175 48.4002 118.816 48.8855 119.336C49.4055 119.856 50.0468 120.116 50.8095 120.116C51.5722 120.116 52.1962 119.856 52.6815 119.336C53.2015 118.816 53.4615 118.175 53.4615 117.412V91.776C53.4615 91.048 53.1842 90.424 52.6295 89.904C52.1095 89.384 51.5028 89.124 50.8095 89.124ZM50.8095 79.504C49.8388 79.504 48.9895 79.8507 48.2615 80.544C47.5682 81.2373 47.2215 82.0867 47.2215 83.092C47.2215 84.0973 47.5682 84.964 48.2615 85.692C48.9895 86.3853 49.8388 86.732 50.8095 86.732C51.8148 86.732 52.6642 86.3853 53.3575 85.692C54.0508 84.964 54.3975 84.0973 54.3975 83.092C54.3975 82.0867 54.0335 81.2373 53.3055 80.544C52.6122 79.8507 51.7802 79.504 50.8095 79.504ZM64.906 108C64.1433 108 63.502 107.74 62.982 107.22C62.462 106.7 62.202 106.059 62.202 105.296V70.092C62.202 69.2947 62.462 68.6533 62.982 68.168C63.502 67.648 64.1433 67.388 64.906 67.388H77.334C79.6913 67.388 81.754 67.856 83.522 68.792C85.3246 69.6933 86.7286 70.9587 87.734 72.588C88.774 74.2173 89.294 76.0893 89.294 78.204C89.294 79.9027 88.826 81.4453 87.89 82.832C86.9886 84.184 85.7406 85.2587 84.146 86.056C86.434 86.6107 88.2713 87.7027 89.658 89.332C91.0446 90.9613 91.738 93.0933 91.738 95.728C91.738 98.12 91.166 100.235 90.022 102.072C88.9126 103.909 87.3526 105.365 85.342 106.44C83.3313 107.48 81.026 108 78.426 108H64.906ZM67.61 84.08H77.334C79.31 84.08 80.922 83.5947 82.17 82.624C83.4526 81.6533 84.094 80.18 84.094 78.204C84.094 76.228 83.4526 74.772 82.17 73.836C80.922 72.8653 79.31 72.38 77.334 72.38H67.61V84.08ZM67.61 103.008H78.426C80.7833 103.008 82.7246 102.401 84.25 101.188C85.7753 99.94 86.538 98.12 86.538 95.728C86.538 93.5093 85.7753 91.8453 84.25 90.736C82.7246 89.6267 80.7833 89.072 78.426 89.072H67.61V103.008ZM102.432 108C101.669 108 101.028 107.757 100.508 107.272C100.023 106.752 99.7801 106.111 99.7801 105.348V82.208C99.7801 81.4107 100.023 80.7693 100.508 80.284C101.028 79.7987 101.669 79.556 102.432 79.556C103.229 79.556 103.871 79.7987 104.356 80.284C104.841 80.7693 105.084 81.4107 105.084 82.208V105.348C105.084 106.111 104.841 106.752 104.356 107.272C103.871 107.757 103.229 108 102.432 108ZM102.432 74.928C101.496 74.928 100.681 74.5987 99.9881 73.94C99.3294 73.2467 99.0001 72.432 99.0001 71.496C99.0001 70.56 99.3294 69.7627 99.9881 69.104C100.681 68.4107 101.496 68.064 102.432 68.064C103.368 68.064 104.165 68.4107 104.824 69.104C105.517 69.7627 105.864 70.56 105.864 71.496C105.864 72.432 105.517 73.2467 104.824 73.94C104.165 74.5987 103.368 74.928 102.432 74.928ZM128.315 108.208C125.438 108.208 122.873 107.601 120.619 106.388C118.401 105.14 116.65 103.441 115.367 101.292C114.119 99.108 113.495 96.612 113.495 93.804C113.495 90.9613 114.085 88.4653 115.263 86.316C116.477 84.132 118.141 82.4333 120.255 81.22C122.37 79.972 124.797 79.348 127.535 79.348C130.239 79.348 132.562 79.9547 134.503 81.168C136.445 82.3467 137.918 83.9933 138.923 86.108C139.963 88.188 140.483 90.5973 140.483 93.336C140.483 93.9947 140.258 94.5493 139.807 95C139.357 95.416 138.785 95.624 138.091 95.624H118.331C118.713 98.016 119.805 99.9747 121.607 101.5C123.445 102.991 125.681 103.736 128.315 103.736C129.39 103.736 130.482 103.545 131.591 103.164C132.735 102.748 133.654 102.28 134.347 101.76C134.867 101.379 135.422 101.188 136.011 101.188C136.635 101.153 137.173 101.327 137.623 101.708C138.213 102.228 138.525 102.8 138.559 103.424C138.594 104.048 138.317 104.585 137.727 105.036C136.549 105.972 135.075 106.735 133.307 107.324C131.574 107.913 129.91 108.208 128.315 108.208ZM127.535 83.82C124.97 83.82 122.907 84.5307 121.347 85.952C119.787 87.3733 118.799 89.2107 118.383 91.464H135.699C135.387 89.2453 134.538 87.4253 133.151 86.004C131.765 84.548 129.893 83.82 127.535 83.82ZM149.9 108.052C149.138 108.052 148.496 107.809 147.976 107.324C147.491 106.804 147.248 106.163 147.248 105.4V82.208C147.248 81.4107 147.491 80.7693 147.976 80.284C148.496 79.7987 149.138 79.556 149.9 79.556C150.698 79.556 151.339 79.7987 151.824 80.284C152.31 80.7693 152.552 81.4107 152.552 82.208V82.78C153.627 81.7053 154.927 80.856 156.452 80.232C157.978 79.608 159.624 79.296 161.392 79.296C163.784 79.296 165.916 79.816 167.788 80.856C169.695 81.8613 171.186 83.352 172.26 85.328C173.37 87.304 173.924 89.7307 173.924 92.608V105.4C173.924 106.163 173.664 106.804 173.144 107.324C172.659 107.809 172.035 108.052 171.272 108.052C170.51 108.052 169.868 107.809 169.348 107.324C168.863 106.804 168.62 106.163 168.62 105.4V92.608C168.62 89.6613 167.823 87.512 166.228 86.16C164.668 84.7733 162.71 84.08 160.352 84.08C158.896 84.08 157.579 84.3747 156.4 84.964C155.222 85.5533 154.286 86.3507 153.592 87.356C152.899 88.3267 152.552 89.4533 152.552 90.736V105.4C152.552 106.163 152.31 106.804 151.824 107.324C151.339 107.809 150.698 108.052 149.9 108.052ZM190.739 107.948C189.665 107.948 188.833 107.376 188.243 106.232L177.219 82.988C176.942 82.3987 176.907 81.8267 177.115 81.272C177.358 80.6827 177.809 80.232 178.467 79.92C179.057 79.608 179.646 79.556 180.235 79.764C180.859 79.972 181.327 80.3707 181.639 80.96L190.687 100.46L199.631 80.96C199.943 80.3707 200.411 79.972 201.035 79.764C201.694 79.556 202.353 79.608 203.011 79.92C203.635 80.1973 204.051 80.6307 204.259 81.22C204.467 81.8093 204.433 82.3987 204.155 82.988L193.131 106.232C192.611 107.376 191.814 107.948 190.739 107.948ZM221.956 108.208C219.079 108.208 216.513 107.601 214.26 106.388C212.041 105.14 210.291 103.441 209.008 101.292C207.76 99.108 207.136 96.612 207.136 93.804C207.136 90.9613 207.725 88.4653 208.904 86.316C210.117 84.132 211.781 82.4333 213.896 81.22C216.011 79.972 218.437 79.348 221.176 79.348C223.88 79.348 226.203 79.9547 228.144 81.168C230.085 82.3467 231.559 83.9933 232.564 86.108C233.604 88.188 234.124 90.5973 234.124 93.336C234.124 93.9947 233.899 94.5493 233.448 95C232.997 95.416 232.425 95.624 231.732 95.624H211.972C212.353 98.016 213.445 99.9747 215.248 101.5C217.085 102.991 219.321 103.736 221.956 103.736C223.031 103.736 224.123 103.545 225.232 103.164C226.376 102.748 227.295 102.28 227.988 101.76C228.508 101.379 229.063 101.188 229.652 101.188C230.276 101.153 230.813 101.327 231.264 101.708C231.853 102.228 232.165 102.8 232.2 103.424C232.235 104.048 231.957 104.585 231.368 105.036C230.189 105.972 228.716 106.735 226.948 107.324C225.215 107.913 223.551 108.208 221.956 108.208ZM221.176 83.82C218.611 83.82 216.548 84.5307 214.988 85.952C213.428 87.3733 212.44 89.2107 212.024 91.464H229.34C229.028 89.2453 228.179 87.4253 226.792 86.004C225.405 84.548 223.533 83.82 221.176 83.82ZM243.541 108.052C242.778 108.052 242.137 107.809 241.617 107.324C241.132 106.804 240.889 106.163 240.889 105.4V82.208C240.889 81.4107 241.132 80.7693 241.617 80.284C242.137 79.7987 242.778 79.556 243.541 79.556C244.338 79.556 244.98 79.7987 245.465 80.284C245.95 80.7693 246.193 81.4107 246.193 82.208V82.78C247.268 81.7053 248.568 80.856 250.093 80.232C251.618 79.608 253.265 79.296 255.033 79.296C257.425 79.296 259.557 79.816 261.429 80.856C263.336 81.8613 264.826 83.352 265.901 85.328C267.01 87.304 267.565 89.7307 267.565 92.608V105.4C267.565 106.163 267.305 106.804 266.785 107.324C266.3 107.809 265.676 108.052 264.913 108.052C264.15 108.052 263.509 107.809 262.989 107.324C262.504 106.804 262.261 106.163 262.261 105.4V92.608C262.261 89.6613 261.464 87.512 259.869 86.16C258.309 84.7733 256.35 84.08 253.993 84.08C252.537 84.08 251.22 84.3747 250.041 84.964C248.862 85.5533 247.926 86.3507 247.233 87.356C246.54 88.3267 246.193 89.4533 246.193 90.736V105.4C246.193 106.163 245.95 106.804 245.465 107.324C244.98 107.809 244.338 108.052 243.541 108.052ZM279.506 108C278.744 108 278.102 107.757 277.582 107.272C277.097 106.752 276.854 106.111 276.854 105.348V82.208C276.854 81.4107 277.097 80.7693 277.582 80.284C278.102 79.7987 278.744 79.556 279.506 79.556C280.304 79.556 280.945 79.7987 281.43 80.284C281.916 80.7693 282.158 81.4107 282.158 82.208V105.348C282.158 106.111 281.916 106.752 281.43 107.272C280.945 107.757 280.304 108 279.506 108ZM279.506 74.928C278.57 74.928 277.756 74.5987 277.062 73.94C276.404 73.2467 276.074 72.432 276.074 71.496C276.074 70.56 276.404 69.7627 277.062 69.104C277.756 68.4107 278.57 68.064 279.506 68.064C280.442 68.064 281.24 68.4107 281.898 69.104C282.592 69.7627 282.938 70.56 282.938 71.496C282.938 72.432 282.592 73.2467 281.898 73.94C281.24 74.5987 280.442 74.928 279.506 74.928ZM304.922 108.208C302.218 108.208 299.774 107.584 297.59 106.336C295.44 105.053 293.724 103.32 292.442 101.136C291.194 98.952 290.57 96.4907 290.57 93.752C290.57 91.0133 291.142 88.5693 292.286 86.42C293.464 84.236 295.059 82.52 297.07 81.272C299.08 79.9893 301.351 79.348 303.882 79.348C305.927 79.348 307.816 79.7813 309.55 80.648C311.283 81.48 312.739 82.624 313.918 84.08V70.04C313.918 69.2427 314.16 68.6013 314.646 68.116C315.166 67.6307 315.807 67.388 316.57 67.388C317.367 67.388 318.008 67.6307 318.494 68.116C318.979 68.6013 319.222 69.2427 319.222 70.04V93.752C319.222 96.4907 318.58 98.952 317.298 101.136C316.05 103.32 314.351 105.053 312.202 106.336C310.052 107.584 307.626 108.208 304.922 108.208ZM304.922 103.528C306.69 103.528 308.267 103.112 309.654 102.28C311.04 101.413 312.132 100.235 312.93 98.744C313.727 97.2533 314.126 95.5893 314.126 93.752C314.126 91.88 313.727 90.216 312.93 88.76C312.132 87.304 311.04 86.16 309.654 85.328C308.267 84.4613 306.69 84.028 304.922 84.028C303.188 84.028 301.611 84.4613 300.19 85.328C298.803 86.16 297.694 87.304 296.862 88.76C296.064 90.216 295.666 91.88 295.666 93.752C295.666 95.5893 296.064 97.2533 296.862 98.744C297.694 100.235 298.803 101.413 300.19 102.28C301.611 103.112 303.188 103.528 304.922 103.528ZM341.484 108.208C338.676 108.208 336.198 107.601 334.048 106.388C331.899 105.14 330.2 103.441 328.952 101.292C327.739 99.108 327.132 96.612 327.132 93.804C327.132 90.9613 327.739 88.4653 328.952 86.316C330.2 84.132 331.899 82.4333 334.048 81.22C336.198 79.972 338.676 79.348 341.484 79.348C344.258 79.348 346.719 79.972 348.868 81.22C351.018 82.4333 352.699 84.132 353.912 86.316C355.16 88.4653 355.784 90.9613 355.784 93.804C355.784 96.612 355.178 99.108 353.964 101.292C352.751 103.441 351.07 105.14 348.92 106.388C346.771 107.601 344.292 108.208 341.484 108.208ZM341.484 103.528C343.287 103.528 344.882 103.112 346.268 102.28C347.655 101.448 348.73 100.304 349.492 98.848C350.29 97.392 350.688 95.7107 350.688 93.804C350.688 91.8973 350.29 90.216 349.492 88.76C348.73 87.2693 347.655 86.108 346.268 85.276C344.882 84.444 343.287 84.028 341.484 84.028C339.682 84.028 338.087 84.444 336.7 85.276C335.314 86.108 334.222 87.2693 333.424 88.76C332.627 90.216 332.228 91.8973 332.228 93.804C332.228 95.7107 332.627 97.392 333.424 98.848C334.222 100.304 335.314 101.448 336.7 102.28C338.087 103.112 339.682 103.528 341.484 103.528ZM365.186 98.38C364.423 98.38 363.782 98.12 363.262 97.6C362.777 97.0453 362.534 96.4213 362.534 95.728V70.092C362.534 69.3293 362.777 68.688 363.262 68.168C363.782 67.648 364.423 67.388 365.186 67.388C365.949 67.388 366.573 67.648 367.058 68.168C367.578 68.688 367.838 69.3293 367.838 70.092V95.728C367.838 96.456 367.561 97.08 367.006 97.6C366.486 98.12 365.879 98.38 365.186 98.38ZM365.186 108C364.215 108 363.366 107.653 362.638 106.96C361.945 106.267 361.598 105.417 361.598 104.412C361.598 103.407 361.945 102.557 362.638 101.864C363.366 101.136 364.215 100.772 365.186 100.772C366.191 100.772 367.041 101.136 367.734 101.864C368.427 102.557 368.774 103.407 368.774 104.412C368.774 105.417 368.41 106.267 367.682 106.96C366.989 107.653 366.157 108 365.186 108Z" fill="#00313A"/>
<path d="M61.8802 191.25H60.7777C60.4504 189.982 59.7739 188.831 58.8253 187.929C57.8767 187.026 56.6938 186.408 55.4113 186.144C54.1287 185.88 52.7978 185.981 51.5698 186.435C50.3418 186.89 49.2659 187.68 48.4644 188.715C47.6629 189.751 47.168 190.991 47.0358 192.293C46.9036 193.596 47.1394 194.91 47.7166 196.085C48.2937 197.261 49.189 198.251 50.3006 198.943C51.4123 199.635 52.6958 200.001 54.0052 200H61.8802C63.0405 200 64.1533 199.539 64.9738 198.719C65.7943 197.898 66.2552 196.785 66.2552 195.625C66.2552 194.465 65.7943 193.352 64.9738 192.531C64.1533 191.711 63.0405 191.25 61.8802 191.25Z" fill="white"/>
<path d="M368.846 225H366.116C365.306 221.86 363.631 219.011 361.282 216.776C358.933 214.541 356.004 213.01 352.828 212.356C349.652 211.702 346.356 211.952 343.316 213.078C340.275 214.204 337.611 216.16 335.626 218.724C333.642 221.288 332.416 224.358 332.089 227.583C331.761 230.809 332.345 234.062 333.774 236.973C335.203 239.883 337.42 242.335 340.173 244.048C342.926 245.762 346.104 246.669 349.346 246.667H368.846C371.719 246.667 374.475 245.525 376.507 243.494C378.538 241.462 379.68 238.707 379.68 235.833C379.68 232.96 378.538 230.205 376.507 228.173C374.475 226.141 371.719 225 368.846 225Z" fill="white"/>
<path d="M320.25 18.5833H316.523C315.416 14.2967 313.129 10.4065 309.921 7.35468C306.714 4.30288 302.715 2.2119 298.379 1.31933C294.043 0.426753 289.543 0.768379 285.391 2.30539C281.239 3.84239 277.602 6.51315 274.892 10.0142C272.182 13.5152 270.509 17.7061 270.062 22.1107C269.615 26.5153 270.412 30.957 272.363 34.931C274.315 38.905 277.341 42.252 281.1 44.5917C284.858 46.9314 289.198 48.17 293.625 48.1667H320.25C324.173 48.1667 327.935 46.6083 330.709 43.8343C333.483 41.0603 335.042 37.298 335.042 33.375C335.042 29.452 333.483 25.6897 330.709 22.9157C327.935 20.1417 324.173 18.5833 320.25 18.5833Z" fill="white"/>
<path d="M389.49 328.624L331.236 323.439C324.618 333.884 314.131 340.738 298.475 342.409C293.905 342.782 289.411 342.334 285.016 341.087C274.304 337.947 264.591 329.746 256.001 316.734L254.503 316.609L236.1 314.964V307.436C217.048 308.683 196.123 308.558 174.025 307.536L173.5 315.014L160.516 316.161L158.993 316.285C150.328 329.546 140.515 337.897 129.678 341.062C125.283 342.334 120.789 342.782 116.219 342.384C100.364 340.689 89.8012 333.684 83.2092 323.015L20.5346 328.599C1.5325 330.319 -13 346.197 -13 365.217C-13 385.507 3.48016 401.934 23.7807 401.934H23.8307L164.561 413.699L201.242 416.765L206.086 401.934L209.582 391.265L212.578 382.067L214.826 375.212C221.218 376.907 227.585 378.677 233.928 380.497C234.877 380.073 235.85 379.649 236.799 379.225C236.699 378.976 236.799 378.677 237.049 378.577C253.13 371.598 270.584 364.469 289.186 359.733C309.037 354.673 327.565 353.077 345.843 354.822C346.118 354.847 346.317 355.096 346.292 355.37C346.292 355.495 346.217 355.595 346.143 355.67C346.043 355.769 345.893 355.819 345.743 355.819C305.092 351.906 269.959 365.366 237.473 379.475L238.223 381.743C247.786 384.535 257.325 387.426 266.863 390.318C268.786 390.891 269.984 392.786 269.66 394.755C269.385 396.599 268.985 399.067 268.536 401.909C267.537 408.29 266.189 416.516 264.94 423.595L391.538 401.709L391.388 401.56C409.217 399.017 422.95 383.712 422.95 365.217C423 346.197 408.468 330.319 389.49 328.624ZM211.904 310.203C212.154 310.103 212.454 310.203 212.553 310.452C212.903 311.275 213.103 312.098 213.178 312.945C213.327 314.54 213.128 316.161 212.903 317.856C212.903 317.905 212.878 317.955 212.878 318.005C212.603 319.925 212.329 321.919 212.603 323.913C212.628 324.187 212.454 324.436 212.179 324.461C212.154 324.461 212.129 324.461 212.104 324.461C211.854 324.461 211.654 324.287 211.605 324.037C211.33 321.894 211.605 319.85 211.879 317.856V317.831C212.129 316.086 212.354 314.416 212.154 312.82C212.079 312.122 211.904 311.474 211.63 310.826C211.53 310.602 211.654 310.303 211.904 310.203ZM204.438 310.153C204.713 310.128 204.963 310.328 204.988 310.602C205.037 311.15 205.087 311.674 205.112 312.197C205.112 312.197 205.112 312.197 205.112 312.222C205.237 314.316 205.212 316.186 205.037 317.856C204.763 320.523 204.064 322.642 202.99 324.262C202.89 324.411 202.74 324.486 202.565 324.486C202.466 324.486 202.366 324.461 202.291 324.411C202.066 324.262 201.991 323.938 202.141 323.713C203.115 322.243 203.739 320.298 204.014 317.856C204.188 316.235 204.213 314.391 204.089 312.297C204.089 312.247 204.089 312.197 204.089 312.122C204.064 311.649 204.014 311.175 203.989 310.677C203.939 310.427 204.164 310.178 204.438 310.153ZM212.778 375.187C212.728 375.187 212.703 375.187 212.653 375.162C212.479 375.112 212.329 375.088 212.154 375.038C207.659 373.866 202.94 372.67 198.046 371.523C166.034 363.92 126.033 357.34 82.0855 361.552C81.8857 361.577 81.711 361.478 81.636 361.328C81.5861 361.253 81.5611 361.178 81.5611 361.104C81.5362 360.829 81.7359 360.58 82.0106 360.555C103.959 358.461 126.008 358.81 149.454 361.627C164.786 363.472 180.542 366.338 198.121 370.501C202.64 371.573 207.285 372.72 212.104 373.991C212.379 374.066 212.653 374.14 212.928 374.215C213.203 374.29 213.352 374.564 213.278 374.813C213.203 375.038 213.003 375.187 212.778 375.187Z" fill="#00313A"/>
<path d="M122.212 297.191C122.237 297.441 122.462 297.64 122.712 297.64C122.737 297.64 122.737 297.64 122.762 297.64C123.036 297.615 123.236 297.366 123.211 297.092C123.061 295.596 122.712 293.776 122.237 291.682C122.187 291.508 122.087 291.383 121.938 291.333C121.863 291.309 121.788 291.284 121.713 291.309C121.688 291.309 121.663 291.309 121.613 291.309C121.338 291.383 121.188 291.633 121.238 291.907C121.713 293.976 122.037 295.746 122.212 297.191Z" fill="#00313A"/>
<path d="M96.9176 186.99C97.442 187.214 98.0912 187.314 98.9152 187.314C100.314 187.314 102.161 187.015 104.658 186.367C104.933 186.292 105.083 186.018 105.008 185.768C104.933 185.494 104.658 185.345 104.409 185.419C102.086 185.993 98.8403 186.716 97.2922 186.068C97.0425 185.968 96.7429 186.093 96.643 186.342C96.5431 186.591 96.6679 186.89 96.9176 186.99Z" fill="#00313A"/>
<path d="M101.787 201.323C101.637 201.572 101.737 201.871 101.962 201.996C102.036 202.046 102.136 202.071 102.211 202.071C102.386 202.071 102.561 201.971 102.636 201.821C104.858 197.958 107.28 196.362 110.202 196.761C110.476 196.811 110.726 196.612 110.776 196.337C110.826 196.063 110.626 195.814 110.351 195.764C106.956 195.291 104.234 197.06 101.787 201.323Z" fill="#00313A"/>
<path d="M96.8677 202.22C96.7678 202.469 96.8927 202.769 97.1424 202.868C97.1923 202.893 97.2672 202.893 97.3421 202.893C97.5419 202.893 97.7167 202.769 97.8166 202.594C99.9889 197.31 97.9414 193.446 95.8689 190.28C95.7191 190.056 95.4195 189.981 95.1698 190.131C94.945 190.28 94.8701 190.579 95.0199 190.829C97.417 194.518 98.6406 197.858 96.8677 202.22Z" fill="#00313A"/>
<path d="M177.795 274.433C177.87 274.508 177.945 274.583 178.07 274.608C178.12 274.608 178.145 274.633 178.195 274.633C178.345 274.633 178.494 274.558 178.569 274.433C178.619 274.383 178.644 274.308 178.669 274.259C179.393 271.367 180.317 269.448 181.566 268.201C181.766 268.002 181.766 267.678 181.566 267.503C181.366 267.304 181.041 267.304 180.867 267.503C180.142 268.226 179.543 269.149 178.994 270.295C178.494 271.342 178.095 272.564 177.72 274.034C177.695 274.159 177.695 274.259 177.745 274.358C177.745 274.358 177.77 274.408 177.795 274.433Z" fill="#00313A"/>
<path d="M303.169 197.31C305.217 197.609 306.79 198.307 308.013 199.403C308.438 199.777 308.837 200.226 309.162 200.725C309.262 200.874 309.412 200.949 309.587 200.949C309.687 200.949 309.786 200.924 309.861 200.849C310.086 200.7 310.136 200.376 309.986 200.151C309.612 199.603 309.162 199.104 308.688 198.656C307.314 197.434 305.566 196.661 303.319 196.337C303.044 196.288 302.795 196.487 302.745 196.761C302.695 197.01 302.895 197.26 303.169 197.31Z" fill="#00313A"/>
<path d="M314.281 201.323C314.381 201.472 314.531 201.547 314.705 201.547C314.805 201.547 314.905 201.522 314.98 201.472C315.205 201.323 315.28 201.024 315.13 200.774C314.006 199.054 315.355 196.362 319.1 192.723C319.3 192.524 319.3 192.225 319.1 192.025C318.9 191.826 318.601 191.826 318.401 192.025C314.181 196.063 312.833 199.129 314.281 201.323Z" fill="#00313A"/>
<path d="M310.011 186.392C312.483 187.015 314.356 187.339 315.754 187.339C316.578 187.339 317.227 187.239 317.752 187.015C318.002 186.915 318.126 186.616 318.027 186.367C317.927 186.117 317.627 185.993 317.377 186.093C315.829 186.716 312.583 186.018 310.261 185.444C309.986 185.37 309.711 185.544 309.661 185.793C309.587 186.043 309.736 186.317 310.011 186.392Z" fill="#00313A"/>
<path d="M254.827 421.277C254.852 421.003 254.653 420.754 254.378 420.729L251.182 420.38L202.615 415.02C202.341 414.995 202.091 415.195 202.066 415.469C202.041 415.743 202.241 415.992 202.515 416.017L235.651 419.682L251.531 421.427L252.98 425.714L255.602 425.265C255.077 423.67 254.678 422.374 254.478 421.701C254.653 421.626 254.803 421.476 254.827 421.277Z" fill="#00313A"/>
<path d="M203.315 178.565C203.664 178.639 204.039 178.664 204.413 178.664C205.112 178.664 205.762 178.54 206.386 178.315C207.335 177.966 208.159 177.393 208.808 176.645C209.682 175.623 210.206 174.302 210.206 172.856C210.206 172.532 210.181 172.208 210.131 171.884C210.106 171.76 210.081 171.66 210.056 171.535C211.055 170.638 211.779 169.491 212.154 168.17C212.179 168.095 212.204 168.021 212.204 167.946C212.354 167.372 212.429 166.799 212.429 166.201C212.429 164.082 211.505 162.163 210.031 160.842C210.831 161.166 211.729 161.34 212.628 161.34C213.477 161.34 214.301 161.191 215.075 160.916C216.624 162.038 217.622 163.833 217.622 165.902C217.622 167.572 216.948 169.117 215.849 170.214C215.475 170.588 215.075 170.912 214.626 171.186C214.476 171.062 214.276 171.037 214.102 171.112C214.002 171.161 213.902 171.186 213.827 171.236C213.153 171.51 212.429 171.66 211.704 171.66C211.455 171.66 211.255 171.834 211.23 172.059C211.23 172.084 211.205 172.134 211.205 172.158C211.205 172.433 211.43 172.657 211.704 172.657C212.479 172.657 213.228 172.532 213.927 172.283L214.326 176.944L214.376 177.418C217.547 175.648 219.695 172.258 219.695 168.37C219.695 162.636 215.05 158 209.307 158C203.564 158 198.92 162.636 198.92 168.37C198.92 169.117 198.995 169.84 199.145 170.538C198.82 171.261 198.645 172.034 198.645 172.881C198.62 175.698 200.643 178.041 203.315 178.565Z" fill="#00313A"/>
<path d="M292.932 294.624C293.206 294.624 293.431 294.4 293.431 294.125V291.807C293.431 291.533 293.231 291.334 292.957 291.309H292.932C292.857 291.309 292.807 291.334 292.732 291.334C292.557 291.408 292.432 291.583 292.432 291.782V294.1C292.432 294.4 292.657 294.624 292.932 294.624Z" fill="#00313A"/>
<path d="M213.203 312.945L212.179 312.845C212.379 314.416 212.154 316.111 211.904 317.856H212.903C213.153 316.161 213.352 314.515 213.203 312.945Z" fill="#00313A"/>
<path d="M198.096 371.024L198.121 370.526C180.517 366.338 164.786 363.472 149.454 361.627C126.008 358.81 103.934 358.461 82.0106 360.555C81.736 360.58 81.5362 360.829 81.5612 361.104C81.5612 361.178 81.6111 361.253 81.6361 361.328L82.0606 361.054C123.236 357.115 161.265 362.3 198.096 371.024Z" fill="#00313A"/>
<path d="M213.278 374.813C213.352 374.539 213.178 374.265 212.928 374.215C212.653 374.14 212.379 374.066 212.104 373.991L212.129 374.514C212.503 374.614 212.878 374.714 213.278 374.813Z" fill="#00313A"/>
<path d="M212.129 374.514C207.46 373.293 202.79 372.121 198.096 371.024L198.071 371.523C202.965 372.695 207.659 373.866 212.179 375.038L212.129 374.514Z" fill="#00313A"/>
<path d="M212.154 375.038C212.329 375.088 212.479 375.112 212.653 375.162C212.703 375.162 212.728 375.187 212.778 375.187C213.003 375.187 213.203 375.038 213.253 374.813C212.878 374.714 212.503 374.614 212.104 374.514L212.154 375.038Z" fill="#00313A"/>
<path d="M82.0605 361.054L81.636 361.328C81.7359 361.477 81.9107 361.577 82.0855 361.552C126.033 357.34 166.034 363.895 198.046 371.523L198.071 371.024C161.265 362.3 123.236 357.115 82.0605 361.054Z" fill="#00313A"/>
<path d="M198.096 371.025C202.79 372.146 207.459 373.293 212.129 374.514L212.104 373.991C207.31 372.744 202.665 371.573 198.121 370.501L198.096 371.025Z" fill="#00313A"/>
<path d="M211.904 317.881C211.63 319.875 211.355 321.919 211.63 324.062C211.654 324.312 211.879 324.486 212.129 324.486C212.154 324.486 212.179 324.486 212.204 324.486C212.479 324.461 212.678 324.212 212.628 323.938C212.379 321.919 212.653 319.949 212.903 318.03C212.903 317.98 212.928 317.93 212.928 317.881H211.904C211.904 317.856 211.904 317.856 211.904 317.881Z" fill="#00313A"/>
<path d="M345.818 355.346L346.168 355.695C346.242 355.62 346.292 355.52 346.317 355.395C346.342 355.121 346.143 354.872 345.868 354.847C327.59 353.102 309.062 354.697 289.211 359.758C270.609 364.494 253.155 371.623 237.074 378.602C236.824 378.702 236.699 379.001 236.824 379.25C236.999 379.176 237.174 379.101 237.349 379.026C271.283 364.294 305.991 351.507 345.818 355.346Z" fill="#00313A"/>
<path d="M212.578 310.452C212.478 310.203 212.179 310.078 211.929 310.203C211.679 310.303 211.555 310.602 211.679 310.851C211.954 311.499 212.129 312.172 212.204 312.845L213.228 312.945C213.103 312.097 212.928 311.275 212.578 310.452Z" fill="#00313A"/>
<path d="M204.089 312.297C204.213 314.391 204.188 316.235 204.014 317.856H205.012C205.187 316.185 205.212 314.316 205.087 312.222H204.988L204.089 312.297Z" fill="#00313A"/>
<path d="M202.141 323.713C201.991 323.938 202.041 324.262 202.291 324.411C202.366 324.461 202.466 324.486 202.565 324.486C202.715 324.486 202.89 324.411 202.99 324.262C204.064 322.642 204.738 320.523 205.037 317.856H204.039C203.739 320.298 203.115 322.243 202.141 323.713Z" fill="#00313A"/>
<path d="M205.013 312.222L204.089 312.147C204.089 312.197 204.089 312.247 204.089 312.322L205.013 312.222Z" fill="#00313A"/>
<path d="M237.349 379.026L237.498 379.5C269.984 365.391 305.092 351.931 345.768 355.844C345.918 355.869 346.068 355.794 346.168 355.695L345.818 355.346C305.991 351.507 271.283 364.294 237.349 379.026Z" fill="#00313A"/>
<path d="M205.087 312.197C205.062 311.674 205.013 311.15 204.963 310.602C204.938 310.328 204.688 310.128 204.413 310.153C204.139 310.178 203.939 310.427 203.964 310.702C204.014 311.2 204.039 311.674 204.064 312.147L204.988 312.222L205.087 312.197Z" fill="#00313A"/>
<path d="M237.274 379.549C237.349 379.549 237.398 379.525 237.473 379.5C237.473 379.5 237.498 379.5 237.498 379.475L237.349 379.001C237.174 379.076 236.999 379.151 236.824 379.225C236.899 379.45 237.099 379.549 237.274 379.549Z" fill="#00313A"/>
<path d="M177.695 274.433H176.297H128.729C126.457 280.067 124.185 285.725 121.913 291.333C122.062 291.383 122.162 291.508 122.212 291.682C122.712 293.776 123.036 295.596 123.186 297.092C123.211 297.366 123.011 297.615 122.737 297.64C122.712 297.64 122.712 297.64 122.687 297.64C122.437 297.64 122.212 297.441 122.187 297.191C122.037 295.746 121.713 293.951 121.213 291.907C121.139 291.633 121.313 291.358 121.588 291.309C121.613 291.309 121.638 291.309 121.688 291.309L116.844 199.678C120.24 198.83 120.939 197.484 121.513 193.745L122.137 189.084L123.236 188.361C123.636 188.087 123.411 187.463 122.936 187.513C122.637 187.563 122.337 187.588 122.062 187.663C120.939 187.912 120.065 188.809 119.89 189.956C119.54 192.349 118.592 194.094 116.769 194.867C114.771 195.689 112.499 194.966 111.201 193.246C108.978 190.255 109.552 186.641 114.072 182.104C116.394 180.633 117.917 181.107 118.941 182.104L120.889 184.746C121.288 185.295 121.838 185.694 122.487 185.868C122.936 185.993 123.361 185.993 123.71 185.818C124.06 185.644 124.06 185.17 123.735 184.946L122.861 184.397C122.662 184.273 122.512 184.098 122.387 183.899C121.663 182.528 121.288 181.107 120.364 180.11C118.517 178.116 115.57 177.592 113.148 178.814C110.302 180.235 108.254 182.528 105.807 184.647C105.807 184.647 105.183 168.345 104.534 168.345C103.909 168.345 102.836 184.447 102.836 184.447C102.836 184.447 101.138 167.298 100.289 167.298C99.4397 167.298 99.2399 184.672 99.2399 184.672C99.2399 184.672 99.0152 173.18 98.3909 173.18C97.7667 173.18 95.4195 185.245 95.4195 185.245C90.051 193.246 85.2318 207.056 82.2604 221.464C73.0714 261.396 69.226 300.457 83.1842 323.04C89.7763 333.709 100.339 340.714 116.195 342.409C120.764 342.782 125.259 342.334 129.653 341.087C140.49 337.897 150.303 329.571 158.968 316.31C165.235 306.713 170.904 294.499 175.898 279.817C176.522 278.047 177.121 276.253 177.695 274.433ZM110.352 195.789C110.626 195.839 110.826 196.088 110.776 196.362C110.726 196.636 110.476 196.836 110.202 196.786C107.28 196.362 104.883 197.983 102.636 201.846C102.536 201.996 102.386 202.095 102.211 202.095C102.136 202.095 102.037 202.071 101.962 202.021C101.712 201.871 101.637 201.572 101.787 201.348C104.234 197.06 106.956 195.29 110.352 195.789ZM96.643 186.342C96.7429 186.092 97.0426 185.968 97.2923 186.068C98.8404 186.691 102.086 185.993 104.409 185.419C104.683 185.345 104.958 185.519 105.008 185.768C105.083 186.043 104.908 186.317 104.658 186.367C102.186 186.99 100.314 187.314 98.9153 187.314C98.0913 187.314 97.4421 187.214 96.9177 186.99C96.668 186.89 96.5432 186.591 96.643 186.342ZM95.1448 190.131C95.3696 189.981 95.6942 190.056 95.844 190.28C97.9165 193.471 99.964 197.31 97.7917 202.594C97.7167 202.793 97.517 202.893 97.3172 202.893C97.2423 202.893 97.1924 202.893 97.1175 202.868C96.8678 202.769 96.7429 202.469 96.8428 202.22C98.6406 197.858 97.3921 194.518 94.97 190.829C94.8452 190.604 94.9201 190.28 95.1448 190.131Z" fill="#48A069"/>
<path d="M332.409 221.489C329.438 207.081 324.619 193.271 319.25 185.27C319.25 185.27 316.928 173.205 316.279 173.205C315.654 173.205 315.43 184.647 315.43 184.647C315.43 184.647 315.23 167.273 314.381 167.273C313.532 167.273 311.834 184.422 311.834 184.422C311.834 184.422 310.785 168.32 310.136 168.32C309.512 168.32 308.863 184.622 308.863 184.622C306.415 182.528 304.343 180.235 301.521 178.789C299.099 177.568 296.153 178.116 294.305 180.085C293.356 181.082 293.007 182.503 292.282 183.874C292.183 184.073 292.008 184.248 291.808 184.373L290.934 184.921C290.609 185.12 290.609 185.619 290.959 185.793C291.309 185.968 291.733 185.968 292.183 185.843C292.832 185.669 293.381 185.245 293.781 184.722L295.728 182.079C296.752 181.082 298.275 180.609 300.597 182.079C305.117 186.616 305.691 190.23 303.469 193.222C302.171 194.941 299.898 195.689 297.901 194.842C296.078 194.069 295.129 192.349 294.779 189.931C294.605 188.785 293.756 187.862 292.607 187.638C292.332 187.588 292.033 187.538 291.733 187.488C291.259 187.439 291.009 188.062 291.433 188.336L292.532 189.059L293.156 193.72C293.706 197.459 294.43 198.805 297.826 199.653L292.982 291.284C293.256 291.309 293.456 291.508 293.456 291.782V294.1C293.456 294.375 293.231 294.599 292.957 294.599C292.682 294.599 292.457 294.375 292.457 294.1V291.782C292.457 291.583 292.582 291.408 292.757 291.333C290.46 285.725 288.212 280.067 285.94 274.433H236.974C242.467 291.782 248.835 305.941 255.976 316.759C264.566 329.771 274.279 337.947 284.991 341.112C289.386 342.384 293.881 342.832 298.45 342.433C314.106 340.763 324.619 333.908 331.211 323.464C345.493 300.93 341.648 261.671 332.409 221.489ZM319.075 192C319.275 192.2 319.275 192.524 319.075 192.698C315.33 196.337 314.006 199.054 315.105 200.749C315.255 200.974 315.18 201.298 314.955 201.447C314.88 201.497 314.78 201.522 314.681 201.522C314.506 201.522 314.356 201.447 314.256 201.298C312.833 199.104 314.156 196.063 318.351 191.975C318.576 191.801 318.9 191.826 319.075 192ZM309.637 185.768C309.711 185.494 309.986 185.345 310.236 185.419C312.558 185.993 315.804 186.716 317.352 186.068C317.602 185.968 317.902 186.092 318.002 186.342C318.101 186.591 317.977 186.89 317.727 186.99C317.202 187.214 316.553 187.314 315.729 187.314C314.331 187.314 312.483 187.015 309.986 186.367C309.736 186.317 309.587 186.043 309.637 185.768ZM302.745 196.736C302.795 196.462 303.045 196.263 303.319 196.312C305.566 196.637 307.314 197.409 308.688 198.631C309.162 199.079 309.612 199.578 309.986 200.126C310.136 200.351 310.086 200.675 309.861 200.824C309.786 200.874 309.687 200.924 309.587 200.924C309.437 200.924 309.262 200.849 309.162 200.7C308.838 200.201 308.438 199.777 308.014 199.378C306.79 198.282 305.192 197.609 303.169 197.285C302.895 197.26 302.695 197.01 302.745 196.736Z" fill="#48A069"/>
<path d="M200.718 194.543C200.768 194.692 200.843 194.842 200.893 194.966C202.041 197.359 204.788 199.054 207.984 199.054C210.481 199.054 212.703 198.032 214.102 196.412C214.201 196.288 214.326 196.163 214.426 196.013C215.025 195.191 215.45 194.268 215.6 193.246C215.625 193.122 215.625 192.997 215.65 192.873L215.575 191.95L214.351 177.418L214.301 176.944L213.902 172.283C213.203 172.532 212.454 172.657 211.68 172.657C211.405 172.657 211.18 172.433 211.18 172.158C211.18 172.133 211.18 172.084 211.205 172.059C211.255 171.834 211.455 171.66 211.68 171.66C212.429 171.66 213.128 171.51 213.802 171.236C213.902 171.186 214.002 171.161 214.077 171.111C214.251 171.037 214.476 171.062 214.601 171.186C215.05 170.912 215.45 170.588 215.825 170.214C216.923 169.117 217.597 167.572 217.597 165.902C217.597 163.858 216.599 162.038 215.05 160.916C214.301 161.191 213.477 161.34 212.603 161.34C211.68 161.34 210.806 161.166 210.007 160.842C211.48 162.163 212.404 164.082 212.404 166.201C212.404 166.799 212.329 167.397 212.179 167.946C212.154 168.021 212.129 168.095 212.129 168.17C211.754 169.491 211.03 170.638 210.032 171.535C210.056 171.635 210.081 171.76 210.106 171.884C210.156 172.208 210.181 172.507 210.181 172.856C210.181 174.302 209.657 175.623 208.783 176.645C208.134 177.393 207.31 177.966 206.361 178.315C205.737 178.54 205.087 178.664 204.388 178.664C204.014 178.664 203.639 178.639 203.29 178.565C202.116 183.849 200.917 189.308 200.468 191.477C200.368 192.025 200.293 192.374 200.293 192.449C200.293 192.748 200.318 193.022 200.368 193.296C200.468 193.745 200.568 194.144 200.718 194.543Z" fill="#48A069"/>
<path d="M266.913 390.343C257.375 387.451 247.836 384.56 238.273 381.768L237.523 379.5C237.523 379.5 237.499 379.5 237.499 379.525C237.424 379.549 237.374 379.574 237.299 379.574C237.099 379.574 236.924 379.475 236.849 379.275C235.875 379.699 234.927 380.123 233.978 380.547C227.635 378.727 221.268 376.957 214.876 375.262L212.628 382.117L209.632 391.315L206.136 401.984L201.292 416.815L164.611 413.749C166.484 425.938 171.178 455.327 172.527 456C174.225 456.848 179.743 438.427 179.743 438.427L253.03 425.764L251.582 421.476L235.701 419.731L202.566 416.067C202.291 416.042 202.091 415.793 202.116 415.519C202.141 415.245 202.391 415.045 202.665 415.07L251.232 420.429L254.428 420.778C254.703 420.803 254.903 421.053 254.878 421.327C254.853 421.526 254.703 421.701 254.528 421.751C254.728 422.399 255.127 423.72 255.652 425.315C257.375 430.674 260.421 439.449 261.595 438.875C262.219 438.551 263.592 431.921 265.065 423.695C266.314 416.641 267.662 408.39 268.661 402.009C269.11 399.167 269.485 396.699 269.785 394.854C270.034 392.811 268.836 390.916 266.913 390.343Z" fill="#48A069"/>
<path d="M249.034 208.975C240.844 200.824 228.185 196.437 215.575 191.975L215.65 192.898C215.65 193.022 215.625 193.147 215.6 193.271C215.45 194.268 215.05 195.216 214.426 196.038C214.326 196.163 214.226 196.312 214.102 196.437C212.703 198.032 210.481 199.079 207.984 199.079C204.788 199.079 202.041 197.384 200.892 194.991C200.818 194.842 200.768 194.717 200.718 194.568C200.568 194.169 200.468 193.77 200.393 193.346C200.343 193.072 200.318 192.773 200.318 192.499C200.318 192.424 200.368 192.075 200.493 191.527C187.434 196.163 174.125 200.575 165.635 209.025C150.079 223.408 139.217 248.534 128.729 274.483H176.297H177.695C177.121 276.303 176.522 278.097 175.923 279.867L175.323 288.417L174 307.586C196.123 308.608 217.023 308.732 236.075 307.486V280.067V274.483H236.974H285.94C275.453 248.484 264.591 223.383 249.034 208.975ZM177.72 274.333C177.67 274.234 177.67 274.109 177.695 274.009C178.07 272.539 178.494 271.317 178.969 270.27C179.493 269.124 180.117 268.201 180.842 267.479C181.041 267.279 181.341 267.279 181.541 267.479C181.741 267.678 181.741 267.977 181.541 268.176C180.292 269.423 179.368 271.367 178.644 274.234C178.619 274.308 178.594 274.358 178.544 274.408C178.444 274.533 178.32 274.608 178.17 274.608C178.12 274.608 178.095 274.608 178.045 274.583C177.945 274.558 177.845 274.483 177.77 274.408C177.77 274.408 177.745 274.358 177.72 274.333Z" fill="white"/>
<ellipse cx="208.5" cy="521.5" rx="156.5" ry="10.5" fill="#00313A"/>
</svg>
