<svg width="371" height="352" viewBox="0 0 371 352" fill="none" xmlns="http://www.w3.org/2000/svg">
<path d="M279.601 182.857C279.636 182.857 279.671 182.857 279.706 182.84C279.899 182.77 280.004 182.578 279.934 182.386L279.566 181.253C279.461 181.707 279.356 182.16 279.251 182.613C279.304 182.77 279.444 182.857 279.601 182.857Z" fill="#EAF9E7"/>
<path d="M276.118 171.823C275.943 171.893 275.838 172.084 275.89 172.276L279.234 182.613C279.234 182.613 279.234 182.613 279.234 182.63C279.339 182.177 279.444 181.724 279.549 181.271L279.076 179.789L276.118 171.823Z" fill="#EAF9E7"/>
<path d="M276.591 172.05C276.521 171.858 276.328 171.753 276.135 171.823H276.118L279.094 179.772L276.591 172.05Z" fill="#EAF9E7"/>
<path d="M283.837 63.052C283.855 63.1392 283.872 63.2438 283.89 63.3309C283.925 63.6273 283.925 63.9236 283.872 64.2025C283.802 64.586 283.662 64.9346 283.452 65.2658C282.857 66.2071 281.772 66.9043 280.459 67.0787C278.779 67.2878 277.221 66.5732 276.521 65.3878C276.346 65.0915 276.223 64.7429 276.171 64.3942C276.171 64.3768 276.153 64.3594 276.153 64.3245C276.135 64.1676 276.135 64.0282 276.135 63.8713C275.225 64.0282 274.315 64.2548 273.457 64.5337C272.512 64.7777 271.357 65.0741 271.217 65.1089C249.32 72.2383 231.483 87.4209 222.521 106.229C214.33 123.416 218.478 137.605 220.386 141.196C224.692 149.284 234.301 153.102 243.386 151.812C245.224 151.55 247.079 151.184 248.97 150.714L252.715 127.094L251.245 126.92C251.228 127.112 251.07 127.234 250.878 127.234H250.86L241.723 126.606C241.531 126.589 241.373 126.415 241.391 126.223C241.408 126.031 241.583 125.874 241.776 125.892L250.913 126.519C250.93 126.519 250.948 126.519 250.965 126.537C251.753 123.26 254.378 113.498 259.227 105.358C258.877 104.05 258.544 102.726 258.212 101.401C258.212 101.401 256.391 96.3283 256.111 95.6833C255.831 95.0558 259.279 98.9953 259.279 98.9953C259.279 98.9953 258.142 90.82 258.212 89.8962C258.264 89.2163 259.699 93.1732 260.662 95.3347C260.977 96.0668 261.257 96.5897 261.397 96.6595C261.66 96.7815 261.205 95.0732 260.662 93.1035C260.015 90.7503 259.244 88.031 259.402 87.6475C259.489 87.4383 259.98 88.0484 260.68 88.9897C261.17 89.6695 261.765 90.5411 262.378 91.3952C263.008 92.2668 263.638 93.1384 264.198 93.7833L264.023 93.5567C263.76 93.2255 263.48 92.842 263.2 92.4411L262.413 91.3604L261.152 89.6347C261.065 89.5127 261.1 89.3558 261.205 89.2686C261.222 89.2686 261.222 89.2512 261.24 89.2512C260.977 88.7806 260.767 88.3796 260.662 88.1356C260.61 88.0136 260.575 87.9264 260.575 87.8916C260.575 87.8741 260.61 87.8741 260.662 87.8916C261.31 88.1705 265.668 91.6393 268.171 93.4696C268.189 93.4347 268.206 93.4173 268.206 93.3824C269.029 91.7264 270.009 90.1751 271.147 88.7457C271.094 88.5017 271.077 88.3448 271.147 88.2925C271.182 88.2576 271.269 88.3273 271.392 88.4494C275.4 83.5163 281.124 80.0126 287.653 78.8622C289.176 78.6007 290.751 78.4613 292.361 78.4613C294.094 78.4613 295.81 78.6356 297.455 78.9493C301.708 79.7686 305.612 81.564 308.903 84.1264C310.88 80.9365 312.858 77.8686 314.836 74.9053C306.277 69.5539 295.932 65.353 283.837 63.052Z" fill="#48A069"/>
<path d="M315.501 75.3237C313.506 78.3218 311.511 81.4246 309.515 84.6145C315.519 89.5301 319.352 96.9907 319.352 105.34C319.352 106.508 319.282 107.659 319.125 108.792L319.195 108.809L318.95 110.012C318.862 110.552 318.74 111.075 318.617 111.598L315.221 127.844L334.213 147.942L337.574 151.498L337.609 151.533C342.545 145.903 345.905 138.128 346.606 128.175C347.813 111.005 337.451 89.3035 315.501 75.3237Z" fill="#48A069"/>
<path d="M260.645 119.965V120.105L262.535 120.279L262.64 119.773L263.078 117.699C262.22 115.311 261.415 112.871 260.662 110.395L260.645 119.965Z" fill="#48A069"/>
<path d="M319.125 108.792C319.072 109.21 319.002 109.611 318.932 110.012L319.177 108.809L319.125 108.792Z" fill="#92949C"/>
<path d="M314.206 121.098C312.806 123.016 311.143 124.759 309.288 126.24C311.353 127.304 313.313 128.036 315.099 128.315L315.204 127.844L318.6 111.598C318.39 112.504 318.127 113.376 317.812 114.23C316.954 116.705 315.729 119.006 314.206 121.098Z" fill="#92949C"/>
<path d="M277.168 143.916C276.766 143.41 276.363 142.905 275.96 142.382C275.348 142.556 274.735 142.73 274.123 142.905C272.74 143.288 271.357 143.706 269.992 144.125C269.677 144.229 269.344 144.317 269.029 144.421C269.397 144.805 269.782 145.171 270.184 145.519C272.635 147.698 275.523 149.441 278.779 150.557C279.811 150.905 280.861 151.202 281.964 151.428L284.275 151.899C284.607 151.969 284.94 152.021 285.272 152.091C282.297 149.685 279.619 146.949 277.168 143.916Z" fill="#92949C"/>
<path d="M263.83 119.773C263.568 119.093 263.323 118.396 263.06 117.699L262.623 119.773L262.518 120.279L262.255 121.551C261.8 123.765 261.642 125.979 261.765 128.123L267.471 128.768C267.471 128.75 267.471 128.75 267.471 128.733C267.489 128.646 267.524 128.594 267.594 128.541C266.333 125.909 265.161 123.19 264.075 120.401C264.005 120.209 263.918 119.982 263.83 119.773Z" fill="#92949C"/>
<path d="M220.176 339.668L221.034 339.494C221.226 339.459 221.419 339.581 221.454 339.773C221.489 339.965 221.366 340.156 221.174 340.209L220.106 340.418C220.088 340.418 220.053 340.418 220.036 340.418C219.878 340.418 219.756 340.331 219.703 340.191C217.48 341.063 204.965 345.996 205 346.955C205.035 348 231.763 346.745 233.391 347.094C234.616 347.338 238.012 335.537 239.623 329.68H223.607L220.176 339.668Z" fill="white"/>
<path d="M353.134 327.85C348.951 327.972 342.282 327.85 337.889 327.746L339.657 343.73C339.657 343.73 326.021 350.354 326.494 351.278C326.966 352.201 353.047 348.454 354.675 348.053C355.83 347.791 354.185 335.154 353.134 327.85Z" fill="white"/>
<path d="M275.68 54.7373C275.733 54.7199 275.803 54.7199 275.855 54.7373C275.89 54.7548 275.943 54.7722 275.978 54.7896C276.345 55.0685 276.748 55.2603 277.186 55.3474C277.378 55.3823 277.553 55.3997 277.763 55.3997C277.816 55.3997 277.868 55.3997 277.938 55.3997C278.043 55.3997 278.131 55.4346 278.201 55.4869C278.271 55.5566 278.306 55.6263 278.323 55.7309C278.341 55.9227 278.183 56.097 277.973 56.1144C277.903 56.1144 277.833 56.1144 277.763 56.1144C277.501 56.1144 277.238 56.0795 276.993 56.0273C276.555 55.9401 276.135 55.7658 275.768 55.5043L275.908 58.4153L276.153 63.7667C276.153 63.8016 276.153 63.8365 276.153 63.8539C276.153 64.0108 276.153 64.1502 276.17 64.3071C276.17 64.3245 276.188 64.342 276.188 64.3768C276.24 64.7254 276.363 65.0741 276.538 65.3704C277.238 66.5557 278.778 67.2878 280.476 67.0612C281.789 66.8869 282.892 66.1897 283.469 65.2484C283.68 64.9172 283.82 64.5511 283.89 64.1851C283.942 63.9062 283.96 63.6099 283.907 63.3135C283.89 63.2089 283.872 63.1218 283.855 63.0346C283.855 63.0172 283.855 62.9998 283.837 62.9823H283.855L283.715 62.5988L281.754 57.4392L280.494 54.1273C280.476 54.1621 280.441 54.197 280.424 54.2318C279.794 53.9704 279.251 53.552 278.831 53.0291C278.743 52.9245 278.673 52.8199 278.603 52.7153C278.166 52.0529 277.903 51.2685 277.903 50.4144C277.903 50.2749 277.903 50.1355 277.921 50.0135C277.938 49.9089 277.938 49.8217 277.956 49.7171C277.483 49.9786 276.941 50.1355 276.363 50.1355C276.065 50.1355 275.785 50.1006 275.505 50.0135C275.033 50.4841 274.718 51.1116 274.613 51.7915C274.595 51.9483 274.578 52.1227 274.578 52.297C274.56 53.2731 274.98 54.1447 275.68 54.7373Z" fill="white"/>
<path d="M337.574 151.498L334.213 147.942L315.396 128.123C315.379 128.193 315.379 128.28 315.361 128.35C315.274 128.332 315.204 128.332 315.116 128.315C313.331 128.036 311.353 127.304 309.305 126.24C305.629 124.358 301.656 121.429 297.77 118.135C290.874 112.278 284.275 105.253 280.284 100.756C278.323 98.5421 277.011 96.9558 276.591 96.398C280.826 93.6439 285.868 92.0577 291.294 92.0577C291.469 92.0577 291.626 92.0577 291.801 92.0577C293.849 92.0925 295.845 92.354 297.77 92.8246C305.962 94.8292 312.683 100.582 316.009 108.147C316.849 110.064 317.479 112.121 317.847 114.248C318.144 113.394 318.407 112.505 318.635 111.616C318.757 111.093 318.88 110.57 318.967 110.029C319.037 109.628 319.107 109.21 319.16 108.809C319.3 107.676 319.387 106.526 319.387 105.358C319.387 97.0081 315.554 89.5476 309.55 84.632C308.482 86.3576 307.415 88.1182 306.347 89.8962C306.277 90.0182 306.154 90.0705 306.032 90.0705C305.962 90.0705 305.909 90.0531 305.839 90.0182C305.664 89.9136 305.612 89.687 305.717 89.5127C306.802 87.6999 307.887 85.9219 308.972 84.1613C305.682 81.6163 301.778 79.8035 297.525 78.9842C295.88 78.6705 294.182 78.4962 292.431 78.4962C290.821 78.4962 289.246 78.6356 287.723 78.8971C281.176 80.0475 275.453 83.5338 271.462 88.4843C271.339 88.3622 271.252 88.3099 271.217 88.3274C271.147 88.3797 271.164 88.5365 271.217 88.7806C270.079 90.2099 269.099 91.7788 268.276 93.4173C268.259 93.4522 268.241 93.4696 268.241 93.5045C265.738 91.6916 261.38 88.2054 260.732 87.9265C260.68 87.909 260.645 87.909 260.645 87.9265C260.645 87.9613 260.68 88.0485 260.732 88.1705C260.837 88.4145 261.047 88.798 261.31 89.2861C261.415 89.2164 261.572 89.2512 261.642 89.3558L265.651 94.8292C265.738 94.9512 265.703 95.1081 265.598 95.1953C265.546 95.2301 265.493 95.2476 265.441 95.2476C265.353 95.2476 265.283 95.2127 265.231 95.143L265.073 94.9164L264.268 93.8182C263.708 93.1558 263.078 92.3017 262.447 91.4301C261.835 90.576 261.24 89.7044 260.75 89.0246C260.067 88.0833 259.559 87.4732 259.472 87.6824C259.314 88.0659 260.084 90.7852 260.732 93.1384C261.275 95.1081 261.73 96.8164 261.467 96.6944C261.327 96.6246 261.047 96.1017 260.732 95.3696C259.769 93.2081 258.334 89.2338 258.282 89.9311C258.212 90.8549 259.349 99.0302 259.349 99.0302C259.349 99.0302 255.901 95.0733 256.181 95.7182C256.461 96.3457 258.282 101.436 258.282 101.436C258.597 102.76 258.947 104.085 259.297 105.393C259.752 107.083 260.224 108.757 260.732 110.413C261.485 112.888 262.272 115.328 263.148 117.716C263.393 118.414 263.655 119.094 263.918 119.791C264.005 120 264.075 120.209 264.163 120.436C265.248 123.242 266.421 125.961 267.681 128.576C267.734 128.541 267.786 128.524 267.856 128.541L267.926 128.559L273.737 129.343L283.592 130.685L285.64 130.964C285.657 130.964 285.692 130.982 285.71 130.982C285.797 131.016 285.85 131.086 285.868 131.191C285.868 131.208 285.868 131.243 285.868 131.261C285.868 131.295 285.85 131.313 285.85 131.33V131.348V131.365C285.867 131.505 285.78 131.627 285.657 131.661C284.292 131.975 279.584 132.324 277.168 132.498C277.256 132.533 277.343 132.55 277.448 132.585C278.586 132.934 280.196 133.422 281.807 133.945C287.95 135.915 288.055 136.246 288.125 136.455C288.16 136.56 288.143 136.647 288.073 136.734C288.003 136.839 287.898 136.961 286.813 136.961C285.885 136.961 284.257 136.873 281.299 136.612C279.986 136.49 278.656 136.368 277.588 136.263C276.573 136.159 275.768 136.072 275.365 136.037C275.173 136.019 275.068 136.002 275.068 136.002C274.928 135.984 274.823 135.862 274.84 135.723C274.858 135.583 274.98 135.479 275.12 135.496C275.155 135.496 275.19 135.496 275.243 135.514C279.286 135.967 285.535 136.542 287.285 136.472C285.727 135.723 279.916 133.893 275.995 132.725C275.89 132.69 275.768 132.655 275.663 132.62H275.645H275.628C275.61 132.603 275.575 132.603 275.558 132.568C275.54 132.55 275.523 132.533 275.505 132.498C275.505 132.498 275.505 132.498 275.505 132.481C275.488 132.446 275.488 132.428 275.488 132.394V132.376C275.488 132.359 275.488 132.359 275.488 132.341C275.488 132.324 275.488 132.324 275.488 132.306V132.289C275.488 132.272 275.488 132.272 275.505 132.254C275.505 132.254 275.505 132.237 275.523 132.237L275.54 132.219L275.558 132.202L275.575 132.184L275.593 132.167L275.61 132.15L275.628 132.132C275.628 132.132 275.645 132.132 275.645 132.115C275.645 132.115 275.663 132.115 275.663 132.097H275.68C275.698 132.097 275.698 132.097 275.715 132.097C275.785 132.097 281.684 131.714 284.467 131.348L284.065 131.295L273.877 129.901L268.014 129.099L267.944 129.082L267.804 129.064C267.664 129.047 267.576 128.925 267.576 128.803L261.87 128.158L258.387 127.757L252.82 127.129L249.075 150.749C249.897 150.539 250.737 150.33 251.578 150.086C257.214 148.517 263.078 146.356 269.116 144.439C269.431 144.334 269.764 144.247 270.079 144.142C271.444 143.724 272.827 143.306 274.21 142.922C274.823 142.748 275.435 142.573 276.048 142.399C276.433 142.922 276.836 143.428 277.256 143.933C279.706 146.949 282.384 149.703 285.342 152.126C286.27 152.893 287.215 153.607 288.195 154.305C288.651 154.636 289.123 154.967 289.561 155.316C297.122 161.016 306.329 163.456 315.134 162.706C323.553 161.94 331.675 158.209 337.574 151.498ZM261.152 102.569C261.135 102.569 261.117 102.569 261.1 102.569C261.082 102.569 261.065 102.569 261.065 102.569C260.96 102.551 260.872 102.482 260.855 102.36C260.82 102.22 260.925 102.081 261.065 102.063C261.222 102.028 261.38 101.993 261.537 101.924C262.622 101.523 263.62 100.529 264.915 99.2045C265.441 98.6815 266.001 98.1063 266.631 97.5136C267.016 97.1476 267.436 96.7815 267.874 96.3806C267.979 96.2935 268.154 96.2935 268.241 96.398C268.329 96.5026 268.329 96.6769 268.224 96.7641C267.524 97.3742 266.911 97.9494 266.351 98.4898C265.966 98.8558 265.616 99.2219 265.283 99.5531C263.708 101.139 262.587 102.272 261.152 102.569ZM272.215 141.039C272.232 141.179 272.127 141.318 271.987 141.336C271.97 141.336 271.97 141.336 271.952 141.336C271.829 141.336 271.707 141.231 271.689 141.109C271.479 139.331 271.567 137.762 271.794 136.316C271.987 135.095 272.302 133.962 272.617 132.864C272.652 132.725 272.792 132.655 272.932 132.69C273.072 132.725 273.142 132.864 273.107 133.004C272.74 134.259 272.407 135.566 272.215 136.995C272.075 138.233 272.04 139.558 272.215 141.039ZM285.185 139.436C285.167 139.436 285.15 139.436 285.115 139.436C285.08 139.506 285.027 139.558 284.957 139.575C284.835 139.61 284.712 139.645 284.59 139.697C283.872 139.924 283.154 140.203 282.437 140.482C282.262 140.551 282.069 140.621 281.894 140.708C280.879 141.109 279.846 141.545 278.778 141.841C278.761 141.841 278.726 141.859 278.708 141.859C278.603 141.859 278.498 141.789 278.463 141.667C278.428 141.528 278.498 141.388 278.638 141.353C279.671 141.039 280.704 140.639 281.702 140.22C282.227 140.011 282.769 139.784 283.329 139.593C283.469 139.54 283.61 139.488 283.75 139.436C282.822 139.436 281.824 139.401 280.914 139.383C279.076 139.331 277.553 139.279 277.413 139.261C277.291 139.261 277.203 139.174 277.168 139.07C277.168 139.052 277.168 139.017 277.168 139C277.168 138.861 277.291 138.739 277.431 138.756C277.501 138.756 283.732 139.017 286.34 138.895C285.622 138.582 284.362 138.128 282.962 137.762C282.822 137.728 282.734 137.588 282.769 137.449C282.804 137.309 282.944 137.222 283.084 137.257C284.047 137.501 285.115 137.85 286.008 138.198C287.46 138.756 287.443 138.913 287.443 139.087C287.443 139.209 287.355 139.331 287.18 139.349C286.725 139.401 286.025 139.436 285.185 139.436ZM311.213 160.109C310.775 160.371 310.268 160.51 309.69 160.51C308.71 160.51 307.502 160.127 306.014 159.325C305.892 159.255 305.839 159.098 305.909 158.976C305.979 158.854 306.137 158.802 306.259 158.872C308.395 160.005 309.935 160.266 310.933 159.673C311.055 159.604 311.213 159.639 311.283 159.761C311.37 159.883 311.335 160.04 311.213 160.109Z" fill="white"/>
<path d="M264.058 93.5916L263.235 92.476C263.515 92.8943 263.795 93.2604 264.058 93.5916Z" fill="white"/>
<path d="M250.965 126.554C250.93 126.676 250.913 126.798 250.878 126.903L251.245 126.938V126.92C251.263 126.746 251.14 126.589 250.965 126.554Z" fill="#EAF9E7"/>
<path d="M250.965 126.554C250.947 126.554 250.93 126.554 250.912 126.537L241.775 125.909C241.583 125.892 241.408 126.049 241.39 126.24C241.373 126.432 241.53 126.606 241.723 126.624L250.86 127.251H250.877C251.07 127.251 251.21 127.112 251.245 126.938L250.877 126.903C250.912 126.798 250.93 126.676 250.965 126.554Z" fill="#EAF9E7"/>
<path d="M221.051 339.494L220.193 339.668L219.983 339.703C219.791 339.738 219.651 339.93 219.703 340.139C219.703 340.156 219.721 340.174 219.721 340.191C219.773 340.331 219.913 340.418 220.053 340.418C220.071 340.418 220.106 340.418 220.123 340.418L221.191 340.209C221.384 340.174 221.524 339.982 221.471 339.773C221.436 339.581 221.244 339.459 221.051 339.494Z" fill="#00313A"/>
<path d="M275.89 58.4328L275.75 55.5217C276.135 55.7658 276.538 55.9401 276.976 56.0447C277.221 56.097 277.483 56.1318 277.746 56.1318C277.816 56.1318 277.886 56.1318 277.956 56.1318C278.148 56.1144 278.306 55.9575 278.306 55.7484C278.306 55.6438 278.253 55.5566 278.183 55.5043C278.113 55.4346 278.026 55.3997 277.921 55.4172C277.868 55.4172 277.816 55.4172 277.746 55.4172C277.553 55.4172 277.361 55.3997 277.168 55.3649C276.731 55.2777 276.328 55.086 275.96 54.8071C275.925 54.7722 275.89 54.7548 275.838 54.7548C275.785 54.7373 275.715 54.7373 275.663 54.7548C274.98 54.1621 274.543 53.2906 274.543 52.3144C274.543 52.1401 274.56 51.9832 274.578 51.8089C274 52.5759 273.65 53.5172 273.65 54.563C273.667 56.2016 274.56 57.6484 275.89 58.4328Z" fill="#00313A"/>
<path d="M329.364 221.973L328.874 220.683C323.746 207.208 320.157 192.706 318.215 177.715C317.549 172.59 316.482 167.587 315.046 162.672C306.242 163.439 297.017 160.981 289.473 155.281C289.018 154.932 288.563 154.601 288.108 154.27C287.128 153.573 286.183 152.858 285.255 152.091C284.922 152.039 284.59 151.969 284.257 151.899L281.947 151.428C280.861 151.202 279.794 150.906 278.761 150.557C275.523 149.441 272.617 147.698 270.167 145.519C269.764 145.171 269.379 144.805 269.011 144.421C262.955 146.339 257.091 148.5 251.473 150.069L247.359 163.561C246.081 167.849 244.664 172.05 243.106 176.163C235.999 194.867 233.321 221.886 232.499 252.373L220.719 329.663H223.589H239.605H243.351C253.328 313.661 260.907 294.713 260.102 267.207L260.89 259.363C262.675 241.775 266.263 224.657 271.462 208.429C273.737 201.299 276.958 192.148 279.234 182.613C279.234 182.613 279.234 182.613 279.234 182.596L275.89 172.259C275.838 172.067 275.925 171.875 276.118 171.806H276.135C276.328 171.736 276.538 171.84 276.591 172.032L279.094 179.754L279.566 181.236C279.584 181.201 279.584 181.149 279.601 181.114L280.354 183.136C283.662 191.974 286.358 201.212 288.476 210.73C291.381 223.855 295.46 234.802 300.798 243.291C305.209 250.316 308.815 258.247 311.371 266.858L333.425 327.589C333.425 327.589 335.246 327.658 337.871 327.711C342.265 327.815 348.934 327.955 353.117 327.815C355.428 327.745 356.985 327.589 356.968 327.327C356.128 309.059 355.13 276.044 340.462 247.196C336.401 239.16 332.673 230.723 329.364 221.973Z" fill="#00313A"/>
<path d="M262.272 121.551L262.535 120.279L260.645 120.105V119.965L258.282 127.739L261.765 128.14C261.66 125.979 261.8 123.765 262.272 121.551Z" fill="#00313A"/>
<path d="M277.938 49.7171C277.921 49.8217 277.903 49.9089 277.903 50.0135C277.886 50.1529 277.886 50.2749 277.886 50.4144C277.886 51.2685 278.148 52.0529 278.586 52.7153C278.656 52.8199 278.726 52.9245 278.814 53.0291C279.234 53.552 279.776 53.9704 280.406 54.2318C280.424 54.197 280.459 54.1621 280.476 54.1272L281.737 57.4392L283.697 62.5988C286.13 62.0236 287.95 59.8272 287.95 57.23C287.95 54.1795 285.465 51.7043 282.402 51.7043C282.192 51.7043 281.999 51.7217 281.807 51.7392C281.474 51.3208 281.071 50.9722 280.616 50.6933C280.196 49.9612 279.496 49.4208 278.656 49.1768C278.481 49.1245 278.288 49.0896 278.096 49.0722C277.991 49.0547 277.886 49.0547 277.798 49.0547C276.888 49.0547 276.083 49.4208 275.488 50.0135C275.768 50.0832 276.048 50.1355 276.345 50.1355C276.923 50.1355 277.466 49.9786 277.938 49.7171Z" fill="#00313A"/>
<path d="M280.266 100.738C284.257 105.236 290.839 112.278 297.753 118.117C301.638 121.412 305.629 124.34 309.287 126.223C311.143 124.741 312.806 122.998 314.206 121.081C315.729 119.006 316.954 116.688 317.829 114.23C317.462 112.104 316.832 110.064 315.991 108.129C312.666 100.564 305.962 94.8118 297.753 92.8072C295.845 92.3366 293.832 92.0751 291.784 92.0402C291.609 92.0402 291.451 92.0402 291.276 92.0402C285.85 92.0402 280.791 93.6439 276.573 96.3806C276.993 96.9384 278.323 98.5421 280.266 100.738Z" fill="#00313A"/>
<path d="M283.312 139.593C282.769 139.802 282.227 140.011 281.684 140.22C280.686 140.621 279.654 141.039 278.621 141.353C278.481 141.388 278.411 141.545 278.446 141.667C278.481 141.772 278.586 141.859 278.691 141.859C278.708 141.859 278.743 141.859 278.761 141.841C279.811 141.527 280.861 141.109 281.877 140.708C282.052 140.639 282.244 140.569 282.419 140.482C283.119 140.203 283.855 139.924 284.572 139.697C284.695 139.662 284.817 139.627 284.94 139.575C285.01 139.558 285.08 139.505 285.097 139.436C285.115 139.436 285.132 139.436 285.167 139.436C286.008 139.436 286.725 139.401 287.128 139.349C287.303 139.331 287.39 139.192 287.39 139.087C287.408 138.913 287.408 138.756 285.955 138.198C285.062 137.85 284.012 137.518 283.032 137.257C282.892 137.222 282.752 137.309 282.717 137.449C282.682 137.588 282.769 137.727 282.909 137.762C284.31 138.128 285.57 138.582 286.288 138.895C283.68 139 277.448 138.756 277.378 138.756C277.238 138.756 277.116 138.861 277.116 139C277.116 139.017 277.116 139.052 277.116 139.07C277.151 139.174 277.238 139.261 277.361 139.261C277.501 139.261 279.024 139.331 280.861 139.383C281.772 139.401 282.769 139.436 283.697 139.436C283.592 139.488 283.452 139.54 283.312 139.593Z" fill="#00313A"/>
<path d="M388.335 14.2097C386.514 8.91062 382.751 4.63997 377.71 2.16473C372.669 -0.310505 366.963 -0.676561 361.641 1.13629C353.695 3.83813 348.163 10.8978 347.463 19.2125C345.87 19.2648 344.295 19.5437 342.772 20.0666C334.441 22.8905 329.977 31.9373 332.813 40.252C332.83 40.3217 332.865 40.3914 332.883 40.4786C330.537 41.4199 328.647 43.1804 327.544 45.4465C326.389 47.8346 326.231 50.5539 327.089 53.064C327.456 54.1447 327.999 55.1208 328.664 55.9924C324.008 61.8144 319.422 68.1071 314.871 74.9402C312.893 77.9035 310.915 80.9888 308.938 84.1613C307.852 85.9044 306.767 87.6998 305.682 89.5127C305.577 89.687 305.629 89.9136 305.804 90.0182C305.857 90.0531 305.927 90.0705 305.997 90.0705C306.119 90.0705 306.242 90.0008 306.312 89.8962C307.38 88.1182 308.447 86.3576 309.515 84.6319C311.493 81.442 313.488 78.3393 315.501 75.3411C320 68.5952 324.551 62.3374 329.154 56.5676C329.995 57.5089 331.027 58.2759 332.2 58.8511C333.618 59.5484 335.123 59.897 336.663 59.897C337.766 59.897 338.869 59.7227 339.937 59.3566C343.647 58.1016 346.273 54.8419 346.728 50.9896C348.881 51.1465 351.017 50.8851 353.082 50.1878C357.458 48.7061 360.959 45.4116 362.709 41.1584C366.822 42.3263 371.146 42.2043 375.224 40.8272C380.545 39.0144 384.834 35.2667 387.319 30.2465C389.77 25.1914 390.138 19.5088 388.335 14.2097ZM386.654 29.8804C384.256 34.7263 380.108 38.352 374.979 40.0951C370.936 41.4722 366.665 41.5419 362.587 40.3217L362.271 40.2171L362.149 40.5309C360.521 44.7493 357.125 47.9915 352.837 49.4383C350.754 50.1355 348.601 50.397 346.431 50.1878L346.063 50.1529L346.028 50.519C345.73 54.2318 343.245 57.4218 339.692 58.6245C337.311 59.4264 334.773 59.2695 332.515 58.1713C331.395 57.6135 330.415 56.864 329.609 55.9575C343.788 38.2997 358.508 25.1914 374.122 16.2492C374.297 16.1446 374.349 15.9354 374.262 15.7611C374.157 15.5868 373.947 15.5345 373.771 15.6216C367.26 19.3519 360.801 23.8841 354.587 29.0786C348.619 34.0639 342.702 39.8162 336.979 46.1786C334.335 49.1071 331.745 52.175 329.154 55.3823C328.577 54.6153 328.122 53.7438 327.789 52.8025C326.144 48.0089 328.699 42.7098 333.478 41.0015L333.828 40.8795L333.688 40.5309C333.618 40.3217 333.548 40.1648 333.495 39.9905C330.782 32.0767 335.053 23.4308 343 20.729C344.558 20.2061 346.168 19.9272 347.796 19.9097H348.128L348.146 19.5785C348.706 11.4207 354.097 4.44822 361.869 1.81611C366.998 0.0729825 372.511 0.421608 377.377 2.80969C382.243 5.19777 385.884 9.32897 387.634 14.4363C389.402 19.5611 389.035 25.0345 386.654 29.8804Z" fill="#00313A"/>
<path d="M262.448 91.3953L263.235 92.476L264.058 93.5916L264.233 93.8183L265.038 94.9164L265.196 95.143C265.248 95.2128 265.318 95.2476 265.406 95.2476C265.458 95.2476 265.511 95.2302 265.563 95.1953C265.686 95.1082 265.703 94.9513 265.616 94.8293L261.607 89.3558C261.537 89.2512 261.38 89.2164 261.275 89.2861C261.257 89.2861 261.257 89.3035 261.24 89.3035C261.117 89.3907 261.1 89.5476 261.187 89.6696L262.448 91.3953Z" fill="#00313A"/>
<path d="M267.769 128.524C267.699 128.524 267.646 128.524 267.594 128.559C267.524 128.594 267.489 128.663 267.471 128.75C267.471 128.768 267.471 128.768 267.471 128.785C267.471 128.907 267.559 129.029 267.699 129.047L267.839 129.064L267.909 129.082L273.772 129.883L283.96 131.278L284.362 131.33C281.579 131.696 275.68 132.08 275.61 132.08C275.593 132.08 275.593 132.08 275.575 132.08H275.558C275.558 132.08 275.54 132.08 275.54 132.097C275.54 132.097 275.523 132.097 275.523 132.115L275.505 132.132C275.505 132.132 275.488 132.132 275.488 132.149L275.47 132.167L275.453 132.184L275.435 132.202L275.418 132.219C275.418 132.219 275.418 132.237 275.4 132.237C275.4 132.254 275.4 132.254 275.383 132.272V132.289C275.383 132.306 275.383 132.306 275.383 132.324C275.383 132.341 275.383 132.341 275.383 132.359V132.376C275.383 132.411 275.4 132.428 275.4 132.463C275.4 132.463 275.4 132.463 275.4 132.481C275.418 132.498 275.435 132.533 275.453 132.55C275.47 132.568 275.505 132.585 275.523 132.603H275.54H275.558C275.663 132.638 275.785 132.672 275.89 132.707C279.811 133.875 285.623 135.723 287.18 136.455C285.43 136.525 279.181 135.949 275.138 135.496C275.103 135.496 275.068 135.496 275.015 135.479C274.875 135.461 274.753 135.566 274.735 135.705C274.718 135.845 274.823 135.967 274.963 135.984C274.963 135.984 275.068 136.002 275.26 136.019C275.68 136.072 276.486 136.159 277.483 136.246C278.568 136.35 279.881 136.49 281.194 136.594C284.152 136.856 285.78 136.943 286.708 136.943C287.793 136.943 287.88 136.821 287.968 136.716C288.021 136.629 288.038 136.525 288.021 136.438C287.951 136.228 287.845 135.897 281.702 133.927C280.091 133.405 278.498 132.916 277.343 132.568C277.256 132.533 277.151 132.516 277.063 132.481C279.461 132.306 284.187 131.958 285.552 131.644C285.693 131.609 285.78 131.487 285.745 131.348V131.33V131.313C285.763 131.295 285.763 131.261 285.763 131.243C285.763 131.226 285.763 131.191 285.763 131.173C285.745 131.086 285.693 131.016 285.605 130.964C285.587 130.947 285.552 130.947 285.535 130.947L283.487 130.668L273.632 129.326L267.821 128.541L267.769 128.524Z" fill="#00313A"/>
<path d="M273.125 133.004C273.16 132.864 273.09 132.725 272.95 132.69C272.81 132.655 272.67 132.725 272.635 132.864C272.32 133.945 272.022 135.095 271.812 136.316C271.584 137.762 271.479 139.331 271.707 141.109C271.725 141.249 271.83 141.336 271.97 141.336C271.987 141.336 271.987 141.336 272.005 141.336C272.145 141.318 272.25 141.196 272.232 141.039C272.057 139.575 272.092 138.233 272.25 136.995C272.425 135.566 272.757 134.241 273.125 133.004Z" fill="#00313A"/>
<path d="M261.047 102.569C261.065 102.569 261.065 102.569 261.082 102.569C261.1 102.569 261.117 102.569 261.135 102.569C262.57 102.272 263.708 101.139 265.266 99.5705C265.598 99.2393 265.948 98.8733 266.333 98.5072C266.893 97.9668 267.506 97.3742 268.206 96.7815C268.311 96.6944 268.329 96.52 268.224 96.4155C268.136 96.3109 267.961 96.2934 267.856 96.398C267.401 96.7815 266.999 97.165 266.613 97.5311C265.983 98.1412 265.406 98.699 264.898 99.2219C263.585 100.547 262.605 101.54 261.52 101.941C261.362 101.993 261.205 102.046 261.047 102.081C260.907 102.116 260.82 102.238 260.837 102.377C260.855 102.482 260.942 102.551 261.047 102.569Z" fill="#00313A"/>
<path d="M310.95 159.673C309.935 160.284 308.412 160.022 306.277 158.872C306.154 158.802 305.997 158.854 305.927 158.976C305.857 159.098 305.909 159.255 306.032 159.325C307.52 160.109 308.727 160.51 309.708 160.51C310.285 160.51 310.793 160.371 311.23 160.109C311.353 160.039 311.388 159.883 311.318 159.761C311.23 159.639 311.073 159.604 310.95 159.673Z" fill="#00313A"/>
<path d="M193.093 44.75H191.604C191.162 43.1199 190.248 41.6405 188.967 40.4799C187.687 39.3194 186.089 38.5242 184.358 38.1848C182.626 37.8454 180.829 37.9753 179.171 38.5598C177.512 39.1443 176.06 40.1599 174.977 41.4913C173.895 42.8227 173.227 44.4164 173.048 46.0914C172.87 47.7664 173.188 49.4555 173.968 50.9667C174.747 52.478 175.956 53.7508 177.457 54.6405C178.958 55.5303 180.691 56.0013 182.459 56H193.093C194.659 56 196.162 55.4074 197.27 54.3525C198.378 53.2976 199 51.8668 199 50.375C199 48.8832 198.378 47.4524 197.27 46.3975C196.162 45.3426 194.659 44.75 193.093 44.75Z" fill="white"/>
<path d="M18.248 135.024C17.896 135.024 17.6 134.912 17.36 134.688C17.136 134.448 17.024 134.152 17.024 133.8V127.896C17.024 126.984 16.856 126.24 16.52 125.664C16.184 125.088 15.728 124.664 15.152 124.392C14.592 124.104 13.944 123.96 13.208 123.96C12.536 123.96 11.928 124.096 11.384 124.368C10.84 124.64 10.408 125.008 10.088 125.472C9.768 125.92 9.608 126.44 9.608 127.032H8.096C8.096 126.024 8.336 125.128 8.816 124.344C9.312 123.544 9.984 122.912 10.832 122.448C11.68 121.984 12.632 121.752 13.688 121.752C14.792 121.752 15.776 121.992 16.64 122.472C17.52 122.936 18.208 123.624 18.704 124.536C19.216 125.448 19.472 126.568 19.472 127.896V133.8C19.472 134.152 19.352 134.448 19.112 134.688C18.888 134.912 18.6 135.024 18.248 135.024ZM8.384 135.024C8.032 135.024 7.736 134.912 7.496 134.688C7.272 134.448 7.16 134.152 7.16 133.8V123.096C7.16 122.728 7.272 122.432 7.496 122.208C7.736 121.984 8.032 121.872 8.384 121.872C8.752 121.872 9.048 121.984 9.272 122.208C9.496 122.432 9.608 122.728 9.608 123.096V133.8C9.608 134.152 9.496 134.448 9.272 134.688C9.048 134.912 8.752 135.024 8.384 135.024ZM29.4714 135.096C28.1754 135.096 27.0314 134.816 26.0394 134.256C25.0474 133.68 24.2634 132.896 23.6874 131.904C23.1274 130.896 22.8474 129.744 22.8474 128.448C22.8474 127.136 23.1274 125.984 23.6874 124.992C24.2634 123.984 25.0474 123.2 26.0394 122.64C27.0314 122.064 28.1754 121.776 29.4714 121.776C30.7514 121.776 31.8874 122.064 32.8794 122.64C33.8714 123.2 34.6474 123.984 35.2074 124.992C35.7834 125.984 36.0714 127.136 36.0714 128.448C36.0714 129.744 35.7914 130.896 35.2314 131.904C34.6714 132.896 33.8954 133.68 32.9034 134.256C31.9114 134.816 30.7674 135.096 29.4714 135.096ZM29.4714 132.936C30.3034 132.936 31.0394 132.744 31.6794 132.36C32.3194 131.976 32.8154 131.448 33.1674 130.776C33.5354 130.104 33.7194 129.328 33.7194 128.448C33.7194 127.568 33.5354 126.792 33.1674 126.12C32.8154 125.432 32.3194 124.896 31.6794 124.512C31.0394 124.128 30.3034 123.936 29.4714 123.936C28.6394 123.936 27.9034 124.128 27.2634 124.512C26.6234 124.896 26.1194 125.432 25.7514 126.12C25.3834 126.792 25.1994 127.568 25.1994 128.448C25.1994 129.328 25.3834 130.104 25.7514 130.776C26.1194 131.448 26.6234 131.976 27.2634 132.36C27.9034 132.744 28.6394 132.936 29.4714 132.936ZM44.4907 135.096C43.3707 135.096 42.3307 134.928 41.3707 134.592C40.4267 134.24 39.6907 133.8 39.1627 133.272C38.9227 133.016 38.8187 132.728 38.8507 132.408C38.8987 132.072 39.0587 131.8 39.3307 131.592C39.6507 131.336 39.9627 131.232 40.2667 131.28C40.5867 131.312 40.8587 131.448 41.0827 131.688C41.3547 131.992 41.7867 132.28 42.3787 132.552C42.9867 132.808 43.6587 132.936 44.3947 132.936C45.3227 132.936 46.0267 132.784 46.5067 132.48C47.0027 132.176 47.2587 131.784 47.2747 131.304C47.2907 130.824 47.0587 130.408 46.5787 130.056C46.1147 129.704 45.2587 129.416 44.0107 129.192C42.3947 128.872 41.2187 128.392 40.4827 127.752C39.7627 127.112 39.4027 126.328 39.4027 125.4C39.4027 124.584 39.6427 123.912 40.1227 123.384C40.6027 122.84 41.2187 122.44 41.9707 122.184C42.7227 121.912 43.5067 121.776 44.3227 121.776C45.3787 121.776 46.3147 121.944 47.1307 122.28C47.9467 122.616 48.5947 123.08 49.0747 123.672C49.2987 123.928 49.4027 124.2 49.3867 124.488C49.3707 124.76 49.2347 124.992 48.9787 125.184C48.7227 125.36 48.4187 125.416 48.0667 125.352C47.7147 125.288 47.4187 125.144 47.1787 124.92C46.7787 124.536 46.3467 124.272 45.8827 124.128C45.4187 123.984 44.8827 123.912 44.2747 123.912C43.5707 123.912 42.9707 124.032 42.4747 124.272C41.9947 124.512 41.7547 124.864 41.7547 125.328C41.7547 125.616 41.8267 125.88 41.9707 126.12C42.1307 126.344 42.4347 126.552 42.8827 126.744C43.3307 126.92 43.9867 127.096 44.8507 127.272C46.0507 127.512 46.9947 127.816 47.6827 128.184C48.3867 128.552 48.8907 128.984 49.1947 129.48C49.4987 129.96 49.6507 130.52 49.6507 131.16C49.6507 131.896 49.4507 132.56 49.0507 133.152C48.6667 133.744 48.0907 134.216 47.3227 134.568C46.5707 134.92 45.6267 135.096 44.4907 135.096ZM65.7292 135.096C64.4812 135.096 63.3532 134.808 62.3452 134.232C61.3532 133.64 60.5612 132.84 59.9692 131.832C59.3932 130.824 59.1052 129.688 59.1052 128.424C59.1052 127.16 59.3692 126.032 59.8972 125.04C60.4412 124.032 61.1772 123.24 62.1052 122.664C63.0332 122.072 64.0812 121.776 65.2492 121.776C66.1932 121.776 67.0652 121.976 67.8652 122.376C68.6652 122.76 69.3372 123.288 69.8812 123.96V117.48C69.8812 117.112 69.9932 116.816 70.2172 116.592C70.4572 116.368 70.7532 116.256 71.1052 116.256C71.4732 116.256 71.7692 116.368 71.9932 116.592C72.2172 116.816 72.3292 117.112 72.3292 117.48V128.424C72.3292 129.688 72.0332 130.824 71.4412 131.832C70.8652 132.84 70.0812 133.64 69.0892 134.232C68.0972 134.808 66.9772 135.096 65.7292 135.096ZM65.7292 132.936C66.5452 132.936 67.2732 132.744 67.9132 132.36C68.5532 131.96 69.0572 131.416 69.4252 130.728C69.7932 130.04 69.9772 129.272 69.9772 128.424C69.9772 127.56 69.7932 126.792 69.4252 126.12C69.0572 125.448 68.5532 124.92 67.9132 124.536C67.2732 124.136 66.5452 123.936 65.7292 123.936C64.9292 123.936 64.2012 124.136 63.5452 124.536C62.9052 124.92 62.3932 125.448 62.0092 126.12C61.6412 126.792 61.4572 127.56 61.4572 128.424C61.4572 129.272 61.6412 130.04 62.0092 130.728C62.3932 131.416 62.9052 131.96 63.5452 132.36C64.2012 132.744 64.9292 132.936 65.7292 132.936ZM82.1242 135.096C80.9562 135.096 79.9082 134.808 78.9802 134.232C78.0522 133.64 77.3162 132.848 76.7722 131.856C76.2442 130.848 75.9802 129.712 75.9802 128.448C75.9802 127.184 76.2682 126.048 76.8442 125.04C77.4362 124.032 78.2282 123.24 79.2202 122.664C80.2282 122.072 81.3562 121.776 82.6042 121.776C83.8522 121.776 84.9722 122.072 85.9642 122.664C86.9562 123.24 87.7402 124.032 88.3162 125.04C88.9082 126.048 89.2042 127.184 89.2042 128.448H88.2682C88.2682 129.712 87.9962 130.848 87.4522 131.856C86.9242 132.848 86.1962 133.64 85.2682 134.232C84.3402 134.808 83.2922 135.096 82.1242 135.096ZM82.6042 132.936C83.4202 132.936 84.1482 132.744 84.7882 132.36C85.4282 131.96 85.9322 131.424 86.3002 130.752C86.6682 130.064 86.8522 129.296 86.8522 128.448C86.8522 127.584 86.6682 126.816 86.3002 126.144C85.9322 125.456 85.4282 124.92 84.7882 124.536C84.1482 124.136 83.4202 123.936 82.6042 123.936C81.8042 123.936 81.0762 124.136 80.4202 124.536C79.7802 124.92 79.2682 125.456 78.8842 126.144C78.5162 126.816 78.3322 127.584 78.3322 128.448C78.3322 129.296 78.5162 130.064 78.8842 130.752C79.2682 131.424 79.7802 131.96 80.4202 132.36C81.0762 132.744 81.8042 132.936 82.6042 132.936ZM87.9802 135.024C87.6282 135.024 87.3322 134.912 87.0922 134.688C86.8682 134.448 86.7562 134.152 86.7562 133.8V130.128L87.2122 127.584L89.2042 128.448V133.8C89.2042 134.152 89.0842 134.448 88.8442 134.688C88.6202 134.912 88.3322 135.024 87.9802 135.024ZM105.351 135.096C104.151 135.096 103.087 134.816 102.159 134.256C101.247 133.68 100.527 132.896 99.9988 131.904C99.4708 130.896 99.2068 129.744 99.2068 128.448C99.2068 127.136 99.4868 125.984 100.047 124.992C100.623 123.984 101.407 123.2 102.399 122.64C103.391 122.064 104.535 121.776 105.831 121.776C107.111 121.776 108.247 122.064 109.239 122.64C110.231 123.2 111.007 123.984 111.567 124.992C112.143 125.984 112.431 127.136 112.431 128.448H111.015C111.015 129.744 110.767 130.896 110.271 131.904C109.791 132.896 109.127 133.68 108.279 134.256C107.431 134.816 106.455 135.096 105.351 135.096ZM105.783 140.448C104.647 140.448 103.583 140.224 102.591 139.776C101.599 139.328 100.759 138.672 100.071 137.808C99.8628 137.536 99.7828 137.256 99.8308 136.968C99.8948 136.68 100.055 136.448 100.311 136.272C100.599 136.08 100.895 136.016 101.199 136.08C101.519 136.144 101.775 136.304 101.967 136.56C102.399 137.104 102.943 137.528 103.599 137.832C104.255 138.136 104.999 138.288 105.831 138.288C106.599 138.288 107.303 138.104 107.943 137.736C108.599 137.368 109.119 136.824 109.503 136.104C109.887 135.384 110.079 134.504 110.079 133.464V130.056L110.871 127.944L112.431 128.448V133.632C112.431 134.896 112.151 136.04 111.591 137.064C111.031 138.104 110.247 138.928 109.239 139.536C108.247 140.144 107.095 140.448 105.783 140.448ZM105.831 132.936C106.663 132.936 107.399 132.744 108.039 132.36C108.679 131.976 109.175 131.448 109.527 130.776C109.895 130.104 110.079 129.328 110.079 128.448C110.079 127.568 109.895 126.792 109.527 126.12C109.175 125.432 108.679 124.896 108.039 124.512C107.399 124.128 106.663 123.936 105.831 123.936C104.999 123.936 104.263 124.128 103.623 124.512C102.983 124.896 102.479 125.432 102.111 126.12C101.743 126.792 101.559 127.568 101.559 128.448C101.559 129.328 101.743 130.104 102.111 130.776C102.479 131.448 102.983 131.976 103.623 132.36C104.263 132.744 104.999 132.936 105.831 132.936ZM121.594 135.12C120.49 135.12 119.498 134.888 118.618 134.424C117.754 133.944 117.066 133.248 116.554 132.336C116.058 131.424 115.81 130.304 115.81 128.976V123.072C115.81 122.72 115.922 122.432 116.146 122.208C116.386 121.968 116.682 121.848 117.034 121.848C117.386 121.848 117.674 121.968 117.898 122.208C118.138 122.432 118.258 122.72 118.258 123.072V128.976C118.258 129.872 118.426 130.616 118.762 131.208C119.098 131.784 119.554 132.216 120.13 132.504C120.706 132.776 121.354 132.912 122.074 132.912C122.762 132.912 123.37 132.776 123.898 132.504C124.442 132.232 124.874 131.864 125.194 131.4C125.514 130.936 125.674 130.416 125.674 129.84H127.186C127.186 130.832 126.938 131.728 126.442 132.528C125.962 133.328 125.298 133.96 124.45 134.424C123.618 134.888 122.666 135.12 121.594 135.12ZM126.898 135C126.546 135 126.25 134.888 126.01 134.664C125.786 134.424 125.674 134.128 125.674 133.776V123.072C125.674 122.704 125.786 122.408 126.01 122.184C126.25 121.96 126.546 121.848 126.898 121.848C127.266 121.848 127.562 121.96 127.786 122.184C128.01 122.408 128.122 122.704 128.122 123.072V133.776C128.122 134.128 128.01 134.424 127.786 134.664C127.562 134.888 127.266 135 126.898 135ZM137.209 135.096C136.089 135.096 135.049 134.928 134.089 134.592C133.145 134.24 132.409 133.8 131.881 133.272C131.641 133.016 131.537 132.728 131.569 132.408C131.617 132.072 131.777 131.8 132.049 131.592C132.369 131.336 132.681 131.232 132.985 131.28C133.305 131.312 133.577 131.448 133.801 131.688C134.073 131.992 134.505 132.28 135.097 132.552C135.705 132.808 136.377 132.936 137.113 132.936C138.041 132.936 138.745 132.784 139.225 132.48C139.721 132.176 139.977 131.784 139.993 131.304C140.009 130.824 139.777 130.408 139.297 130.056C138.833 129.704 137.977 129.416 136.729 129.192C135.113 128.872 133.937 128.392 133.201 127.752C132.481 127.112 132.121 126.328 132.121 125.4C132.121 124.584 132.361 123.912 132.841 123.384C133.321 122.84 133.937 122.44 134.689 122.184C135.441 121.912 136.225 121.776 137.041 121.776C138.097 121.776 139.033 121.944 139.849 122.28C140.665 122.616 141.313 123.08 141.793 123.672C142.017 123.928 142.121 124.2 142.105 124.488C142.089 124.76 141.953 124.992 141.697 125.184C141.441 125.36 141.137 125.416 140.785 125.352C140.433 125.288 140.137 125.144 139.897 124.92C139.497 124.536 139.065 124.272 138.601 124.128C138.137 123.984 137.601 123.912 136.993 123.912C136.289 123.912 135.689 124.032 135.193 124.272C134.713 124.512 134.473 124.864 134.473 125.328C134.473 125.616 134.545 125.88 134.689 126.12C134.849 126.344 135.153 126.552 135.601 126.744C136.049 126.92 136.705 127.096 137.569 127.272C138.769 127.512 139.713 127.816 140.401 128.184C141.105 128.552 141.609 128.984 141.913 129.48C142.217 129.96 142.369 130.52 142.369 131.16C142.369 131.896 142.169 132.56 141.769 133.152C141.385 133.744 140.809 134.216 140.041 134.568C139.289 134.92 138.345 135.096 137.209 135.096ZM150.241 135C149.441 135 148.721 134.8 148.081 134.4C147.441 133.984 146.937 133.424 146.569 132.72C146.201 132.016 146.017 131.224 146.017 130.344V118.896C146.017 118.544 146.129 118.256 146.353 118.032C146.577 117.808 146.865 117.696 147.217 117.696C147.569 117.696 147.857 117.808 148.081 118.032C148.305 118.256 148.417 118.544 148.417 118.896V130.344C148.417 130.984 148.593 131.52 148.945 131.952C149.297 132.384 149.729 132.6 150.241 132.6H151.057C151.345 132.6 151.585 132.712 151.777 132.936C151.985 133.16 152.089 133.448 152.089 133.8C152.089 134.152 151.953 134.44 151.681 134.664C151.425 134.888 151.089 135 150.673 135H150.241ZM144.913 124.416C144.577 124.416 144.305 124.32 144.097 124.128C143.889 123.936 143.785 123.696 143.785 123.408C143.785 123.088 143.889 122.832 144.097 122.64C144.305 122.448 144.577 122.352 144.913 122.352H150.457C150.793 122.352 151.065 122.448 151.273 122.64C151.481 122.832 151.585 123.088 151.585 123.408C151.585 123.696 151.481 123.936 151.273 124.128C151.065 124.32 150.793 124.416 150.457 124.416H144.913ZM161.05 135.096C159.754 135.096 158.61 134.816 157.618 134.256C156.626 133.68 155.842 132.896 155.266 131.904C154.706 130.896 154.426 129.744 154.426 128.448C154.426 127.136 154.706 125.984 155.266 124.992C155.842 123.984 156.626 123.2 157.618 122.64C158.61 122.064 159.754 121.776 161.05 121.776C162.33 121.776 163.466 122.064 164.458 122.64C165.45 123.2 166.226 123.984 166.786 124.992C167.362 125.984 167.65 127.136 167.65 128.448C167.65 129.744 167.37 130.896 166.81 131.904C166.25 132.896 165.474 133.68 164.482 134.256C163.49 134.816 162.346 135.096 161.05 135.096ZM161.05 132.936C161.882 132.936 162.618 132.744 163.258 132.36C163.898 131.976 164.394 131.448 164.746 130.776C165.114 130.104 165.298 129.328 165.298 128.448C165.298 127.568 165.114 126.792 164.746 126.12C164.394 125.432 163.898 124.896 163.258 124.512C162.618 124.128 161.882 123.936 161.05 123.936C160.218 123.936 159.482 124.128 158.842 124.512C158.202 124.896 157.698 125.432 157.33 126.12C156.962 126.792 156.778 127.568 156.778 128.448C156.778 129.328 156.962 130.104 157.33 130.776C157.698 131.448 158.202 131.976 158.842 132.36C159.482 132.744 160.218 132.936 161.05 132.936ZM18.512 175.616C18.144 175.616 17.84 175.496 17.6 175.256C17.376 175.032 17.264 174.744 17.264 174.392V167.912C16.72 168.584 16.048 169.12 15.248 169.52C14.448 169.904 13.576 170.096 12.632 170.096C11.464 170.096 10.416 169.808 9.488 169.232C8.56 168.64 7.824 167.848 7.28 166.856C6.752 165.848 6.488 164.712 6.488 163.448C6.488 162.184 6.776 161.048 7.352 160.04C7.944 159.032 8.736 158.24 9.728 157.664C10.736 157.072 11.864 156.776 13.112 156.776C14.36 156.776 15.48 157.072 16.472 157.664C17.464 158.24 18.248 159.032 18.824 160.04C19.416 161.048 19.712 162.184 19.712 163.448V174.392C19.712 174.744 19.6 175.032 19.376 175.256C19.152 175.496 18.864 175.616 18.512 175.616ZM13.112 167.936C13.928 167.936 14.656 167.744 15.296 167.36C15.936 166.96 16.44 166.424 16.808 165.752C17.176 165.064 17.36 164.296 17.36 163.448C17.36 162.584 17.176 161.816 16.808 161.144C16.44 160.456 15.936 159.92 15.296 159.536C14.656 159.136 13.928 158.936 13.112 158.936C12.312 158.936 11.584 159.136 10.928 159.536C10.288 159.92 9.776 160.456 9.392 161.144C9.024 161.816 8.84 162.584 8.84 163.448C8.84 164.296 9.024 165.064 9.392 165.752C9.776 166.424 10.288 166.96 10.928 167.36C11.584 167.744 12.312 167.936 13.112 167.936ZM29.555 170.12C28.451 170.12 27.459 169.888 26.579 169.424C25.715 168.944 25.027 168.248 24.515 167.336C24.019 166.424 23.771 165.304 23.771 163.976V158.072C23.771 157.72 23.883 157.432 24.107 157.208C24.347 156.968 24.643 156.848 24.995 156.848C25.347 156.848 25.635 156.968 25.859 157.208C26.099 157.432 26.219 157.72 26.219 158.072V163.976C26.219 164.872 26.387 165.616 26.723 166.208C27.059 166.784 27.515 167.216 28.091 167.504C28.667 167.776 29.315 167.912 30.035 167.912C30.723 167.912 31.331 167.776 31.859 167.504C32.403 167.232 32.835 166.864 33.155 166.4C33.475 165.936 33.635 165.416 33.635 164.84H35.147C35.147 165.832 34.899 166.728 34.403 167.528C33.923 168.328 33.259 168.96 32.411 169.424C31.579 169.888 30.627 170.12 29.555 170.12ZM34.859 170C34.507 170 34.211 169.888 33.971 169.664C33.747 169.424 33.635 169.128 33.635 168.776V158.072C33.635 157.704 33.747 157.408 33.971 157.184C34.211 156.96 34.507 156.848 34.859 156.848C35.227 156.848 35.523 156.96 35.747 157.184C35.971 157.408 36.083 157.704 36.083 158.072V168.776C36.083 169.128 35.971 169.424 35.747 169.664C35.523 169.888 35.227 170 34.859 170ZM46.5624 170.096C45.2344 170.096 44.0504 169.816 43.0104 169.256C41.9864 168.68 41.1784 167.896 40.5864 166.904C40.0104 165.896 39.7224 164.744 39.7224 163.448C39.7224 162.136 39.9944 160.984 40.5384 159.992C41.0984 158.984 41.8664 158.2 42.8424 157.64C43.8184 157.064 44.9384 156.776 46.2024 156.776C47.4504 156.776 48.5224 157.056 49.4184 157.616C50.3144 158.16 50.9944 158.92 51.4584 159.896C51.9384 160.856 52.1784 161.968 52.1784 163.232C52.1784 163.536 52.0744 163.792 51.8664 164C51.6584 164.192 51.3944 164.288 51.0744 164.288H41.4024V162.368H51.0024L50.0184 163.04C50.0024 162.24 49.8424 161.528 49.5384 160.904C49.2344 160.264 48.8024 159.76 48.2424 159.392C47.6824 159.024 47.0024 158.84 46.2024 158.84C45.2904 158.84 44.5064 159.04 43.8504 159.44C43.2104 159.84 42.7224 160.392 42.3864 161.096C42.0504 161.784 41.8824 162.568 41.8824 163.448C41.8824 164.328 42.0824 165.112 42.4824 165.8C42.8824 166.488 43.4344 167.032 44.1384 167.432C44.8424 167.832 45.6504 168.032 46.5624 168.032C47.0584 168.032 47.5624 167.944 48.0744 167.768C48.6024 167.576 49.0264 167.36 49.3464 167.12C49.5864 166.944 49.8424 166.856 50.1144 166.856C50.4024 166.84 50.6504 166.92 50.8584 167.096C51.1304 167.336 51.2744 167.6 51.2904 167.888C51.3064 168.176 51.1784 168.424 50.9064 168.632C50.3624 169.064 49.6824 169.416 48.8664 169.688C48.0664 169.96 47.2984 170.096 46.5624 170.096ZM68.4999 170.096C67.1719 170.096 65.9879 169.816 64.9479 169.256C63.9239 168.68 63.1159 167.896 62.5239 166.904C61.9479 165.896 61.6599 164.744 61.6599 163.448C61.6599 162.136 61.9319 160.984 62.4759 159.992C63.0359 158.984 63.8039 158.2 64.7799 157.64C65.7559 157.064 66.8759 156.776 68.1399 156.776C69.3879 156.776 70.4599 157.056 71.3559 157.616C72.2519 158.16 72.9319 158.92 73.3959 159.896C73.8759 160.856 74.1159 161.968 74.1159 163.232C74.1159 163.536 74.0119 163.792 73.8039 164C73.5959 164.192 73.3319 164.288 73.0119 164.288H63.3399V162.368H72.9399L71.9559 163.04C71.9399 162.24 71.7799 161.528 71.4759 160.904C71.1719 160.264 70.7399 159.76 70.1799 159.392C69.6199 159.024 68.9399 158.84 68.1399 158.84C67.2279 158.84 66.4439 159.04 65.7879 159.44C65.1479 159.84 64.6599 160.392 64.3239 161.096C63.9879 161.784 63.8199 162.568 63.8199 163.448C63.8199 164.328 64.0199 165.112 64.4199 165.8C64.8199 166.488 65.3719 167.032 66.0759 167.432C66.7799 167.832 67.5879 168.032 68.4999 168.032C68.9959 168.032 69.4999 167.944 70.0119 167.768C70.5399 167.576 70.9639 167.36 71.2839 167.12C71.5239 166.944 71.7799 166.856 72.0519 166.856C72.3399 166.84 72.5879 166.92 72.7959 167.096C73.0679 167.336 73.2119 167.6 73.2279 167.888C73.2439 168.176 73.1159 168.424 72.8439 168.632C72.2999 169.064 71.6199 169.416 70.8039 169.688C70.0039 169.96 69.2359 170.096 68.4999 170.096ZM82.0141 170.096C80.8941 170.096 79.8541 169.928 78.8941 169.592C77.9501 169.24 77.2141 168.8 76.6861 168.272C76.4461 168.016 76.3421 167.728 76.3741 167.408C76.4221 167.072 76.5821 166.8 76.8541 166.592C77.1741 166.336 77.4861 166.232 77.7901 166.28C78.1101 166.312 78.3821 166.448 78.6061 166.688C78.8781 166.992 79.3101 167.28 79.9021 167.552C80.5101 167.808 81.1821 167.936 81.9181 167.936C82.8461 167.936 83.5501 167.784 84.0301 167.48C84.5261 167.176 84.7821 166.784 84.7981 166.304C84.8141 165.824 84.5821 165.408 84.1021 165.056C83.6381 164.704 82.7821 164.416 81.5341 164.192C79.9181 163.872 78.7421 163.392 78.0061 162.752C77.2861 162.112 76.9261 161.328 76.9261 160.4C76.9261 159.584 77.1661 158.912 77.6461 158.384C78.1261 157.84 78.7421 157.44 79.4941 157.184C80.2461 156.912 81.0301 156.776 81.8461 156.776C82.9021 156.776 83.8381 156.944 84.6541 157.28C85.4701 157.616 86.1181 158.08 86.5981 158.672C86.8221 158.928 86.9261 159.2 86.9101 159.488C86.8941 159.76 86.7581 159.992 86.5021 160.184C86.2461 160.36 85.9421 160.416 85.5901 160.352C85.2381 160.288 84.9421 160.144 84.7021 159.92C84.3021 159.536 83.8701 159.272 83.4061 159.128C82.9421 158.984 82.4061 158.912 81.7981 158.912C81.0941 158.912 80.4941 159.032 79.9981 159.272C79.5181 159.512 79.2781 159.864 79.2781 160.328C79.2781 160.616 79.3501 160.88 79.4941 161.12C79.6541 161.344 79.9581 161.552 80.4061 161.744C80.8541 161.92 81.5101 162.096 82.3741 162.272C83.5741 162.512 84.5181 162.816 85.2061 163.184C85.9101 163.552 86.4141 163.984 86.7181 164.48C87.0221 164.96 87.1741 165.52 87.1741 166.16C87.1741 166.896 86.9741 167.56 86.5741 168.152C86.1901 168.744 85.6141 169.216 84.8461 169.568C84.0941 169.92 83.1501 170.096 82.0141 170.096ZM95.0454 170C94.2454 170 93.5254 169.8 92.8854 169.4C92.2454 168.984 91.7414 168.424 91.3734 167.72C91.0054 167.016 90.8214 166.224 90.8214 165.344V153.896C90.8214 153.544 90.9334 153.256 91.1574 153.032C91.3814 152.808 91.6694 152.696 92.0214 152.696C92.3734 152.696 92.6614 152.808 92.8854 153.032C93.1094 153.256 93.2214 153.544 93.2214 153.896V165.344C93.2214 165.984 93.3974 166.52 93.7494 166.952C94.1014 167.384 94.5334 167.6 95.0454 167.6H95.8614C96.1494 167.6 96.3894 167.712 96.5814 167.936C96.7894 168.16 96.8934 168.448 96.8934 168.8C96.8934 169.152 96.7574 169.44 96.4854 169.664C96.2294 169.888 95.8934 170 95.4774 170H95.0454ZM89.7174 159.416C89.3814 159.416 89.1094 159.32 88.9014 159.128C88.6934 158.936 88.5894 158.696 88.5894 158.408C88.5894 158.088 88.6934 157.832 88.9014 157.64C89.1094 157.448 89.3814 157.352 89.7174 157.352H95.2614C95.5974 157.352 95.8694 157.448 96.0774 157.64C96.2854 157.832 96.3894 158.088 96.3894 158.408C96.3894 158.696 96.2854 158.936 96.0774 159.128C95.8694 159.32 95.5974 159.416 95.2614 159.416H89.7174ZM106.07 170.096C104.742 170.096 103.558 169.816 102.518 169.256C101.494 168.68 100.686 167.896 100.094 166.904C99.5182 165.896 99.2302 164.744 99.2302 163.448C99.2302 162.136 99.5022 160.984 100.046 159.992C100.606 158.984 101.374 158.2 102.35 157.64C103.326 157.064 104.446 156.776 105.71 156.776C106.958 156.776 108.03 157.056 108.926 157.616C109.822 158.16 110.502 158.92 110.966 159.896C111.446 160.856 111.686 161.968 111.686 163.232C111.686 163.536 111.582 163.792 111.374 164C111.166 164.192 110.902 164.288 110.582 164.288H100.91V162.368H110.51L109.526 163.04C109.51 162.24 109.35 161.528 109.046 160.904C108.742 160.264 108.31 159.76 107.75 159.392C107.19 159.024 106.51 158.84 105.71 158.84C104.798 158.84 104.014 159.04 103.358 159.44C102.718 159.84 102.23 160.392 101.894 161.096C101.558 161.784 101.39 162.568 101.39 163.448C101.39 164.328 101.59 165.112 101.99 165.8C102.39 166.488 102.942 167.032 103.646 167.432C104.35 167.832 105.158 168.032 106.07 168.032C106.566 168.032 107.07 167.944 107.582 167.768C108.11 167.576 108.534 167.36 108.854 167.12C109.094 166.944 109.35 166.856 109.622 166.856C109.91 166.84 110.158 166.92 110.366 167.096C110.638 167.336 110.782 167.6 110.798 167.888C110.814 168.176 110.686 168.424 110.414 168.632C109.87 169.064 109.19 169.416 108.374 169.688C107.574 169.96 106.806 170.096 106.07 170.096ZM105.566 154.808C105.214 154.808 104.918 154.696 104.678 154.472C104.454 154.232 104.342 153.936 104.342 153.584C104.342 153.248 104.438 152.976 104.63 152.768L106.982 150.416C107.222 150.176 107.51 150.056 107.846 150.056C108.214 150.056 108.51 150.176 108.734 150.416C108.958 150.656 109.07 150.952 109.07 151.304C109.07 151.464 109.046 151.616 108.998 151.76C108.95 151.904 108.862 152.032 108.734 152.144L106.406 154.472C106.182 154.696 105.902 154.808 105.566 154.808ZM119.584 170.096C118.464 170.096 117.424 169.928 116.464 169.592C115.52 169.24 114.784 168.8 114.256 168.272C114.016 168.016 113.912 167.728 113.944 167.408C113.992 167.072 114.152 166.8 114.424 166.592C114.744 166.336 115.056 166.232 115.36 166.28C115.68 166.312 115.952 166.448 116.176 166.688C116.448 166.992 116.88 167.28 117.472 167.552C118.08 167.808 118.752 167.936 119.488 167.936C120.416 167.936 121.12 167.784 121.6 167.48C122.096 167.176 122.352 166.784 122.368 166.304C122.384 165.824 122.152 165.408 121.672 165.056C121.208 164.704 120.352 164.416 119.104 164.192C117.488 163.872 116.312 163.392 115.576 162.752C114.856 162.112 114.496 161.328 114.496 160.4C114.496 159.584 114.736 158.912 115.216 158.384C115.696 157.84 116.312 157.44 117.064 157.184C117.816 156.912 118.6 156.776 119.416 156.776C120.472 156.776 121.408 156.944 122.224 157.28C123.04 157.616 123.688 158.08 124.168 158.672C124.392 158.928 124.496 159.2 124.48 159.488C124.464 159.76 124.328 159.992 124.072 160.184C123.816 160.36 123.512 160.416 123.16 160.352C122.808 160.288 122.512 160.144 122.272 159.92C121.872 159.536 121.44 159.272 120.976 159.128C120.512 158.984 119.976 158.912 119.368 158.912C118.664 158.912 118.064 159.032 117.568 159.272C117.088 159.512 116.848 159.864 116.848 160.328C116.848 160.616 116.92 160.88 117.064 161.12C117.224 161.344 117.528 161.552 117.976 161.744C118.424 161.92 119.08 162.096 119.944 162.272C121.144 162.512 122.088 162.816 122.776 163.184C123.48 163.552 123.984 163.984 124.288 164.48C124.592 164.96 124.744 165.52 124.744 166.16C124.744 166.896 124.544 167.56 124.144 168.152C123.76 168.744 123.184 169.216 122.416 169.568C121.664 169.92 120.72 170.096 119.584 170.096ZM140.343 170.096C139.175 170.096 138.127 169.808 137.199 169.232C136.271 168.64 135.535 167.848 134.991 166.856C134.463 165.848 134.199 164.712 134.199 163.448C134.199 162.184 134.487 161.048 135.063 160.04C135.655 159.032 136.447 158.24 137.439 157.664C138.447 157.072 139.575 156.776 140.823 156.776C142.071 156.776 143.191 157.072 144.183 157.664C145.175 158.24 145.959 159.032 146.535 160.04C147.127 161.048 147.423 162.184 147.423 163.448H146.487C146.487 164.712 146.215 165.848 145.671 166.856C145.143 167.848 144.415 168.64 143.487 169.232C142.559 169.808 141.511 170.096 140.343 170.096ZM140.823 167.936C141.639 167.936 142.367 167.744 143.007 167.36C143.647 166.96 144.151 166.424 144.519 165.752C144.887 165.064 145.071 164.296 145.071 163.448C145.071 162.584 144.887 161.816 144.519 161.144C144.151 160.456 143.647 159.92 143.007 159.536C142.367 159.136 141.639 158.936 140.823 158.936C140.023 158.936 139.295 159.136 138.639 159.536C137.999 159.92 137.487 160.456 137.103 161.144C136.735 161.816 136.551 162.584 136.551 163.448C136.551 164.296 136.735 165.064 137.103 165.752C137.487 166.424 137.999 166.96 138.639 167.36C139.295 167.744 140.023 167.936 140.823 167.936ZM146.199 170.024C145.847 170.024 145.551 169.912 145.311 169.688C145.087 169.448 144.975 169.152 144.975 168.8V165.128L145.431 162.584L147.423 163.448V168.8C147.423 169.152 147.303 169.448 147.063 169.688C146.839 169.912 146.551 170.024 146.199 170.024ZM162.418 175.616C162.05 175.616 161.746 175.496 161.506 175.256C161.282 175.032 161.17 174.744 161.17 174.392V167.912C160.626 168.584 159.954 169.12 159.154 169.52C158.354 169.904 157.482 170.096 156.538 170.096C155.37 170.096 154.322 169.808 153.394 169.232C152.466 168.64 151.73 167.848 151.186 166.856C150.658 165.848 150.394 164.712 150.394 163.448C150.394 162.184 150.682 161.048 151.258 160.04C151.85 159.032 152.642 158.24 153.634 157.664C154.642 157.072 155.77 156.776 157.018 156.776C158.266 156.776 159.386 157.072 160.378 157.664C161.37 158.24 162.154 159.032 162.73 160.04C163.322 161.048 163.618 162.184 163.618 163.448V174.392C163.618 174.744 163.506 175.032 163.282 175.256C163.058 175.496 162.77 175.616 162.418 175.616ZM157.018 167.936C157.834 167.936 158.562 167.744 159.202 167.36C159.842 166.96 160.346 166.424 160.714 165.752C161.082 165.064 161.266 164.296 161.266 163.448C161.266 162.584 161.082 161.816 160.714 161.144C160.346 160.456 159.842 159.92 159.202 159.536C158.562 159.136 157.834 158.936 157.018 158.936C156.218 158.936 155.49 159.136 154.834 159.536C154.194 159.92 153.682 160.456 153.298 161.144C152.93 161.816 152.746 162.584 152.746 163.448C152.746 164.296 152.93 165.064 153.298 165.752C153.682 166.424 154.194 166.96 154.834 167.36C155.49 167.744 156.218 167.936 157.018 167.936ZM173.461 170.12C172.357 170.12 171.365 169.888 170.485 169.424C169.621 168.944 168.933 168.248 168.421 167.336C167.925 166.424 167.677 165.304 167.677 163.976V158.072C167.677 157.72 167.789 157.432 168.013 157.208C168.253 156.968 168.549 156.848 168.901 156.848C169.253 156.848 169.541 156.968 169.765 157.208C170.005 157.432 170.125 157.72 170.125 158.072V163.976C170.125 164.872 170.293 165.616 170.629 166.208C170.965 166.784 171.421 167.216 171.997 167.504C172.573 167.776 173.221 167.912 173.941 167.912C174.629 167.912 175.237 167.776 175.765 167.504C176.309 167.232 176.741 166.864 177.061 166.4C177.381 165.936 177.541 165.416 177.541 164.84H179.053C179.053 165.832 178.805 166.728 178.309 167.528C177.829 168.328 177.165 168.96 176.317 169.424C175.485 169.888 174.533 170.12 173.461 170.12ZM178.765 170C178.413 170 178.117 169.888 177.877 169.664C177.653 169.424 177.541 169.128 177.541 168.776V158.072C177.541 157.704 177.653 157.408 177.877 157.184C178.117 156.96 178.413 156.848 178.765 156.848C179.133 156.848 179.429 156.96 179.653 157.184C179.877 157.408 179.989 157.704 179.989 158.072V168.776C179.989 169.128 179.877 169.424 179.653 169.664C179.429 169.888 179.133 170 178.765 170ZM185.916 170C185.549 170 185.241 169.883 184.991 169.65C184.757 169.4 184.641 169.092 184.641 168.725V157.6C184.641 157.217 184.757 156.908 184.991 156.675C185.241 156.442 185.549 156.325 185.916 156.325C186.299 156.325 186.607 156.442 186.841 156.675C187.074 156.908 187.191 157.217 187.191 157.6V168.725C187.191 169.092 187.074 169.4 186.841 169.65C186.607 169.883 186.299 170 185.916 170ZM186.016 154.175C185.649 154.175 185.341 154.058 185.091 153.825C184.857 153.575 184.741 153.267 184.741 152.9C184.741 152.55 184.841 152.267 185.041 152.05L187.491 149.6C187.741 149.35 188.041 149.225 188.391 149.225C188.774 149.225 189.082 149.35 189.316 149.6C189.549 149.85 189.666 150.158 189.666 150.525C189.666 150.692 189.641 150.85 189.591 151C189.541 151.15 189.449 151.283 189.316 151.4L186.891 153.825C186.657 154.058 186.366 154.175 186.016 154.175ZM192.66 165.375C192.293 165.375 191.985 165.25 191.735 165C191.501 164.733 191.385 164.433 191.385 164.1V151.775C191.385 151.408 191.501 151.1 191.735 150.85C191.985 150.6 192.293 150.475 192.66 150.475C193.026 150.475 193.326 150.6 193.56 150.85C193.81 151.1 193.935 151.408 193.935 151.775V164.1C193.935 164.45 193.801 164.75 193.535 165C193.285 165.25 192.993 165.375 192.66 165.375ZM192.66 170C192.193 170 191.785 169.833 191.435 169.5C191.101 169.167 190.935 168.758 190.935 168.275C190.935 167.792 191.101 167.383 191.435 167.05C191.785 166.7 192.193 166.525 192.66 166.525C193.143 166.525 193.551 166.7 193.885 167.05C194.218 167.383 194.385 167.792 194.385 168.275C194.385 168.758 194.21 169.167 193.86 169.5C193.526 169.833 193.126 170 192.66 170Z" fill="#00313A"/>
<path d="M6.76 77.48C6.17333 77.48 5.68 77.6933 5.28 78.12C4.90667 78.52 4.72 78.9867 4.72 79.52V99.24C4.72 99.8267 4.90667 100.32 5.28 100.72C5.68 101.12 6.17333 101.32 6.76 101.32C7.34667 101.32 7.82667 101.12 8.2 100.72C8.6 100.32 8.8 99.8267 8.8 99.24V79.52C8.8 78.96 8.58667 78.48 8.16 78.08C7.76 77.68 7.29333 77.48 6.76 77.48ZM6.76 70.08C6.01333 70.08 5.36 70.3467 4.8 70.88C4.26667 71.4133 4 72.0667 4 72.84C4 73.6133 4.26667 74.28 4.8 74.84C5.36 75.3733 6.01333 75.64 6.76 75.64C7.53333 75.64 8.18667 75.3733 8.72 74.84C9.25333 74.28 9.52 73.6133 9.52 72.84C9.52 72.0667 9.24 71.4133 8.68 70.88C8.14667 70.3467 7.50667 70.08 6.76 70.08ZM17.6034 92C17.0168 92 16.5234 91.8 16.1234 91.4C15.7234 91 15.5234 90.5067 15.5234 89.92V62.84C15.5234 62.2267 15.7234 61.7333 16.1234 61.36C16.5234 60.96 17.0168 60.76 17.6034 60.76C18.2168 60.76 18.7101 60.96 19.0834 61.36C19.4834 61.7333 19.6834 62.2267 19.6834 62.84V74.32H38.2434V62.84C38.2434 62.2267 38.4434 61.7333 38.8434 61.36C39.2434 60.96 39.7368 60.76 40.3234 60.76C40.9368 60.76 41.4301 60.96 41.8034 61.36C42.1768 61.7333 42.3634 62.2267 42.3634 62.84V89.92C42.3634 90.5067 42.1768 91 41.8034 91.4C41.4301 91.8 40.9368 92 40.3234 92C39.7368 92 39.2434 91.8 38.8434 91.4C38.4434 91 38.2434 90.5067 38.2434 89.92V78H19.6834V89.92C19.6834 90.5067 19.4834 91 19.0834 91.4C18.7101 91.8 18.2168 92 17.6034 92ZM59.8872 92.16C57.7272 92.16 55.8205 91.6933 54.1672 90.76C52.5139 89.8 51.2072 88.4933 50.2472 86.84C49.3139 85.16 48.8472 83.24 48.8472 81.08C48.8472 78.8933 49.3139 76.9733 50.2472 75.32C51.2072 73.64 52.5139 72.3333 54.1672 71.4C55.8205 70.44 57.7272 69.96 59.8872 69.96C62.0205 69.96 63.9139 70.44 65.5672 71.4C67.2205 72.3333 68.5139 73.64 69.4472 75.32C70.4072 76.9733 70.8872 78.8933 70.8872 81.08C70.8872 83.24 70.4205 85.16 69.4872 86.84C68.5539 88.4933 67.2605 89.8 65.6072 90.76C63.9539 91.6933 62.0472 92.16 59.8872 92.16ZM59.8872 88.56C61.2739 88.56 62.5005 88.24 63.5672 87.6C64.6339 86.96 65.4605 86.08 66.0472 84.96C66.6605 83.84 66.9672 82.5467 66.9672 81.08C66.9672 79.6133 66.6605 78.32 66.0472 77.2C65.4605 76.0533 64.6339 75.16 63.5672 74.52C62.5005 73.88 61.2739 73.56 59.8872 73.56C58.5005 73.56 57.2739 73.88 56.2072 74.52C55.1405 75.16 54.3005 76.0533 53.6872 77.2C53.0739 78.32 52.7672 79.6133 52.7672 81.08C52.7672 82.5467 53.0739 83.84 53.6872 84.96C54.3005 86.08 55.1405 86.96 56.2072 87.6C57.2739 88.24 58.5005 88.56 59.8872 88.56ZM82.1594 92C80.986 92 79.946 91.68 79.0394 91.04C78.1327 90.4 77.426 89.5333 76.9194 88.44C76.4127 87.32 76.1594 86.04 76.1594 84.6V62.76C76.1594 62.1733 76.346 61.6933 76.7194 61.32C77.0927 60.9467 77.5727 60.76 78.1594 60.76C78.746 60.76 79.226 60.9467 79.5994 61.32C79.9727 61.6933 80.1594 62.1733 80.1594 62.76V84.6C80.1594 85.5867 80.346 86.4 80.7194 87.04C81.0927 87.68 81.5727 88 82.1594 88H83.1594C83.6927 88 84.1194 88.1867 84.4394 88.56C84.786 88.9333 84.9594 89.4133 84.9594 90C84.9594 90.5867 84.706 91.0667 84.1994 91.44C83.6927 91.8133 83.0394 92 82.2394 92H82.1594ZM96.8606 92.16C94.914 92.16 93.1673 91.68 91.6206 90.72C90.074 89.7333 88.8473 88.4133 87.9406 86.76C87.0606 85.08 86.6206 83.1867 86.6206 81.08C86.6206 78.9733 87.1006 77.08 88.0606 75.4C89.0473 73.72 90.3673 72.4 92.0206 71.44C93.7006 70.4533 95.5806 69.96 97.6606 69.96C99.7406 69.96 101.607 70.4533 103.261 71.44C104.914 72.4 106.221 73.72 107.181 75.4C108.167 77.08 108.661 78.9733 108.661 81.08V90C108.661 90.5867 108.461 91.08 108.061 91.48C107.687 91.8533 107.207 92.04 106.621 92.04C106.034 92.04 105.541 91.8533 105.141 91.48C104.767 91.08 104.581 90.5867 104.581 90V88.52C103.647 89.64 102.514 90.5333 101.181 91.2C99.874 91.84 98.434 92.16 96.8606 92.16ZM97.6606 88.56C99.0206 88.56 100.234 88.24 101.301 87.6C102.367 86.9333 103.207 86.04 103.821 84.92C104.434 83.7733 104.741 82.4933 104.741 81.08C104.741 79.64 104.434 78.36 103.821 77.24C103.207 76.0933 102.367 75.2 101.301 74.56C100.234 73.8933 99.0206 73.56 97.6606 73.56C96.3273 73.56 95.114 73.8933 94.0206 74.56C92.954 75.2 92.1006 76.0933 91.4606 77.24C90.8473 78.36 90.5406 79.64 90.5406 81.08C90.5406 82.4933 90.8473 83.7733 91.4606 84.92C92.1006 86.04 92.954 86.9333 94.0206 87.6C95.114 88.24 96.3273 88.56 97.6606 88.56ZM114.373 98.92C114.053 98.92 113.799 98.8133 113.613 98.6C113.453 98.3867 113.373 98.1467 113.373 97.88C113.373 97.3467 113.519 96.88 113.813 96.48C114.133 96.1067 114.439 95.6933 114.733 95.24C115.053 94.7867 115.213 94.24 115.213 93.6C115.213 93.1467 115.106 92.7733 114.893 92.48C114.679 92.1867 114.439 91.92 114.173 91.68C113.906 91.4133 113.666 91.12 113.453 90.8C113.239 90.48 113.133 90.08 113.133 89.6C113.133 88.88 113.373 88.28 113.853 87.8C114.333 87.32 114.986 87.08 115.813 87.08C116.826 87.08 117.586 87.4267 118.093 88.12C118.626 88.8133 118.906 89.7467 118.933 90.92C118.933 91.7733 118.786 92.6667 118.493 93.6C118.226 94.5333 117.853 95.4 117.373 96.2C116.919 97 116.426 97.6533 115.893 98.16C115.359 98.6667 114.853 98.92 114.373 98.92Z" fill="#00313A"/>
</svg>
