<svg width="202" height="202" viewBox="0 0 202 202" fill="none" xmlns="http://www.w3.org/2000/svg">
<path fill-rule="evenodd" clip-rule="evenodd" d="M0.598861 22.2675L0.756852 43.4919L21.8874 43.4258L43.018 43.3597L42.9519 22.2267L42.8859 1.09369L21.6634 1.06842L0.440865 1.04314L0.598861 22.2675ZM49.1096 3.90147L49.119 6.90591L52.0492 7.0001L54.9794 7.09394L55.0915 10.0238L55.204 12.9537L52.1708 12.9632L49.1379 12.9727L49.1474 15.9832L49.1568 18.9936L55.1056 19.0724L61.0544 19.1511L61.1859 31.3298L61.3174 43.5085L64.2423 43.3964L67.1673 43.2842L67.2604 40.1452L67.3536 37.0065L69.9144 37.0674C71.3229 37.1007 72.6682 37.1103 72.9047 37.0886C73.1933 37.0622 73.3647 36.0902 73.4281 34.1188L73.5219 31.1882L76.4515 31.0761L79.381 30.9635L79.3622 24.9401L79.3434 18.9163L76.3247 18.9257L73.3061 18.9352L73.3155 21.9542L73.3249 24.9732L70.3063 24.9826L67.2876 24.9921L67.2687 18.9541L67.2499 12.916L76.3058 12.8877L85.3618 12.8594L85.4096 28.132L85.4573 43.4046L88.4674 43.3952L91.4779 43.3858L91.5557 37.2587L91.6339 31.1316L94.5634 31.0194L97.493 30.9069L97.5124 37.1165L97.5318 43.3257L94.6017 43.2684L91.6716 43.2115L91.5787 46.3175L91.4858 49.4238L85.4623 49.4427L79.4389 49.4615L79.4483 52.4805L79.4578 55.4995L76.4391 55.509L73.4205 55.5184L73.411 52.4994L73.4016 49.4804L67.3643 49.4993L61.327 49.5181L61.3364 52.5371L61.3458 55.5561L58.3272 55.5656L55.3085 55.575L55.3274 61.613L55.3463 67.651L52.3418 67.6604L49.3377 67.6698L49.2436 70.6004L49.1497 73.5309L43.1124 73.5498L37.0751 73.5686L37.0946 70.7271L37.1138 67.8856L34.0665 67.7176L31.0189 67.5495L30.903 61.6091L30.7872 55.6688L24.8468 55.59L18.9065 55.5113L18.7944 52.5814L18.6819 49.6515L15.6778 49.6609L12.6733 49.6703L12.6922 55.7083L12.7111 61.7463L6.67379 61.7652L0.63648 61.784L0.674241 73.8601L0.712001 85.9361L3.73066 85.9266L6.74931 85.9172L6.75875 88.9362L6.76819 91.9552L3.74954 91.9646L0.730881 91.9741L0.740321 94.9931L0.749761 98.0121L3.76842 98.0026L6.78707 97.9932L6.79651 101.012L6.80595 104.031L9.82461 104.022L12.8433 104.012L12.8527 107.031L12.8621 110.05L15.8808 110.041L18.8995 110.031L18.9089 113.05L18.9183 116.069L9.86237 116.098L0.806402 116.126L0.825282 122.164L0.844163 128.202L6.88147 128.183L12.9188 128.164L12.9282 131.175L12.9376 134.185L6.98939 134.301L1.04117 134.417L0.947342 137.348L0.853159 140.278L6.90503 140.259L12.9565 140.24L12.966 143.251L12.9754 146.261L7.02715 146.377L1.07893 146.493L0.985102 149.424L0.89092 152.354L6.94279 152.335L12.9943 152.316L12.9849 149.297L12.9754 146.278L15.9941 146.269L19.0127 146.26L19.0033 143.24L18.9939 140.221L15.9752 140.231L12.9565 140.24L12.9471 137.221L12.9377 134.202L15.9563 134.193L18.975 134.183L18.9655 131.164L18.9561 128.145L21.9747 128.136L24.9934 128.127L25.0312 140.209L25.069 152.291L34.2134 152.167L43.3579 152.044L43.349 149.202L43.3401 146.361L37.3022 146.202L31.2644 146.044L31.2555 143.202L31.2466 140.361L37.2839 140.342C41.8534 140.328 43.3322 140.431 43.367 140.767C43.3923 141.011 43.4361 142.323 43.4649 143.683L43.517 146.154L46.4472 146.248L49.3774 146.342L49.5833 155.399C49.7583 163.104 49.8688 164.462 50.322 164.501C50.6151 164.527 51.9338 164.562 53.2522 164.581L55.6495 164.614L55.6684 170.652L55.6872 176.69L64.7432 176.662L73.7992 176.634L73.818 182.672L73.8369 188.71L82.8929 188.681L91.9489 188.653L91.9583 191.672L91.9677 194.691L94.9864 194.682L98.005 194.672L98.0145 197.691L98.0239 200.71L101.043 200.701L104.061 200.691L104.052 197.672L104.042 194.653L107.061 194.644L110.08 194.634L110.089 197.653L110.099 200.672L119.155 200.644L128.21 200.616L128.201 197.597L128.192 194.578L122.154 194.597L116.117 194.616L116.108 191.597L116.098 188.578L122.135 188.559L128.173 188.54L128.163 185.521L128.154 182.502L131.158 182.492L134.162 182.483L134.275 185.413L134.387 188.343L137.309 188.437L140.23 188.531L140.346 194.465L140.462 200.4L143.392 200.494L146.322 200.588L146.294 191.516L146.266 182.445L149.284 182.436L152.303 182.426L152.294 179.407L152.284 176.388L170.574 176.331L188.863 176.274L188.882 182.32L188.901 188.367L194.849 188.251L200.797 188.135L200.891 185.205L200.985 182.274L197.952 182.284L194.919 182.293L194.91 179.288L194.901 176.284L197.83 176.171L200.76 176.059L200.854 173.129L200.948 170.198L191.877 170.226L182.807 170.255L182.797 167.034L182.787 163.812L179.857 163.935L176.928 164.057L176.919 161.075L176.909 158.093L179.024 157.941C182.666 157.678 182.723 157.725 182.853 161.112L182.965 164.039L191.844 164.011L200.722 163.983L200.694 154.926L200.665 145.869L197.749 145.775L194.833 145.681L194.721 142.766L194.609 139.85L191.693 139.756L188.777 139.662L188.665 136.747L188.553 133.831L185.623 133.737L182.693 133.643L182.702 136.676L182.711 139.71L179.707 139.719L176.703 139.728L176.59 136.798L176.478 133.869L173.548 133.775L170.618 133.681L170.608 130.676L170.599 127.671L182.674 127.634L194.748 127.596L194.758 130.615L194.767 133.634L197.786 133.624L200.805 133.615L200.786 127.577L200.767 121.539L197.748 121.548L194.729 121.558L194.72 118.539L194.711 115.52L197.729 115.51L200.748 115.501L200.738 112.482L200.729 109.463L194.692 109.482L188.654 109.501L188.636 103.463L188.617 97.4246L194.654 97.4058L200.691 97.3869L200.682 94.3679L200.672 91.3489L197.654 91.3583L194.635 91.3678L194.626 88.3488L194.616 85.3298L197.635 85.3203L200.653 85.3109L200.616 73.2349L200.578 61.1588L197.559 61.1683L194.541 61.1777L194.55 64.1967L194.56 67.2157L188.522 67.2346L182.485 67.2535L182.494 70.2725L182.504 73.2915L188.541 73.2726L194.578 73.2537L194.588 76.2727L194.597 79.2918L185.541 79.3201L176.485 79.3484L176.476 76.3294L176.467 73.3104L173.448 73.3198L170.429 73.3293L170.439 76.3621L170.448 79.395L167.401 79.3018L164.355 79.2087L164.324 71.3949C164.308 67.0972 164.308 63.0613 164.324 62.4265L164.354 61.2721L167.373 61.2627L170.391 61.2532L170.401 64.2865L170.41 67.32L173.34 67.2075L176.27 67.0953L176.363 64.1648L176.457 61.2343L173.424 61.2438L170.391 61.2532L170.373 55.2152L170.354 49.1772L167.351 49.1866L164.349 49.196L164.158 50.3509C164.053 50.986 164.009 52.4647 164.061 53.6367C164.112 54.8086 164.119 57.0064 164.077 58.5203L163.999 61.2732L161.158 61.2821C157.996 61.292 158.149 61.4414 158.271 58.4504C158.396 55.3734 158.318 55.2948 155.009 55.1887L152.082 55.0948L151.97 52.1649L151.858 49.2351L148.854 49.2445L145.849 49.2538L145.84 46.2348L145.83 43.2158L148.849 43.2064L151.868 43.197L151.839 33.9638L151.81 24.7306L145.862 24.8366L139.913 24.9426L139.82 27.8646L139.726 30.7866L133.792 30.9024L127.858 31.0183L127.764 33.9346L127.67 36.851L124.755 36.9631L121.839 37.0752L121.849 40.0942L121.858 43.1132L124.774 43.2071L127.691 43.301L127.783 40.179L127.877 37.0574L130.798 36.9371L133.719 36.8168L133.835 42.9653L133.952 49.1135L139.901 49.1922L145.849 49.2709L145.868 55.3089L145.887 61.3469L139.938 61.2682L133.989 61.1895L133.877 58.2596L133.765 55.3297L130.761 55.3391L127.756 55.3485L127.766 58.3675L127.775 61.3865L124.756 61.3959L121.738 61.4054L121.728 58.3864L121.719 55.3674L118.7 55.3768L115.682 55.3862L115.672 52.3672L115.663 49.3482L112.644 49.3577L109.625 49.3671L109.635 52.3861L109.644 55.4051L106.626 55.4146L103.607 55.424L103.598 52.405L103.588 49.386L100.556 49.3955L97.5231 49.405L97.6162 46.3416L97.7092 43.2782L100.55 43.2246L103.391 43.171L103.55 37.1324L103.708 31.0938L106.638 30.9817L109.568 30.8692L109.558 27.8647L109.549 24.8599L112.567 24.8505L115.586 24.841L115.596 27.86L115.605 30.879L118.624 30.8696L121.642 30.8602L121.633 27.8412L121.623 24.8222L124.642 24.8127L127.661 24.8033L127.642 18.7653L127.623 12.7273L130.642 12.7178L133.66 12.7084L133.651 9.68939L133.641 6.67038L136.66 6.66095L139.679 6.65151L139.669 3.6325L139.66 0.6135L136.641 0.622939L133.623 0.632378L133.632 3.65138L133.641 6.67038L130.623 6.67982L127.604 6.68926L127.595 3.67026L127.585 0.651256L124.567 0.660695L121.548 0.670134L121.576 9.72714L121.605 18.7842L115.567 18.803L109.53 18.8219L109.511 12.7839L109.492 6.7459L112.511 6.73646L115.529 6.72702L115.52 3.70802L115.511 0.689012L112.492 0.698451L109.473 0.70789L109.483 3.72689L109.492 6.7459L106.474 6.75534L103.455 6.76477L103.445 3.74577L103.436 0.726768L97.3987 0.745646L91.3614 0.764524L91.3708 3.78353L91.3802 6.80253L82.3243 6.83085L73.2683 6.85917L73.2589 3.84016L73.2494 0.821158L61.1748 0.858914L49.1002 0.89667L49.1096 3.90147ZM157.954 1.35545C157.851 1.79513 157.838 11.3453 157.925 22.5776L158.082 42.9999L179.213 42.9339L200.343 42.8678L200.368 21.6457L200.394 0.423591L179.267 0.489652L158.14 0.555713L157.954 1.35545ZM36.715 10.0813C36.7889 19.07 36.76 36.9498 36.6714 37.0389C36.5737 37.1372 25.6276 37.234 12.7233 37.2502L6.59716 37.258L6.54996 22.1629L6.50276 7.06793L21.596 7.02074L36.6893 6.97354L36.715 10.0813ZM67.2404 9.89705L67.2499 12.916L64.2312 12.9255L61.2126 12.9349L61.2031 9.91592L61.1937 6.89692L64.2123 6.88748L67.231 6.87804L67.2404 9.89705ZM97.4364 12.8217L97.4553 18.8597L103.493 18.8408L109.53 18.8219L109.539 21.8409L109.549 24.8599L106.53 24.8694L103.511 24.8788L103.521 27.8978L103.53 30.9168L100.512 30.9262L97.4931 30.9357L97.4742 24.8977L97.4553 18.8597L94.4366 18.8691L91.418 18.8785L91.3991 12.8405L91.3802 6.80253L94.3989 6.79309L97.4175 6.78365L97.4364 12.8217ZM194.417 21.5755L194.464 36.6705L185.319 36.7148C171.467 36.7819 164.497 36.7465 164.357 36.6084C164.259 36.5107 164.07 7.92421 164.161 6.84134C164.173 6.69461 170.975 6.55365 179.276 6.52769L194.37 6.48049L194.417 21.5755ZM12.5873 22.1441L12.6156 31.2011L21.6716 31.1728L30.7275 31.1444L30.6992 22.0874L30.6709 13.0304L21.6149 13.0587L12.5589 13.0871L12.5873 22.1441ZM139.935 12.9257C139.805 13.0561 139.703 14.415 139.708 15.9454L139.716 18.7275L142.735 18.7181L145.754 18.7086L145.744 15.6896L145.735 12.6706L142.953 12.6793C141.423 12.6841 140.065 12.7949 139.935 12.9257ZM170.268 21.645L170.296 30.708L179.358 30.6797L188.42 30.6514L188.297 21.6834L188.174 12.7155L179.207 12.6487L170.239 12.5819L170.268 21.645ZM49.214 37.3023L49.2335 43.5467L52.1631 43.4341L55.0926 43.322L55.0738 37.284L55.0549 31.246L52.1247 31.1521L49.1945 31.0579L49.214 37.3023ZM73.3727 40.2458L73.3828 43.4711L76.3123 43.3586L79.2419 43.2465L79.2324 40.2275L79.223 37.2085L76.2928 37.1146L73.3626 37.0204L73.3727 40.2458ZM109.745 37.394C109.641 37.6671 109.607 39.074 109.67 40.5209L109.784 43.151L112.714 43.2448L115.644 43.339L115.634 40.1779L115.624 37.0172L112.779 36.9572C110.624 36.9121 109.888 37.0181 109.745 37.394ZM145.82 39.891C145.831 43.3125 145.801 43.3378 142.086 43.1586L139.97 43.0566L139.858 40.1533C139.73 36.8086 139.612 36.9106 143.591 36.9259L145.811 36.9345L145.82 39.891ZM0.682463 52.638L0.794612 55.5679L3.72481 55.6617L6.655 55.7559L6.64551 52.7224L6.63603 49.6892L3.60317 49.6986L0.569956 49.7081L0.682463 52.638ZM36.9063 52.5247L37.0185 55.4546L43.0558 55.4358L49.0931 55.4169L49.1869 52.4863L49.2811 49.5558L43.0375 49.5753L36.7938 49.5949L36.9063 52.5247ZM97.5697 55.4429L97.5886 61.4809L94.5699 61.4903L91.5513 61.4998L91.5607 64.5188L91.5701 67.5378L100.626 67.5095L109.682 67.4811L109.663 61.4431L109.644 55.4051L112.663 55.3957L115.682 55.3862L115.71 64.4433L115.738 73.5003L121.776 73.4814L127.813 73.4625L127.803 70.4435L127.794 67.4245L130.813 67.4151L133.831 67.4056L133.841 70.4246L133.85 73.4436L130.832 73.4531L127.813 73.4625L127.822 76.4815L127.832 79.5005L130.85 79.4911L133.869 79.4816L133.879 82.5006L133.888 85.5196L136.907 85.5102L139.925 85.5008L139.906 79.4628L139.888 73.4248L142.906 73.4153L145.925 73.4059L145.915 70.3869L145.906 67.3679L148.916 67.3585L151.926 67.349L152.042 73.298L152.158 79.2469L158.327 79.3249L164.496 79.4029L164.279 80.505C164.16 81.1113 164.065 82.4663 164.069 83.5162L164.074 85.4253L152 85.463L139.925 85.5008L139.935 88.5198L139.944 91.5388L136.925 91.5482L133.907 91.5577L133.926 97.5957L133.945 103.634L136.963 103.624L139.982 103.615L139.972 100.596L139.963 97.5768L142.982 97.5673L146 97.5579L145.991 94.5389L145.981 91.5199L152.019 91.501L158.056 91.4821L158.092 94.4123C158.111 96.024 158.16 98.7009 158.199 100.361L158.271 103.38L161.201 103.474L164.131 103.568L164.181 105.329C164.209 106.298 164.253 107.61 164.279 108.245L164.327 109.399L167.435 109.492L170.543 109.585L170.533 106.552L170.524 103.519L173.556 103.51L176.59 103.5L176.477 100.57L176.365 97.6405L170.376 97.4817L164.387 97.3228L164.4 94.9253C164.407 93.6069 164.421 92.2944 164.43 92.0092C164.445 91.6071 165.105 91.4658 167.378 91.3784L170.308 91.2662L170.386 85.3167L170.465 79.3672L173.487 79.3578L176.509 79.3483L176.437 88.406L176.364 97.4633L179.472 97.4536L182.579 97.4435L182.589 100.463L182.598 103.482L179.58 103.491L176.561 103.5L176.57 106.519L176.58 109.538L182.617 109.52L188.654 109.501L188.673 115.539L188.692 121.577L185.673 121.586L182.655 121.596L182.645 118.577L182.636 115.558L179.617 115.567L176.599 115.576L176.608 118.595L176.618 121.614L173.599 121.624L170.58 121.633L170.59 124.638L170.599 127.644L167.492 127.756L164.385 127.868L164.325 130.355C164.292 131.722 164.257 133.041 164.245 133.285C164.231 133.604 163.382 133.732 161.249 133.739L158.272 133.748L158.23 136.767L158.188 139.786L167.431 139.757L176.674 139.728L176.684 142.747L176.693 145.766L179.712 145.757L182.73 145.748L182.721 142.729L182.711 139.71L185.73 139.7L188.749 139.691L188.758 142.71L188.768 145.729L191.786 145.719L194.805 145.71L194.814 148.729L194.824 151.748L191.805 151.757L188.787 151.767L188.777 148.748L188.768 145.729L185.749 145.738L182.73 145.748L182.74 148.767L182.749 151.786L179.745 151.795L176.741 151.804L176.628 148.874L176.516 145.945L161.334 145.899L146.151 145.855L146.171 151.985L146.191 158.116L140.152 158.029L134.114 157.943L134.096 151.913L134.077 145.883L128.128 145.999L122.18 146.115L122.086 149.045L121.992 151.976L112.951 152.004L103.909 152.032L103.918 155.026L103.928 158.02L100.821 158.143C99.112 158.212 96.3952 158.225 94.7834 158.173L91.8533 158.079L91.8061 142.999L91.7589 127.918L94.7776 127.908L97.7963 127.899L97.7868 124.88L97.7774 121.861L94.7587 121.87L91.7401 121.88L91.7212 115.842L91.7023 109.804L88.6836 109.813L85.665 109.823L85.6744 112.842L85.6839 115.861L82.6652 115.87L79.6466 115.88L79.656 118.899L79.6654 121.918L82.6841 121.908L85.7028 121.899L85.7122 124.918L85.7216 127.937L82.703 127.946L79.6843 127.956L79.6938 130.975L79.7032 133.994L76.6845 134.003L73.6659 134.012L73.6753 137.031L73.6848 140.05L67.6475 140.069L61.6102 140.088L61.6007 137.069L61.5913 134.05L58.5726 134.06L55.554 134.069L55.5445 131.05L55.5351 128.031L52.5164 128.041L49.4978 128.05L49.5072 131.075L49.5167 134.1L40.3716 134.034L31.2266 133.968L31.1113 131.852C30.8958 127.902 30.5084 128.141 37.3387 128.008L43.2823 127.892L43.3762 124.961L43.4703 122.031L40.3484 122.041L37.2267 122.05L37.2175 119.12L37.2084 116.19L40.3155 116.078L43.4226 115.965L43.4132 112.96L43.4038 109.955L40.2076 109.965L37.0114 109.975L37.0208 112.994L37.0303 116.013L34.0116 116.022L30.993 116.032L31.0024 119.051L31.0118 122.07L24.9745 122.089L18.9372 122.107L18.9467 125.126L18.9561 128.145L15.9374 128.155L12.9188 128.164L12.9093 125.145L12.8999 122.126L15.9186 122.117L18.9372 122.107L18.9278 119.088L18.9183 116.069L24.9414 116.051L30.9642 116.032L31.0584 113.101L31.1522 110.171L34.1703 109.984L37.1884 109.797L37.138 106.867L37.0873 103.937L40.2505 103.927L43.4137 103.917L43.3012 100.987L43.1891 98.057L40.2589 97.9631C38.2727 97.8994 37.3226 97.7304 37.3099 97.4396C37.2999 97.2031 37.2556 95.8567 37.2118 94.4475L37.1324 91.8851L40.1507 91.7745L43.1691 91.6638L43.1602 88.8224L43.1513 85.981L37.114 85.9998L31.0767 86.0187L30.9825 88.9635L30.8884 91.9082L27.9728 91.8143L25.0571 91.7204L24.945 88.7905L24.8325 85.8606L21.8284 85.87L18.8239 85.8794L18.8523 94.9364L18.8806 103.993L21.8992 103.984L24.9179 103.975L24.9273 106.994L24.9368 110.013L21.9181 110.022L18.8995 110.031L18.89 107.012L18.8806 103.993L15.8619 104.003L12.8433 104.012L12.8149 94.9553L12.7866 85.8983L9.76796 85.9078L6.74931 85.9172L6.73043 79.8792L6.71155 73.8412L9.7302 73.8317L12.7489 73.8223L12.7583 76.8413L12.7677 79.8603L15.7864 79.8509L18.805 79.8414L18.7956 76.8224L18.7862 73.8034L21.7906 73.794L24.7947 73.7846L24.9072 76.7145L25.0194 79.6444L40.2017 79.6896L55.3841 79.7345L55.3652 73.693L55.3463 67.651L58.3696 67.6416L61.3932 67.6321L61.3369 79.6196L61.281 91.6072L58.3514 91.7193L55.4219 91.8318L55.4313 94.8363L55.4407 97.8411L58.4593 97.8316L61.478 97.8222L61.4874 100.841L61.4969 103.86L64.5155 103.851L67.5342 103.841L67.5059 94.7843L67.4775 85.7273L70.4962 85.7179L73.5149 85.7084L73.5054 82.6894L73.496 79.6704L70.4773 79.6799L67.4587 79.6893L67.4303 70.6323L67.402 61.5753L64.3834 61.5847L61.3647 61.5942L61.3553 58.5752L61.3458 55.5561L64.3645 55.5467L67.3831 55.5373L67.3926 58.5623L67.4021 61.5873L76.3689 61.4645L85.3358 61.3416L85.4297 58.4111L85.5238 55.4805L88.5279 55.4712L91.5324 55.4618L91.5229 52.4428L91.5135 49.4237L94.5322 49.4143L97.5508 49.4049L97.5697 55.4429ZM182.447 55.1917L182.466 61.2442L185.396 61.1317L188.325 61.0196L188.404 55.0701L188.483 49.1205L185.455 49.13L182.428 49.1395L182.447 55.1917ZM194.512 52.1349L194.522 55.1685L197.451 55.056L200.381 54.9438L200.475 52.0133L200.569 49.0827L197.536 49.0922L194.503 49.1017L194.512 52.1349ZM24.7952 64.7417L24.8047 67.7753L21.8745 67.6811L18.9443 67.5873L18.8322 64.6574L18.7196 61.7275L21.7529 61.718L24.7857 61.7085L24.7952 64.7417ZM36.9437 64.5866L37.0562 67.5306L40.0749 67.5212L43.0935 67.5118L43.0847 64.6703L43.0758 61.8289L39.9534 61.7357L36.8311 61.6428L36.9437 64.5866ZM73.4771 73.6324L73.496 79.6704L79.5333 79.6515L85.5706 79.6327L85.5517 73.5947L85.5328 67.5567L79.4955 67.5755L73.4582 67.5944L73.4771 73.6324ZM91.5985 76.5948L91.6079 79.6138L94.6266 79.6043L97.6452 79.5949L97.6547 82.6139L97.6641 85.6329L100.683 85.6235L103.701 85.614L103.711 88.633L103.72 91.652L106.739 91.6426L109.758 91.6332L109.776 97.6712L109.795 103.709L106.777 103.719L103.758 103.728L103.767 106.747L103.777 109.766L106.796 109.757L109.814 109.747L109.833 115.785L109.852 121.823L106.833 121.833L103.815 121.842L103.805 118.823L103.796 115.804L100.777 115.814L97.7585 115.823L97.7679 118.842L97.7774 121.861L100.796 121.852L103.815 121.842L103.824 124.861L103.834 127.88L100.815 127.89L97.7963 127.899L97.8151 133.937L97.834 139.975L100.853 139.966L103.871 139.956L103.852 133.918L103.834 127.88L106.852 127.871L109.871 127.861L109.88 130.88L109.89 133.899L112.908 133.89L115.927 133.88L115.937 136.899L115.946 139.918L112.927 139.928L109.909 139.937L109.918 142.956L109.928 145.975L112.946 145.966L115.965 145.956L115.955 142.937L115.946 139.918L118.965 139.909L121.983 139.899L121.974 136.88L121.964 133.861L124.983 133.852L128.002 133.843L128.011 136.862L128.021 139.881L131.025 139.871L134.029 139.862L134.123 136.931L134.217 134.001L137.147 133.889L140.076 133.776L140.067 130.772L140.057 127.767L137.039 127.776L134.02 127.786L134.011 124.767L134.001 121.748L143.057 121.719L152.113 121.691L152.123 124.696L152.132 127.7L149.202 127.813L146.273 127.925L146.179 130.864L146.085 133.803L152.225 133.687L158.365 133.57L158.309 130.196C158.279 128.34 158.23 125.663 158.202 124.247L158.15 121.672L155.132 121.682L152.113 121.691L152.094 115.653L152.075 109.615L149.057 109.624L146.038 109.634L146.029 106.615L146.019 103.596L143.001 103.605L139.982 103.615L139.991 106.634L140.001 109.653L136.982 109.662L133.963 109.672L133.954 106.653L133.945 103.634L130.926 103.643L127.907 103.653L127.888 97.6145L127.87 91.5765L130.888 91.5671L133.907 91.5577L133.897 88.5386L133.888 85.5196L124.832 85.548L115.776 85.5763L115.757 79.5383L115.738 73.5003L109.701 73.5191L103.664 73.538L103.673 76.557L103.683 79.576L100.664 79.5855L97.6452 79.5949L97.6358 76.5759L97.6263 73.5569L94.6077 73.5663L91.589 73.5758L91.5985 76.5948ZM109.729 82.5762L109.739 85.5952L112.757 85.5857L115.776 85.5763L115.785 88.5953L115.795 91.6143L112.776 91.6237L109.758 91.6332L109.748 88.6142L109.739 85.5952L106.72 85.6046L103.701 85.614L103.692 82.595L103.683 79.576L106.701 79.5666L109.72 79.5572L109.729 82.5762ZM49.3751 88.8029L49.3845 91.8219L52.4031 91.8125L55.4218 91.8031L55.4124 88.7841L55.4029 85.7651L52.3843 85.7745L49.3656 85.7839L49.3751 88.8029ZM73.5243 88.7274L73.5337 91.7464L76.5524 91.737L79.571 91.7276L79.5616 88.7086L79.5522 85.6895L76.5335 85.699L73.5149 85.7084L73.5243 88.7274ZM188.588 88.3676L188.598 91.3866L185.579 91.3961L182.56 91.4055L182.551 88.3865L182.542 85.3675L185.56 85.3581L188.579 85.3486L188.588 88.3676ZM85.6272 97.7467L85.6461 103.785L82.6275 103.794L79.6088 103.804L79.5994 100.785L79.5899 97.7656L76.5713 97.775L73.5526 97.7844L73.5621 100.803L73.5715 103.822L70.5528 103.832L67.5342 103.841L67.5436 106.86L67.5531 109.879L70.5717 109.87L73.5904 109.86L73.5998 112.879L73.6093 115.898L76.6279 115.889L79.6466 115.88L79.6371 112.861L79.6277 109.842L82.6463 109.832L85.665 109.823L85.6556 106.804L85.6461 103.785L88.6648 103.775L91.6834 103.766L91.674 100.747L91.6645 97.7278L94.6832 97.7184L97.7019 97.7089L97.6924 94.6899L97.683 91.6709L91.6457 91.6898L85.6084 91.7087L85.6272 97.7467ZM121.861 100.652L121.87 103.671L118.851 103.681L115.833 103.69L115.842 106.709L115.852 109.728L112.833 109.738L109.814 109.747L109.805 106.728L109.795 103.709L112.814 103.7L115.833 103.69L115.823 100.671L115.814 97.6523L118.832 97.6429L121.851 97.6334L121.861 100.652ZM43.3549 105.782C43.3386 106.807 43.3026 108.126 43.2753 108.712L43.2257 109.778L46.3335 109.871L49.4412 109.964L49.4506 112.969L49.46 115.974L46.4414 115.983L43.4227 115.993L43.4321 119.012L43.4416 122.031L49.4789 122.012L55.5162 121.993L55.5256 125.012L55.5351 128.031L58.5537 128.022L61.5724 128.012L61.5818 131.031L61.5913 134.05L64.6099 134.041L67.6286 134.031L67.6191 131.012L67.6097 127.993L70.6284 127.984L73.647 127.974L73.6376 124.955L73.6281 121.936L70.6095 121.946L67.5908 121.955L67.6003 124.974L67.6097 127.993L64.5911 128.003L61.5724 128.012L61.5535 121.974L61.5346 115.936L58.516 115.946L55.4973 115.955L55.4879 112.936L55.4784 109.917L58.4971 109.908L61.5158 109.898L61.5063 106.879L61.4969 103.86L52.4409 103.889L43.3849 103.917L43.3549 105.782ZM133.973 112.691L133.982 115.71L130.964 115.719L127.945 115.729L127.964 121.752L127.983 127.776L125.053 127.888L122.124 128L122.03 130.931L121.936 133.862L118.932 133.871L115.927 133.88L115.899 124.823L115.87 115.766L121.908 115.747L127.945 115.729L127.936 112.71L127.926 109.691L130.945 109.681L133.963 109.672L133.973 112.691ZM158.288 116.099C158.184 116.37 158.151 117.696 158.214 119.043L158.327 121.494L161.346 121.485L164.365 121.475L164.356 118.634L164.347 115.792L161.411 115.698C159.161 115.626 158.432 115.72 158.288 116.099ZM85.7688 143.032L85.7783 146.051L82.7596 146.06L79.741 146.07L79.7315 143.051L79.7221 140.032L82.7407 140.022L85.7594 140.013L85.7688 143.032ZM140.333 140.079C140.203 140.209 140.101 141.568 140.105 143.099L140.114 145.881L143.133 145.871L146.151 145.862L146.142 142.843L146.132 139.824L143.351 139.833C141.82 139.837 140.462 139.948 140.333 140.079ZM67.6015 149.209L67.7136 152.133L76.6669 152.2L85.6201 152.267L85.736 158.201L85.8519 164.136L82.9138 164.248L79.9757 164.361L79.8828 167.469L79.7899 170.577L85.8411 170.558L91.8922 170.539L91.9017 173.572L91.9112 176.606L94.8407 176.493L97.7703 176.381L97.849 170.432L97.9277 164.482L99.606 164.442C100.529 164.42 102.403 164.332 103.77 164.246C105.137 164.16 107.095 164.181 108.12 164.293L109.985 164.496L109.995 167.489L110.004 170.482L119.074 170.454L128.144 170.426L128.031 167.318L127.919 164.211L124.975 164.117L122.03 164.022L122.124 161.106L122.218 158.191L125.148 158.078L128.077 157.966L128.087 161.126L128.097 164.286L131.115 164.238L134.134 164.191L134.144 167.299L134.153 170.407L137.172 170.397L140.191 170.388L140.2 173.407L140.21 176.426L143.228 176.417L146.247 176.407L146.256 179.44L146.266 182.474L143.336 182.38L140.405 182.286L140.293 179.37L140.181 176.455L137.265 176.361L134.349 176.267L134.238 173.367L134.126 170.466L131.92 170.355C127.769 170.145 128.113 169.587 128.135 176.489L128.154 182.502L119.098 182.53L110.042 182.558L110.051 185.577L110.061 188.596L107.042 188.606L104.023 188.615L104.033 191.634L104.042 194.653L101.024 194.663L98.005 194.672L97.9956 191.653L97.9862 188.634L94.9675 188.644L91.9489 188.653L91.93 182.615L91.9111 176.577L88.8924 176.587L85.8738 176.596L85.8832 179.615L85.8927 182.634L82.874 182.643L79.8554 182.653L79.8365 176.615L79.8176 170.577L78.6634 170.568C78.0284 170.563 73.9536 170.581 69.6074 170.608L61.7057 170.658L61.6956 167.538L61.6855 164.418L64.6157 164.409L67.546 164.4L67.6241 158.272L67.7019 152.145L64.6751 152.155L61.6479 152.164L61.6384 149.131L61.6289 146.097L64.5591 146.192L67.4893 146.286L67.6015 149.209ZM97.8623 149.032L97.8718 152.051L100.89 152.042L103.909 152.032L103.9 149.013L103.89 145.994L100.872 146.004L97.8529 146.013L97.8623 149.032ZM170.526 161.058L170.554 170.115L161.498 170.144L152.442 170.172L152.32 161.477C152.252 156.695 152.275 152.577 152.371 152.325C152.508 151.966 154.464 151.882 161.521 151.935L170.498 152.001L170.526 161.058ZM1.38323 158.63C1.03563 158.768 0.954091 163.358 1.00586 179.913L1.07185 201.019L22.2909 200.861L43.51 200.703L43.4439 179.57L43.3779 158.437L22.6022 158.446C11.1756 158.45 1.62726 158.533 1.38323 158.63ZM158.708 158.127C158.222 158.333 158.069 163.93 158.549 163.949C163.075 164.131 164.022 164.101 164.286 163.77C164.456 163.559 164.568 162.187 164.537 160.722L164.479 158.058L161.815 157.999C160.35 157.966 158.952 158.024 158.708 158.127ZM37.0278 164.755C37.1778 164.904 37.2662 173.513 37.2736 188.735L37.2768 194.862L22.1835 194.909L7.09027 194.956L7.04316 179.891C7.01273 170.161 7.12164 164.783 7.35081 164.706C7.89467 164.523 36.8426 164.57 37.0278 164.755ZM13.1628 179.754L13.2857 188.721L22.2532 188.788L31.2207 188.855L31.1923 179.792L31.164 170.729L22.102 170.757L13.04 170.786L13.1628 179.754ZM103.986 176.539L104.005 182.577L107.023 182.568L110.042 182.558L110.023 176.52L110.004 170.482L106.985 170.492L103.967 170.501L103.986 176.539ZM49.6782 185.766L49.6877 188.785L52.7206 188.776L55.7538 188.766L55.6596 191.697L55.5658 194.627L52.6362 194.739L49.7067 194.852L49.7161 197.856L49.7254 200.861L67.8374 200.805L85.9493 200.748L85.9399 197.729L85.9304 194.71L73.8558 194.748L61.7812 194.785L61.7718 191.781L61.7624 188.776L64.6919 188.664L67.6215 188.552L67.7153 185.621L67.8095 182.691L64.7763 182.7L61.7434 182.709L61.7529 185.728L61.7623 188.747L58.7437 188.757L55.725 188.766L55.7156 185.747L55.7061 182.728L52.6875 182.738L49.6688 182.747L49.6782 185.766ZM170.746 182.635C170.733 182.782 170.747 184.14 170.778 185.654L170.834 188.406L164.597 188.426L158.359 188.445L158.369 191.464L158.378 194.483L155.345 194.493L152.312 194.502L152.425 197.432L152.537 200.362L155.467 200.456C158.796 200.563 158.525 200.893 158.393 196.881L158.314 194.484L164.561 194.464L170.808 194.445L170.798 191.411L170.789 188.378L173.719 188.472L176.649 188.566L176.761 191.496L176.874 194.426L173.9 194.435C172.265 194.44 170.86 194.51 170.779 194.591C170.698 194.672 170.688 196.037 170.756 197.624L170.882 200.51L173.784 200.398L176.686 200.287L176.78 197.356L176.874 194.426L179.878 194.416L182.883 194.407L182.892 197.44L182.901 200.474L185.831 200.361L188.761 200.249L188.854 197.318L188.949 194.388L185.915 194.397L182.883 194.407L182.873 191.388L182.864 188.369L179.845 188.378L176.826 188.388L176.817 185.369L176.807 182.35L173.789 182.359C172.129 182.364 170.759 182.488 170.746 182.635ZM194.967 197.388L194.976 200.407L197.995 200.398L201.013 200.388L201.004 197.369L200.994 194.35L197.976 194.36L194.957 194.369L194.967 197.388Z" fill="black"/>
</svg>
