<svg width="294" height="250" viewBox="0 0 294 250" fill="none" xmlns="http://www.w3.org/2000/svg">
<path d="M147 249.325C227.745 249.325 293.202 239.403 293.202 227.163C293.202 214.923 227.745 205.001 147 205.001C66.2548 205.001 0.797974 214.923 0.797974 227.163C0.797974 239.403 66.2548 249.325 147 249.325Z" fill="#00313A"/>
<path d="M0.0700073 190.147L36.799 189.972L73.535 189.916L147 189.797L220.465 189.916L257.201 189.972L293.93 190.147L257.201 190.315L220.465 190.378L147 190.497L73.535 190.378L36.799 190.315L0.0700073 190.147Z" fill="#00313A"/>
<path d="M43.498 61.802C43.498 61.802 52.115 141.322 52.192 143.702C52.647 156.883 52.836 194.732 52.836 194.732L81.536 194.655C81.536 194.655 82.285 151.003 81.067 139.649C79.548 125.18 70.133 61.9 70.133 61.9L43.498 61.802Z" fill="#48A069"/>
<path d="M101.542 225.784C100.002 226.302 55.986 226.288 54.306 225.224C53.676 224.832 53.305 218.413 53.074 210.657C53.018 208.984 52.983 207.255 52.955 205.491C52.913 203.391 52.878 201.291 52.864 199.261C52.787 190.07 52.864 181.971 52.864 181.971L81.515 181.901V199.184V205.421L81.375 210.587C81.375 210.587 98.224 218.133 99.939 219.491C101.654 220.849 103.075 225.273 101.542 225.784Z" fill="#48A069"/>
<path d="M101.542 225.784C100.002 226.302 55.986 226.288 54.306 225.224C53.676 224.832 53.305 218.413 53.074 210.657C53.018 208.984 52.983 207.255 52.955 205.491C52.913 203.391 52.878 201.291 52.864 199.261L81.564 199.184V205.421L81.424 210.587C81.424 210.587 98.273 218.133 99.988 219.491C101.703 220.849 103.075 225.273 101.542 225.784Z" fill="#F4F5F8"/>
<path d="M101.675 225.847C100.674 226.183 81.928 226.295 68.278 226.05C65.114 225.994 62.23 225.91 59.878 225.819C56.665 225.679 54.509 225.511 54.159 225.287C53.382 224.79 52.99 215.375 52.759 205.449L81.55 205.372L81.417 210.566C81.417 210.566 98.357 218.147 100.086 219.519C101.815 220.891 103.215 225.329 101.675 225.847Z" fill="#48A069"/>
<path d="M101.038 224.083C93.618 223.894 63.679 223.852 56.336 224.23C56.273 224.23 56.273 224.279 56.336 224.279C63.679 224.622 93.618 224.426 101.038 224.202C101.192 224.195 101.192 224.083 101.038 224.083Z" fill="#00313A"/>
<path d="M82.516 208.9C79.597 208.354 76.027 208.802 73.794 210.881C73.71 210.965 73.794 211.084 73.92 211.056C76.708 210.154 79.5854 209.555 82.502 209.271C82.5454 209.264 82.5852 209.243 82.6145 209.21C82.6438 209.177 82.6607 209.135 82.6623 209.091C82.664 209.047 82.6503 209.004 82.6236 208.969C82.5969 208.934 82.5588 208.91 82.516 208.9Z" fill="#00313A"/>
<path d="M84.623 210.188C81.704 209.642 78.134 210.09 75.901 212.169C75.817 212.246 75.901 212.372 76.027 212.337C78.8161 211.44 81.6931 210.844 84.609 210.559C84.6524 210.552 84.6922 210.531 84.7215 210.498C84.7508 210.465 84.7677 210.423 84.7693 210.379C84.771 210.335 84.7573 210.292 84.7306 210.257C84.7039 210.222 84.6658 210.198 84.623 210.188Z" fill="#00313A"/>
<path d="M86.73 211.455C83.811 210.909 80.241 211.357 78.008 213.436C77.924 213.52 78.008 213.639 78.134 213.611C80.922 212.709 83.7994 212.11 86.716 211.826C86.7595 211.819 86.7993 211.798 86.8285 211.765C86.8578 211.732 86.8747 211.69 86.8764 211.646C86.878 211.602 86.8643 211.559 86.8376 211.524C86.8109 211.489 86.7728 211.465 86.73 211.455Z" fill="#00313A"/>
<path d="M88.837 212.729C85.918 212.183 82.348 212.631 80.115 214.71C80.031 214.787 80.115 214.913 80.241 214.878C83.0301 213.981 85.9071 213.385 88.823 213.1C88.8664 213.093 88.9062 213.072 88.9355 213.039C88.9648 213.006 88.9817 212.964 88.9834 212.92C88.985 212.876 88.9713 212.833 88.9446 212.798C88.9179 212.763 88.8798 212.739 88.837 212.729Z" fill="#00313A"/>
<path d="M51.891 230.166C50.302 230.509 6.55899 225.658 4.99099 224.419C4.40299 223.957 4.73899 217.538 5.36199 209.803C5.49499 208.137 12.362 181.264 12.362 181.264L41.86 184.337L33.6 212.855C33.6 212.855 49.518 222.2 51.1 223.747C52.682 225.294 53.466 229.83 51.891 230.166Z" fill="#48A069"/>
<path d="M5.00498 224.426C6.55198 225.658 50.302 230.509 51.905 230.173C53.508 229.837 52.605 225.273 51.065 223.747C49.525 222.221 33.565 212.848 33.565 212.848L36.659 202.222L8.11998 198.113C6.87398 203.125 5.40398 209.173 5.31998 209.803C4.75298 217.545 4.42398 223.964 5.00498 224.426Z" fill="#F4F5F8"/>
<path d="M52.01 230.25C50.981 230.467 32.333 228.521 18.795 226.75C15.659 226.344 12.803 225.945 10.493 225.595C7.31499 225.105 5.19399 224.699 4.89299 224.44C4.31198 223.971 4.57098 217.384 5.39698 209.775C5.63056 208.008 6.02179 206.265 6.56598 204.567L34.916 208.319L33.6 212.834C33.6 212.834 49.609 222.235 51.17 223.782C52.731 225.329 53.599 229.9 52.01 230.25Z" fill="#48A069"/>
<path d="M51.576 228.416C44.226 227.422 14.476 224.083 7.12599 223.656C7.06299 223.656 7.06299 223.691 7.12599 223.705C14.392 224.853 44.177 227.947 51.569 228.542C51.723 228.549 51.73 228.437 51.576 228.416Z" fill="#00313A"/>
<path d="M34.832 211.308C31.99 210.447 28.392 210.503 25.949 212.323C25.851 212.393 25.949 212.526 26.047 212.505C28.9219 211.926 31.8506 211.656 34.783 211.7C34.835 211.707 34.8874 211.692 34.9287 211.66C34.9701 211.628 34.997 211.581 35.0035 211.529C35.01 211.477 34.9956 211.424 34.9634 211.383C34.9312 211.341 34.884 211.315 34.832 211.308Z" fill="#00313A"/>
<path d="M36.785 212.806C33.943 211.945 30.345 211.994 27.902 213.814C27.804 213.884 27.902 214.017 28.007 214.003C30.8785 213.414 33.8049 213.135 36.736 213.17C36.7781 213.166 36.8175 213.147 36.8479 213.118C36.8783 213.088 36.8979 213.049 36.9035 213.007C36.9092 212.965 36.9006 212.923 36.8791 212.886C36.8576 212.85 36.8244 212.821 36.785 212.806Z" fill="#00313A"/>
<path d="M38.738 214.297C35.896 213.436 32.298 213.492 29.855 215.312C29.757 215.382 29.855 215.515 29.96 215.494C32.8318 214.907 35.7582 214.631 38.689 214.668C38.7345 214.668 38.7783 214.651 38.8124 214.621C38.8464 214.59 38.8685 214.549 38.8744 214.504C38.8804 214.459 38.8699 214.413 38.8448 214.375C38.8197 214.337 38.7818 214.309 38.738 214.297Z" fill="#00313A"/>
<path d="M40.698 215.795C37.856 214.934 34.258 214.983 31.808 216.803C31.717 216.873 31.808 217.006 31.913 216.992C34.7845 216.403 37.7109 216.124 40.642 216.159C40.6846 216.156 40.7249 216.138 40.7562 216.109C40.7876 216.08 40.8082 216.042 40.8147 215.999C40.8212 215.957 40.8132 215.914 40.792 215.877C40.7708 215.84 40.7377 215.811 40.698 215.795Z" fill="#00313A"/>
<path d="M69.174 61.9C69.174 61.9 68.901 71.7 64.442 77.3C63.378 78.644 58.296 85.126 56.602 86.4C56.602 86.4 52.325 135.638 51.576 144.5C50.554 156.652 38.276 196.811 38.276 196.811L9.50598 192.716C9.50598 192.716 19.411 155.427 22.176 143.716C22.813 141.014 28.476 87.625 28.063 86.512C23.471 74.976 31.962 61.781 31.962 61.781L69.174 61.9Z" fill="#48A069"/>
<path d="M70.133 61.9C70.133 61.9 81.613 136.688 82.033 140.384C82.033 140.384 72.737 144.794 58.653 147.097C44.569 149.4 17.654 139.908 17.654 139.908C17.654 139.908 26.915 89.291 26.915 88.997C26.915 88.703 23.716 75.06 31.969 61.76L70.133 61.9Z" fill="#00313A"/>
<path d="M63.84 98.216C62.377 102.787 60.928 107.379 59.57 111.985C58.212 116.591 56.854 121.085 55.832 125.726C55.251 128.358 54.796 131.004 54.327 133.657C54.3251 133.679 54.3311 133.7 54.3438 133.718C54.3566 133.736 54.3752 133.748 54.3964 133.753C54.4176 133.758 54.4399 133.756 54.4593 133.746C54.4787 133.736 54.4938 133.719 54.502 133.699C55.16 131.389 55.902 129.1 56.504 126.776C57.106 124.452 57.715 122.128 58.296 119.776C59.451 115.177 60.529 110.557 61.74 105.965C62.44 103.368 63.182 100.792 63.931 98.216C63.952 98.181 63.861 98.16 63.84 98.216Z" fill="#00313A"/>
<path d="M64.68 91.685C63.686 93.372 62.755 95.094 61.88 96.851C61.467 97.712 61.068 98.573 60.676 99.441C60.473 99.903 60.277 100.372 60.088 100.841C59.8844 101.252 59.7271 101.684 59.619 102.129C59.619 102.178 59.675 102.227 59.71 102.178C59.9487 101.829 60.1504 101.456 60.312 101.065C60.536 100.617 60.767 100.169 61.012 99.714C61.4367 98.832 61.8707 97.957 62.314 97.089C63.189 95.332 64.071 93.589 64.967 91.846C64.9883 91.8079 64.9937 91.763 64.9819 91.7209C64.9701 91.6789 64.942 91.6433 64.904 91.622C64.8659 91.6006 64.8209 91.5953 64.7789 91.6071C64.7369 91.6189 64.7013 91.6469 64.68 91.685Z" fill="#00313A"/>
<path d="M81.242 33.375C81.242 33.312 81.116 33.375 81.151 33.431C82.334 35.727 83.139 38.667 81.41 40.907C80.6751 41.8327 79.6946 42.533 78.5805 42.9279C77.4665 43.3228 76.2638 43.3963 75.11 43.14C73.6728 42.8516 72.3303 42.2092 71.204 41.271C71.113 41.201 70.987 41.327 71.078 41.404C73.08 43.098 75.866 44.141 78.484 43.378C79.6455 43.0662 80.6818 42.4019 81.4503 41.4768C82.2187 40.5517 82.6815 39.4111 82.775 38.212C82.88 36.462 81.998 34.887 81.242 33.375Z" fill="#00313A"/>
<path d="M62.769 27.509C67.06 41.25 74.893 56.335 79.618 58.12C84.665 60.031 104.223 57.42 111.013 55.705C113.232 55.145 106.519 39.605 104.286 38.569C102.053 37.533 86.639 41.733 85.183 41.369C84.406 41.173 75.026 29.959 68.341 23.33C62.37 17.408 61.369 23.015 62.769 27.509Z" fill="#48A069"/>
<path d="M109.34 56.083C111.643 55.663 122.024 52.814 124.74 51.379C127.456 49.944 134.96 45.233 134.071 43.042C133.182 40.851 130.872 42.055 130.872 42.055C130.872 42.055 133.728 39.563 132.629 37.442C131.53 35.321 128.002 37.309 128.002 37.309C128.002 37.309 130.746 34.509 129.5 32.5C128.254 30.491 125.041 33.053 125.041 33.053C125.041 33.053 127.673 30.638 125.937 29.392C123.837 27.887 119.511 32.892 116.396 34.257C115.696 34.565 101.612 39.514 101.612 39.514L109.34 56.083Z" fill="#48A069"/>
<path d="M125.3 32.836C122.094 36.511 120.064 37.561 115.465 38.933C115.374 38.933 115.395 39.101 115.465 39.08C120.085 38.142 122.829 37.19 125.461 32.983C125.636 32.78 125.475 32.661 125.3 32.836Z" fill="#00313A"/>
<path d="M128.254 37.015C124.593 40.515 122.395 41.691 117.684 43.483C117.672 43.4919 117.664 43.5041 117.659 43.5182C117.655 43.5322 117.655 43.5472 117.66 43.5612C117.664 43.5751 117.673 43.5872 117.685 43.5958C117.697 43.6044 117.711 43.609 117.726 43.609C122.486 42.209 125.202 41.222 128.401 37.225C128.541 37.043 128.415 36.854 128.254 37.015Z" fill="#00313A"/>
<path d="M130.627 42.139C126.84 45.289 124.481 46.668 119.693 47.823C119.674 47.8285 119.657 47.8399 119.645 47.8557C119.633 47.8715 119.627 47.8907 119.627 47.9105C119.627 47.9303 119.633 47.9495 119.645 47.9653C119.657 47.9811 119.674 47.9926 119.693 47.998C124.698 47.298 127.645 45.604 130.683 42.265C130.9 42.034 130.9 41.936 130.627 42.139Z" fill="#00313A"/>
<path d="M98.7 39.318C98.7 39.318 102.641 34.656 104.825 33.018C107.009 31.38 117.425 28.118 118.244 30.351C119.308 33.2 113.659 36.245 110.698 37.351C110.698 37.351 113.155 43.952 109.578 47.011C106.001 50.07 98.7 39.318 98.7 39.318Z" fill="#48A069"/>
<path d="M118.251 31.198C117.341 34.502 113.351 35.734 110.551 37.043C110.509 37.0604 110.473 37.0875 110.444 37.122C110.415 37.1566 110.395 37.1976 110.385 37.2415C110.376 37.2855 110.377 37.3311 110.389 37.3745C110.4 37.418 110.423 37.4579 110.453 37.491C111.3 40.326 111.671 44.575 109.753 47.018C109.74 47.032 109.733 47.0505 109.734 47.0695C109.734 47.0885 109.743 47.1065 109.756 47.1195C109.77 47.1325 109.789 47.1395 109.808 47.1388C109.827 47.1382 109.845 47.13 109.858 47.116C112.301 44.778 112.28 40.578 111.153 37.533C114.037 36.231 117.978 34.824 118.3 31.233L118.251 31.198Z" fill="#00313A"/>
<path d="M79.87 33.368L68.096 43.581C68.096 43.581 62.391 32.318 61.719 25.381C61.047 18.444 64.379 19.081 68.362 22.322C72.345 25.563 79.87 33.368 79.87 33.368Z" fill="white"/>
<path d="M77.266 32.185C77.343 32.115 77.413 32.143 77.343 32.185C74.2163 35.2345 70.9011 38.0844 67.417 40.718C67.417 40.718 67.368 40.718 67.417 40.676C68.831 39.101 76.433 32.934 77.266 32.185Z" fill="#00313A"/>
<path opacity="0.1" d="M75.887 36.826L68.096 43.581C68.096 43.581 62.391 32.318 61.719 25.381C61.53 23.414 61.656 22.056 62.034 21.181L75.887 36.826Z" fill="#00313A"/>
<path d="M70.532 51.106L70.133 61.9L31.948 61.76C31.948 61.76 40.558 29.847 51.94 21.384C57.638 17.149 63.14 18.584 65.94 22.833C66.64 23.911 74.389 37.316 74.487 42.923C74.599 47.851 70.532 51.106 70.532 51.106Z" fill="white"/>
<path d="M54.733 51.827C56.0648 51.4346 57.418 51.1191 58.786 50.882C59.486 50.77 60.186 50.693 60.886 50.637L61.873 50.567C62.237 50.567 62.573 50.567 62.972 50.567C63.007 50.567 63.021 50.623 62.972 50.63C62.629 50.63 62.272 50.749 61.95 50.805L60.928 50.966L58.877 51.288C57.477 51.484 56.14 51.701 54.775 51.988C54.677 51.953 54.663 51.841 54.733 51.827Z" fill="#00313A"/>
<path d="M55.16 21.866C55.258 22.566 58.184 27.466 61.418 27.641C62.475 27.69 63 22.5 63 22.5L62.5 15L62 11L59.27 9.88202L57.5 9C57.5 9 56.245 11 56.63 13.529C56.63 13.627 56.581 13.718 56.56 13.816C56.539 13.914 56.497 14.04 56.476 14.145C56.399 14.446 56.315 14.754 56.245 15.069C56.175 15.384 56.133 15.531 56.084 15.769L55.923 16.511C55.5466 18.2765 55.2916 20.0657 55.16 21.866Z" fill="#48A069"/>
<path d="M65.5 6.5C65.5987 10.3238 62.4459 10.9812 61.4851 10.9986C60.6143 11.0136 57.6506 10.9737 57.0933 7.17984C56.536 3.38602 58.5737 2.13805 60.5765 2.01075C62.5794 1.88346 65.4042 2.67872 65.5 6.5Z" fill="#48A069"/>
<path d="M48.496 24.667C40.096 35.552 31.927 54.438 32.816 59.863C34.069 67.563 54.971 81.045 61.089 84.006C63.385 85.119 70.329 65.071 67.893 63.853C64.015 61.914 50.274 53.353 50.078 51.827C49.952 50.889 53.536 37.939 55.391 29.427C57.883 18.052 51.352 20.957 48.496 24.667Z" fill="#48A069"/>
<path d="M92.001 73.436C91.634 74.4906 90.908 75.3826 89.95 75.956C90.579 76.8564 90.8737 77.9484 90.783 79.043C90.531 80.961 87.416 81.402 87.416 81.402C87.8739 82.4719 87.9984 83.6552 87.773 84.797C87.353 86.603 84.273 87.499 84.273 87.499C84.1557 88.7147 83.601 89.8465 82.712 90.684C80.262 92.826 75.488 91.384 72.45 90.488C69.412 89.592 61.6 84.23 60.018 83.355L65.541 63.811C65.541 63.811 80.304 63.923 83.741 65.477C86.618 66.8 92.834 70.958 92.001 73.436Z" fill="#48A069"/>
<path d="M89.929 75.9C87.192 73.8 83.951 72.302 80.829 70.923C80.8151 70.9165 80.7991 70.9158 80.7847 70.921C80.7703 70.9263 80.7585 70.937 80.752 70.951C80.7455 70.9649 80.7448 70.9808 80.75 70.9953C80.7553 71.0097 80.7661 71.0215 80.78 71.028C83.923 72.365 86.779 74.577 89.88 76.04C89.895 76.0377 89.9092 76.0313 89.9209 76.0216C89.9327 76.0118 89.9415 75.9991 89.9465 75.9847C89.9516 75.9703 89.9526 75.9548 89.9495 75.9399C89.9464 75.925 89.9393 75.9112 89.929 75.9Z" fill="#00313A"/>
<path d="M87.423 81.129C86.7555 80.7055 86.0353 80.3713 85.281 80.135C84.497 79.834 83.713 79.554 82.915 79.281C81.333 78.735 79.737 78.224 78.127 77.762C78.057 77.762 78.008 77.846 78.078 77.867C79.66 78.42 81.228 78.987 82.782 79.603C83.559 79.904 84.336 80.219 85.106 80.541C85.8175 80.8853 86.5637 81.1529 87.332 81.339C87.3576 81.3424 87.3837 81.3373 87.4062 81.3246C87.4287 81.3118 87.4464 81.2921 87.4567 81.2683C87.467 81.2446 87.4693 81.2182 87.4632 81.193C87.4571 81.1679 87.443 81.1454 87.423 81.129Z" fill="#00313A"/>
<path d="M84.203 87.478C83.594 87.1005 82.9235 86.8328 82.222 86.687L80.045 85.987C78.596 85.504 77.147 85.021 75.719 84.482C75.649 84.482 75.6 84.566 75.67 84.594C77.126 85.14 78.568 85.714 80.024 86.253L82.173 87.03C82.8053 87.3265 83.4858 87.5067 84.182 87.562C84.1931 87.5648 84.2049 87.563 84.2148 87.5571C84.2246 87.5512 84.2317 87.5416 84.2345 87.5305C84.2373 87.5193 84.2355 87.5076 84.2296 87.4977C84.2237 87.4879 84.2141 87.4808 84.203 87.478Z" fill="#00313A"/>
<path d="M53.2 42.139L38.255 37.722C38.255 37.722 44.667 26.844 50.155 22.546C55.643 18.248 56.875 21.405 56.322 26.494C55.769 31.583 53.2 42.139 53.2 42.139Z" fill="white"/>
<path d="M52.822 39.311C52.92 39.311 52.927 39.409 52.822 39.388C48.5716 38.3955 44.3869 37.1401 40.292 35.629V35.573C42.448 35.93 51.737 39.01 52.822 39.311Z" fill="#00313A"/>
<path d="M55.811 30.449C55.062 34.39 54.152 38.513 53.305 42.349C53.305 42.419 52.682 42.118 52.43 42.02C52.332 41.978 52.43 41.887 52.493 41.915C52.678 41.9705 52.8678 42.008 53.06 42.027C53.921 38.156 54.789 34.285 55.769 30.442C55.776 30.4 55.818 30.4 55.811 30.449Z" fill="#00313A"/>
<path d="M244.722 16.4565L95.4884 33.8819L103.881 105.76L253.115 88.3342L244.722 16.4565Z" fill="#48A069"/>
<path opacity="0.1" d="M244.722 16.4565L95.4884 33.8819L103.881 105.76L253.115 88.3342L244.722 16.4565Z" fill="#00313A"/>
<path opacity="0.1" d="M244.727 16.4L240.212 16.932L100.023 33.347L95.494 33.872L96.026 38.394L103.369 101.226L103.901 105.755L108.416 105.223L248.612 88.836L253.127 88.311L244.741 16.4H244.727ZM248.087 84.3L107.891 100.694L100.555 37.862L240.737 21.489L248.087 84.3Z" fill="#00313A"/>
<path opacity="0.1" d="M177.257 86.3623C188.8 85.0145 196.882 73.0082 195.31 59.5455C193.738 46.0828 183.107 36.2617 171.564 37.6095C160.021 38.9573 151.938 50.9636 153.51 64.4263C155.082 77.889 165.714 87.7101 177.257 86.3623Z" fill="#00313A"/>
<path opacity="0.1" d="M139.447 64.455C139.577 65.562 139.375 66.6825 138.868 67.6749C138.36 68.6672 137.57 69.4869 136.597 70.0302C135.624 70.5734 134.511 70.8159 133.4 70.7269C132.289 70.6379 131.23 70.2215 130.355 69.5303C129.481 68.8391 128.831 67.9041 128.489 66.8437C128.146 65.7832 128.125 64.6449 128.429 63.5726C128.733 62.5004 129.348 61.5424 130.197 60.8198C131.045 60.0972 132.089 59.6424 133.196 59.513C134.68 59.3395 136.173 59.7627 137.345 60.6895C138.517 61.6163 139.273 62.9708 139.447 64.455Z" fill="#00313A"/>
<path opacity="0.1" d="M220.22 55.019C220.348 56.1256 220.145 57.2452 219.637 58.2365C219.129 59.2278 218.338 60.0463 217.365 60.5885C216.392 61.1307 215.28 61.3724 214.17 61.283C213.06 61.1936 212.001 60.777 211.127 60.0861C210.253 59.3951 209.604 58.4607 209.261 57.4008C208.918 56.341 208.897 55.2033 209.2 54.1315C209.504 53.0596 210.118 52.1018 210.965 51.3789C211.813 50.656 212.856 50.2005 213.962 50.07C215.448 49.8965 216.942 50.3205 218.116 51.2486C219.289 52.1766 220.046 53.5329 220.22 55.019Z" fill="#00313A"/>
<path opacity="0.1" d="M117.894 99.532L107.891 100.694L106.722 90.705C108.035 90.5507 109.366 90.6567 110.638 91.0169C111.91 91.377 113.099 91.9843 114.137 92.804C115.174 93.6238 116.04 94.6398 116.685 95.7942C117.329 96.9486 117.74 98.2187 117.894 99.532Z" fill="#00313A"/>
<path opacity="0.1" d="M246.911 74.318L248.08 84.3L238.091 85.469C237.785 82.8213 238.542 80.1605 240.196 78.0701C241.849 75.9797 244.264 74.6303 246.911 74.318Z" fill="#00313A"/>
<path opacity="0.1" d="M230.741 22.651L240.737 21.482L241.906 31.471C240.594 31.6252 239.264 31.5194 237.993 31.1596C236.721 30.7998 235.533 30.1931 234.496 29.374C233.459 28.5549 232.594 27.5396 231.95 26.3861C231.305 25.2325 230.895 23.9633 230.741 22.651Z" fill="#00313A"/>
<path opacity="0.1" d="M101.717 47.858L100.548 37.855L110.537 36.7C110.845 39.3488 110.089 42.0114 108.435 44.1034C106.781 46.1954 104.365 47.5457 101.717 47.858Z" fill="#00313A"/>
<path d="M172.508 43.539C172.775 43.5093 173.043 43.586 173.254 43.7523C173.465 43.9187 173.602 44.1614 173.635 44.428L173.831 46.108C176.588 45.9972 179.314 46.7166 181.657 48.173C181.84 48.2522 182.001 48.3765 182.123 48.5344C182.246 48.6923 182.326 48.8786 182.357 49.076C182.384 49.3599 182.298 49.6432 182.117 49.8636C181.936 50.084 181.675 50.2237 181.391 50.252C181.252 50.2735 181.111 50.2666 180.975 50.2317C180.839 50.1968 180.711 50.1347 180.6 50.049C178.634 48.7479 176.329 48.0541 173.971 48.054L175.371 59.821C181.916 60.416 184.884 62.502 185.367 66.618C185.885 71.077 182.518 74.668 177.282 75.445L177.66 78.728C177.683 78.9913 177.602 79.253 177.434 79.4575C177.267 79.6621 177.027 79.7934 176.764 79.8234C176.502 79.8535 176.238 79.78 176.029 79.6186C175.819 79.4572 175.681 79.2206 175.644 78.959L175.259 75.641C171.708 75.7901 168.21 74.7424 165.326 72.666C165.172 72.584 165.04 72.4661 164.941 72.3224C164.843 72.1786 164.78 72.0131 164.759 71.84C164.738 71.5629 164.822 71.288 164.995 71.0701C165.167 70.8522 165.415 70.7072 165.69 70.664C165.971 70.6281 166.255 70.7034 166.481 70.874C168.947 72.7898 171.997 73.8005 175.119 73.737L173.719 61.76C167.251 61.109 164.381 59.1 163.884 54.9C163.387 50.7 166.684 46.983 171.822 46.262L171.64 44.659C171.612 44.3963 171.687 44.133 171.848 43.9242C172.01 43.7153 172.247 43.5773 172.508 43.539ZM173.446 59.639L172.109 48.159C168.042 48.726 165.634 51.477 165.991 54.501C166.327 57.336 167.874 58.946 173.446 59.618V59.639ZM175.602 61.984L176.953 73.583C181.153 73.009 183.596 70.251 183.218 67.059C182.882 64.14 181.202 62.544 175.602 61.963V61.984Z" fill="#48A069"/>
<path d="M293.111 135.358H237.657V163.498H293.111V135.358Z" fill="#48A069"/>
<path d="M286.756 150.864C287.551 147.481 285.453 144.093 282.07 143.298C278.687 142.503 275.299 144.601 274.504 147.984C273.708 151.367 275.806 154.755 279.19 155.55C282.573 156.345 285.96 154.248 286.756 150.864Z" fill="#F4F5F8"/>
<path d="M280.637 152.872C282.539 152.872 284.081 151.33 284.081 149.428C284.081 147.526 282.539 145.984 280.637 145.984C278.735 145.984 277.193 147.526 277.193 149.428C277.193 151.33 278.735 152.872 280.637 152.872Z" fill="#92949C"/>
<path d="M259.588 85.651H91.742V210.972H259.588V85.651Z" fill="#48A069"/>
<path opacity="0.1" d="M259.588 85.651H91.742V210.972H259.588V85.651Z" fill="#00313A"/>
<path d="M229.411 22.385L246.155 98.055C246.601 100.084 246.225 102.207 245.108 103.959C243.992 105.711 242.226 106.948 240.198 107.4L120.176 134C119.17 134.223 118.13 134.245 117.116 134.065C116.102 133.886 115.133 133.508 114.265 132.953C113.397 132.398 112.647 131.678 112.058 130.833C111.468 129.988 111.052 129.035 110.831 128.029L94.08 52.331C93.6631 50.4411 94.0136 48.4631 95.0545 46.8315C96.0954 45.2 97.7415 44.0484 99.631 43.63L220.731 16.834C222.618 16.4253 224.589 16.7796 226.216 17.8196C227.842 18.8597 228.991 20.5009 229.411 22.385Z" fill="#00313A"/>
<path d="M224.287 91.713C224.594 93.1052 224.481 94.557 223.962 95.885C223.444 97.213 222.544 98.3575 221.375 99.174C220.207 99.9905 218.823 100.442 217.397 100.472C215.972 100.502 214.57 100.109 213.368 99.3424C212.166 98.5757 211.219 97.47 210.645 96.1649C210.072 94.8599 209.898 93.4141 210.146 92.0103C210.393 90.6065 211.052 89.3076 212.038 88.2779C213.023 87.2482 214.292 86.5338 215.684 86.225C217.553 85.8123 219.509 86.1586 221.122 87.1877C222.735 88.2169 223.874 89.8446 224.287 91.713Z" fill="#92949C"/>
<path d="M232.96 89.788C233.267 91.1801 233.154 92.632 232.635 93.9599C232.117 95.2879 231.217 96.4325 230.048 97.249C228.88 98.0655 227.496 98.5172 226.07 98.5472C224.645 98.5772 223.243 98.184 222.041 97.4173C220.839 96.6507 219.892 95.5449 219.318 94.2399C218.745 92.9349 218.571 91.4891 218.819 90.0853C219.066 88.6815 219.725 87.3826 220.711 86.3529C221.696 85.3232 222.965 84.6088 224.357 84.3C226.226 83.8873 228.182 84.2336 229.795 85.2627C231.408 86.2919 232.547 87.9196 232.96 89.788Z" fill="#48A069"/>
<path d="M129.287 50.6913L109.624 55.0434C108.039 55.3942 107.038 56.9639 107.389 58.5492L110.004 70.3662C110.355 71.9516 111.925 72.9523 113.51 72.6014L133.173 68.2494C134.759 67.8985 135.759 66.3289 135.409 64.7436L132.793 52.9265C132.442 51.3412 130.873 50.3405 129.287 50.6913Z" fill="#48A069"/>
<path d="M217.189 41.348L205.702 43.889C205.069 44.0332 204.414 44.0502 203.775 43.9392C203.136 43.8281 202.525 43.5912 201.978 43.2421C201.431 42.8931 200.958 42.4389 200.588 41.9058C200.218 41.3728 199.958 40.7715 199.822 40.137C199.678 39.5048 199.66 38.8503 199.771 38.2113C199.882 37.5724 200.118 36.9617 200.466 36.4148C200.815 35.8678 201.268 35.3955 201.8 35.0251C202.333 34.6547 202.933 34.3936 203.567 34.257L215.061 31.716C215.694 31.5719 216.349 31.5548 216.988 31.6658C217.627 31.7769 218.238 32.0138 218.785 32.3629C219.332 32.7119 219.805 33.1662 220.175 33.6992C220.545 34.2322 220.805 34.8335 220.941 35.468C221.222 36.7452 220.985 38.0819 220.282 39.1844C219.578 40.287 218.466 41.0651 217.189 41.348Z" fill="#F4F5F8"/>
<path d="M182.709 94.2802L118.443 108.504L119.142 111.662L183.408 97.4378L182.709 94.2802Z" fill="#92949C"/>
<path d="M165.491 105.444L119.993 115.514L120.692 118.672L166.19 108.602L165.491 105.444Z" fill="#92949C"/>
<path d="M194.335 36.2917L162.288 43.3847L162.987 46.5423L195.034 39.4493L194.335 36.2917Z" fill="#92949C"/>
<path d="M248.927 101.079H102.403V143.968H248.927V101.079Z" fill="#48A069"/>
<path opacity="0.3" d="M248.927 101.079H102.403V143.968H248.927V101.079Z" fill="#00313A"/>
<path d="M244.867 100.008L245.07 177.512C245.074 179.591 244.253 181.587 242.787 183.062C241.321 184.537 239.33 185.371 237.251 185.38L114.324 185.695C113.294 185.698 112.274 185.497 111.322 185.105C110.369 184.713 109.504 184.138 108.774 183.411C108.045 182.684 107.466 181.82 107.07 180.869C106.675 179.918 106.471 178.899 106.47 177.869L106.267 100.4C106.264 99.4415 106.45 98.4919 106.815 97.6055C107.179 96.719 107.715 95.9131 108.391 95.2337C109.067 94.5544 109.87 94.0149 110.755 93.6462C111.64 93.2775 112.589 93.0868 113.547 93.085L237.545 92.7C238.506 92.6972 239.458 92.8843 240.347 93.2504C241.236 93.6165 242.043 94.1544 242.724 94.8334C243.404 95.5124 243.943 96.319 244.311 97.207C244.679 98.095 244.868 99.0468 244.867 100.008Z" fill="#92949C"/>
<path d="M225.064 166.641C225.068 168.068 224.649 169.465 223.859 170.654C223.07 171.843 221.945 172.772 220.628 173.322C219.311 173.872 217.86 174.019 216.46 173.744C215.059 173.47 213.771 172.786 212.759 171.78C211.746 170.774 211.055 169.49 210.773 168.091C210.49 166.691 210.629 165.24 211.171 163.92C211.714 162.599 212.635 161.469 213.82 160.673C215.005 159.876 216.399 159.449 217.826 159.445C218.774 159.442 219.713 159.626 220.589 159.986C221.466 160.346 222.263 160.876 222.935 161.544C223.607 162.212 224.141 163.006 224.507 163.881C224.872 164.755 225.061 165.693 225.064 166.641Z" fill="#92949C"/>
<path d="M233.947 166.613C233.951 168.04 233.532 169.437 232.742 170.626C231.953 171.815 230.828 172.743 229.511 173.294C228.194 173.844 226.743 173.991 225.343 173.716C223.942 173.442 222.654 172.758 221.642 171.752C220.629 170.746 219.938 169.462 219.656 168.063C219.373 166.663 219.512 165.212 220.054 163.892C220.597 162.571 221.519 161.441 222.703 160.645C223.888 159.848 225.282 159.421 226.709 159.417C228.623 159.413 230.459 160.169 231.816 161.518C233.173 162.867 233.94 164.699 233.947 166.613Z" fill="#48A069"/>
<path d="M141.009 106.285L120.87 106.338C119.246 106.342 117.933 107.662 117.938 109.285L117.969 121.388C117.973 123.012 119.293 124.325 120.917 124.321L141.056 124.268C142.68 124.264 143.992 122.944 143.988 121.32L143.956 109.217C143.952 107.593 142.632 106.281 141.009 106.285Z" fill="#48A069"/>
<path d="M228.9 115.919L217.126 115.954C216.479 115.96 215.837 115.837 215.238 115.593C214.639 115.349 214.093 114.989 213.634 114.534C213.175 114.078 212.81 113.536 212.561 112.939C212.312 112.342 212.184 111.701 212.184 111.054C212.178 110.407 212.301 109.765 212.545 109.166C212.789 108.567 213.149 108.021 213.604 107.562C214.06 107.103 214.602 106.738 215.199 106.489C215.796 106.24 216.437 106.112 217.084 106.112L228.858 106.077C229.505 106.071 230.147 106.194 230.746 106.438C231.345 106.682 231.891 107.042 232.35 107.497C232.809 107.953 233.174 108.495 233.423 109.092C233.672 109.689 233.8 110.33 233.8 110.977C233.806 111.624 233.683 112.266 233.439 112.865C233.195 113.464 232.835 114.01 232.38 114.469C231.924 114.928 231.382 115.293 230.785 115.542C230.188 115.791 229.547 115.919 228.9 115.919Z" fill="#F4F5F8"/>
<path d="M117.061 140.72L115.997 141.35C115.959 141.374 115.916 141.389 115.871 141.392C115.825 141.394 115.779 141.383 115.738 141.361C115.698 141.338 115.664 141.306 115.64 141.266C115.622 141.236 115.61 141.203 115.605 141.169C115.6 141.135 115.602 141.1 115.611 141.066C115.62 141.033 115.636 141.001 115.658 140.974C115.68 140.947 115.707 140.925 115.738 140.909L117.194 140.02C117.254 139.989 117.323 139.982 117.388 140C117.453 140.018 117.509 140.06 117.544 140.118C117.58 140.177 117.592 140.247 117.579 140.314V147.244C117.579 147.278 117.572 147.312 117.559 147.343C117.546 147.375 117.527 147.403 117.503 147.427C117.479 147.451 117.451 147.47 117.419 147.483C117.388 147.496 117.354 147.503 117.32 147.503C117.252 147.501 117.187 147.473 117.139 147.425C117.091 147.377 117.063 147.312 117.061 147.244V140.72Z" fill="#F4F5F8"/>
<path d="M119.448 147.034L122.948 143.842C123.329 143.495 123.556 143.011 123.579 142.496C123.603 141.981 123.421 141.479 123.074 141.098C122.727 140.717 122.243 140.49 121.728 140.467C121.213 140.443 120.711 140.625 120.33 140.972L119.966 141.308C119.942 141.334 119.914 141.354 119.882 141.368C119.85 141.382 119.815 141.389 119.78 141.389C119.746 141.389 119.711 141.382 119.679 141.368C119.647 141.354 119.619 141.334 119.595 141.308C119.57 141.285 119.549 141.257 119.535 141.226C119.521 141.194 119.514 141.16 119.514 141.126C119.514 141.092 119.521 141.058 119.535 141.026C119.549 140.995 119.57 140.967 119.595 140.944L119.959 140.601C120.416 140.189 121.009 139.96 121.625 139.957C121.967 139.955 122.306 140.025 122.618 140.164C122.931 140.303 123.21 140.507 123.438 140.762C123.86 141.208 124.093 141.8 124.089 142.414C124.091 142.758 124.021 143.099 123.883 143.415C123.746 143.731 123.544 144.015 123.291 144.248L120.274 146.978H123.9C123.935 146.979 123.969 146.987 124.001 147.001C124.033 147.015 124.062 147.035 124.086 147.061C124.11 147.086 124.129 147.116 124.141 147.149C124.154 147.181 124.16 147.216 124.159 147.251C124.157 147.319 124.129 147.384 124.081 147.432C124.033 147.48 123.968 147.508 123.9 147.51H119.658C119.622 147.513 119.585 147.508 119.551 147.494C119.517 147.481 119.487 147.46 119.462 147.433C119.435 147.408 119.412 147.378 119.397 147.344C119.381 147.31 119.373 147.274 119.371 147.236C119.37 147.199 119.376 147.162 119.389 147.128C119.402 147.093 119.422 147.061 119.448 147.034Z" fill="#F4F5F8"/>
<path d="M130.361 140.398L128.415 142.4C128.994 142.513 129.515 142.824 129.888 143.281C130.261 143.737 130.463 144.309 130.459 144.899C130.461 145.236 130.396 145.57 130.267 145.881C130.138 146.192 129.949 146.475 129.71 146.712C129.23 147.194 128.578 147.466 127.897 147.468C127.562 147.469 127.231 147.403 126.922 147.274C126.613 147.146 126.333 146.957 126.098 146.719C126.071 146.695 126.05 146.666 126.035 146.634C126.02 146.601 126.013 146.566 126.013 146.53C126.013 146.494 126.02 146.459 126.035 146.426C126.05 146.394 126.071 146.365 126.098 146.341C126.123 146.316 126.152 146.296 126.185 146.283C126.217 146.269 126.252 146.262 126.287 146.262C126.322 146.262 126.357 146.269 126.389 146.283C126.422 146.296 126.451 146.316 126.476 146.341C126.85 146.708 127.352 146.916 127.876 146.922C128.4 146.907 128.899 146.698 129.276 146.334C129.464 146.146 129.613 145.922 129.714 145.676C129.815 145.429 129.866 145.165 129.864 144.899C129.86 144.365 129.646 143.854 129.267 143.478C128.888 143.101 128.375 142.89 127.841 142.89C127.799 142.888 127.758 142.876 127.721 142.857C127.683 142.838 127.65 142.811 127.624 142.778C127.598 142.753 127.577 142.723 127.563 142.69C127.549 142.657 127.542 142.622 127.542 142.586C127.542 142.55 127.549 142.514 127.563 142.481C127.577 142.448 127.598 142.418 127.624 142.393L129.493 140.454H126.602C126.538 140.444 126.48 140.411 126.438 140.361C126.396 140.312 126.373 140.249 126.373 140.184C126.373 140.12 126.396 140.057 126.438 140.008C126.48 139.958 126.538 139.925 126.602 139.915H130.102C130.173 139.915 130.24 139.943 130.29 139.993C130.34 140.043 130.368 140.11 130.368 140.181C130.38 140.22 130.38 140.261 130.368 140.3C130.371 140.333 130.369 140.366 130.361 140.398Z" fill="#F4F5F8"/>
<path d="M136.71 145.9H132.622C132.563 145.903 132.505 145.883 132.461 145.844C132.433 145.824 132.41 145.798 132.393 145.767C132.376 145.737 132.365 145.704 132.362 145.67C132.359 145.635 132.363 145.601 132.374 145.568C132.385 145.535 132.403 145.505 132.426 145.48L136.78 140.034C136.801 140.007 136.827 139.985 136.857 139.968C136.887 139.952 136.92 139.942 136.954 139.938C136.989 139.935 137.023 139.939 137.055 139.949C137.088 139.96 137.118 139.977 137.144 139.999C137.185 140.035 137.216 140.081 137.235 140.132C137.235 140.132 137.235 140.132 137.235 140.174V140.209V145.382H137.746C137.815 145.382 137.881 145.409 137.929 145.458C137.978 145.506 138.005 145.572 138.005 145.641C138.005 145.71 137.978 145.776 137.929 145.824C137.881 145.873 137.815 145.9 137.746 145.9H137.235V147.195C137.225 147.257 137.193 147.314 137.145 147.355C137.097 147.396 137.036 147.418 136.973 147.418C136.909 147.418 136.848 147.396 136.8 147.355C136.752 147.314 136.72 147.257 136.71 147.195V145.9ZM136.71 145.382V140.965L133.154 145.389L136.71 145.382Z" fill="#F4F5F8"/>
<path d="M153.342 141.511C153.596 141.027 153.974 140.619 154.438 140.33C154.902 140.041 155.435 139.881 155.981 139.866C156.049 139.864 156.116 139.888 156.166 139.934C156.217 139.98 156.249 140.043 156.254 140.111C156.254 140.183 156.228 140.252 156.18 140.305C156.132 140.358 156.066 140.391 155.995 140.398C155.536 140.411 155.09 140.548 154.703 140.795C154.316 141.041 154.003 141.388 153.797 141.798C153.537 142.269 153.357 142.78 153.265 143.31C153.647 142.879 154.168 142.595 154.738 142.506C155.307 142.417 155.89 142.53 156.385 142.824C156.88 143.119 157.258 143.577 157.452 144.12C157.646 144.662 157.645 145.255 157.449 145.797C157.253 146.339 156.874 146.796 156.378 147.089C155.881 147.382 155.298 147.492 154.729 147.402C154.16 147.311 153.64 147.025 153.259 146.592C152.878 146.16 152.66 145.608 152.642 145.032C152.631 144.869 152.631 144.705 152.642 144.542C152.616 143.489 152.857 142.446 153.342 141.511ZM153.167 144.962C153.163 145.009 153.163 145.055 153.167 145.102C153.171 145.128 153.171 145.154 153.167 145.179C153.201 145.694 153.433 146.176 153.815 146.522C154.198 146.869 154.7 147.053 155.216 147.036C155.731 147.02 156.22 146.803 156.579 146.432C156.938 146.061 157.139 145.566 157.139 145.05C157.139 144.533 156.938 144.038 156.579 143.667C156.22 143.296 155.731 143.079 155.216 143.063C154.7 143.046 154.198 143.23 153.815 143.577C153.433 143.923 153.201 144.405 153.167 144.92V144.962Z" fill="#F4F5F8"/>
<path d="M160.384 147.027L163.184 140.398H159.544C159.476 140.396 159.411 140.368 159.363 140.32C159.315 140.272 159.287 140.207 159.285 140.139C159.285 140.071 159.311 140.007 159.358 139.958C159.405 139.91 159.47 139.882 159.537 139.88H163.527C163.579 139.862 163.636 139.862 163.688 139.88C163.755 139.913 163.808 139.971 163.835 140.041C163.838 140.071 163.838 140.102 163.835 140.132C163.835 140.182 163.82 140.231 163.793 140.272L160.888 147.223C160.868 147.27 160.835 147.31 160.793 147.338C160.75 147.367 160.701 147.383 160.65 147.384C160.616 147.394 160.579 147.394 160.545 147.384C160.478 147.356 160.424 147.304 160.394 147.237C160.364 147.171 160.361 147.096 160.384 147.027Z" fill="#F4F5F8"/>
<path d="M167.818 139.824C168.235 139.822 168.635 139.985 168.931 140.278C169.228 140.57 169.396 140.968 169.4 141.385C169.398 141.633 169.339 141.877 169.228 142.098C169.116 142.319 168.954 142.511 168.756 142.659C169.279 142.875 169.711 143.265 169.978 143.763C170.245 144.262 170.331 144.837 170.221 145.392C170.112 145.947 169.813 146.446 169.376 146.805C168.939 147.164 168.391 147.361 167.825 147.361C167.259 147.361 166.711 147.164 166.274 146.805C165.837 146.446 165.538 145.947 165.429 145.392C165.319 144.837 165.405 144.262 165.672 143.763C165.939 143.265 166.371 142.875 166.894 142.659C166.698 142.51 166.539 142.317 166.429 142.096C166.32 141.875 166.263 141.632 166.264 141.385C166.263 141.18 166.303 140.977 166.38 140.788C166.458 140.599 166.572 140.427 166.717 140.282C166.861 140.137 167.033 140.021 167.222 139.943C167.411 139.864 167.613 139.824 167.818 139.824ZM167.818 146.824C168.2 146.824 168.574 146.71 168.892 146.498C169.21 146.285 169.458 145.983 169.604 145.63C169.75 145.276 169.787 144.887 169.712 144.512C169.637 144.138 169.453 143.793 169.182 143.523C168.911 143.253 168.566 143.07 168.191 142.996C167.815 142.922 167.427 142.962 167.074 143.109C166.721 143.256 166.42 143.505 166.208 143.824C165.997 144.142 165.885 144.517 165.886 144.899C165.881 145.157 165.929 145.413 166.025 145.652C166.121 145.891 166.265 146.108 166.447 146.291C166.63 146.473 166.847 146.617 167.086 146.713C167.325 146.809 167.581 146.857 167.839 146.852L167.818 146.824ZM167.818 142.428C168.099 142.423 168.367 142.307 168.564 142.107C168.762 141.907 168.873 141.638 168.875 141.357C168.871 141.151 168.806 140.95 168.688 140.78C168.571 140.61 168.406 140.479 168.214 140.403C168.022 140.326 167.812 140.308 167.61 140.35C167.408 140.393 167.223 140.494 167.078 140.64C166.933 140.787 166.834 140.974 166.795 141.176C166.755 141.379 166.776 141.589 166.855 141.78C166.934 141.97 167.068 142.134 167.239 142.249C167.41 142.364 167.612 142.427 167.818 142.428Z" fill="#F4F5F8"/>
<path d="M181.237 139.789C181.848 139.785 182.439 140.006 182.898 140.41C183.356 140.814 183.65 141.373 183.722 141.98C183.718 141.998 183.718 142.018 183.722 142.036C183.722 142.237 183.722 142.454 183.722 142.687C183.746 143.733 183.505 144.769 183.022 145.697C182.764 146.178 182.385 146.583 181.922 146.871C181.459 147.16 180.928 147.322 180.383 147.342C180.348 147.344 180.314 147.339 180.281 147.327C180.249 147.315 180.219 147.297 180.193 147.274C180.168 147.25 180.147 147.222 180.133 147.19C180.119 147.159 180.111 147.125 180.11 147.09C180.11 147.019 180.136 146.951 180.184 146.899C180.233 146.847 180.298 146.815 180.369 146.81C180.827 146.795 181.273 146.658 181.66 146.411C182.047 146.165 182.36 145.819 182.567 145.41C182.831 144.941 183.011 144.429 183.099 143.898C182.866 144.163 182.578 144.375 182.255 144.518C181.933 144.662 181.583 144.735 181.23 144.731C180.571 144.731 179.939 144.469 179.473 144.003C179.007 143.537 178.745 142.905 178.745 142.246C178.745 141.587 179.007 140.955 179.473 140.489C179.939 140.023 180.571 139.761 181.23 139.761L181.237 139.789ZM183.218 142.267C183.219 141.876 183.105 141.494 182.889 141.168C182.673 140.843 182.365 140.589 182.004 140.438C181.644 140.288 181.247 140.248 180.863 140.323C180.48 140.398 180.127 140.586 179.851 140.862C179.574 141.137 179.385 141.489 179.308 141.872C179.232 142.255 179.27 142.653 179.42 143.014C179.569 143.375 179.822 143.684 180.147 143.901C180.471 144.118 180.853 144.234 181.244 144.234C181.503 144.236 181.76 144.186 182 144.088C182.24 143.99 182.458 143.845 182.641 143.662C182.825 143.479 182.971 143.262 183.069 143.022C183.168 142.783 183.219 142.526 183.218 142.267Z" fill="#F4F5F8"/>
<path d="M185.661 143.555C185.634 142.624 185.877 141.705 186.361 140.909C186.544 140.568 186.816 140.283 187.149 140.085C187.481 139.886 187.861 139.782 188.247 139.782C188.634 139.782 189.014 139.886 189.346 140.085C189.679 140.283 189.951 140.568 190.134 140.909C190.614 141.704 190.868 142.615 190.868 143.544C190.868 144.474 190.614 145.385 190.134 146.18C189.961 146.533 189.693 146.831 189.359 147.039C189.026 147.247 188.641 147.357 188.247 147.357C187.854 147.357 187.469 147.247 187.136 147.039C186.802 146.831 186.534 146.533 186.361 146.18C185.877 145.392 185.634 144.479 185.661 143.555ZM186.193 143.555C186.176 144.379 186.397 145.191 186.83 145.893C186.961 146.166 187.166 146.396 187.421 146.557C187.677 146.718 187.973 146.803 188.275 146.803C188.578 146.803 188.874 146.718 189.13 146.557C189.385 146.396 189.59 146.166 189.721 145.893C190.147 145.188 190.372 144.379 190.372 143.555C190.372 142.731 190.147 141.922 189.721 141.217C189.59 140.946 189.385 140.718 189.13 140.558C188.875 140.399 188.58 140.314 188.279 140.314C187.978 140.314 187.683 140.399 187.428 140.558C187.173 140.718 186.968 140.946 186.837 141.217C186.401 141.915 186.179 142.725 186.2 143.548L186.193 143.555Z" fill="#F4F5F8"/>
<path d="M194.369 140.524L193.305 141.147C193.268 141.173 193.224 141.19 193.179 141.196C193.132 141.196 193.086 141.184 193.046 141.161C193.005 141.137 192.971 141.104 192.948 141.063C192.929 141.034 192.916 141.001 192.91 140.966C192.904 140.931 192.906 140.896 192.916 140.862C192.925 140.828 192.941 140.797 192.964 140.77C192.986 140.743 193.014 140.721 193.046 140.706L194.495 139.817C194.556 139.785 194.627 139.778 194.693 139.796C194.759 139.814 194.816 139.857 194.852 139.915C194.887 139.974 194.9 140.044 194.887 140.111V147.041C194.887 147.11 194.86 147.176 194.811 147.224C194.763 147.273 194.697 147.3 194.628 147.3C194.559 147.3 194.493 147.273 194.445 147.224C194.396 147.176 194.369 147.11 194.369 147.041V140.524Z" fill="#F4F5F8"/>
<path d="M196.756 146.831L200.256 143.646C200.546 143.383 200.749 143.038 200.839 142.658C200.929 142.277 200.902 141.878 200.761 141.513C200.62 141.148 200.372 140.834 200.05 140.613C199.727 140.391 199.345 140.272 198.954 140.272C198.469 140.272 198.001 140.448 197.638 140.769L197.274 141.105C197.25 141.131 197.222 141.151 197.19 141.165C197.158 141.179 197.123 141.186 197.088 141.186C197.054 141.186 197.019 141.179 196.987 141.165C196.955 141.151 196.927 141.131 196.903 141.105C196.878 141.082 196.857 141.054 196.843 141.023C196.829 140.991 196.822 140.957 196.822 140.923C196.822 140.889 196.829 140.855 196.843 140.823C196.857 140.792 196.878 140.764 196.903 140.741L197.267 140.391C197.726 139.983 198.319 139.756 198.933 139.754C199.584 139.756 200.207 140.014 200.668 140.473C201.13 140.931 201.391 141.554 201.397 142.204C201.399 142.548 201.329 142.889 201.191 143.205C201.054 143.521 200.852 143.805 200.599 144.038L197.582 146.775H201.152C201.187 146.776 201.221 146.784 201.253 146.798C201.285 146.812 201.314 146.832 201.338 146.858C201.362 146.883 201.381 146.913 201.393 146.946C201.406 146.978 201.412 147.013 201.411 147.048C201.409 147.116 201.381 147.181 201.333 147.229C201.285 147.277 201.22 147.305 201.152 147.307H196.91C196.874 147.31 196.837 147.305 196.803 147.291C196.769 147.278 196.739 147.257 196.714 147.23C196.667 147.171 196.646 147.097 196.654 147.022C196.662 146.947 196.698 146.879 196.756 146.831Z" fill="#F4F5F8"/>
<path d="M214.13 140.181L212.184 142.19C212.764 142.3 213.287 142.611 213.66 143.068C214.034 143.525 214.235 144.099 214.228 144.689C214.231 145.026 214.166 145.36 214.038 145.672C213.909 145.983 213.719 146.265 213.479 146.502C213.243 146.741 212.961 146.93 212.651 147.06C212.341 147.189 212.009 147.256 211.673 147.256C211.337 147.256 211.005 147.189 210.695 147.06C210.385 146.93 210.103 146.741 209.867 146.502C209.842 146.477 209.822 146.448 209.809 146.415C209.795 146.383 209.788 146.348 209.788 146.313C209.788 146.278 209.795 146.243 209.809 146.211C209.822 146.178 209.842 146.149 209.867 146.124C209.891 146.098 209.92 146.078 209.953 146.063C209.986 146.049 210.021 146.042 210.056 146.042C210.091 146.042 210.126 146.049 210.159 146.063C210.192 146.078 210.221 146.098 210.245 146.124C210.619 146.49 211.121 146.696 211.645 146.698C212.169 146.69 212.669 146.482 213.045 146.117C213.322 145.835 213.511 145.477 213.587 145.089C213.664 144.701 213.626 144.299 213.477 143.932C213.328 143.566 213.076 143.25 212.75 143.025C212.425 142.801 212.041 142.676 211.645 142.666C211.603 142.668 211.561 142.659 211.523 142.641C211.485 142.623 211.453 142.595 211.428 142.561C211.377 142.51 211.349 142.441 211.349 142.368C211.349 142.296 211.377 142.227 211.428 142.176L213.297 140.237H210.413C210.377 140.238 210.342 140.232 210.309 140.219C210.276 140.206 210.246 140.186 210.22 140.162C210.195 140.137 210.175 140.107 210.161 140.074C210.147 140.042 210.14 140.007 210.14 139.971C210.139 139.935 210.145 139.9 210.158 139.867C210.171 139.834 210.191 139.804 210.215 139.778C210.24 139.753 210.27 139.733 210.303 139.719C210.335 139.705 210.37 139.698 210.406 139.698H213.906C213.942 139.697 213.977 139.703 214.01 139.716C214.043 139.729 214.073 139.749 214.099 139.773C214.124 139.798 214.144 139.828 214.158 139.861C214.172 139.893 214.179 139.928 214.179 139.964C214.191 140.003 214.191 140.044 214.179 140.083C214.175 140.121 214.158 140.155 214.13 140.181Z" fill="#F4F5F8"/>
<path d="M220.5 145.683H216.384C216.355 145.687 216.326 145.685 216.298 145.677C216.27 145.668 216.245 145.654 216.223 145.634C216.195 145.614 216.172 145.588 216.155 145.557C216.138 145.527 216.127 145.494 216.124 145.46C216.121 145.425 216.125 145.391 216.136 145.358C216.147 145.325 216.165 145.295 216.188 145.27L220.542 139.824C220.562 139.796 220.588 139.773 220.618 139.756C220.648 139.739 220.682 139.728 220.716 139.725C220.751 139.722 220.785 139.726 220.818 139.737C220.851 139.748 220.881 139.766 220.906 139.789C220.943 139.827 220.971 139.872 220.99 139.922C220.99 139.922 220.99 139.922 220.99 139.964V139.999V145.172H221.494C221.563 145.172 221.629 145.199 221.677 145.248C221.726 145.296 221.753 145.362 221.753 145.431C221.753 145.5 221.726 145.566 221.677 145.614C221.629 145.663 221.563 145.69 221.494 145.69H220.99V146.985C220.99 147.02 220.983 147.054 220.97 147.086C220.956 147.118 220.936 147.146 220.912 147.171C220.887 147.195 220.857 147.214 220.825 147.226C220.793 147.239 220.759 147.245 220.724 147.244C220.656 147.242 220.591 147.214 220.543 147.166C220.495 147.118 220.467 147.053 220.465 146.985L220.5 145.683ZM220.5 145.165V140.748L216.909 145.2L220.5 145.165Z" fill="#F4F5F8"/>
<path d="M223.475 146.481C223.45 146.456 223.43 146.427 223.417 146.394C223.403 146.362 223.396 146.327 223.396 146.292C223.396 146.257 223.403 146.222 223.417 146.19C223.43 146.157 223.45 146.128 223.475 146.103C223.527 146.052 223.598 146.023 223.671 146.023C223.744 146.023 223.815 146.052 223.867 146.103C224.054 146.29 224.275 146.438 224.519 146.539C224.763 146.64 225.024 146.692 225.288 146.692C225.552 146.692 225.813 146.64 226.057 146.539C226.301 146.438 226.522 146.29 226.709 146.103C226.895 145.92 227.043 145.702 227.144 145.462C227.244 145.222 227.297 144.964 227.297 144.703C227.301 144.438 227.251 144.175 227.152 143.93C227.052 143.684 226.904 143.461 226.717 143.274C226.53 143.087 226.307 142.939 226.061 142.839C225.816 142.74 225.553 142.69 225.288 142.694C225.027 142.696 224.769 142.75 224.529 142.852C224.288 142.954 224.071 143.102 223.888 143.289C223.864 143.316 223.835 143.337 223.803 143.352C223.77 143.367 223.735 143.374 223.699 143.374C223.663 143.374 223.628 143.367 223.595 143.352C223.563 143.337 223.534 143.316 223.51 143.289C223.478 143.27 223.453 143.24 223.44 143.205C223.437 143.193 223.437 143.182 223.44 143.17C223.433 143.142 223.433 143.114 223.44 143.086C223.44 143.086 223.44 143.051 223.44 143.03L223.797 139.985C223.797 139.947 223.807 139.91 223.825 139.877C223.844 139.844 223.87 139.816 223.902 139.796C223.925 139.773 223.952 139.754 223.982 139.742C224.012 139.73 224.045 139.725 224.077 139.726H227.577C227.616 139.72 227.656 139.722 227.694 139.733C227.732 139.743 227.767 139.762 227.798 139.788C227.828 139.813 227.852 139.845 227.868 139.881C227.885 139.917 227.894 139.956 227.894 139.996C227.894 140.035 227.885 140.074 227.868 140.11C227.852 140.146 227.828 140.178 227.798 140.203C227.767 140.229 227.732 140.248 227.694 140.258C227.656 140.269 227.616 140.271 227.577 140.265H224.294L224.028 142.512C224.415 142.285 224.854 142.164 225.303 142.161C225.751 142.159 226.192 142.275 226.581 142.499C226.97 142.722 227.293 143.044 227.517 143.432C227.741 143.821 227.858 144.262 227.857 144.71C227.862 145.046 227.799 145.38 227.673 145.691C227.547 146.002 227.36 146.285 227.122 146.523C226.638 146.999 225.988 147.268 225.309 147.272C224.966 147.27 224.627 147.199 224.311 147.063C223.996 146.927 223.712 146.729 223.475 146.481Z" fill="#F4F5F8"/>
<path d="M230.65 141.315C230.902 140.829 231.28 140.42 231.744 140.129C232.208 139.839 232.742 139.678 233.289 139.663C233.357 139.663 233.423 139.689 233.472 139.736C233.522 139.783 233.551 139.847 233.555 139.915C233.557 139.985 233.532 140.053 233.485 140.105C233.438 140.158 233.373 140.19 233.303 140.195C232.845 140.21 232.399 140.347 232.012 140.594C231.625 140.84 231.312 141.186 231.105 141.595C230.846 142.067 230.664 142.577 230.566 143.107C230.947 142.673 231.468 142.385 232.039 142.293C232.61 142.201 233.194 142.311 233.693 142.604C234.191 142.897 234.571 143.355 234.769 143.898C234.966 144.441 234.968 145.036 234.774 145.581C234.58 146.125 234.203 146.585 233.706 146.881C233.21 147.177 232.626 147.291 232.054 147.202C231.483 147.114 230.96 146.83 230.576 146.398C230.192 145.966 229.971 145.414 229.95 144.836C229.939 144.671 229.939 144.504 229.95 144.339C229.925 143.288 230.166 142.248 230.65 141.315ZM230.475 144.759C230.471 144.806 230.471 144.852 230.475 144.899C230.479 144.925 230.479 144.951 230.475 144.976C230.509 145.491 230.741 145.973 231.123 146.319C231.506 146.666 232.008 146.85 232.524 146.833C233.039 146.817 233.528 146.6 233.887 146.229C234.246 145.858 234.447 145.363 234.447 144.847C234.447 144.33 234.246 143.835 233.887 143.464C233.528 143.093 233.039 142.876 232.524 142.86C232.008 142.843 231.506 143.027 231.123 143.374C230.741 143.72 230.509 144.202 230.475 144.717V144.759Z" fill="#F4F5F8"/>
<path d="M183.899 160.268L118.078 160.441L118.087 163.675L183.908 163.502L183.899 160.268Z" fill="#92949C"/>
<path d="M164.689 167.508L118.09 167.63L118.099 170.864L164.697 170.742L164.689 167.508Z" fill="#92949C"/>
<path d="M207.627 106.104L174.804 106.189L174.813 109.423L207.636 109.337L207.627 106.104Z" fill="#92949C"/>
<path d="M248.927 114.827H102.403V186.64H248.927V114.827Z" fill="#48A069"/>
<path opacity="0.2" d="M248.927 114.827H102.403V186.64H248.927V114.827Z" fill="#00313A"/>
<path d="M248.927 127.588H102.403V199.401H248.927V127.588Z" fill="#48A069"/>
<path opacity="0.3" d="M248.927 127.588H102.403V199.401H248.927V127.588Z" fill="#00313A"/>
<path d="M248.927 140.748H102.403V199.408H248.927V140.748Z" fill="#48A069"/>
<path opacity="0.2" d="M248.927 140.748H102.403V199.408H248.927V140.748Z" fill="#00313A"/>
<path d="M244.405 232.7L91.742 211V85.7L96.642 89.326C98.9931 91.0751 101.771 92.1606 104.685 92.469L244.405 107.4V232.7Z" fill="#48A069"/>
<path d="M91.9565 91.038L91.5252 91.5894L92.628 92.4519L93.0592 91.9005L91.9565 91.038Z" fill="#F4F5F8"/>
<path d="M234.5 113L231.7 112.685L231.777 111.985L234.577 112.3L234.5 113ZM229.558 112.447L226.758 112.132L226.835 111.432L229.635 111.747L229.558 112.447ZM224.616 111.894L221.816 111.579L221.893 110.879L224.693 111.201L224.616 111.894ZM219.674 111.341L216.874 111.026L216.951 110.326L219.751 110.641L219.674 111.341ZM214.732 110.788L211.932 110.473L212.009 109.773L214.809 110.088L214.732 110.788ZM209.832 110.235L207.032 109.92L207.109 109.22L209.909 109.535L209.832 110.235ZM204.89 109.689L202.09 109.367L202.167 108.667L204.967 108.982L204.89 109.689ZM199.948 109.136L197.148 108.821L197.225 108.121L200.025 108.436L199.948 109.136ZM195.006 108.583L192.206 108.268L192.283 107.568L195.083 107.883L195.006 108.583ZM190.071 108.03L187.271 107.715L187.348 107.015L190.148 107.33L190.071 108.03ZM185.129 107.477L182.329 107.162L182.413 106.462L185.213 106.777L185.129 107.477ZM180.187 106.924L177.387 106.609L177.464 105.909L180.264 106.224L180.187 106.924ZM175.245 106.371L172.445 106.056L172.522 105.356L175.322 105.671L175.245 106.371ZM170.303 105.825L167.503 105.503L167.58 104.803L170.38 105.118L170.303 105.825ZM165.34 105.3L162.54 104.985L162.617 104.285L165.417 104.6L165.34 105.3ZM160.398 104.747L157.598 104.432L157.675 103.732L160.475 104.047L160.398 104.747ZM155.456 104.194L152.656 103.879L152.733 103.179L155.533 103.501L155.456 104.194ZM150.514 103.641L147.714 103.326L147.791 102.626L150.591 102.941L150.514 103.641ZM145.6 103.06L142.8 102.745L142.877 102.045L145.677 102.36L145.6 103.06ZM140.665 102.507L137.865 102.192L137.949 101.492L140.749 101.807L140.665 102.507ZM135.723 101.961L132.923 101.639L133 100.939L135.8 101.254L135.723 101.961ZM130.781 101.408L127.981 101.093L128.058 100.393L130.858 100.708L130.781 101.408ZM125.839 100.855L123.039 100.54L123.116 99.84L125.916 100.155L125.839 100.855ZM120.939 100.302L118.139 99.987L118.216 99.287L121.016 99.602L120.939 100.302ZM115.997 99.749L113.197 99.434L113.281 98.734L116.081 99.049L115.997 99.749ZM111.055 99.196L108.255 98.881L108.332 98.181L111.132 98.496L111.055 99.196ZM106.113 98.643L104.433 98.461C104.041 98.412 103.656 98.356 103.271 98.286L103.397 97.586C103.768 97.649 104.139 97.705 104.51 97.747L106.19 97.936L106.113 98.643ZM101.164 97.761C100.243 97.4621 99.3489 97.0875 98.49 96.641L98.819 96.018C99.6406 96.4481 100.498 96.8065 101.381 97.089L101.164 97.761ZM96.6 95.5C96.369 95.332 96.138 95.164 95.9 94.989L94.325 93.757L94.752 93.204L96.327 94.436C96.544 94.604 96.768 94.765 96.992 94.926L96.6 95.5Z" fill="#F4F5F8"/>
<path d="M238.406 114.442H237.706V113.357L236.621 113.231L236.698 112.538L238.406 112.727V114.442Z" fill="#F4F5F8"/>
<path d="M238.406 223.523H237.706V220.688H238.406V223.523ZM238.406 218.56H237.706V215.725H238.406V218.56ZM238.406 213.604H237.706V210.769H238.406V213.604ZM238.406 208.648H237.706V205.813H238.406V208.648ZM238.406 203.685H237.706V200.885H238.406V203.685ZM238.406 198.729H237.706V195.894H238.406V198.729ZM238.406 193.773H237.706V190.938H238.406V193.773ZM238.406 188.81H237.706V186.01H238.406V188.81ZM238.406 183.854H237.706V181.019H238.406V183.854ZM238.406 178.898H237.706V176.063H238.406V178.898ZM238.406 173.942H237.706V171.1H238.406V173.942ZM238.406 168.979H237.706V166.179H238.406V168.979ZM238.406 164.023H237.706V161.188H238.406V164.023ZM238.406 159.067H237.706V156.232H238.406V159.067ZM238.406 154.104H237.706V151.304H238.406V154.104ZM238.406 149.148H237.706V146.313H238.406V149.148ZM238.406 144.192H237.706V141.357H238.406V144.192ZM238.406 139.229H237.706V136.429H238.406V139.229ZM238.406 134.273H237.706V131.438H238.406V134.273ZM238.406 129.317H237.706V126.482H238.406V129.317ZM238.406 124.361H237.706V121.526H238.406V124.361ZM238.406 119.398H237.706V116.598H238.406V119.398Z" fill="#F4F5F8"/>
<path d="M238.406 227.45L236.614 227.184L236.719 226.491L237.706 226.638V225.644H238.406V227.45Z" fill="#F4F5F8"/>
<path d="M234.5 226.876L231.7 226.463L231.798 225.763L234.598 226.176L234.5 226.876ZM229.6 226.176L226.8 225.763L226.905 225.063L229.705 225.476L229.6 226.176ZM224.7 225.476L221.9 225.063L222.005 224.363L224.805 224.776L224.7 225.476ZM219.8 224.776L217 224.363L217.105 223.663L219.905 224.076L219.8 224.776ZM214.9 224.076L212.1 223.663L212.198 222.963L214.998 223.376L214.9 224.076ZM210 223.376L207.2 222.963L207.298 222.263L210.098 222.676L210 223.376ZM205.1 222.676L202.3 222.263L202.405 221.563L205.205 221.976L205.1 222.676ZM200.2 221.976L197.4 221.563L197.505 220.863L200.305 221.276L200.2 221.976ZM195.3 221.276L192.5 220.863L192.605 220.163L195.405 220.576L195.3 221.276ZM190.4 220.576L187.6 220.163L187.705 219.463L190.505 219.883L190.4 220.576ZM185.5 219.876L182.7 219.463L182.798 218.763L185.598 219.176L185.5 219.876ZM180.6 219.176L177.8 218.763L177.905 218.063L180.705 218.476L180.6 219.176ZM175.7 218.476L172.9 218.063L173.005 217.363L175.805 217.776L175.7 218.476ZM170.8 217.776L168 217.363L168.105 216.663L170.905 217.083L170.8 217.776ZM165.9 217.076L163.1 216.663L163.205 215.963L166.005 216.376L165.9 217.076ZM161 216.376L158.2 215.963L158.298 215.263L161.098 215.683L161 216.376ZM156.1 215.676L153.3 215.263L153.398 214.563L156.198 214.976L156.1 215.676ZM151.2 214.976L148.4 214.563L148.505 213.863L151.305 214.276L151.2 214.976ZM146.3 214.276L143.5 213.863L143.605 213.163L146.405 213.576L146.3 214.276ZM141.4 213.576L138.6 213.163L138.705 212.463L141.505 212.883L141.4 213.576ZM136.5 212.876L133.7 212.463L133.798 211.763L136.598 212.176L136.5 212.876ZM131.6 212.176L128.8 211.763L128.905 211.063L131.705 211.483L131.6 212.176ZM126.7 211.476L123.9 211.063L124.005 210.363L126.805 210.776L126.7 211.476ZM121.8 210.776L119 210.363L119.105 209.663L121.905 210.083L121.8 210.776ZM116.9 210.076L114.1 209.663L114.205 208.963L117.005 209.376L116.9 210.076ZM112 209.376L109.2 208.963L109.298 208.263L112.098 208.683L112 209.376ZM107.1 208.676L104.3 208.263L104.405 207.563L107.205 207.976L107.1 208.676ZM102.2 207.976L99.4 207.563L99.505 206.863L102.305 207.283L102.2 207.976ZM97.3 207.276L94.5 206.863L94.605 206.163L97.405 206.576L97.3 207.276Z" fill="#F4F5F8"/>
<path d="M92.4016 205.721L92.2966 206.414L93.6826 206.624L93.7876 205.931L92.4016 205.721Z" fill="#F4F5F8"/>
<path d="M224.721 176.231C228.081 176.231 230.804 173.128 230.804 169.301C230.804 165.474 228.081 162.371 224.721 162.371C221.361 162.371 218.638 165.474 218.638 169.301C218.638 173.128 221.361 176.231 224.721 176.231Z" fill="#F4F5F8"/>
<path d="M227.556 169.301C227.486 169.846 227.26 170.359 226.906 170.779C226.552 171.198 226.084 171.507 225.559 171.668C225.034 171.829 224.474 171.835 223.945 171.685C223.417 171.535 222.943 171.237 222.58 170.824C222.217 170.412 221.98 169.904 221.899 169.361C221.817 168.818 221.894 168.262 222.12 167.762C222.346 167.261 222.712 166.836 223.173 166.538C223.634 166.24 224.172 166.081 224.721 166.081C225.523 166.135 226.271 166.504 226.802 167.107C227.333 167.71 227.604 168.499 227.556 169.301Z" fill="#92949C"/>
<path d="M63.8366 3.63767C63.4417 4.44788 62.8889 5.17541 62.2097 5.7376C62.1623 5.7376 62.1307 5.7376 62.0833 5.7376C61.2778 5.7376 60.567 6.20058 60.1879 6.86197C60.0457 6.91158 59.8878 6.94465 59.7298 6.99425L57.8186 6.26672C57.5185 5.30769 56.8709 4.51402 56.0496 4.01797C55.9706 3.96837 55.8916 3.9353 55.8127 3.88569C55.6547 3.80302 55.481 3.72035 55.323 3.65421C56.0654 1.52121 58.024 0 60.3301 0C61.799 0 63.1258 0.61179 64.1051 1.62042C63.9313 2.21567 63.8366 2.844 63.8366 3.50539C63.8366 3.555 63.8366 3.58807 63.8366 3.63767Z" fill="#00313A"/>
<path d="M62.0833 5.7376C62.1307 5.7376 62.1623 5.7376 62.2097 5.7376C61.6095 6.23365 60.9303 6.63048 60.1879 6.86197C60.567 6.18404 61.2778 5.7376 62.0833 5.7376Z" fill="#00313A"/>
<path d="M57.9924 7.12652C57.9608 6.82889 57.8976 6.53127 57.8186 6.26672L59.7298 6.99425C59.3034 7.09346 58.8611 7.14306 58.3873 7.14306C58.2609 7.14306 58.1188 7.14306 57.9924 7.12652Z" fill="#00313A"/>
<path d="M64.3736 1.93456C65.195 2.91012 65.6846 4.19984 65.6846 5.6053C65.6846 6.33284 65.5583 7.0273 65.3055 7.67216C64.4052 6.58086 63.8524 5.1754 63.8208 3.63765C64.0893 3.10854 64.2789 2.52982 64.3736 1.93456Z" fill="#00313A"/>
<path d="M63.8366 3.50539C63.8366 2.844 63.9313 2.21567 64.1051 1.62042C64.1999 1.71963 64.2947 1.81888 64.3895 1.93463C64.2789 2.52988 64.1051 3.10856 63.8366 3.63767C63.8366 3.58807 63.8366 3.555 63.8366 3.50539Z" fill="#00313A"/>
<path d="M55.4624 5.76936C55.5414 6.71184 55.8257 7.58819 56.2838 8.33226C56.2364 8.56375 56.189 8.79524 56.1416 9.04326C54.3726 10.5479 53.2353 12.8463 53.2353 15.4257C53.2353 17.0131 53.6618 18.4847 54.4042 19.7413C54.3726 20.0389 54.3568 20.3035 54.341 20.5515C54.3252 20.9153 53.9172 21.578 54.0752 21.9748C52.5904 22.0905 51.1688 22.4047 49.7947 22.8512C45.2141 22.0409 43 16.3517 43 12.2841C43 6.94333 47.1384 2.62773 52.2244 2.62773C53.488 2.62773 54.6727 2.89229 55.7625 3.3718C55.5414 3.98359 55.4308 4.62845 55.4308 5.32292C55.4466 5.47173 55.4466 5.62054 55.4624 5.76936Z" fill="#00313A"/>
<path d="M52.7641 15.7081C52.7641 13.1287 53.9174 10.8469 55.6865 9.34222C55.0705 12.5665 54.2175 17.1963 53.949 20.0403C53.2066 18.7836 52.7641 17.2955 52.7641 15.7081Z" fill="#00313A"/>
<path d="M54.2015 22.289C53.0011 22.785 51.8796 23 50.8372 22.9669L50.8687 22.7354C50.6476 22.8015 50.4265 22.8511 50.2054 22.9173C50.0632 22.9008 49.9368 22.8842 49.7947 22.8512C51.153 22.3882 52.5904 22.0905 54.0752 21.9748C54.1068 22.0905 54.1541 22.1898 54.2015 22.289Z" fill="#00313A"/>
<path d="M50.8687 22.7354L50.8372 22.9669C50.6319 22.9669 50.4107 22.9504 50.2054 22.9173C50.4264 22.8512 50.6477 22.785 50.8687 22.7354Z" fill="#00313A"/>
<path d="M55.6865 9.34222C55.7339 9.0942 55.7811 8.86267 55.8285 8.63119C55.9075 8.76347 56.0023 8.89574 56.0971 9.02802C55.9391 9.12723 55.8129 9.22647 55.6865 9.34222Z" fill="#00313A"/>
<path d="M55.2915 21.7434C55.1809 21.826 55.0704 21.8922 54.9598 21.9583C54.6597 21.9749 54.3754 21.9914 54.0911 22.0079C53.9332 21.6111 53.87 21.2143 53.8858 20.8505C53.9016 20.6025 53.9174 20.3379 53.949 20.0403C54.3122 20.6521 54.7703 21.2308 55.2915 21.7434Z" fill="#00313A"/>
<path d="M57.266 10.202C56.808 11.624 56.9027 13.2114 57.4714 14.6168C57.7399 15.2782 57.8821 15.9892 57.8821 16.7498C57.8821 18.5852 56.8394 20.6686 55.2915 21.7434C54.7702 21.2473 54.3123 20.6686 53.949 20.0403C54.2333 17.2128 55.0705 12.5665 55.6865 9.34222C55.8128 9.22647 55.955 9.12723 56.0971 9.02802C56.4288 9.491 56.8238 9.87134 57.266 10.202Z" fill="#00313A"/>
<path d="M54.9439 21.9417C54.8334 22.0079 54.7228 22.0575 54.6122 22.1071C54.47 22.1732 54.3279 22.2394 54.2015 22.289C54.1541 22.1898 54.1068 22.074 54.0752 21.9748C54.3595 21.9583 54.6596 21.9583 54.9439 21.9417Z" fill="#00313A"/>
<path d="M54.9914 6.05181C55.3705 6.31637 55.7653 6.53132 56.1918 6.71321C56.097 7.20926 55.9549 7.85412 55.8127 8.61472C55.3547 7.87065 55.0703 6.9943 54.9914 6.05181Z" fill="#00313A"/>
<path d="M58.0081 7.52339C58.0081 7.6722 57.9923 7.83755 57.9766 7.98636C57.2974 8.23439 56.6658 8.59812 56.0971 9.02802C56.0024 8.89574 55.8917 8.747 55.8127 8.61472C55.9549 7.85412 56.097 7.19272 56.1918 6.71321C56.7604 6.9447 57.3605 7.07695 57.9766 7.12655C58.0081 7.25883 58.0081 7.39111 58.0081 7.52339Z" fill="#00313A"/>
<path d="M56.0971 9.02802C56.6816 8.59812 57.2974 8.23439 57.9766 7.98636C57.9292 8.48241 57.7871 8.96193 57.566 9.39184C57.4396 9.6564 57.3291 9.92095 57.2343 10.202C56.8078 9.85482 56.4288 9.491 56.0971 9.02802Z" fill="#00313A"/>
<path d="M56.0338 4.01799C56.871 4.49751 57.5028 5.30772 57.8029 6.26674L56.3813 5.73762C56.3813 5.73762 56.3024 6.10139 56.176 6.71318C55.7495 6.54783 55.3547 6.31634 54.9756 6.05178C54.9598 5.90297 54.9598 5.75416 54.9598 5.60534C54.9598 4.92741 55.0703 4.26602 55.2915 3.65423C55.4652 3.72037 55.6232 3.80304 55.7811 3.88572C55.8759 3.93532 55.9549 3.98492 56.0338 4.01799Z" fill="#00313A"/>
<path d="M56.1918 6.71321C56.3181 6.10142 56.3971 5.73759 56.3971 5.73759L57.8186 6.26672C57.9134 6.54781 57.9608 6.82889 57.9924 7.12652C57.3606 7.07692 56.7604 6.9447 56.1918 6.71321Z" fill="#00313A"/>
<path d="M62.8825 21.578L61.919 10.8138C62.1401 10.7477 62.3612 10.6485 62.5824 10.5493C62.7403 10.4666 62.8035 10.2682 62.7245 10.1028C62.6613 9.97053 62.5192 9.90439 62.377 9.92093C63.1668 9.49102 63.846 8.8627 64.3356 8.10209C66.5469 9.55716 68 12.1201 68 15.0467C68 18.2049 66.2942 20.9332 63.8144 22.3056C63.4985 22.0906 63.1826 21.8756 62.8667 21.6607C62.8667 21.6276 62.8667 21.5946 62.8825 21.578Z" fill="#00313A"/>
</svg>
